%TF.GenerationSoftware,KiCad,Pcbnew,(6.0.1)*%
%TF.CreationDate,2022-02-03T04:09:52+01:00*%
%TF.ProjectId,ESP8266_12F_BASIC,45535038-3236-4365-9f31-32465f424153,rev?*%
%TF.SameCoordinates,Original*%
%TF.FileFunction,OtherDrawing,Comment*%
%FSLAX46Y46*%
G04 Gerber Fmt 4.6, Leading zero omitted, Abs format (unit mm)*
G04 Created by KiCad (PCBNEW (6.0.1)) date 2022-02-03 04:09:52*
%MOMM*%
%LPD*%
G01*
G04 APERTURE LIST*
%ADD10C,0.150000*%
%ADD11C,0.120000*%
G04 APERTURE END LIST*
D10*
X168275000Y-117475000D02*
X136525000Y-117475000D01*
X153035000Y-102235000D02*
X151765000Y-100965000D01*
X153035000Y-100965000D02*
X151765000Y-102235000D01*
X136525000Y-117475000D02*
X136525000Y-85725000D01*
X168275000Y-85725000D02*
X168275000Y-117475000D01*
X136525000Y-85725000D02*
X168275000Y-85725000D01*
X163195000Y-116205000D02*
X141605000Y-116205000D01*
X141605000Y-116205000D02*
X141605000Y-122555000D01*
X141605000Y-122555000D02*
X163195000Y-122555000D01*
X163195000Y-122555000D02*
X163195000Y-116205000D01*
D11*
%TO.C,U1*%
X145960000Y-74575000D02*
X153280000Y-67255000D01*
X144280000Y-67255000D02*
X160520000Y-67255000D01*
X144280000Y-74575000D02*
X144280000Y-67255000D01*
X154960000Y-74575000D02*
X160520000Y-69015000D01*
X148960000Y-74575000D02*
X156280000Y-67255000D01*
X160520000Y-67255000D02*
X160520000Y-74575000D01*
X151960000Y-74575000D02*
X159280000Y-67255000D01*
X144280000Y-70255000D02*
X147280000Y-67255000D01*
X144280000Y-73255000D02*
X150280000Y-67255000D01*
X157960000Y-74575000D02*
X160520000Y-72015000D01*
X160520000Y-74575000D02*
X144280000Y-74575000D01*
%TD*%
M02*
