%TF.GenerationSoftware,KiCad,Pcbnew,(6.0.1)*%
%TF.CreationDate,2022-02-03T04:09:52+01:00*%
%TF.ProjectId,ESP8266_12F_BASIC,45535038-3236-4365-9f31-32465f424153,rev?*%
%TF.SameCoordinates,Original*%
%TF.FileFunction,Other,Comment*%
%FSLAX46Y46*%
G04 Gerber Fmt 4.6, Leading zero omitted, Abs format (unit mm)*
G04 Created by KiCad (PCBNEW (6.0.1)) date 2022-02-03 04:09:52*
%MOMM*%
%LPD*%
G01*
G04 APERTURE LIST*
%ADD10C,0.150000*%
G04 APERTURE END LIST*
D10*
%TO.C,U1*%
X149578095Y-72541666D02*
X150054285Y-72541666D01*
X149482857Y-72827380D02*
X149816190Y-71827380D01*
X150149523Y-72827380D01*
X150482857Y-72160714D02*
X150482857Y-72827380D01*
X150482857Y-72255952D02*
X150530476Y-72208333D01*
X150625714Y-72160714D01*
X150768571Y-72160714D01*
X150863809Y-72208333D01*
X150911428Y-72303571D01*
X150911428Y-72827380D01*
X151244761Y-72160714D02*
X151625714Y-72160714D01*
X151387619Y-71827380D02*
X151387619Y-72684523D01*
X151435238Y-72779761D01*
X151530476Y-72827380D01*
X151625714Y-72827380D01*
X152340000Y-72779761D02*
X152244761Y-72827380D01*
X152054285Y-72827380D01*
X151959047Y-72779761D01*
X151911428Y-72684523D01*
X151911428Y-72303571D01*
X151959047Y-72208333D01*
X152054285Y-72160714D01*
X152244761Y-72160714D01*
X152340000Y-72208333D01*
X152387619Y-72303571D01*
X152387619Y-72398809D01*
X151911428Y-72494047D01*
X152816190Y-72160714D02*
X152816190Y-72827380D01*
X152816190Y-72255952D02*
X152863809Y-72208333D01*
X152959047Y-72160714D01*
X153101904Y-72160714D01*
X153197142Y-72208333D01*
X153244761Y-72303571D01*
X153244761Y-72827380D01*
X153720952Y-72160714D02*
X153720952Y-72827380D01*
X153720952Y-72255952D02*
X153768571Y-72208333D01*
X153863809Y-72160714D01*
X154006666Y-72160714D01*
X154101904Y-72208333D01*
X154149523Y-72303571D01*
X154149523Y-72827380D01*
X155054285Y-72827380D02*
X155054285Y-72303571D01*
X155006666Y-72208333D01*
X154911428Y-72160714D01*
X154720952Y-72160714D01*
X154625714Y-72208333D01*
X155054285Y-72779761D02*
X154959047Y-72827380D01*
X154720952Y-72827380D01*
X154625714Y-72779761D01*
X154578095Y-72684523D01*
X154578095Y-72589285D01*
X154625714Y-72494047D01*
X154720952Y-72446428D01*
X154959047Y-72446428D01*
X155054285Y-72398809D01*
X146358571Y-70277380D02*
X146358571Y-69277380D01*
X146930000Y-70277380D02*
X146501428Y-69705952D01*
X146930000Y-69277380D02*
X146358571Y-69848809D01*
X147358571Y-69753571D02*
X147691904Y-69753571D01*
X147834761Y-70277380D02*
X147358571Y-70277380D01*
X147358571Y-69277380D01*
X147834761Y-69277380D01*
X148263333Y-69753571D02*
X148596666Y-69753571D01*
X148739523Y-70277380D02*
X148263333Y-70277380D01*
X148263333Y-69277380D01*
X148739523Y-69277380D01*
X149168095Y-70277380D02*
X149168095Y-69277380D01*
X149549047Y-69277380D01*
X149644285Y-69325000D01*
X149691904Y-69372619D01*
X149739523Y-69467857D01*
X149739523Y-69610714D01*
X149691904Y-69705952D01*
X149644285Y-69753571D01*
X149549047Y-69801190D01*
X149168095Y-69801190D01*
X150168095Y-69896428D02*
X150930000Y-69896428D01*
X151596666Y-69277380D02*
X151787142Y-69277380D01*
X151882380Y-69325000D01*
X151977619Y-69420238D01*
X152025238Y-69610714D01*
X152025238Y-69944047D01*
X151977619Y-70134523D01*
X151882380Y-70229761D01*
X151787142Y-70277380D01*
X151596666Y-70277380D01*
X151501428Y-70229761D01*
X151406190Y-70134523D01*
X151358571Y-69944047D01*
X151358571Y-69610714D01*
X151406190Y-69420238D01*
X151501428Y-69325000D01*
X151596666Y-69277380D01*
X152453809Y-69277380D02*
X152453809Y-70086904D01*
X152501428Y-70182142D01*
X152549047Y-70229761D01*
X152644285Y-70277380D01*
X152834761Y-70277380D01*
X152930000Y-70229761D01*
X152977619Y-70182142D01*
X153025238Y-70086904D01*
X153025238Y-69277380D01*
X153358571Y-69277380D02*
X153930000Y-69277380D01*
X153644285Y-70277380D02*
X153644285Y-69277380D01*
X154930000Y-69277380D02*
X155596666Y-69277380D01*
X154930000Y-70277380D01*
X155596666Y-70277380D01*
X156168095Y-69277380D02*
X156358571Y-69277380D01*
X156453809Y-69325000D01*
X156549047Y-69420238D01*
X156596666Y-69610714D01*
X156596666Y-69944047D01*
X156549047Y-70134523D01*
X156453809Y-70229761D01*
X156358571Y-70277380D01*
X156168095Y-70277380D01*
X156072857Y-70229761D01*
X155977619Y-70134523D01*
X155930000Y-69944047D01*
X155930000Y-69610714D01*
X155977619Y-69420238D01*
X156072857Y-69325000D01*
X156168095Y-69277380D01*
X157025238Y-70277380D02*
X157025238Y-69277380D01*
X157596666Y-70277380D01*
X157596666Y-69277380D01*
X158072857Y-69753571D02*
X158406190Y-69753571D01*
X158549047Y-70277380D02*
X158072857Y-70277380D01*
X158072857Y-69277380D01*
X158549047Y-69277380D01*
%TO.C,H3*%
X139725000Y-117475000D02*
G75*
G03*
X139725000Y-117475000I-3200000J0D01*
G01*
%TO.C,H1*%
X139725000Y-85725000D02*
G75*
G03*
X139725000Y-85725000I-3200000J0D01*
G01*
%TO.C,H4*%
X171475000Y-117475000D02*
G75*
G03*
X171475000Y-117475000I-3200000J0D01*
G01*
%TO.C,H2*%
X171475000Y-85725000D02*
G75*
G03*
X171475000Y-85725000I-3200000J0D01*
G01*
%TD*%
M02*
