M48
; DRILL file {KiCad (6.0.1)} date Thu Feb  3 22:36:09 2022
; FORMAT={-:-/ absolute / inch / decimal}
; #@! TF.CreationDate,2022-02-03T22:36:09+01:00
; #@! TF.GenerationSoftware,Kicad,Pcbnew,(6.0.1)
; #@! TF.FileFunction,Plated,1,2,PTH
FMAT,2
INCH
; #@! TA.AperFunction,Plated,PTH,ViaDrill
T1C0.0157
; #@! TA.AperFunction,Plated,PTH,ComponentDrill
T2C0.0295
; #@! TA.AperFunction,Plated,PTH,ComponentDrill
T3C0.0315
; #@! TA.AperFunction,Plated,PTH,ComponentDrill
T4C0.0374
; #@! TA.AperFunction,Plated,PTH,ComponentDrill
T5C0.0394
; #@! TA.AperFunction,Plated,PTH,ComponentDrill
T6C0.0591
%
G90
G05
T1
X5.06Y-3.82
X5.09Y-4.74
X5.375Y-3.1
X5.42Y-3.81
X5.42Y-3.97
X5.425Y-3.025
X5.45Y-4.825
X5.525Y-3.3
X5.625Y-3.525
X5.78Y-3.2234
X5.8Y-5.2
X5.83Y-4.0
X5.88Y-3.3022
X5.98Y-3.0659
X6.0Y-5.2
X6.08Y-3.38
X6.13Y-3.94
X6.18Y-2.9872
X6.2Y-5.2
X6.3Y-4.44
X6.3Y-4.52
X6.44Y-3.14
X6.45Y-4.375
X6.52Y-3.24
X6.6Y-3.2
X6.6Y-4.8
X6.8Y-3.2
X6.8Y-3.4
X6.8Y-3.6
X6.8Y-4.4
X7.0Y-3.4
X7.0Y-3.6
X7.2Y-3.8
X7.2Y-4.0
T2
X6.6Y-4.3142
X6.65Y-4.3142
X6.7Y-4.3142
T3
X4.87Y-3.8831
X4.87Y-4.0169
X5.3181Y-3.61
X5.4166Y-3.61
T4
X5.6797Y-4.68
X5.7781Y-4.68
X5.8766Y-4.68
X5.975Y-4.68
T5
X5.78Y-4.39
X5.88Y-4.39
X5.98Y-4.39
X6.08Y-4.39
X6.18Y-4.39
X6.2108Y-4.68
X6.3092Y-4.68
X6.925Y-3.7865
X6.925Y-3.9833
T6
X5.06Y-3.67
X5.09Y-3.49
X5.13Y-3.25
X5.25Y-3.125
X6.475Y-2.95
X6.55Y-3.675
X6.625Y-3.05
T0
M30
