%TF.GenerationSoftware,KiCad,Pcbnew,(6.0.1)*%
%TF.CreationDate,2022-02-03T22:35:59+01:00*%
%TF.ProjectId,ESP8266_12F_BASIC,45535038-3236-4365-9f31-32465f424153,rev?*%
%TF.SameCoordinates,Original*%
%TF.FileFunction,Soldermask,Bot*%
%TF.FilePolarity,Negative*%
%FSLAX46Y46*%
G04 Gerber Fmt 4.6, Leading zero omitted, Abs format (unit mm)*
G04 Created by KiCad (PCBNEW (6.0.1)) date 2022-02-03 22:35:59*
%MOMM*%
%LPD*%
G01*
G04 APERTURE LIST*
G04 Aperture macros list*
%AMRoundRect*
0 Rectangle with rounded corners*
0 $1 Rounding radius*
0 $2 $3 $4 $5 $6 $7 $8 $9 X,Y pos of 4 corners*
0 Add a 4 corners polygon primitive as box body*
4,1,4,$2,$3,$4,$5,$6,$7,$8,$9,$2,$3,0*
0 Add four circle primitives for the rounded corners*
1,1,$1+$1,$2,$3*
1,1,$1+$1,$4,$5*
1,1,$1+$1,$6,$7*
1,1,$1+$1,$8,$9*
0 Add four rect primitives between the rounded corners*
20,1,$1+$1,$2,$3,$4,$5,0*
20,1,$1+$1,$4,$5,$6,$7,0*
20,1,$1+$1,$6,$7,$8,$9,0*
20,1,$1+$1,$8,$9,$2,$3,0*%
G04 Aperture macros list end*
%ADD10C,0.250000*%
%ADD11C,3.000000*%
%ADD12C,3.200000*%
%ADD13R,1.600000X1.600000*%
%ADD14C,1.600000*%
%ADD15R,1.700000X1.700000*%
%ADD16O,1.700000X1.700000*%
%ADD17C,1.500000*%
%ADD18R,1.050000X1.500000*%
%ADD19O,1.050000X1.500000*%
%ADD20R,2.000000X2.000000*%
%ADD21C,2.000000*%
%ADD22RoundRect,0.250000X0.600000X0.750000X-0.600000X0.750000X-0.600000X-0.750000X0.600000X-0.750000X0*%
%ADD23O,1.700000X2.000000*%
%ADD24RoundRect,0.250000X0.600000X0.725000X-0.600000X0.725000X-0.600000X-0.725000X0.600000X-0.725000X0*%
%ADD25O,1.700000X1.950000*%
G04 APERTURE END LIST*
D10*
X152367523Y-128412761D02*
X152367523Y-126412761D01*
X151700857Y-127841333D01*
X151034190Y-126412761D01*
X151034190Y-128412761D01*
X150081809Y-128412761D02*
X150081809Y-126412761D01*
X150081809Y-127365142D02*
X148938952Y-127365142D01*
X148938952Y-128412761D02*
X148938952Y-126412761D01*
X147986571Y-127650857D02*
X146462761Y-127650857D01*
X145700857Y-126412761D02*
X144367523Y-126412761D01*
X145700857Y-128412761D01*
X144367523Y-128412761D01*
X142558000Y-128412761D02*
X143700857Y-128412761D01*
X143129428Y-128412761D02*
X143129428Y-126412761D01*
X143319904Y-126698476D01*
X143510380Y-126888952D01*
X143700857Y-126984190D01*
X141605619Y-128412761D02*
X141224666Y-128412761D01*
X141034190Y-128317523D01*
X140938952Y-128222285D01*
X140748476Y-127936571D01*
X140653238Y-127555619D01*
X140653238Y-126793714D01*
X140748476Y-126603238D01*
X140843714Y-126508000D01*
X141034190Y-126412761D01*
X141415142Y-126412761D01*
X141605619Y-126508000D01*
X141700857Y-126603238D01*
X141796095Y-126793714D01*
X141796095Y-127269904D01*
X141700857Y-127460380D01*
X141605619Y-127555619D01*
X141415142Y-127650857D01*
X141034190Y-127650857D01*
X140843714Y-127555619D01*
X140748476Y-127460380D01*
X140653238Y-127269904D01*
X164258142Y-128412761D02*
X164258142Y-126412761D01*
X163305761Y-128412761D02*
X163305761Y-126412761D01*
X162162904Y-128412761D01*
X162162904Y-126412761D01*
X161210523Y-128412761D02*
X161210523Y-126412761D01*
X160448619Y-126412761D01*
X160258142Y-126508000D01*
X160162904Y-126603238D01*
X160067666Y-126793714D01*
X160067666Y-127079428D01*
X160162904Y-127269904D01*
X160258142Y-127365142D01*
X160448619Y-127460380D01*
X161210523Y-127460380D01*
X159210523Y-126412761D02*
X159210523Y-128031809D01*
X159115285Y-128222285D01*
X159020047Y-128317523D01*
X158829571Y-128412761D01*
X158448619Y-128412761D01*
X158258142Y-128317523D01*
X158162904Y-128222285D01*
X158067666Y-128031809D01*
X158067666Y-126412761D01*
X157401000Y-126412761D02*
X156258142Y-126412761D01*
X156829571Y-128412761D02*
X156829571Y-126412761D01*
D11*
%TO.C,TP5*%
X130302000Y-82550000D03*
%TD*%
D12*
%TO.C,H3*%
X136525000Y-117475000D03*
%TD*%
D11*
%TO.C,TP4*%
X128524000Y-93218000D03*
%TD*%
D13*
%TO.C,C3*%
X137580379Y-91694000D03*
D14*
X135080379Y-91694000D03*
%TD*%
D15*
%TO.C,J3*%
X156972000Y-111506000D03*
D16*
X154432000Y-111506000D03*
X151892000Y-111506000D03*
X149352000Y-111506000D03*
X146812000Y-111506000D03*
%TD*%
D12*
%TO.C,H1*%
X136525000Y-85725000D03*
%TD*%
D17*
%TO.C,R1*%
X123698000Y-102030000D03*
X123698000Y-98630000D03*
%TD*%
D12*
%TO.C,H4*%
X168275000Y-117475000D03*
%TD*%
D11*
%TO.C,TP2*%
X164465000Y-74930000D03*
%TD*%
D18*
%TO.C,Q1*%
X167640000Y-109580000D03*
D19*
X168910000Y-109580000D03*
X170180000Y-109580000D03*
%TD*%
D11*
%TO.C,TP3*%
X166370000Y-93345000D03*
%TD*%
D12*
%TO.C,H2*%
X168275000Y-85725000D03*
%TD*%
D11*
%TO.C,TP7*%
X133350000Y-79375000D03*
%TD*%
%TO.C,TP6*%
X129286000Y-88646000D03*
%TD*%
%TO.C,TP1*%
X168275000Y-77470000D03*
%TD*%
D20*
%TO.C,BZ1*%
X175895000Y-101176785D03*
D21*
X175895000Y-96176785D03*
%TD*%
D22*
%TO.C,J1*%
X160254000Y-118872000D03*
D23*
X157754000Y-118872000D03*
%TD*%
D24*
%TO.C,J2*%
X151765000Y-118872000D03*
D25*
X149265000Y-118872000D03*
X146765000Y-118872000D03*
X144265000Y-118872000D03*
%TD*%
M02*
