%TF.GenerationSoftware,KiCad,Pcbnew,(6.0.1)*%
%TF.CreationDate,2022-02-03T22:35:59+01:00*%
%TF.ProjectId,ESP8266_12F_BASIC,45535038-3236-4365-9f31-32465f424153,rev?*%
%TF.SameCoordinates,Original*%
%TF.FileFunction,Legend,Bot*%
%TF.FilePolarity,Positive*%
%FSLAX46Y46*%
G04 Gerber Fmt 4.6, Leading zero omitted, Abs format (unit mm)*
G04 Created by KiCad (PCBNEW (6.0.1)) date 2022-02-03 22:35:59*
%MOMM*%
%LPD*%
G01*
G04 APERTURE LIST*
%ADD10C,0.150000*%
%ADD11C,0.120000*%
G04 APERTURE END LIST*
D10*
X160329571Y-125491714D02*
X160329571Y-124729809D01*
X159948619Y-125110761D02*
X160710523Y-125110761D01*
X160948619Y-123777428D02*
X160948619Y-124253619D01*
X160472428Y-124301238D01*
X160520047Y-124253619D01*
X160567666Y-124158380D01*
X160567666Y-123920285D01*
X160520047Y-123825047D01*
X160472428Y-123777428D01*
X160377190Y-123729809D01*
X160139095Y-123729809D01*
X160043857Y-123777428D01*
X159996238Y-123825047D01*
X159948619Y-123920285D01*
X159948619Y-124158380D01*
X159996238Y-124253619D01*
X160043857Y-124301238D01*
X160948619Y-123444095D02*
X159948619Y-123110761D01*
X160948619Y-122777428D01*
X143772000Y-123444095D02*
X143724380Y-123348857D01*
X143724380Y-123206000D01*
X143772000Y-123063142D01*
X143867238Y-122967904D01*
X143962476Y-122920285D01*
X144152952Y-122872666D01*
X144295809Y-122872666D01*
X144486285Y-122920285D01*
X144581523Y-122967904D01*
X144676761Y-123063142D01*
X144724380Y-123206000D01*
X144724380Y-123301238D01*
X144676761Y-123444095D01*
X144629142Y-123491714D01*
X144295809Y-123491714D01*
X144295809Y-123301238D01*
X144724380Y-123920285D02*
X143724380Y-123920285D01*
X144724380Y-124491714D01*
X143724380Y-124491714D01*
X144724380Y-124967904D02*
X143724380Y-124967904D01*
X143724380Y-125206000D01*
X143772000Y-125348857D01*
X143867238Y-125444095D01*
X143962476Y-125491714D01*
X144152952Y-125539333D01*
X144295809Y-125539333D01*
X144486285Y-125491714D01*
X144581523Y-125444095D01*
X144676761Y-125348857D01*
X144724380Y-125206000D01*
X144724380Y-124967904D01*
X148772619Y-123864666D02*
X149248809Y-124198000D01*
X148772619Y-124436095D02*
X149772619Y-124436095D01*
X149772619Y-124055142D01*
X149725000Y-123959904D01*
X149677380Y-123912285D01*
X149582142Y-123864666D01*
X149439285Y-123864666D01*
X149344047Y-123912285D01*
X149296428Y-123959904D01*
X149248809Y-124055142D01*
X149248809Y-124436095D01*
X149772619Y-123531333D02*
X148772619Y-122864666D01*
X149772619Y-122864666D02*
X148772619Y-123531333D01*
X158234000Y-124840904D02*
X158281619Y-124936142D01*
X158281619Y-125079000D01*
X158234000Y-125221857D01*
X158138761Y-125317095D01*
X158043523Y-125364714D01*
X157853047Y-125412333D01*
X157710190Y-125412333D01*
X157519714Y-125364714D01*
X157424476Y-125317095D01*
X157329238Y-125221857D01*
X157281619Y-125079000D01*
X157281619Y-124983761D01*
X157329238Y-124840904D01*
X157376857Y-124793285D01*
X157710190Y-124793285D01*
X157710190Y-124983761D01*
X157281619Y-124364714D02*
X158281619Y-124364714D01*
X157281619Y-123793285D01*
X158281619Y-123793285D01*
X157281619Y-123317095D02*
X158281619Y-123317095D01*
X158281619Y-123079000D01*
X158234000Y-122936142D01*
X158138761Y-122840904D01*
X158043523Y-122793285D01*
X157853047Y-122745666D01*
X157710190Y-122745666D01*
X157519714Y-122793285D01*
X157424476Y-122840904D01*
X157329238Y-122936142D01*
X157281619Y-123079000D01*
X157281619Y-123317095D01*
X146740571Y-125745714D02*
X146740571Y-124983809D01*
X146359619Y-125364761D02*
X147121523Y-125364761D01*
X147359619Y-124031428D02*
X147359619Y-124507619D01*
X146883428Y-124555238D01*
X146931047Y-124507619D01*
X146978666Y-124412380D01*
X146978666Y-124174285D01*
X146931047Y-124079047D01*
X146883428Y-124031428D01*
X146788190Y-123983809D01*
X146550095Y-123983809D01*
X146454857Y-124031428D01*
X146407238Y-124079047D01*
X146359619Y-124174285D01*
X146359619Y-124412380D01*
X146407238Y-124507619D01*
X146454857Y-124555238D01*
X147359619Y-123698095D02*
X146359619Y-123364761D01*
X147359619Y-123031428D01*
X152312619Y-124332904D02*
X152312619Y-123761476D01*
X151312619Y-124047190D02*
X152312619Y-124047190D01*
X152312619Y-123523380D02*
X151312619Y-122856714D01*
X152312619Y-122856714D02*
X151312619Y-123523380D01*
D11*
%TO.C,J1*%
X163104000Y-116122000D02*
X163104000Y-117372000D01*
X162054000Y-121622000D02*
X159004000Y-121622000D01*
X161004000Y-116422000D02*
X162804000Y-116422000D01*
X155194000Y-116412000D02*
X162814000Y-116412000D01*
X162804000Y-117172000D02*
X161004000Y-117172000D01*
X162814000Y-116412000D02*
X162814000Y-122382000D01*
X155204000Y-117172000D02*
X155204000Y-116422000D01*
X155204000Y-118672000D02*
X155954000Y-118672000D01*
X155954000Y-121622000D02*
X159004000Y-121622000D01*
X155954000Y-118672000D02*
X155954000Y-121622000D01*
X162814000Y-122382000D02*
X155194000Y-122382000D01*
X159504000Y-116422000D02*
X159504000Y-117172000D01*
X158504000Y-117172000D02*
X158504000Y-116422000D01*
X157004000Y-117172000D02*
X155204000Y-117172000D01*
X161854000Y-116122000D02*
X163104000Y-116122000D01*
X162804000Y-116422000D02*
X162804000Y-117172000D01*
X157004000Y-116422000D02*
X157004000Y-117172000D01*
X161004000Y-117172000D02*
X161004000Y-116422000D01*
X155204000Y-116422000D02*
X157004000Y-116422000D01*
X155194000Y-122382000D02*
X155194000Y-116412000D01*
X162054000Y-118672000D02*
X162054000Y-121622000D01*
X159504000Y-117172000D02*
X158504000Y-117172000D01*
X162804000Y-118672000D02*
X162054000Y-118672000D01*
X158504000Y-116422000D02*
X159504000Y-116422000D01*
%TO.C,J2*%
X145015000Y-116422000D02*
X151015000Y-116422000D01*
X142465000Y-121622000D02*
X148015000Y-121622000D01*
X153565000Y-118672000D02*
X153565000Y-121622000D01*
X141705000Y-116412000D02*
X154325000Y-116412000D01*
X143515000Y-117172000D02*
X141715000Y-117172000D01*
X145015000Y-117172000D02*
X145015000Y-116422000D01*
X154315000Y-117172000D02*
X152515000Y-117172000D01*
X154325000Y-116412000D02*
X154325000Y-122382000D01*
X152515000Y-116422000D02*
X154315000Y-116422000D01*
X141705000Y-122382000D02*
X141705000Y-116412000D01*
X141715000Y-118672000D02*
X142465000Y-118672000D01*
X152515000Y-117172000D02*
X152515000Y-116422000D01*
X154325000Y-122382000D02*
X141705000Y-122382000D01*
X143515000Y-116422000D02*
X143515000Y-117172000D01*
X141715000Y-116422000D02*
X143515000Y-116422000D01*
X153365000Y-116122000D02*
X154615000Y-116122000D01*
X142465000Y-118672000D02*
X142465000Y-121622000D01*
X141715000Y-117172000D02*
X141715000Y-116422000D01*
X153565000Y-121622000D02*
X148015000Y-121622000D01*
X154315000Y-116422000D02*
X154315000Y-117172000D01*
X154315000Y-118672000D02*
X153565000Y-118672000D01*
X151015000Y-117172000D02*
X145015000Y-117172000D01*
X154615000Y-116122000D02*
X154615000Y-117372000D01*
X151015000Y-116422000D02*
X151015000Y-117172000D01*
%TD*%
M02*
