%TF.GenerationSoftware,KiCad,Pcbnew,(6.0.1)*%
%TF.CreationDate,2022-02-03T04:09:52+01:00*%
%TF.ProjectId,ESP8266_12F_BASIC,45535038-3236-4365-9f31-32465f424153,rev?*%
%TF.SameCoordinates,Original*%
%TF.FileFunction,Copper,L1,Top*%
%TF.FilePolarity,Positive*%
%FSLAX46Y46*%
G04 Gerber Fmt 4.6, Leading zero omitted, Abs format (unit mm)*
G04 Created by KiCad (PCBNEW (6.0.1)) date 2022-02-03 04:09:52*
%MOMM*%
%LPD*%
G01*
G04 APERTURE LIST*
G04 Aperture macros list*
%AMRoundRect*
0 Rectangle with rounded corners*
0 $1 Rounding radius*
0 $2 $3 $4 $5 $6 $7 $8 $9 X,Y pos of 4 corners*
0 Add a 4 corners polygon primitive as box body*
4,1,4,$2,$3,$4,$5,$6,$7,$8,$9,$2,$3,0*
0 Add four circle primitives for the rounded corners*
1,1,$1+$1,$2,$3*
1,1,$1+$1,$4,$5*
1,1,$1+$1,$6,$7*
1,1,$1+$1,$8,$9*
0 Add four rect primitives between the rounded corners*
20,1,$1+$1,$2,$3,$4,$5,0*
20,1,$1+$1,$4,$5,$6,$7,0*
20,1,$1+$1,$6,$7,$8,$9,0*
20,1,$1+$1,$8,$9,$2,$3,0*%
G04 Aperture macros list end*
%TA.AperFunction,SMDPad,CuDef*%
%ADD10RoundRect,0.250000X0.350000X0.450000X-0.350000X0.450000X-0.350000X-0.450000X0.350000X-0.450000X0*%
%TD*%
%TA.AperFunction,ComponentPad*%
%ADD11C,3.000000*%
%TD*%
%TA.AperFunction,SMDPad,CuDef*%
%ADD12R,1.500000X1.000000*%
%TD*%
%TA.AperFunction,SMDPad,CuDef*%
%ADD13R,2.000000X1.500000*%
%TD*%
%TA.AperFunction,SMDPad,CuDef*%
%ADD14R,2.000000X3.800000*%
%TD*%
%TA.AperFunction,SMDPad,CuDef*%
%ADD15RoundRect,0.250000X0.450000X-0.350000X0.450000X0.350000X-0.450000X0.350000X-0.450000X-0.350000X0*%
%TD*%
%TA.AperFunction,ComponentPad*%
%ADD16R,1.600000X1.600000*%
%TD*%
%TA.AperFunction,ComponentPad*%
%ADD17C,1.600000*%
%TD*%
%TA.AperFunction,SMDPad,CuDef*%
%ADD18RoundRect,0.250000X0.337500X0.475000X-0.337500X0.475000X-0.337500X-0.475000X0.337500X-0.475000X0*%
%TD*%
%TA.AperFunction,ComponentPad*%
%ADD19C,1.500000*%
%TD*%
%TA.AperFunction,SMDPad,CuDef*%
%ADD20RoundRect,0.250000X-0.337500X-0.475000X0.337500X-0.475000X0.337500X0.475000X-0.337500X0.475000X0*%
%TD*%
%TA.AperFunction,ComponentPad*%
%ADD21R,1.050000X1.500000*%
%TD*%
%TA.AperFunction,ComponentPad*%
%ADD22O,1.050000X1.500000*%
%TD*%
%TA.AperFunction,SMDPad,CuDef*%
%ADD23RoundRect,0.250000X-0.475000X0.337500X-0.475000X-0.337500X0.475000X-0.337500X0.475000X0.337500X0*%
%TD*%
%TA.AperFunction,SMDPad,CuDef*%
%ADD24R,2.500000X1.000000*%
%TD*%
%TA.AperFunction,SMDPad,CuDef*%
%ADD25R,1.000000X1.800000*%
%TD*%
%TA.AperFunction,ComponentPad*%
%ADD26R,2.000000X2.000000*%
%TD*%
%TA.AperFunction,ComponentPad*%
%ADD27C,2.000000*%
%TD*%
%TA.AperFunction,ComponentPad*%
%ADD28RoundRect,0.250000X0.600000X0.750000X-0.600000X0.750000X-0.600000X-0.750000X0.600000X-0.750000X0*%
%TD*%
%TA.AperFunction,ComponentPad*%
%ADD29O,1.700000X2.000000*%
%TD*%
%TA.AperFunction,ComponentPad*%
%ADD30RoundRect,0.250000X0.600000X0.725000X-0.600000X0.725000X-0.600000X-0.725000X0.600000X-0.725000X0*%
%TD*%
%TA.AperFunction,ComponentPad*%
%ADD31O,1.700000X1.950000*%
%TD*%
%TA.AperFunction,ViaPad*%
%ADD32C,0.800000*%
%TD*%
%TA.AperFunction,Conductor*%
%ADD33C,0.500000*%
%TD*%
%TA.AperFunction,Conductor*%
%ADD34C,0.300000*%
%TD*%
G04 APERTURE END LIST*
D10*
%TO.P,R4,1*%
%TO.N,ESP_EN*%
X141970000Y-81915000D03*
%TO.P,R4,2*%
%TO.N,VCC_3V3*%
X139970000Y-81915000D03*
%TD*%
D11*
%TO.P,TP5,1,1*%
%TO.N,ESP_ADC*%
X128270000Y-88265000D03*
%TD*%
D12*
%TO.P,D2,1,VDD*%
%TO.N,VCC_IN*%
X153760000Y-96190000D03*
%TO.P,D2,2,DOUT*%
%TO.N,Net-(D2-Pad2)*%
X153760000Y-99390000D03*
%TO.P,D2,3,VSS*%
%TO.N,GND*%
X158660000Y-99390000D03*
%TO.P,D2,4,DIN*%
%TO.N,Net-(D1-Pad2)*%
X158660000Y-96190000D03*
%TD*%
%TO.P,D1,1,VDD*%
%TO.N,VCC_IN*%
X146140000Y-96190000D03*
%TO.P,D1,2,DOUT*%
%TO.N,Net-(D1-Pad2)*%
X146140000Y-99390000D03*
%TO.P,D1,3,VSS*%
%TO.N,GND*%
X151040000Y-99390000D03*
%TO.P,D1,4,DIN*%
%TO.N,D1_IN*%
X151040000Y-96190000D03*
%TD*%
D13*
%TO.P,U2,1,GND*%
%TO.N,GND*%
X157455000Y-129300000D03*
%TO.P,U2,2,VO*%
%TO.N,VCC_3V3*%
X157455000Y-127000000D03*
D14*
X151155000Y-127000000D03*
D13*
%TO.P,U2,3,VI*%
%TO.N,VCC_IN*%
X157455000Y-124700000D03*
%TD*%
D15*
%TO.P,R6,1*%
%TO.N,GND*%
X163195000Y-89900000D03*
%TO.P,R6,2*%
%TO.N,Net-(R6-Pad2)*%
X163195000Y-87900000D03*
%TD*%
D11*
%TO.P,TP4,1,1*%
%TO.N,D1_IN*%
X133350000Y-106045000D03*
%TD*%
D16*
%TO.P,C3,1*%
%TO.N,VCC_3V3*%
X142240000Y-125095000D03*
D17*
%TO.P,C3,2*%
%TO.N,GND*%
X142240000Y-127595000D03*
%TD*%
D18*
%TO.P,C5,1*%
%TO.N,VCC_IN*%
X143277500Y-96520000D03*
%TO.P,C5,2*%
%TO.N,GND*%
X141202500Y-96520000D03*
%TD*%
D19*
%TO.P,R1,1*%
%TO.N,VCC_3V3*%
X123190000Y-103300000D03*
%TO.P,R1,2*%
%TO.N,ESP_ADC*%
X123190000Y-99900000D03*
%TD*%
D15*
%TO.P,R7,1*%
%TO.N,Net-(Q1-Pad2)*%
X166370000Y-102600000D03*
%TO.P,R7,2*%
%TO.N,BUZZ*%
X166370000Y-100600000D03*
%TD*%
D20*
%TO.P,C1,1*%
%TO.N,VCC_IN*%
X160252500Y-124460000D03*
%TO.P,C1,2*%
%TO.N,GND*%
X162327500Y-124460000D03*
%TD*%
D11*
%TO.P,TP2,1,1*%
%TO.N,MHZ_RX*%
X164465000Y-74930000D03*
%TD*%
D15*
%TO.P,R5,1*%
%TO.N,VCC_3V3*%
X163195000Y-86090000D03*
%TO.P,R5,2*%
%TO.N,Net-(R5-Pad2)*%
X163195000Y-84090000D03*
%TD*%
D18*
%TO.P,C7,1*%
%TO.N,VCC_IN*%
X143912500Y-104140000D03*
%TO.P,C7,2*%
%TO.N,GND*%
X141837500Y-104140000D03*
%TD*%
D21*
%TO.P,Q1,1,C*%
%TO.N,VCC_IN*%
X167640000Y-109580000D03*
D22*
%TO.P,Q1,2,B*%
%TO.N,Net-(Q1-Pad2)*%
X168910000Y-109580000D03*
%TO.P,Q1,3,E*%
%TO.N,Net-(BZ1-Pad1)*%
X170180000Y-109580000D03*
%TD*%
D23*
%TO.P,C6,1*%
%TO.N,VCC_IN*%
X161290000Y-96752500D03*
%TO.P,C6,2*%
%TO.N,GND*%
X161290000Y-98827500D03*
%TD*%
%TO.P,C8,1*%
%TO.N,VCC_IN*%
X161290000Y-103737500D03*
%TO.P,C8,2*%
%TO.N,GND*%
X161290000Y-105812500D03*
%TD*%
D10*
%TO.P,R3,1*%
%TO.N,ESP_RS*%
X141970000Y-75565000D03*
%TO.P,R3,2*%
%TO.N,VCC_3V3*%
X139970000Y-75565000D03*
%TD*%
D11*
%TO.P,TP3,1,1*%
%TO.N,BUZZ*%
X166370000Y-93345000D03*
%TD*%
%TO.P,TP7,1,1*%
%TO.N,ESP_RS*%
X133350000Y-79375000D03*
%TD*%
D20*
%TO.P,C2,1*%
%TO.N,VCC_3V3*%
X160252500Y-127000000D03*
%TO.P,C2,2*%
%TO.N,GND*%
X162327500Y-127000000D03*
%TD*%
D11*
%TO.P,TP6,1,1*%
%TO.N,ESP_EN*%
X133350000Y-100330000D03*
%TD*%
D24*
%TO.P,U1,1,~{RST}*%
%TO.N,ESP_RS*%
X144800000Y-75875000D03*
%TO.P,U1,2,ADC*%
%TO.N,ESP_ADC*%
X144800000Y-77875000D03*
%TO.P,U1,3,EN*%
%TO.N,ESP_EN*%
X144800000Y-79875000D03*
%TO.P,U1,4,GPIO16*%
%TO.N,unconnected-(U1-Pad4)*%
X144800000Y-81875000D03*
%TO.P,U1,5,GPIO14*%
%TO.N,unconnected-(U1-Pad5)*%
X144800000Y-83875000D03*
%TO.P,U1,6,GPIO12*%
%TO.N,D1_IN*%
X144800000Y-85875000D03*
%TO.P,U1,7,GPIO13*%
%TO.N,BUZZ*%
X144800000Y-87875000D03*
%TO.P,U1,8,VCC*%
%TO.N,VCC_3V3*%
X144800000Y-89875000D03*
D25*
%TO.P,U1,9,CS0*%
%TO.N,unconnected-(U1-Pad9)*%
X147400000Y-91375000D03*
%TO.P,U1,10,MISO*%
%TO.N,unconnected-(U1-Pad10)*%
X149400000Y-91375000D03*
%TO.P,U1,11,GPIO9*%
%TO.N,unconnected-(U1-Pad11)*%
X151400000Y-91375000D03*
%TO.P,U1,12,GPIO10*%
%TO.N,unconnected-(U1-Pad12)*%
X153400000Y-91375000D03*
%TO.P,U1,13,MOSI*%
%TO.N,unconnected-(U1-Pad13)*%
X155400000Y-91375000D03*
%TO.P,U1,14,SCLK*%
%TO.N,unconnected-(U1-Pad14)*%
X157400000Y-91375000D03*
D24*
%TO.P,U1,15,GND*%
%TO.N,GND*%
X160000000Y-89875000D03*
%TO.P,U1,16,GPIO15*%
%TO.N,Net-(R6-Pad2)*%
X160000000Y-87875000D03*
%TO.P,U1,17,GPIO2*%
%TO.N,unconnected-(U1-Pad17)*%
X160000000Y-85875000D03*
%TO.P,U1,18,GPIO0*%
%TO.N,Net-(R5-Pad2)*%
X160000000Y-83875000D03*
%TO.P,U1,19,GPIO4*%
%TO.N,MHZ_TX*%
X160000000Y-81875000D03*
%TO.P,U1,20,GPIO5*%
%TO.N,MHZ_RX*%
X160000000Y-79875000D03*
%TO.P,U1,21,GPIO3/RXD*%
%TO.N,unconnected-(U1-Pad21)*%
X160000000Y-77875000D03*
%TO.P,U1,22,GPIO1/TXD*%
%TO.N,unconnected-(U1-Pad22)*%
X160000000Y-75875000D03*
%TD*%
D12*
%TO.P,D4,1,VDD*%
%TO.N,VCC_IN*%
X153760000Y-103810000D03*
%TO.P,D4,2,DOUT*%
%TO.N,unconnected-(D4-Pad2)*%
X153760000Y-107010000D03*
%TO.P,D4,3,VSS*%
%TO.N,GND*%
X158660000Y-107010000D03*
%TO.P,D4,4,DIN*%
%TO.N,Net-(D3-Pad2)*%
X158660000Y-103810000D03*
%TD*%
D11*
%TO.P,TP1,1,1*%
%TO.N,MHZ_TX*%
X168275000Y-77470000D03*
%TD*%
D12*
%TO.P,D3,1,VDD*%
%TO.N,VCC_IN*%
X146140000Y-103810000D03*
%TO.P,D3,2,DOUT*%
%TO.N,Net-(D3-Pad2)*%
X146140000Y-107010000D03*
%TO.P,D3,3,VSS*%
%TO.N,GND*%
X151040000Y-107010000D03*
%TO.P,D3,4,DIN*%
%TO.N,Net-(D2-Pad2)*%
X151040000Y-103810000D03*
%TD*%
D10*
%TO.P,R2,1*%
%TO.N,ESP_ADC*%
X141970000Y-78105000D03*
%TO.P,R2,2*%
%TO.N,GND*%
X139970000Y-78105000D03*
%TD*%
D26*
%TO.P,BZ1,1,-*%
%TO.N,Net-(BZ1-Pad1)*%
X175895000Y-104605785D03*
D27*
%TO.P,BZ1,2,+*%
%TO.N,GND*%
X175895000Y-99605785D03*
%TD*%
D28*
%TO.P,J1,1,Pin_1*%
%TO.N,VCC_IN*%
X160254000Y-118872000D03*
D29*
%TO.P,J1,2,Pin_2*%
%TO.N,GND*%
X157754000Y-118872000D03*
%TD*%
D30*
%TO.P,J2,1,Pin_1*%
%TO.N,MHZ_TX*%
X151765000Y-118872000D03*
D31*
%TO.P,J2,2,Pin_2*%
%TO.N,MHZ_RX*%
X149265000Y-118872000D03*
%TO.P,J2,3,Pin_3*%
%TO.N,VCC_IN*%
X146765000Y-118872000D03*
%TO.P,J2,4,Pin_4*%
%TO.N,GND*%
X144265000Y-118872000D03*
%TD*%
D32*
%TO.N,GND*%
X172720000Y-86360000D03*
X136525000Y-78740000D03*
X163068000Y-109220000D03*
X127000000Y-96520000D03*
X147320000Y-132080000D03*
X127000000Y-106680000D03*
X132080000Y-91440000D03*
X142240000Y-111760000D03*
X132080000Y-96520000D03*
X177800000Y-111760000D03*
X156464000Y-99568000D03*
X177800000Y-86360000D03*
X147320000Y-111760000D03*
X182880000Y-96520000D03*
X182880000Y-101600000D03*
X127000000Y-101600000D03*
X127000000Y-116840000D03*
X132080000Y-86360000D03*
X137160000Y-127000000D03*
X132080000Y-111760000D03*
X172720000Y-116840000D03*
X172720000Y-111760000D03*
X172720000Y-121920000D03*
X127000000Y-111760000D03*
X142240000Y-106680000D03*
X137160000Y-106680000D03*
X167640000Y-127000000D03*
X167640000Y-81280000D03*
X137160000Y-96520000D03*
X177800000Y-91440000D03*
X172720000Y-91440000D03*
X157480000Y-132080000D03*
X157480000Y-111760000D03*
X177800000Y-96520000D03*
X152400000Y-132080000D03*
X162560000Y-111760000D03*
X172720000Y-96520000D03*
X177800000Y-116840000D03*
X137160000Y-111760000D03*
X152400000Y-111760000D03*
X172720000Y-81280000D03*
X149225000Y-101600000D03*
X167640000Y-121920000D03*
X132080000Y-121920000D03*
%TO.N,VCC_3V3*%
X142875000Y-89535000D03*
X137795000Y-76835000D03*
X139700000Y-122555000D03*
X140335000Y-83820000D03*
%TO.N,MHZ_TX*%
X165608000Y-82296000D03*
X160020000Y-114808000D03*
%TO.N,MHZ_RX*%
X163576000Y-79756000D03*
X160020000Y-112776000D03*
%TD*%
D33*
%TO.N,Net-(BZ1-Pad1)*%
X175895000Y-104605785D02*
X175154215Y-104605785D01*
X175154215Y-104605785D02*
X170180000Y-109580000D01*
%TO.N,VCC_IN*%
X162792500Y-96752500D02*
X163830000Y-97790000D01*
X167640000Y-109580000D02*
X167640000Y-111235000D01*
X160655000Y-94615000D02*
X155335000Y-94615000D01*
X161290000Y-96752500D02*
X161290000Y-95250000D01*
X143277500Y-100947500D02*
X146140000Y-103810000D01*
X157695000Y-124460000D02*
X157455000Y-124700000D01*
X160252500Y-124460000D02*
X160252500Y-118348500D01*
X146140000Y-96190000D02*
X143607500Y-96190000D01*
X146765000Y-120857000D02*
X146765000Y-118347000D01*
X150876000Y-121412000D02*
X147320000Y-121412000D01*
X160252500Y-118348500D02*
X160254000Y-118347000D01*
X160252500Y-124460000D02*
X157695000Y-124460000D01*
X144242500Y-103810000D02*
X143912500Y-104140000D01*
X162327500Y-103737500D02*
X161290000Y-103737500D01*
X147320000Y-121412000D02*
X146765000Y-120857000D01*
X155335000Y-94615000D02*
X153760000Y-96190000D01*
X167366000Y-111235000D02*
X160254000Y-118347000D01*
X143607500Y-96190000D02*
X143277500Y-96520000D01*
X160528000Y-102108000D02*
X155462000Y-102108000D01*
X146140000Y-103810000D02*
X144242500Y-103810000D01*
X157455000Y-124700000D02*
X154164000Y-124700000D01*
X163830000Y-97790000D02*
X163830000Y-102235000D01*
X155462000Y-102108000D02*
X153760000Y-103810000D01*
X167640000Y-109580000D02*
X161797500Y-103737500D01*
X161290000Y-96752500D02*
X162792500Y-96752500D01*
X153760000Y-96190000D02*
X152795000Y-97155000D01*
X161797500Y-103737500D02*
X161290000Y-103737500D01*
X161290000Y-95250000D02*
X160655000Y-94615000D01*
X154164000Y-124700000D02*
X150876000Y-121412000D01*
X143277500Y-96520000D02*
X143277500Y-100947500D01*
X147105000Y-97155000D02*
X146140000Y-96190000D01*
X163830000Y-102235000D02*
X162327500Y-103737500D01*
X152795000Y-97155000D02*
X147105000Y-97155000D01*
X161290000Y-103737500D02*
X161290000Y-102870000D01*
X161290000Y-102870000D02*
X160528000Y-102108000D01*
X167640000Y-111235000D02*
X167366000Y-111235000D01*
%TO.N,VCC_3V3*%
X157549511Y-86925489D02*
X162359511Y-86925489D01*
X140335000Y-83820000D02*
X140335000Y-82280000D01*
X144800000Y-89875000D02*
X154600000Y-89875000D01*
X140335000Y-82280000D02*
X139970000Y-81915000D01*
X138430000Y-75565000D02*
X139970000Y-75565000D01*
X151155000Y-127000000D02*
X146685000Y-127000000D01*
X146685000Y-127000000D02*
X144780000Y-125095000D01*
X160252500Y-127000000D02*
X157455000Y-127000000D01*
X135890000Y-122555000D02*
X123190000Y-109855000D01*
X144800000Y-89875000D02*
X143215000Y-89875000D01*
X143215000Y-89875000D02*
X142875000Y-89535000D01*
X162359511Y-86925489D02*
X163195000Y-86090000D01*
X139700000Y-122555000D02*
X135890000Y-122555000D01*
X144780000Y-125095000D02*
X142240000Y-125095000D01*
X137795000Y-76835000D02*
X137795000Y-76200000D01*
X142240000Y-125095000D02*
X139700000Y-122555000D01*
X157455000Y-127000000D02*
X151155000Y-127000000D01*
X123190000Y-109855000D02*
X123190000Y-103300000D01*
X137795000Y-76200000D02*
X138430000Y-75565000D01*
X154600000Y-89875000D02*
X157549511Y-86925489D01*
%TO.N,Net-(D1-Pad2)*%
X146140000Y-99390000D02*
X147625000Y-99390000D01*
X154940000Y-98425000D02*
X157175000Y-96190000D01*
X157175000Y-96190000D02*
X158660000Y-96190000D01*
X148590000Y-98425000D02*
X154940000Y-98425000D01*
X147625000Y-99390000D02*
X148590000Y-98425000D01*
%TO.N,D1_IN*%
X144800000Y-85875000D02*
X143640730Y-85875000D01*
X149465000Y-94615000D02*
X151040000Y-96190000D01*
X140335000Y-93345000D02*
X141605000Y-94615000D01*
X141605000Y-94615000D02*
X141305730Y-94615000D01*
X143640730Y-85875000D02*
X140335000Y-89180730D01*
X137160000Y-98760730D02*
X137160000Y-102235000D01*
X137160000Y-102235000D02*
X133350000Y-106045000D01*
X141305730Y-94615000D02*
X137160000Y-98760730D01*
X140335000Y-89180730D02*
X140335000Y-93345000D01*
X141605000Y-94615000D02*
X149465000Y-94615000D01*
%TO.N,Net-(D2-Pad2)*%
X151040000Y-102960000D02*
X151040000Y-103810000D01*
X153760000Y-99390000D02*
X153760000Y-100240000D01*
X153760000Y-100240000D02*
X151040000Y-102960000D01*
%TO.N,Net-(D3-Pad2)*%
X157060000Y-105410000D02*
X158660000Y-103810000D01*
X146140000Y-107010000D02*
X147740000Y-105410000D01*
X147740000Y-105410000D02*
X157060000Y-105410000D01*
%TO.N,Net-(Q1-Pad2)*%
X168910000Y-105140000D02*
X166370000Y-102600000D01*
X168910000Y-109580000D02*
X168910000Y-105140000D01*
%TO.N,ESP_ADC*%
X144800000Y-77875000D02*
X142200000Y-77875000D01*
X128270000Y-88265000D02*
X128270000Y-90170000D01*
X140065000Y-80010000D02*
X136525000Y-80010000D01*
X141970000Y-78105000D02*
X140065000Y-80010000D01*
X123190000Y-95250000D02*
X123190000Y-99900000D01*
X128270000Y-90170000D02*
X123190000Y-95250000D01*
X142200000Y-77875000D02*
X141970000Y-78105000D01*
X136525000Y-80010000D02*
X128270000Y-88265000D01*
%TO.N,ESP_RS*%
X141970000Y-74660000D02*
X141605000Y-74295000D01*
X144800000Y-75875000D02*
X142280000Y-75875000D01*
X141970000Y-75565000D02*
X141970000Y-74660000D01*
X138430000Y-74295000D02*
X133350000Y-79375000D01*
X141605000Y-74295000D02*
X138430000Y-74295000D01*
X142280000Y-75875000D02*
X141970000Y-75565000D01*
%TO.N,ESP_EN*%
X133350000Y-94895730D02*
X133350000Y-100330000D01*
X144010000Y-79875000D02*
X141970000Y-81915000D01*
X144800000Y-79875000D02*
X144010000Y-79875000D01*
X141970000Y-81915000D02*
X141970000Y-86275730D01*
X141970000Y-86275730D02*
X133350000Y-94895730D01*
D34*
%TO.N,Net-(R5-Pad2)*%
X163195000Y-84090000D02*
X162980000Y-83875000D01*
X162980000Y-83875000D02*
X160000000Y-83875000D01*
D33*
%TO.N,Net-(R6-Pad2)*%
X163195000Y-87900000D02*
X160025000Y-87900000D01*
X160025000Y-87900000D02*
X160000000Y-87875000D01*
%TO.N,BUZZ*%
X141605000Y-92075000D02*
X142875000Y-93345000D01*
X144800000Y-87875000D02*
X142630000Y-87875000D01*
X142875000Y-93345000D02*
X166370000Y-93345000D01*
X141605000Y-88900000D02*
X141605000Y-92075000D01*
X166370000Y-100600000D02*
X166370000Y-93345000D01*
X142630000Y-87875000D02*
X141605000Y-88900000D01*
%TO.N,MHZ_TX*%
X165187000Y-80558000D02*
X168275000Y-77470000D01*
X155304000Y-114808000D02*
X160020000Y-114808000D01*
X165187000Y-81875000D02*
X165187000Y-80558000D01*
X165187000Y-81875000D02*
X165608000Y-82296000D01*
X151765000Y-118347000D02*
X155304000Y-114808000D01*
X160000000Y-81875000D02*
X165187000Y-81875000D01*
%TO.N,MHZ_RX*%
X149265000Y-118347000D02*
X154836000Y-112776000D01*
X154836000Y-112776000D02*
X160020000Y-112776000D01*
X164465000Y-78867000D02*
X164465000Y-74930000D01*
X163576000Y-79756000D02*
X164465000Y-78867000D01*
X160000000Y-79875000D02*
X163457000Y-79875000D01*
D34*
X163457000Y-79875000D02*
X163576000Y-79756000D01*
%TD*%
%TA.AperFunction,Conductor*%
%TO.N,GND*%
G36*
X161232524Y-70998475D02*
G01*
X162218674Y-71299066D01*
X162222884Y-71300430D01*
X162851849Y-71516567D01*
X163276972Y-71662656D01*
X163281094Y-71664154D01*
X164321823Y-72063189D01*
X164325889Y-72064830D01*
X165228513Y-72447799D01*
X165351947Y-72500170D01*
X165355991Y-72501971D01*
X166366072Y-72973058D01*
X166370050Y-72974999D01*
X167362962Y-73481274D01*
X167366870Y-73483353D01*
X167536465Y-73577475D01*
X168341458Y-74024232D01*
X168345242Y-74026420D01*
X168992021Y-74415696D01*
X169300194Y-74601176D01*
X169303946Y-74603525D01*
X169360266Y-74640177D01*
X170199802Y-75186533D01*
X170238100Y-75211457D01*
X170241760Y-75213931D01*
X170911634Y-75684173D01*
X171154019Y-75854324D01*
X171157593Y-75856929D01*
X171589867Y-76183633D01*
X172046738Y-76528927D01*
X172050222Y-76531657D01*
X172863658Y-77192581D01*
X172915246Y-77234497D01*
X172918625Y-77237342D01*
X173471382Y-77719664D01*
X173758439Y-77970143D01*
X173761722Y-77973111D01*
X174571138Y-78731081D01*
X174575266Y-78734947D01*
X174578434Y-78738021D01*
X174944763Y-79106055D01*
X175364708Y-79527955D01*
X175367775Y-79531146D01*
X176125838Y-80348232D01*
X176128791Y-80351530D01*
X176857652Y-81194701D01*
X176860488Y-81198100D01*
X177559307Y-82066380D01*
X177562017Y-82069871D01*
X178227640Y-82959134D01*
X178229906Y-82962162D01*
X178232486Y-82965739D01*
X178445278Y-83271880D01*
X178868631Y-83880953D01*
X178871093Y-83884632D01*
X179474676Y-84821593D01*
X179477007Y-84825355D01*
X180047310Y-85782943D01*
X180049508Y-85786785D01*
X180585830Y-86763827D01*
X180587892Y-86767745D01*
X181086855Y-87757647D01*
X181089568Y-87763030D01*
X181091480Y-87766996D01*
X181306105Y-88232819D01*
X181557877Y-88779266D01*
X181559659Y-88783318D01*
X181707764Y-89136946D01*
X181973734Y-89772000D01*
X181990221Y-89811366D01*
X181991850Y-89815455D01*
X182280911Y-90579962D01*
X182386044Y-90858017D01*
X182387536Y-90862184D01*
X182744844Y-91917880D01*
X182746190Y-91922097D01*
X183066214Y-92989753D01*
X183067409Y-92994013D01*
X183288006Y-93836498D01*
X183349724Y-94072209D01*
X183350768Y-94076502D01*
X183389163Y-94247432D01*
X183595043Y-95163982D01*
X183595937Y-95168318D01*
X183682396Y-95628219D01*
X183801842Y-96263589D01*
X183801859Y-96263682D01*
X183802597Y-96268028D01*
X183922589Y-97058259D01*
X183969919Y-97369958D01*
X183970507Y-97374346D01*
X184099020Y-98481480D01*
X184099453Y-98485885D01*
X184188998Y-99596840D01*
X184189276Y-99601258D01*
X184210469Y-100068820D01*
X184237729Y-100670224D01*
X184239744Y-100714689D01*
X184239866Y-100719097D01*
X184243837Y-101109876D01*
X184251192Y-101833571D01*
X184251160Y-101837997D01*
X184241142Y-102239130D01*
X184223471Y-102946739D01*
X184223333Y-102952251D01*
X184223145Y-102956655D01*
X184158086Y-104037818D01*
X184156199Y-104069182D01*
X184155857Y-104073579D01*
X184114401Y-104507568D01*
X184049872Y-105183104D01*
X184049374Y-105187503D01*
X184014410Y-105454181D01*
X183907720Y-106267924D01*
X183904481Y-106292627D01*
X183903832Y-106296979D01*
X183740051Y-107277548D01*
X183720217Y-107396297D01*
X183719412Y-107400649D01*
X183497285Y-108492887D01*
X183496326Y-108497209D01*
X183235988Y-109580904D01*
X183234879Y-109585189D01*
X182936630Y-110659099D01*
X182935371Y-110663343D01*
X182712026Y-111370233D01*
X182619116Y-111664294D01*
X182599574Y-111726143D01*
X182598166Y-111730339D01*
X182225264Y-112780638D01*
X182223710Y-112784783D01*
X181814130Y-113821374D01*
X181812452Y-113825414D01*
X181366683Y-114847053D01*
X181364882Y-114850989D01*
X180967304Y-115681321D01*
X180883533Y-115856275D01*
X180881552Y-115860233D01*
X180786780Y-116041525D01*
X180365200Y-116847972D01*
X180363081Y-116851858D01*
X179812351Y-117820852D01*
X179810096Y-117824662D01*
X179658032Y-118071600D01*
X179282665Y-118681161D01*
X179225668Y-118773718D01*
X179223287Y-118777436D01*
X178609086Y-119700566D01*
X178605900Y-119705354D01*
X178603396Y-119708978D01*
X178142377Y-120351723D01*
X177953763Y-120614685D01*
X177951120Y-120618236D01*
X177270101Y-121500530D01*
X177267335Y-121503986D01*
X176555757Y-122361802D01*
X176552872Y-122365159D01*
X175811569Y-123197488D01*
X175808567Y-123200741D01*
X175038518Y-124006484D01*
X175035404Y-124009630D01*
X174237513Y-124787843D01*
X174234291Y-124790877D01*
X174156377Y-124861703D01*
X173423075Y-125528296D01*
X173409558Y-125540583D01*
X173406236Y-125543498D01*
X173308161Y-125626550D01*
X172555690Y-126263762D01*
X172552263Y-126266563D01*
X171676907Y-126956535D01*
X171673383Y-126959213D01*
X171267169Y-127256876D01*
X170804194Y-127596132D01*
X170774366Y-127617989D01*
X170770762Y-127620533D01*
X170280144Y-127954207D01*
X169849144Y-128247334D01*
X169845440Y-128249759D01*
X168902386Y-128843793D01*
X168898600Y-128846086D01*
X168586165Y-129027885D01*
X167935241Y-129406642D01*
X167931436Y-129408768D01*
X167145136Y-129830046D01*
X166948943Y-129935161D01*
X166945018Y-129937176D01*
X165944692Y-130428707D01*
X165940716Y-130430575D01*
X164923734Y-130886671D01*
X164919698Y-130888398D01*
X163887296Y-131308502D01*
X163883167Y-131310098D01*
X162836696Y-131693660D01*
X162832514Y-131695110D01*
X161773199Y-132041685D01*
X161768968Y-132042987D01*
X160698156Y-132352132D01*
X160693887Y-132353284D01*
X159612852Y-132624632D01*
X159608560Y-132625630D01*
X158518649Y-132858842D01*
X158514333Y-132859686D01*
X157655004Y-133012210D01*
X157416914Y-133054469D01*
X157412542Y-133055166D01*
X156308979Y-133211278D01*
X156304587Y-133211821D01*
X155196200Y-133329077D01*
X155191790Y-133329465D01*
X154677726Y-133365645D01*
X154079982Y-133407714D01*
X154075575Y-133407947D01*
X153035887Y-133444489D01*
X152961711Y-133447096D01*
X152957285Y-133447174D01*
X151842715Y-133447174D01*
X151838289Y-133447096D01*
X151764113Y-133444489D01*
X150724425Y-133407947D01*
X150720018Y-133407714D01*
X150122274Y-133365645D01*
X149608210Y-133329465D01*
X149603800Y-133329077D01*
X148495413Y-133211821D01*
X148491021Y-133211278D01*
X147387458Y-133055166D01*
X147383086Y-133054469D01*
X147144996Y-133012210D01*
X146285667Y-132859686D01*
X146281351Y-132858842D01*
X145191440Y-132625630D01*
X145187148Y-132624632D01*
X144106113Y-132353284D01*
X144101844Y-132352132D01*
X143031032Y-132042987D01*
X143026801Y-132041685D01*
X141967486Y-131695110D01*
X141963304Y-131693660D01*
X140916833Y-131310098D01*
X140912704Y-131308502D01*
X139880302Y-130888398D01*
X139876266Y-130886671D01*
X138859284Y-130430575D01*
X138855308Y-130428707D01*
X138175500Y-130094669D01*
X155947001Y-130094669D01*
X155947371Y-130101490D01*
X155952895Y-130152352D01*
X155956521Y-130167604D01*
X156001676Y-130288054D01*
X156010214Y-130303649D01*
X156086715Y-130405724D01*
X156099276Y-130418285D01*
X156201351Y-130494786D01*
X156216946Y-130503324D01*
X156337394Y-130548478D01*
X156352649Y-130552105D01*
X156403514Y-130557631D01*
X156410328Y-130558000D01*
X157182885Y-130558000D01*
X157198124Y-130553525D01*
X157199329Y-130552135D01*
X157201000Y-130544452D01*
X157201000Y-130539884D01*
X157709000Y-130539884D01*
X157713475Y-130555123D01*
X157714865Y-130556328D01*
X157722548Y-130557999D01*
X158499669Y-130557999D01*
X158506490Y-130557629D01*
X158557352Y-130552105D01*
X158572604Y-130548479D01*
X158693054Y-130503324D01*
X158708649Y-130494786D01*
X158810724Y-130418285D01*
X158823285Y-130405724D01*
X158899786Y-130303649D01*
X158908324Y-130288054D01*
X158953478Y-130167606D01*
X158957105Y-130152351D01*
X158962631Y-130101486D01*
X158963000Y-130094672D01*
X158963000Y-129572115D01*
X158958525Y-129556876D01*
X158957135Y-129555671D01*
X158949452Y-129554000D01*
X157727115Y-129554000D01*
X157711876Y-129558475D01*
X157710671Y-129559865D01*
X157709000Y-129567548D01*
X157709000Y-130539884D01*
X157201000Y-130539884D01*
X157201000Y-129572115D01*
X157196525Y-129556876D01*
X157195135Y-129555671D01*
X157187452Y-129554000D01*
X155965116Y-129554000D01*
X155949877Y-129558475D01*
X155948672Y-129559865D01*
X155947001Y-129567548D01*
X155947001Y-130094669D01*
X138175500Y-130094669D01*
X137854982Y-129937176D01*
X137851057Y-129935161D01*
X137654864Y-129830046D01*
X136868564Y-129408768D01*
X136864759Y-129406642D01*
X136213835Y-129027885D01*
X135901400Y-128846086D01*
X135897614Y-128843793D01*
X135639272Y-128681062D01*
X141518493Y-128681062D01*
X141527789Y-128693077D01*
X141578994Y-128728931D01*
X141588489Y-128734414D01*
X141785947Y-128826490D01*
X141796239Y-128830236D01*
X142006688Y-128886625D01*
X142017481Y-128888528D01*
X142234525Y-128907517D01*
X142245475Y-128907517D01*
X142462519Y-128888528D01*
X142473312Y-128886625D01*
X142683761Y-128830236D01*
X142694053Y-128826490D01*
X142891511Y-128734414D01*
X142901006Y-128728931D01*
X142953048Y-128692491D01*
X142961424Y-128682012D01*
X142954356Y-128668566D01*
X142252812Y-127967022D01*
X142238868Y-127959408D01*
X142237035Y-127959539D01*
X142230420Y-127963790D01*
X141524923Y-128669287D01*
X141518493Y-128681062D01*
X135639272Y-128681062D01*
X134954560Y-128249759D01*
X134950856Y-128247334D01*
X134519856Y-127954207D01*
X134029238Y-127620533D01*
X134025634Y-127617989D01*
X134001734Y-127600475D01*
X140927483Y-127600475D01*
X140946472Y-127817519D01*
X140948375Y-127828312D01*
X141004764Y-128038761D01*
X141008510Y-128049053D01*
X141100586Y-128246511D01*
X141106069Y-128256006D01*
X141142509Y-128308048D01*
X141152988Y-128316424D01*
X141166434Y-128309356D01*
X141867978Y-127607812D01*
X141874356Y-127596132D01*
X142604408Y-127596132D01*
X142604539Y-127597965D01*
X142608790Y-127604580D01*
X143314287Y-128310077D01*
X143326062Y-128316507D01*
X143338077Y-128307211D01*
X143373931Y-128256006D01*
X143379414Y-128246511D01*
X143471490Y-128049053D01*
X143475236Y-128038761D01*
X143531625Y-127828312D01*
X143533528Y-127817519D01*
X143552517Y-127600475D01*
X143552517Y-127589525D01*
X143533528Y-127372481D01*
X143531625Y-127361688D01*
X143475236Y-127151239D01*
X143471490Y-127140947D01*
X143379414Y-126943489D01*
X143373931Y-126933994D01*
X143337491Y-126881952D01*
X143327012Y-126873576D01*
X143313566Y-126880644D01*
X142612022Y-127582188D01*
X142604408Y-127596132D01*
X141874356Y-127596132D01*
X141875592Y-127593868D01*
X141875461Y-127592035D01*
X141871210Y-127585420D01*
X141165713Y-126879923D01*
X141153938Y-126873493D01*
X141141923Y-126882789D01*
X141106069Y-126933994D01*
X141100586Y-126943489D01*
X141008510Y-127140947D01*
X141004764Y-127151239D01*
X140948375Y-127361688D01*
X140946472Y-127372481D01*
X140927483Y-127589525D01*
X140927483Y-127600475D01*
X134001734Y-127600475D01*
X133995807Y-127596132D01*
X133532831Y-127256876D01*
X133126617Y-126959213D01*
X133123093Y-126956535D01*
X132247737Y-126266563D01*
X132244310Y-126263762D01*
X131491839Y-125626550D01*
X131393764Y-125543498D01*
X131390442Y-125540583D01*
X131376926Y-125528296D01*
X130643623Y-124861703D01*
X130565709Y-124790877D01*
X130562487Y-124787843D01*
X129764596Y-124009630D01*
X129761482Y-124006484D01*
X128991433Y-123200741D01*
X128988431Y-123197488D01*
X128247128Y-122365159D01*
X128244243Y-122361802D01*
X127532665Y-121503986D01*
X127529899Y-121500530D01*
X126848880Y-120618236D01*
X126846237Y-120614685D01*
X126657623Y-120351723D01*
X126196604Y-119708978D01*
X126194100Y-119705354D01*
X126190915Y-119700566D01*
X125576713Y-118777436D01*
X125574332Y-118773718D01*
X125517336Y-118681161D01*
X125141968Y-118071600D01*
X124989904Y-117824662D01*
X124987649Y-117820852D01*
X124436919Y-116851858D01*
X124434800Y-116847972D01*
X124013221Y-116041525D01*
X123918448Y-115860233D01*
X123916467Y-115856275D01*
X123832696Y-115681321D01*
X123435118Y-114850989D01*
X123433317Y-114847053D01*
X122987548Y-113825414D01*
X122985870Y-113821374D01*
X122576290Y-112784783D01*
X122574736Y-112780638D01*
X122201834Y-111730339D01*
X122200426Y-111726143D01*
X122180885Y-111664294D01*
X122087974Y-111370233D01*
X121864629Y-110663343D01*
X121863370Y-110659099D01*
X121565121Y-109585189D01*
X121564012Y-109580904D01*
X121303674Y-108497209D01*
X121302715Y-108492887D01*
X121080588Y-107400649D01*
X121079783Y-107396297D01*
X121059949Y-107277548D01*
X120896168Y-106296979D01*
X120895519Y-106292627D01*
X120892281Y-106267924D01*
X120785590Y-105454181D01*
X120750626Y-105187503D01*
X120750128Y-105183104D01*
X120685599Y-104507568D01*
X120644143Y-104073579D01*
X120643801Y-104069182D01*
X120641914Y-104037818D01*
X120597516Y-103300000D01*
X121926693Y-103300000D01*
X121945885Y-103519371D01*
X122002880Y-103732076D01*
X122046415Y-103825438D01*
X122093618Y-103926666D01*
X122093621Y-103926671D01*
X122095944Y-103931653D01*
X122099100Y-103936160D01*
X122099101Y-103936162D01*
X122207937Y-104091595D01*
X122222251Y-104112038D01*
X122377962Y-104267749D01*
X122382471Y-104270906D01*
X122386496Y-104274284D01*
X122425819Y-104333395D01*
X122431500Y-104370802D01*
X122431500Y-109787930D01*
X122430067Y-109806880D01*
X122426801Y-109828349D01*
X122427394Y-109835641D01*
X122427394Y-109835644D01*
X122431085Y-109881018D01*
X122431500Y-109891233D01*
X122431500Y-109899293D01*
X122431925Y-109902937D01*
X122434789Y-109927507D01*
X122435222Y-109931882D01*
X122441140Y-110004637D01*
X122443396Y-110011601D01*
X122444587Y-110017560D01*
X122445971Y-110023415D01*
X122446818Y-110030681D01*
X122471735Y-110099327D01*
X122473152Y-110103455D01*
X122495649Y-110172899D01*
X122499445Y-110179154D01*
X122501951Y-110184628D01*
X122504670Y-110190058D01*
X122507167Y-110196937D01*
X122511180Y-110203057D01*
X122511180Y-110203058D01*
X122547186Y-110257976D01*
X122549523Y-110261680D01*
X122587405Y-110324107D01*
X122591121Y-110328315D01*
X122591122Y-110328316D01*
X122594803Y-110332484D01*
X122594776Y-110332508D01*
X122597429Y-110335500D01*
X122600132Y-110338733D01*
X122604144Y-110344852D01*
X122609456Y-110349884D01*
X122660383Y-110398128D01*
X122662825Y-110400506D01*
X135306230Y-123043911D01*
X135318616Y-123058323D01*
X135327149Y-123069918D01*
X135327154Y-123069923D01*
X135331492Y-123075818D01*
X135337070Y-123080557D01*
X135337073Y-123080560D01*
X135371768Y-123110035D01*
X135379284Y-123116965D01*
X135384979Y-123122660D01*
X135387861Y-123124940D01*
X135407251Y-123140281D01*
X135410655Y-123143072D01*
X135460703Y-123185591D01*
X135466285Y-123190333D01*
X135472801Y-123193661D01*
X135477850Y-123197028D01*
X135482979Y-123200195D01*
X135488716Y-123204734D01*
X135554875Y-123235655D01*
X135558769Y-123237558D01*
X135623808Y-123270769D01*
X135630916Y-123272508D01*
X135636559Y-123274607D01*
X135642322Y-123276524D01*
X135648950Y-123279622D01*
X135656112Y-123281112D01*
X135656113Y-123281112D01*
X135720412Y-123294486D01*
X135724696Y-123295456D01*
X135795610Y-123312808D01*
X135801212Y-123313156D01*
X135801215Y-123313156D01*
X135806764Y-123313500D01*
X135806762Y-123313536D01*
X135810755Y-123313775D01*
X135814947Y-123314149D01*
X135822115Y-123315640D01*
X135899520Y-123313546D01*
X135902928Y-123313500D01*
X139157413Y-123313500D01*
X139231472Y-123337563D01*
X139237902Y-123342235D01*
X139237909Y-123342239D01*
X139243248Y-123346118D01*
X139249276Y-123348802D01*
X139249278Y-123348803D01*
X139411681Y-123421109D01*
X139417712Y-123423794D01*
X139424167Y-123425166D01*
X139424176Y-123425169D01*
X139480772Y-123437199D01*
X139543669Y-123471350D01*
X140894595Y-124822276D01*
X140928621Y-124884588D01*
X140931500Y-124911371D01*
X140931500Y-125943134D01*
X140938255Y-126005316D01*
X140989385Y-126141705D01*
X141076739Y-126258261D01*
X141193295Y-126345615D01*
X141329684Y-126396745D01*
X141373252Y-126401478D01*
X141388486Y-126403133D01*
X141388489Y-126403133D01*
X141391866Y-126403500D01*
X141395185Y-126403500D01*
X141462110Y-126427153D01*
X141497804Y-126473156D01*
X141499734Y-126472141D01*
X141505442Y-126483000D01*
X141505632Y-126483245D01*
X141505653Y-126483403D01*
X141525644Y-126521434D01*
X142227188Y-127222978D01*
X142241132Y-127230592D01*
X142242965Y-127230461D01*
X142249580Y-127226210D01*
X142955077Y-126520713D01*
X142977871Y-126478971D01*
X142980047Y-126468971D01*
X143030253Y-126418773D01*
X143083814Y-126403549D01*
X143084719Y-126403500D01*
X143088134Y-126403500D01*
X143091530Y-126403131D01*
X143091532Y-126403131D01*
X143103879Y-126401790D01*
X143150316Y-126396745D01*
X143286705Y-126345615D01*
X143403261Y-126258261D01*
X143490615Y-126141705D01*
X143541745Y-126005316D01*
X143546028Y-125965892D01*
X143573270Y-125900330D01*
X143631634Y-125859904D01*
X143671291Y-125853500D01*
X144413629Y-125853500D01*
X144481750Y-125873502D01*
X144502724Y-125890405D01*
X146101227Y-127488907D01*
X146113613Y-127503319D01*
X146122149Y-127514917D01*
X146126492Y-127520818D01*
X146132070Y-127525557D01*
X146132073Y-127525560D01*
X146166775Y-127555041D01*
X146174291Y-127561971D01*
X146179980Y-127567660D01*
X146182834Y-127569918D01*
X146182844Y-127569927D01*
X146202242Y-127585274D01*
X146205642Y-127588062D01*
X146255707Y-127630595D01*
X146255711Y-127630598D01*
X146261285Y-127635333D01*
X146267800Y-127638660D01*
X146272837Y-127642019D01*
X146277975Y-127645192D01*
X146283716Y-127649734D01*
X146349875Y-127680655D01*
X146353769Y-127682558D01*
X146418808Y-127715769D01*
X146425917Y-127717508D01*
X146431551Y-127719604D01*
X146437321Y-127721523D01*
X146443950Y-127724622D01*
X146451113Y-127726112D01*
X146451116Y-127726113D01*
X146501830Y-127736661D01*
X146515435Y-127739491D01*
X146519701Y-127740457D01*
X146590610Y-127757808D01*
X146596212Y-127758156D01*
X146596215Y-127758156D01*
X146601764Y-127758500D01*
X146601762Y-127758535D01*
X146605734Y-127758775D01*
X146609955Y-127759152D01*
X146617115Y-127760641D01*
X146694542Y-127758546D01*
X146697950Y-127758500D01*
X149520500Y-127758500D01*
X149588621Y-127778502D01*
X149635114Y-127832158D01*
X149646500Y-127884500D01*
X149646500Y-128948134D01*
X149653255Y-129010316D01*
X149704385Y-129146705D01*
X149791739Y-129263261D01*
X149908295Y-129350615D01*
X150044684Y-129401745D01*
X150106866Y-129408500D01*
X152203134Y-129408500D01*
X152265316Y-129401745D01*
X152401705Y-129350615D01*
X152518261Y-129263261D01*
X152605615Y-129146705D01*
X152656745Y-129010316D01*
X152663500Y-128948134D01*
X152663500Y-127884500D01*
X152683502Y-127816379D01*
X152737158Y-127769886D01*
X152789500Y-127758500D01*
X155830507Y-127758500D01*
X155898628Y-127778502D01*
X155945121Y-127832158D01*
X155952543Y-127853763D01*
X155953255Y-127860316D01*
X155956027Y-127867711D01*
X155956028Y-127867714D01*
X155981467Y-127935572D01*
X156004385Y-127996705D01*
X156009771Y-128003891D01*
X156062953Y-128074852D01*
X156087801Y-128141358D01*
X156072748Y-128210741D01*
X156062953Y-128225982D01*
X156010214Y-128296352D01*
X156001676Y-128311946D01*
X155956522Y-128432394D01*
X155952895Y-128447649D01*
X155947369Y-128498514D01*
X155947000Y-128505328D01*
X155947000Y-129027885D01*
X155951475Y-129043124D01*
X155952865Y-129044329D01*
X155960548Y-129046000D01*
X158944884Y-129046000D01*
X158960123Y-129041525D01*
X158961328Y-129040135D01*
X158962999Y-129032452D01*
X158962999Y-128505331D01*
X158962629Y-128498510D01*
X158957105Y-128447648D01*
X158953479Y-128432396D01*
X158908324Y-128311946D01*
X158899786Y-128296352D01*
X158847047Y-128225982D01*
X158822199Y-128159476D01*
X158837252Y-128090093D01*
X158847047Y-128074852D01*
X158900229Y-128003891D01*
X158905615Y-127996705D01*
X158928533Y-127935572D01*
X158953972Y-127867714D01*
X158953973Y-127867711D01*
X158956745Y-127860316D01*
X158957372Y-127854547D01*
X158992126Y-127793709D01*
X159055081Y-127760887D01*
X159079493Y-127758500D01*
X159128219Y-127758500D01*
X159196340Y-127778502D01*
X159235363Y-127818197D01*
X159316522Y-127949348D01*
X159441697Y-128074305D01*
X159447927Y-128078145D01*
X159447928Y-128078146D01*
X159585288Y-128162816D01*
X159592262Y-128167115D01*
X159672005Y-128193564D01*
X159753611Y-128220632D01*
X159753613Y-128220632D01*
X159760139Y-128222797D01*
X159766975Y-128223497D01*
X159766978Y-128223498D01*
X159810031Y-128227909D01*
X159864600Y-128233500D01*
X160640400Y-128233500D01*
X160643646Y-128233163D01*
X160643650Y-128233163D01*
X160739308Y-128223238D01*
X160739312Y-128223237D01*
X160746166Y-128222526D01*
X160752702Y-128220345D01*
X160752704Y-128220345D01*
X160884806Y-128176272D01*
X160913946Y-128166550D01*
X161064348Y-128073478D01*
X161189305Y-127948303D01*
X161192102Y-127943765D01*
X161249353Y-127903176D01*
X161320276Y-127899946D01*
X161381687Y-127935572D01*
X161389062Y-127944068D01*
X161397098Y-127954207D01*
X161511829Y-128068739D01*
X161523240Y-128077751D01*
X161661243Y-128162816D01*
X161674424Y-128168963D01*
X161828710Y-128220138D01*
X161842086Y-128223005D01*
X161936438Y-128232672D01*
X161942854Y-128233000D01*
X162055385Y-128233000D01*
X162070624Y-128228525D01*
X162071829Y-128227135D01*
X162073500Y-128219452D01*
X162073500Y-128214884D01*
X162581500Y-128214884D01*
X162585975Y-128230123D01*
X162587365Y-128231328D01*
X162595048Y-128232999D01*
X162712095Y-128232999D01*
X162718614Y-128232662D01*
X162814206Y-128222743D01*
X162827600Y-128219851D01*
X162981784Y-128168412D01*
X162994962Y-128162239D01*
X163132807Y-128076937D01*
X163144208Y-128067901D01*
X163258739Y-127953171D01*
X163267751Y-127941760D01*
X163352816Y-127803757D01*
X163358963Y-127790576D01*
X163410138Y-127636290D01*
X163413005Y-127622914D01*
X163422672Y-127528562D01*
X163423000Y-127522146D01*
X163423000Y-127272115D01*
X163418525Y-127256876D01*
X163417135Y-127255671D01*
X163409452Y-127254000D01*
X162599615Y-127254000D01*
X162584376Y-127258475D01*
X162583171Y-127259865D01*
X162581500Y-127267548D01*
X162581500Y-128214884D01*
X162073500Y-128214884D01*
X162073500Y-126727885D01*
X162581500Y-126727885D01*
X162585975Y-126743124D01*
X162587365Y-126744329D01*
X162595048Y-126746000D01*
X163404884Y-126746000D01*
X163420123Y-126741525D01*
X163421328Y-126740135D01*
X163422999Y-126732452D01*
X163422999Y-126477905D01*
X163422662Y-126471386D01*
X163412743Y-126375794D01*
X163409851Y-126362400D01*
X163358412Y-126208216D01*
X163352239Y-126195038D01*
X163266937Y-126057193D01*
X163257901Y-126045792D01*
X163143171Y-125931261D01*
X163131760Y-125922249D01*
X162994017Y-125837343D01*
X162946524Y-125784571D01*
X162935100Y-125714499D01*
X162963374Y-125649375D01*
X162993830Y-125622939D01*
X163132807Y-125536937D01*
X163144208Y-125527901D01*
X163258739Y-125413171D01*
X163267751Y-125401760D01*
X163352816Y-125263757D01*
X163358963Y-125250576D01*
X163410138Y-125096290D01*
X163413005Y-125082914D01*
X163422672Y-124988562D01*
X163423000Y-124982146D01*
X163423000Y-124732115D01*
X163418525Y-124716876D01*
X163417135Y-124715671D01*
X163409452Y-124714000D01*
X162599615Y-124714000D01*
X162584376Y-124718475D01*
X162583171Y-124719865D01*
X162581500Y-124727548D01*
X162581500Y-125674882D01*
X162585643Y-125688992D01*
X162587868Y-125751273D01*
X162581500Y-125780547D01*
X162581500Y-126727885D01*
X162073500Y-126727885D01*
X162073500Y-125785118D01*
X162069357Y-125771008D01*
X162067132Y-125708727D01*
X162073500Y-125679453D01*
X162073500Y-124187885D01*
X162581500Y-124187885D01*
X162585975Y-124203124D01*
X162587365Y-124204329D01*
X162595048Y-124206000D01*
X163404884Y-124206000D01*
X163420123Y-124201525D01*
X163421328Y-124200135D01*
X163422999Y-124192452D01*
X163422999Y-123937905D01*
X163422662Y-123931386D01*
X163412743Y-123835794D01*
X163409851Y-123822400D01*
X163358412Y-123668216D01*
X163352239Y-123655038D01*
X163266937Y-123517193D01*
X163257901Y-123505792D01*
X163143171Y-123391261D01*
X163131760Y-123382249D01*
X162993757Y-123297184D01*
X162980576Y-123291037D01*
X162826290Y-123239862D01*
X162812914Y-123236995D01*
X162718562Y-123227328D01*
X162712145Y-123227000D01*
X162599615Y-123227000D01*
X162584376Y-123231475D01*
X162583171Y-123232865D01*
X162581500Y-123240548D01*
X162581500Y-124187885D01*
X162073500Y-124187885D01*
X162073500Y-123245116D01*
X162069025Y-123229877D01*
X162067635Y-123228672D01*
X162059952Y-123227001D01*
X161942905Y-123227001D01*
X161936386Y-123227338D01*
X161840794Y-123237257D01*
X161827400Y-123240149D01*
X161673216Y-123291588D01*
X161660038Y-123297761D01*
X161522193Y-123383063D01*
X161510792Y-123392099D01*
X161396262Y-123506828D01*
X161389206Y-123515762D01*
X161331288Y-123556823D01*
X161260365Y-123560053D01*
X161198954Y-123524426D01*
X161192154Y-123516593D01*
X161188478Y-123510652D01*
X161063303Y-123385695D01*
X161058507Y-123382739D01*
X161017845Y-123325386D01*
X161011000Y-123284422D01*
X161011000Y-120460038D01*
X161031002Y-120391917D01*
X161084658Y-120345424D01*
X161097123Y-120340515D01*
X161148106Y-120323505D01*
X161177946Y-120313550D01*
X161328348Y-120220478D01*
X161453305Y-120095303D01*
X161457699Y-120088175D01*
X161542275Y-119950968D01*
X161542276Y-119950966D01*
X161546115Y-119944738D01*
X161601797Y-119776861D01*
X161602578Y-119769245D01*
X161608750Y-119708996D01*
X161612500Y-119672400D01*
X161612500Y-118113371D01*
X161632502Y-118045250D01*
X161649405Y-118024276D01*
X162065978Y-117607703D01*
X166165743Y-117607703D01*
X166166302Y-117611947D01*
X166166302Y-117611951D01*
X166180880Y-117722682D01*
X166203268Y-117892734D01*
X166204401Y-117896874D01*
X166204401Y-117896876D01*
X166220214Y-117954678D01*
X166279129Y-118170036D01*
X166280813Y-118173984D01*
X166376027Y-118397208D01*
X166391923Y-118434476D01*
X166403693Y-118454142D01*
X166516629Y-118642844D01*
X166539561Y-118681161D01*
X166719313Y-118905528D01*
X166927851Y-119103423D01*
X167161317Y-119271186D01*
X167165112Y-119273195D01*
X167165113Y-119273196D01*
X167186869Y-119284715D01*
X167415392Y-119405712D01*
X167439699Y-119414607D01*
X167589797Y-119469535D01*
X167685373Y-119504511D01*
X167966264Y-119565755D01*
X167994841Y-119568004D01*
X168189282Y-119583307D01*
X168189291Y-119583307D01*
X168191739Y-119583500D01*
X168347271Y-119583500D01*
X168349407Y-119583354D01*
X168349418Y-119583354D01*
X168557548Y-119569165D01*
X168557554Y-119569164D01*
X168561825Y-119568873D01*
X168566020Y-119568004D01*
X168566022Y-119568004D01*
X168702584Y-119539723D01*
X168843342Y-119510574D01*
X169114343Y-119414607D01*
X169369812Y-119282750D01*
X169373313Y-119280289D01*
X169373317Y-119280287D01*
X169487418Y-119200095D01*
X169605023Y-119117441D01*
X169815622Y-118921740D01*
X169997713Y-118699268D01*
X170147927Y-118454142D01*
X170183894Y-118372208D01*
X170261757Y-118194830D01*
X170263483Y-118190898D01*
X170342244Y-117914406D01*
X170382751Y-117629784D01*
X170382845Y-117611951D01*
X170384235Y-117346583D01*
X170384235Y-117346576D01*
X170384257Y-117342297D01*
X170346732Y-117057266D01*
X170270871Y-116779964D01*
X170158077Y-116515524D01*
X170010439Y-116268839D01*
X169830687Y-116044472D01*
X169707289Y-115927372D01*
X169625258Y-115849527D01*
X169625255Y-115849525D01*
X169622149Y-115846577D01*
X169432064Y-115709987D01*
X169392172Y-115681321D01*
X169392171Y-115681320D01*
X169388683Y-115678814D01*
X169366843Y-115667250D01*
X169246260Y-115603405D01*
X169134608Y-115544288D01*
X168864627Y-115445489D01*
X168583736Y-115384245D01*
X168552685Y-115381801D01*
X168360718Y-115366693D01*
X168360709Y-115366693D01*
X168358261Y-115366500D01*
X168202729Y-115366500D01*
X168200593Y-115366646D01*
X168200582Y-115366646D01*
X167992452Y-115380835D01*
X167992446Y-115380836D01*
X167988175Y-115381127D01*
X167983980Y-115381996D01*
X167983978Y-115381996D01*
X167847417Y-115410276D01*
X167706658Y-115439426D01*
X167435657Y-115535393D01*
X167180188Y-115667250D01*
X167176687Y-115669711D01*
X167176683Y-115669713D01*
X167166608Y-115676794D01*
X166944977Y-115832559D01*
X166734378Y-116028260D01*
X166552287Y-116250732D01*
X166402073Y-116495858D01*
X166286517Y-116759102D01*
X166207756Y-117035594D01*
X166167249Y-117320216D01*
X166167227Y-117324505D01*
X166167226Y-117324512D01*
X166165828Y-117591432D01*
X166165743Y-117607703D01*
X162065978Y-117607703D01*
X167646756Y-112026925D01*
X167714511Y-111991840D01*
X167744900Y-111986619D01*
X167751610Y-111985652D01*
X167781245Y-111982197D01*
X167808411Y-111979030D01*
X167808414Y-111979029D01*
X167815681Y-111978182D01*
X167824607Y-111974942D01*
X167846258Y-111969201D01*
X167855614Y-111967594D01*
X167914996Y-111942327D01*
X167921289Y-111939848D01*
X167981937Y-111917833D01*
X167988739Y-111913374D01*
X167989878Y-111912627D01*
X168009615Y-111902067D01*
X168011623Y-111901213D01*
X168011635Y-111901206D01*
X168018364Y-111898343D01*
X168024256Y-111894007D01*
X168024261Y-111894004D01*
X168070332Y-111860100D01*
X168075928Y-111856210D01*
X168080986Y-111852894D01*
X168129852Y-111820856D01*
X168136384Y-111813961D01*
X168153166Y-111799139D01*
X168160818Y-111793508D01*
X168165553Y-111787935D01*
X168165560Y-111787928D01*
X168202581Y-111744351D01*
X168207133Y-111739277D01*
X168246457Y-111697766D01*
X168246458Y-111697765D01*
X168251490Y-111692453D01*
X168255165Y-111686126D01*
X168255172Y-111686117D01*
X168256267Y-111684232D01*
X168269185Y-111665953D01*
X168270594Y-111664294D01*
X168270596Y-111664291D01*
X168275333Y-111658715D01*
X168278659Y-111652201D01*
X168278662Y-111652197D01*
X168304670Y-111601264D01*
X168307932Y-111595281D01*
X168336649Y-111545841D01*
X168336650Y-111545839D01*
X168340326Y-111539510D01*
X168342447Y-111532506D01*
X168342449Y-111532502D01*
X168343078Y-111530425D01*
X168351451Y-111509649D01*
X168355769Y-111501192D01*
X168371108Y-111438505D01*
X168372891Y-111431988D01*
X168391595Y-111370233D01*
X168392183Y-111360754D01*
X168395551Y-111338617D01*
X168396474Y-111334846D01*
X168396476Y-111334834D01*
X168397808Y-111329390D01*
X168398500Y-111318236D01*
X168398500Y-111262835D01*
X168398742Y-111255033D01*
X168402093Y-111201013D01*
X168402547Y-111193702D01*
X168400320Y-111180740D01*
X168398500Y-111159404D01*
X168398500Y-110899497D01*
X168418502Y-110831376D01*
X168472158Y-110784883D01*
X168542432Y-110774779D01*
X168561759Y-110779132D01*
X168695293Y-110820468D01*
X168695296Y-110820469D01*
X168701180Y-110822290D01*
X168707305Y-110822934D01*
X168707306Y-110822934D01*
X168896622Y-110842832D01*
X168896623Y-110842832D01*
X168902750Y-110843476D01*
X168986014Y-110835898D01*
X169098457Y-110825665D01*
X169098460Y-110825664D01*
X169104596Y-110825106D01*
X169110502Y-110823368D01*
X169110506Y-110823367D01*
X169255763Y-110780615D01*
X169299029Y-110767881D01*
X169304486Y-110765028D01*
X169304489Y-110765027D01*
X169441765Y-110693261D01*
X169478460Y-110674077D01*
X169478462Y-110674077D01*
X169478645Y-110673981D01*
X169478663Y-110674016D01*
X169544441Y-110654111D01*
X169605409Y-110669271D01*
X169777565Y-110762356D01*
X169850338Y-110784883D01*
X169965293Y-110820468D01*
X169965296Y-110820469D01*
X169971180Y-110822290D01*
X169977305Y-110822934D01*
X169977306Y-110822934D01*
X170166622Y-110842832D01*
X170166623Y-110842832D01*
X170172750Y-110843476D01*
X170256014Y-110835898D01*
X170368457Y-110825665D01*
X170368460Y-110825664D01*
X170374596Y-110825106D01*
X170380502Y-110823368D01*
X170380506Y-110823367D01*
X170525763Y-110780615D01*
X170569029Y-110767881D01*
X170574486Y-110765028D01*
X170574489Y-110765027D01*
X170711765Y-110693261D01*
X170748645Y-110673981D01*
X170767155Y-110659099D01*
X170901801Y-110550840D01*
X170906601Y-110546981D01*
X171036881Y-110391719D01*
X171039845Y-110386327D01*
X171039848Y-110386323D01*
X171131556Y-110219506D01*
X171134523Y-110214109D01*
X171195807Y-110020916D01*
X171213500Y-109863183D01*
X171213500Y-109671371D01*
X171233502Y-109603250D01*
X171250405Y-109582276D01*
X174688297Y-106144384D01*
X174750609Y-106110358D01*
X174790999Y-106108216D01*
X174846866Y-106114285D01*
X176943134Y-106114285D01*
X177005316Y-106107530D01*
X177141705Y-106056400D01*
X177258261Y-105969046D01*
X177345615Y-105852490D01*
X177396745Y-105716101D01*
X177403500Y-105653919D01*
X177403500Y-103557651D01*
X177396745Y-103495469D01*
X177345615Y-103359080D01*
X177258261Y-103242524D01*
X177141705Y-103155170D01*
X177005316Y-103104040D01*
X176943134Y-103097285D01*
X174846866Y-103097285D01*
X174784684Y-103104040D01*
X174648295Y-103155170D01*
X174531739Y-103242524D01*
X174444385Y-103359080D01*
X174393255Y-103495469D01*
X174386500Y-103557651D01*
X174386500Y-104248629D01*
X174366498Y-104316750D01*
X174349595Y-104337724D01*
X170395835Y-108291484D01*
X170333523Y-108325510D01*
X170293570Y-108327699D01*
X170234592Y-108321500D01*
X170193378Y-108317168D01*
X170193377Y-108317168D01*
X170187250Y-108316524D01*
X170132575Y-108321500D01*
X169991543Y-108334335D01*
X169991540Y-108334336D01*
X169985404Y-108334894D01*
X169979498Y-108336632D01*
X169979494Y-108336633D01*
X169830075Y-108380610D01*
X169759079Y-108380655D01*
X169699328Y-108342309D01*
X169669794Y-108277747D01*
X169668500Y-108259736D01*
X169668500Y-105207063D01*
X169669933Y-105188114D01*
X169672097Y-105173886D01*
X169673198Y-105166651D01*
X169668915Y-105113990D01*
X169668500Y-105103777D01*
X169668500Y-105095707D01*
X169668078Y-105092087D01*
X169668077Y-105092069D01*
X169665208Y-105067461D01*
X169664775Y-105063086D01*
X169659454Y-104997661D01*
X169659453Y-104997658D01*
X169658860Y-104990363D01*
X169656604Y-104983399D01*
X169655413Y-104977440D01*
X169654029Y-104971585D01*
X169653182Y-104964319D01*
X169628265Y-104895673D01*
X169626848Y-104891545D01*
X169606607Y-104829064D01*
X169606606Y-104829062D01*
X169604351Y-104822101D01*
X169600555Y-104815846D01*
X169598049Y-104810372D01*
X169595330Y-104804942D01*
X169592833Y-104798063D01*
X169552809Y-104737016D01*
X169550472Y-104733312D01*
X169543972Y-104722599D01*
X169525692Y-104692475D01*
X169515509Y-104675693D01*
X169515505Y-104675688D01*
X169512595Y-104670892D01*
X169507745Y-104665400D01*
X169505197Y-104662516D01*
X169505223Y-104662493D01*
X169502574Y-104659503D01*
X169499866Y-104656264D01*
X169495856Y-104650148D01*
X169490549Y-104645121D01*
X169490546Y-104645117D01*
X169439617Y-104596872D01*
X169437175Y-104594494D01*
X167615405Y-102772724D01*
X167581379Y-102710412D01*
X167578500Y-102683629D01*
X167578500Y-102199600D01*
X167571615Y-102133241D01*
X167568238Y-102100692D01*
X167568237Y-102100688D01*
X167567526Y-102093834D01*
X167554706Y-102055406D01*
X167513868Y-101933002D01*
X167511550Y-101926054D01*
X167418478Y-101775652D01*
X167331891Y-101689216D01*
X167297812Y-101626934D01*
X167302815Y-101556114D01*
X167331736Y-101511025D01*
X167414134Y-101428483D01*
X167419305Y-101423303D01*
X167423146Y-101417072D01*
X167508275Y-101278968D01*
X167508276Y-101278966D01*
X167512115Y-101272738D01*
X167548170Y-101164036D01*
X167565632Y-101111389D01*
X167565632Y-101111387D01*
X167567797Y-101104861D01*
X167568589Y-101097137D01*
X167573872Y-101045568D01*
X167578500Y-101000400D01*
X167578500Y-100838455D01*
X175027160Y-100838455D01*
X175032887Y-100846105D01*
X175204042Y-100950990D01*
X175212837Y-100955472D01*
X175422988Y-101042519D01*
X175432373Y-101045568D01*
X175653554Y-101098670D01*
X175663301Y-101100213D01*
X175890070Y-101118060D01*
X175899930Y-101118060D01*
X176126699Y-101100213D01*
X176136446Y-101098670D01*
X176357627Y-101045568D01*
X176367012Y-101042519D01*
X176577163Y-100955472D01*
X176585958Y-100950990D01*
X176753445Y-100848353D01*
X176762907Y-100837895D01*
X176759124Y-100829119D01*
X175907812Y-99977807D01*
X175893868Y-99970193D01*
X175892035Y-99970324D01*
X175885420Y-99974575D01*
X175033920Y-100826075D01*
X175027160Y-100838455D01*
X167578500Y-100838455D01*
X167578500Y-100199600D01*
X167573624Y-100152606D01*
X167568238Y-100100692D01*
X167568237Y-100100688D01*
X167567526Y-100093834D01*
X167560520Y-100072833D01*
X167513868Y-99933002D01*
X167511550Y-99926054D01*
X167418478Y-99775652D01*
X167401536Y-99758739D01*
X167298483Y-99655866D01*
X167293303Y-99650695D01*
X167228444Y-99610715D01*
X174382725Y-99610715D01*
X174400572Y-99837484D01*
X174402115Y-99847231D01*
X174455217Y-100068412D01*
X174458266Y-100077797D01*
X174545313Y-100287948D01*
X174549795Y-100296743D01*
X174652432Y-100464230D01*
X174662890Y-100473692D01*
X174671666Y-100469909D01*
X175522978Y-99618597D01*
X175529356Y-99606917D01*
X176259408Y-99606917D01*
X176259539Y-99608750D01*
X176263790Y-99615365D01*
X177115290Y-100466865D01*
X177127670Y-100473625D01*
X177135320Y-100467898D01*
X177240205Y-100296743D01*
X177244687Y-100287948D01*
X177331734Y-100077797D01*
X177334783Y-100068412D01*
X177387885Y-99847231D01*
X177389428Y-99837484D01*
X177407275Y-99610715D01*
X177407275Y-99600855D01*
X177389428Y-99374086D01*
X177387885Y-99364339D01*
X177334783Y-99143158D01*
X177331734Y-99133773D01*
X177244687Y-98923622D01*
X177240205Y-98914827D01*
X177137568Y-98747340D01*
X177127110Y-98737878D01*
X177118334Y-98741661D01*
X176267022Y-99592973D01*
X176259408Y-99606917D01*
X175529356Y-99606917D01*
X175530592Y-99604653D01*
X175530461Y-99602820D01*
X175526210Y-99596205D01*
X174674710Y-98744705D01*
X174662330Y-98737945D01*
X174654680Y-98743672D01*
X174549795Y-98914827D01*
X174545313Y-98923622D01*
X174458266Y-99133773D01*
X174455217Y-99143158D01*
X174402115Y-99364339D01*
X174400572Y-99374086D01*
X174382725Y-99600855D01*
X174382725Y-99610715D01*
X167228444Y-99610715D01*
X167188383Y-99586021D01*
X167140891Y-99533250D01*
X167128500Y-99478762D01*
X167128500Y-98373675D01*
X175027093Y-98373675D01*
X175030876Y-98382451D01*
X175882188Y-99233763D01*
X175896132Y-99241377D01*
X175897965Y-99241246D01*
X175904580Y-99236995D01*
X176756080Y-98385495D01*
X176762840Y-98373115D01*
X176757113Y-98365465D01*
X176585958Y-98260580D01*
X176577163Y-98256098D01*
X176367012Y-98169051D01*
X176357627Y-98166002D01*
X176136446Y-98112900D01*
X176126699Y-98111357D01*
X175899930Y-98093510D01*
X175890070Y-98093510D01*
X175663301Y-98111357D01*
X175653554Y-98112900D01*
X175432373Y-98166002D01*
X175422988Y-98169051D01*
X175212837Y-98256098D01*
X175204042Y-98260580D01*
X175036555Y-98363217D01*
X175027093Y-98373675D01*
X167128500Y-98373675D01*
X167128500Y-95289028D01*
X167148502Y-95220907D01*
X167206281Y-95172620D01*
X167265136Y-95148241D01*
X167391638Y-95074319D01*
X167497879Y-95012237D01*
X167497880Y-95012236D01*
X167501582Y-95010073D01*
X167717089Y-94841094D01*
X167729929Y-94827845D01*
X167886544Y-94666230D01*
X167907669Y-94644431D01*
X167910202Y-94640983D01*
X167910206Y-94640978D01*
X168067257Y-94427178D01*
X168069795Y-94423723D01*
X168074688Y-94414712D01*
X168198418Y-94186830D01*
X168198419Y-94186828D01*
X168200468Y-94183054D01*
X168297269Y-93926877D01*
X168324195Y-93809310D01*
X168357449Y-93664117D01*
X168357450Y-93664113D01*
X168358407Y-93659933D01*
X168364712Y-93589294D01*
X168382531Y-93389627D01*
X168382531Y-93389625D01*
X168382751Y-93387161D01*
X168383193Y-93345000D01*
X168383024Y-93342519D01*
X168364859Y-93076055D01*
X168364858Y-93076049D01*
X168364567Y-93071778D01*
X168309032Y-92803612D01*
X168217617Y-92545465D01*
X168092013Y-92302112D01*
X168082040Y-92287921D01*
X167937008Y-92081562D01*
X167934545Y-92078057D01*
X167787668Y-91919998D01*
X167751046Y-91880588D01*
X167751043Y-91880585D01*
X167748125Y-91877445D01*
X167744810Y-91874731D01*
X167744806Y-91874728D01*
X167574595Y-91735412D01*
X167536205Y-91703990D01*
X167302704Y-91560901D01*
X167298768Y-91559173D01*
X167055873Y-91452549D01*
X167055869Y-91452548D01*
X167051945Y-91450825D01*
X166788566Y-91375800D01*
X166784324Y-91375196D01*
X166784318Y-91375195D01*
X166583834Y-91346662D01*
X166517443Y-91337213D01*
X166373589Y-91336460D01*
X166247877Y-91335802D01*
X166247871Y-91335802D01*
X166243591Y-91335780D01*
X166239347Y-91336339D01*
X166239343Y-91336339D01*
X166120302Y-91352011D01*
X165972078Y-91371525D01*
X165967938Y-91372658D01*
X165967936Y-91372658D01*
X165895008Y-91392609D01*
X165707928Y-91443788D01*
X165703980Y-91445472D01*
X165459982Y-91549546D01*
X165459978Y-91549548D01*
X165456030Y-91551232D01*
X165436125Y-91563145D01*
X165224725Y-91689664D01*
X165224721Y-91689667D01*
X165221043Y-91691868D01*
X165007318Y-91863094D01*
X164818808Y-92061742D01*
X164659002Y-92284136D01*
X164551551Y-92487078D01*
X164534406Y-92519459D01*
X164484853Y-92570302D01*
X164423051Y-92586500D01*
X158508123Y-92586500D01*
X158440002Y-92566498D01*
X158393509Y-92512842D01*
X158383405Y-92442568D01*
X158390141Y-92416271D01*
X158398971Y-92392718D01*
X158398973Y-92392712D01*
X158401745Y-92385316D01*
X158408500Y-92323134D01*
X158408500Y-90971342D01*
X158428502Y-90903221D01*
X158482158Y-90856728D01*
X158552432Y-90846624D01*
X158578730Y-90853360D01*
X158632395Y-90873478D01*
X158647649Y-90877105D01*
X158698514Y-90882631D01*
X158705328Y-90883000D01*
X159727885Y-90883000D01*
X159743124Y-90878525D01*
X159744329Y-90877135D01*
X159746000Y-90869452D01*
X159746000Y-90147115D01*
X159741525Y-90131876D01*
X159740135Y-90130671D01*
X159732452Y-90129000D01*
X158328268Y-90129000D01*
X158260147Y-90108998D01*
X158252703Y-90103826D01*
X158202334Y-90066077D01*
X158146705Y-90024385D01*
X158010316Y-89973255D01*
X157948134Y-89966500D01*
X156851866Y-89966500D01*
X156789684Y-89973255D01*
X156653295Y-90024385D01*
X156536739Y-90111739D01*
X156500824Y-90159660D01*
X156443967Y-90202173D01*
X156373149Y-90207199D01*
X156310855Y-90173139D01*
X156299183Y-90159670D01*
X156263261Y-90111739D01*
X156146705Y-90024385D01*
X156010316Y-89973255D01*
X155948134Y-89966500D01*
X155885371Y-89966500D01*
X155817250Y-89946498D01*
X155770757Y-89892842D01*
X155760653Y-89822568D01*
X155790147Y-89757988D01*
X155796276Y-89751405D01*
X157826787Y-87720894D01*
X157889099Y-87686868D01*
X157915882Y-87683989D01*
X158115500Y-87683989D01*
X158183621Y-87703991D01*
X158230114Y-87757647D01*
X158241500Y-87809989D01*
X158241500Y-88423134D01*
X158248255Y-88485316D01*
X158299385Y-88621705D01*
X158386739Y-88738261D01*
X158393919Y-88743642D01*
X158435074Y-88774486D01*
X158477589Y-88831345D01*
X158482615Y-88902164D01*
X158448555Y-88964457D01*
X158435075Y-88976138D01*
X158394274Y-89006717D01*
X158381715Y-89019276D01*
X158305214Y-89121351D01*
X158296676Y-89136946D01*
X158251522Y-89257394D01*
X158247895Y-89272649D01*
X158242369Y-89323514D01*
X158242000Y-89330328D01*
X158242000Y-89602885D01*
X158246475Y-89618124D01*
X158247865Y-89619329D01*
X158255548Y-89621000D01*
X160128000Y-89621000D01*
X160196121Y-89641002D01*
X160242614Y-89694658D01*
X160254000Y-89747000D01*
X160254000Y-90864884D01*
X160258475Y-90880123D01*
X160259865Y-90881328D01*
X160267548Y-90882999D01*
X161294669Y-90882999D01*
X161301490Y-90882629D01*
X161352352Y-90877105D01*
X161367604Y-90873479D01*
X161488054Y-90828324D01*
X161503649Y-90819786D01*
X161605724Y-90743285D01*
X161618285Y-90730724D01*
X161694786Y-90628649D01*
X161703324Y-90613054D01*
X161748478Y-90492606D01*
X161752105Y-90477351D01*
X161756059Y-90440957D01*
X161783301Y-90375395D01*
X161841664Y-90334969D01*
X161912618Y-90332514D01*
X161973636Y-90368809D01*
X162000846Y-90414689D01*
X162051588Y-90566784D01*
X162057761Y-90579962D01*
X162143063Y-90717807D01*
X162152099Y-90729208D01*
X162266829Y-90843739D01*
X162278240Y-90852751D01*
X162416243Y-90937816D01*
X162429424Y-90943963D01*
X162583710Y-90995138D01*
X162597086Y-90998005D01*
X162691438Y-91007672D01*
X162697854Y-91008000D01*
X162922885Y-91008000D01*
X162938124Y-91003525D01*
X162939329Y-91002135D01*
X162941000Y-90994452D01*
X162941000Y-90989884D01*
X163449000Y-90989884D01*
X163453475Y-91005123D01*
X163454865Y-91006328D01*
X163462548Y-91007999D01*
X163692095Y-91007999D01*
X163698614Y-91007662D01*
X163794206Y-90997743D01*
X163807600Y-90994851D01*
X163961784Y-90943412D01*
X163974962Y-90937239D01*
X164112807Y-90851937D01*
X164124208Y-90842901D01*
X164238739Y-90728171D01*
X164247751Y-90716760D01*
X164332816Y-90578757D01*
X164338963Y-90565576D01*
X164390138Y-90411290D01*
X164393005Y-90397914D01*
X164402672Y-90303562D01*
X164403000Y-90297146D01*
X164403000Y-90172115D01*
X164398525Y-90156876D01*
X164397135Y-90155671D01*
X164389452Y-90154000D01*
X163467115Y-90154000D01*
X163451876Y-90158475D01*
X163450671Y-90159865D01*
X163449000Y-90167548D01*
X163449000Y-90989884D01*
X162941000Y-90989884D01*
X162941000Y-89772000D01*
X162961002Y-89703879D01*
X163014658Y-89657386D01*
X163067000Y-89646000D01*
X164384884Y-89646000D01*
X164400123Y-89641525D01*
X164401328Y-89640135D01*
X164402999Y-89632452D01*
X164402999Y-89502905D01*
X164402662Y-89496386D01*
X164392743Y-89400794D01*
X164389851Y-89387400D01*
X164338412Y-89233216D01*
X164332239Y-89220038D01*
X164246937Y-89082193D01*
X164237901Y-89070792D01*
X164156538Y-88989570D01*
X164122459Y-88927287D01*
X164127462Y-88856467D01*
X164156383Y-88811380D01*
X164239130Y-88728488D01*
X164239134Y-88728483D01*
X164244305Y-88723303D01*
X164271921Y-88678502D01*
X164333275Y-88578968D01*
X164333276Y-88578966D01*
X164337115Y-88572738D01*
X164368717Y-88477460D01*
X164390632Y-88411389D01*
X164390632Y-88411387D01*
X164392797Y-88404861D01*
X164403500Y-88300400D01*
X164403500Y-87499600D01*
X164398373Y-87450188D01*
X164393238Y-87400692D01*
X164393237Y-87400688D01*
X164392526Y-87393834D01*
X164384543Y-87369904D01*
X164338868Y-87233002D01*
X164336550Y-87226054D01*
X164271608Y-87121109D01*
X164247329Y-87081874D01*
X164247326Y-87081870D01*
X164243478Y-87075652D01*
X164240114Y-87072294D01*
X164213872Y-87007460D01*
X164227043Y-86937696D01*
X164239785Y-86917831D01*
X164244305Y-86913303D01*
X164322653Y-86786200D01*
X164333275Y-86768968D01*
X164333276Y-86768966D01*
X164337115Y-86762738D01*
X164383893Y-86621705D01*
X164390632Y-86601389D01*
X164390632Y-86601387D01*
X164392797Y-86594861D01*
X164403500Y-86490400D01*
X164403500Y-85857703D01*
X166165743Y-85857703D01*
X166166302Y-85861947D01*
X166166302Y-85861951D01*
X166179415Y-85961549D01*
X166203268Y-86142734D01*
X166204401Y-86146874D01*
X166204401Y-86146876D01*
X166208035Y-86160159D01*
X166279129Y-86420036D01*
X166280813Y-86423984D01*
X166365149Y-86621705D01*
X166391923Y-86684476D01*
X166445606Y-86774173D01*
X166535506Y-86924385D01*
X166539561Y-86931161D01*
X166719313Y-87155528D01*
X166736397Y-87171740D01*
X166903467Y-87330283D01*
X166927851Y-87353423D01*
X167161317Y-87521186D01*
X167165112Y-87523195D01*
X167165113Y-87523196D01*
X167186869Y-87534715D01*
X167415392Y-87655712D01*
X167439699Y-87664607D01*
X167600938Y-87723612D01*
X167685373Y-87754511D01*
X167966264Y-87815755D01*
X167994841Y-87818004D01*
X168189282Y-87833307D01*
X168189291Y-87833307D01*
X168191739Y-87833500D01*
X168347271Y-87833500D01*
X168349407Y-87833354D01*
X168349418Y-87833354D01*
X168557548Y-87819165D01*
X168557554Y-87819164D01*
X168561825Y-87818873D01*
X168566020Y-87818004D01*
X168566022Y-87818004D01*
X168702584Y-87789723D01*
X168843342Y-87760574D01*
X169114343Y-87664607D01*
X169202363Y-87619177D01*
X169366005Y-87534715D01*
X169366006Y-87534715D01*
X169369812Y-87532750D01*
X169373313Y-87530289D01*
X169373317Y-87530287D01*
X169498408Y-87442371D01*
X169605023Y-87367441D01*
X169683403Y-87294606D01*
X169812479Y-87174661D01*
X169812481Y-87174658D01*
X169815622Y-87171740D01*
X169997713Y-86949268D01*
X170147927Y-86704142D01*
X170188433Y-86611868D01*
X170261757Y-86444830D01*
X170263483Y-86440898D01*
X170288663Y-86352505D01*
X170337145Y-86182307D01*
X170342244Y-86164406D01*
X170382751Y-85879784D01*
X170382845Y-85861951D01*
X170384235Y-85596583D01*
X170384235Y-85596576D01*
X170384257Y-85592297D01*
X170346732Y-85307266D01*
X170270871Y-85029964D01*
X170242797Y-84964145D01*
X170159763Y-84769476D01*
X170159761Y-84769472D01*
X170158077Y-84765524D01*
X170034182Y-84558510D01*
X170012643Y-84522521D01*
X170012640Y-84522517D01*
X170010439Y-84518839D01*
X169830687Y-84294472D01*
X169622149Y-84096577D01*
X169388683Y-83928814D01*
X169366843Y-83917250D01*
X169298289Y-83880953D01*
X169134608Y-83794288D01*
X168864627Y-83695489D01*
X168583736Y-83634245D01*
X168552685Y-83631801D01*
X168360718Y-83616693D01*
X168360709Y-83616693D01*
X168358261Y-83616500D01*
X168202729Y-83616500D01*
X168200593Y-83616646D01*
X168200582Y-83616646D01*
X167992452Y-83630835D01*
X167992446Y-83630836D01*
X167988175Y-83631127D01*
X167983980Y-83631996D01*
X167983978Y-83631996D01*
X167847416Y-83660277D01*
X167706658Y-83689426D01*
X167435657Y-83785393D01*
X167180188Y-83917250D01*
X167176687Y-83919711D01*
X167176683Y-83919713D01*
X167166594Y-83926804D01*
X166944977Y-84082559D01*
X166734378Y-84278260D01*
X166552287Y-84500732D01*
X166402073Y-84745858D01*
X166400347Y-84749791D01*
X166400346Y-84749792D01*
X166368828Y-84821593D01*
X166286517Y-85009102D01*
X166285342Y-85013229D01*
X166285341Y-85013230D01*
X166281699Y-85026016D01*
X166207756Y-85285594D01*
X166190076Y-85409824D01*
X166168082Y-85564366D01*
X166167249Y-85570216D01*
X166167227Y-85574505D01*
X166167226Y-85574512D01*
X166165765Y-85853417D01*
X166165743Y-85857703D01*
X164403500Y-85857703D01*
X164403500Y-85689600D01*
X164403163Y-85686350D01*
X164393238Y-85590692D01*
X164393237Y-85590688D01*
X164392526Y-85583834D01*
X164336550Y-85416054D01*
X164243478Y-85265652D01*
X164156891Y-85179216D01*
X164122812Y-85116934D01*
X164127815Y-85046114D01*
X164156736Y-85001025D01*
X164239134Y-84918483D01*
X164244305Y-84913303D01*
X164251364Y-84901851D01*
X164333275Y-84768968D01*
X164333276Y-84768966D01*
X164337115Y-84762738D01*
X164388692Y-84607237D01*
X164390632Y-84601389D01*
X164390632Y-84601387D01*
X164392797Y-84594861D01*
X164396522Y-84558510D01*
X164397909Y-84544969D01*
X164403500Y-84490400D01*
X164403500Y-83689600D01*
X164403163Y-83686350D01*
X164393238Y-83590692D01*
X164393237Y-83590688D01*
X164392526Y-83583834D01*
X164336550Y-83416054D01*
X164243478Y-83265652D01*
X164118303Y-83140695D01*
X164075898Y-83114556D01*
X163973968Y-83051725D01*
X163973966Y-83051724D01*
X163967738Y-83047885D01*
X163858761Y-83011739D01*
X163806389Y-82994368D01*
X163806387Y-82994368D01*
X163799861Y-82992203D01*
X163793025Y-82991503D01*
X163793022Y-82991502D01*
X163749969Y-82987091D01*
X163695400Y-82981500D01*
X162694600Y-82981500D01*
X162691354Y-82981837D01*
X162691350Y-82981837D01*
X162595692Y-82991762D01*
X162595688Y-82991763D01*
X162588834Y-82992474D01*
X162582298Y-82994655D01*
X162582296Y-82994655D01*
X162509569Y-83018919D01*
X162421054Y-83048450D01*
X162270652Y-83141522D01*
X162265479Y-83146704D01*
X162232722Y-83179518D01*
X162170439Y-83213597D01*
X162143549Y-83216500D01*
X161821009Y-83216500D01*
X161752888Y-83196498D01*
X161706395Y-83142842D01*
X161704097Y-83137306D01*
X161703767Y-83136703D01*
X161700615Y-83128295D01*
X161613261Y-83011739D01*
X161565340Y-82975824D01*
X161522827Y-82918967D01*
X161517801Y-82848149D01*
X161551861Y-82785855D01*
X161565330Y-82774183D01*
X161613261Y-82738261D01*
X161653976Y-82683935D01*
X161710835Y-82641420D01*
X161754802Y-82633500D01*
X164681065Y-82633500D01*
X164749186Y-82653502D01*
X164790184Y-82696500D01*
X164868960Y-82832944D01*
X164873378Y-82837851D01*
X164873379Y-82837852D01*
X164906827Y-82875000D01*
X164996747Y-82974866D01*
X165047498Y-83011739D01*
X165145400Y-83082869D01*
X165151248Y-83087118D01*
X165157276Y-83089802D01*
X165157278Y-83089803D01*
X165319681Y-83162109D01*
X165325712Y-83164794D01*
X165394983Y-83179518D01*
X165506056Y-83203128D01*
X165506061Y-83203128D01*
X165512513Y-83204500D01*
X165703487Y-83204500D01*
X165709939Y-83203128D01*
X165709944Y-83203128D01*
X165821017Y-83179518D01*
X165890288Y-83164794D01*
X165896319Y-83162109D01*
X166058722Y-83089803D01*
X166058724Y-83089802D01*
X166064752Y-83087118D01*
X166070601Y-83082869D01*
X166168502Y-83011739D01*
X166219253Y-82974866D01*
X166309173Y-82875000D01*
X166342621Y-82837852D01*
X166342622Y-82837851D01*
X166347040Y-82832944D01*
X166426581Y-82695176D01*
X166439223Y-82673279D01*
X166439224Y-82673278D01*
X166442527Y-82667556D01*
X166501542Y-82485928D01*
X166521504Y-82296000D01*
X166501542Y-82106072D01*
X166442527Y-81924444D01*
X166347040Y-81759056D01*
X166219253Y-81617134D01*
X166120157Y-81545136D01*
X166070094Y-81508763D01*
X166070093Y-81508762D01*
X166064752Y-81504882D01*
X166056042Y-81501004D01*
X166020250Y-81485068D01*
X165966155Y-81439088D01*
X165945500Y-81369962D01*
X165945500Y-80924371D01*
X165965502Y-80856250D01*
X165982405Y-80835276D01*
X167434278Y-79383403D01*
X167496590Y-79349377D01*
X167567293Y-79354400D01*
X167569339Y-79355161D01*
X167573257Y-79356930D01*
X167577379Y-79358151D01*
X167831723Y-79433491D01*
X167831727Y-79433492D01*
X167835836Y-79434709D01*
X167840070Y-79435357D01*
X167840075Y-79435358D01*
X168102298Y-79475483D01*
X168102300Y-79475483D01*
X168106540Y-79476132D01*
X168245912Y-79478322D01*
X168376071Y-79480367D01*
X168376077Y-79480367D01*
X168380362Y-79480434D01*
X168652235Y-79447534D01*
X168917127Y-79378041D01*
X168921087Y-79376401D01*
X168921092Y-79376399D01*
X169048875Y-79323469D01*
X169170136Y-79273241D01*
X169375086Y-79153478D01*
X169402879Y-79137237D01*
X169402880Y-79137236D01*
X169406582Y-79135073D01*
X169622089Y-78966094D01*
X169625866Y-78962197D01*
X169796753Y-78785855D01*
X169812669Y-78769431D01*
X169815202Y-78765983D01*
X169815206Y-78765978D01*
X169972257Y-78552178D01*
X169974795Y-78548723D01*
X170041140Y-78426531D01*
X170103418Y-78311830D01*
X170103419Y-78311828D01*
X170105468Y-78308054D01*
X170168661Y-78140819D01*
X170200751Y-78055895D01*
X170200752Y-78055891D01*
X170202269Y-78051877D01*
X170248276Y-77851000D01*
X170262449Y-77789117D01*
X170262450Y-77789113D01*
X170263407Y-77784933D01*
X170267228Y-77742128D01*
X170287531Y-77514627D01*
X170287531Y-77514625D01*
X170287751Y-77512161D01*
X170288062Y-77482547D01*
X170288167Y-77472484D01*
X170288167Y-77472483D01*
X170288193Y-77470000D01*
X170283897Y-77406977D01*
X170269859Y-77201055D01*
X170269858Y-77201049D01*
X170269567Y-77196778D01*
X170265584Y-77177542D01*
X170237972Y-77044215D01*
X170214032Y-76928612D01*
X170122617Y-76670465D01*
X170027054Y-76485316D01*
X169998978Y-76430919D01*
X169998978Y-76430918D01*
X169997013Y-76427112D01*
X169994218Y-76423134D01*
X169842008Y-76206562D01*
X169839545Y-76203057D01*
X169769466Y-76127643D01*
X169656046Y-76005588D01*
X169656043Y-76005585D01*
X169653125Y-76002445D01*
X169649810Y-75999731D01*
X169649806Y-75999728D01*
X169444523Y-75831706D01*
X169441205Y-75828990D01*
X169207704Y-75685901D01*
X169203768Y-75684173D01*
X168960873Y-75577549D01*
X168960869Y-75577548D01*
X168956945Y-75575825D01*
X168693566Y-75500800D01*
X168689324Y-75500196D01*
X168689318Y-75500195D01*
X168488834Y-75471662D01*
X168422443Y-75462213D01*
X168278589Y-75461460D01*
X168152877Y-75460802D01*
X168152871Y-75460802D01*
X168148591Y-75460780D01*
X168144347Y-75461339D01*
X168144343Y-75461339D01*
X168025302Y-75477011D01*
X167877078Y-75496525D01*
X167872938Y-75497658D01*
X167872936Y-75497658D01*
X167836269Y-75507689D01*
X167612928Y-75568788D01*
X167608980Y-75570472D01*
X167364982Y-75674546D01*
X167364978Y-75674548D01*
X167361030Y-75676232D01*
X167341125Y-75688145D01*
X167129725Y-75814664D01*
X167129721Y-75814667D01*
X167126043Y-75816868D01*
X166912318Y-75988094D01*
X166723808Y-76186742D01*
X166564002Y-76409136D01*
X166435857Y-76651161D01*
X166434385Y-76655184D01*
X166434383Y-76655188D01*
X166343214Y-76904317D01*
X166341743Y-76908337D01*
X166283404Y-77175907D01*
X166261917Y-77448918D01*
X166277682Y-77722320D01*
X166278507Y-77726525D01*
X166278508Y-77726533D01*
X166302600Y-77849329D01*
X166330405Y-77991053D01*
X166331792Y-77995103D01*
X166331793Y-77995108D01*
X166394440Y-78178082D01*
X166397582Y-78249009D01*
X166364328Y-78307991D01*
X165370968Y-79301351D01*
X165308656Y-79335377D01*
X165237841Y-79330312D01*
X165181005Y-79287765D01*
X165156194Y-79221245D01*
X165169657Y-79154954D01*
X165177439Y-79139714D01*
X165177440Y-79139712D01*
X165180769Y-79133192D01*
X165182508Y-79126085D01*
X165184604Y-79120449D01*
X165186523Y-79114679D01*
X165189622Y-79108050D01*
X165191587Y-79098607D01*
X165204490Y-79036571D01*
X165205461Y-79032282D01*
X165206435Y-79028303D01*
X165222808Y-78961390D01*
X165223500Y-78950236D01*
X165223535Y-78950238D01*
X165223775Y-78946266D01*
X165224152Y-78942045D01*
X165225641Y-78934885D01*
X165223546Y-78857458D01*
X165223500Y-78854050D01*
X165223500Y-76874028D01*
X165243502Y-76805907D01*
X165301281Y-76757620D01*
X165360136Y-76733241D01*
X165530822Y-76633500D01*
X165592879Y-76597237D01*
X165592880Y-76597236D01*
X165596582Y-76595073D01*
X165812089Y-76426094D01*
X165828523Y-76409136D01*
X165999686Y-76232509D01*
X166002669Y-76229431D01*
X166005202Y-76225983D01*
X166005206Y-76225978D01*
X166162257Y-76012178D01*
X166164795Y-76008723D01*
X166192154Y-75958334D01*
X166293418Y-75771830D01*
X166293419Y-75771828D01*
X166295468Y-75768054D01*
X166392269Y-75511877D01*
X166447084Y-75272540D01*
X166452449Y-75249117D01*
X166452450Y-75249113D01*
X166453407Y-75244933D01*
X166456174Y-75213936D01*
X166477531Y-74974627D01*
X166477531Y-74974625D01*
X166477751Y-74972161D01*
X166478193Y-74930000D01*
X166474325Y-74873255D01*
X166459859Y-74661055D01*
X166459858Y-74661049D01*
X166459567Y-74656778D01*
X166456228Y-74640652D01*
X166404901Y-74392809D01*
X166404032Y-74388612D01*
X166312617Y-74130465D01*
X166187013Y-73887112D01*
X166177040Y-73872921D01*
X166065669Y-73714456D01*
X166029545Y-73663057D01*
X165929610Y-73555514D01*
X165846046Y-73465588D01*
X165846043Y-73465585D01*
X165843125Y-73462445D01*
X165839810Y-73459731D01*
X165839806Y-73459728D01*
X165634523Y-73291706D01*
X165631205Y-73288990D01*
X165397704Y-73145901D01*
X165393768Y-73144173D01*
X165150873Y-73037549D01*
X165150869Y-73037548D01*
X165146945Y-73035825D01*
X164883566Y-72960800D01*
X164879324Y-72960196D01*
X164879318Y-72960195D01*
X164678834Y-72931662D01*
X164612443Y-72922213D01*
X164468589Y-72921460D01*
X164342877Y-72920802D01*
X164342871Y-72920802D01*
X164338591Y-72920780D01*
X164334347Y-72921339D01*
X164334343Y-72921339D01*
X164215302Y-72937011D01*
X164067078Y-72956525D01*
X164062938Y-72957658D01*
X164062936Y-72957658D01*
X164006643Y-72973058D01*
X163802928Y-73028788D01*
X163798980Y-73030472D01*
X163554982Y-73134546D01*
X163554978Y-73134548D01*
X163551030Y-73136232D01*
X163531125Y-73148145D01*
X163319725Y-73274664D01*
X163319721Y-73274667D01*
X163316043Y-73276868D01*
X163102318Y-73448094D01*
X163000380Y-73555514D01*
X162918146Y-73642171D01*
X162913808Y-73646742D01*
X162754002Y-73869136D01*
X162625857Y-74111161D01*
X162624385Y-74115184D01*
X162624383Y-74115188D01*
X162598219Y-74186684D01*
X162531743Y-74368337D01*
X162473404Y-74635907D01*
X162451917Y-74908918D01*
X162467682Y-75182320D01*
X162468507Y-75186525D01*
X162468508Y-75186533D01*
X162479127Y-75240657D01*
X162520405Y-75451053D01*
X162521792Y-75455103D01*
X162521793Y-75455108D01*
X162601580Y-75688145D01*
X162609112Y-75710144D01*
X162732160Y-75954799D01*
X162734586Y-75958328D01*
X162734589Y-75958334D01*
X162884843Y-76176953D01*
X162887274Y-76180490D01*
X162890161Y-76183663D01*
X162890162Y-76183664D01*
X162928665Y-76225978D01*
X163071582Y-76383043D01*
X163074877Y-76385798D01*
X163074878Y-76385799D01*
X163120096Y-76423607D01*
X163281675Y-76558707D01*
X163285316Y-76560991D01*
X163510024Y-76701951D01*
X163510028Y-76701953D01*
X163513664Y-76704234D01*
X163517574Y-76705999D01*
X163517575Y-76706000D01*
X163523927Y-76708868D01*
X163632352Y-76757824D01*
X163686205Y-76804086D01*
X163706500Y-76872660D01*
X163706500Y-78500629D01*
X163686498Y-78568750D01*
X163669595Y-78589724D01*
X163419669Y-78839650D01*
X163356772Y-78873801D01*
X163300176Y-78885831D01*
X163300167Y-78885834D01*
X163293712Y-78887206D01*
X163287682Y-78889891D01*
X163287681Y-78889891D01*
X163125278Y-78962197D01*
X163125276Y-78962198D01*
X163119248Y-78964882D01*
X163113907Y-78968762D01*
X163113906Y-78968763D01*
X163020577Y-79036571D01*
X162964747Y-79077134D01*
X162960332Y-79082037D01*
X162958000Y-79084137D01*
X162893992Y-79114854D01*
X162873691Y-79116500D01*
X161754802Y-79116500D01*
X161686681Y-79096498D01*
X161653976Y-79066065D01*
X161647674Y-79057656D01*
X161613261Y-79011739D01*
X161565340Y-78975824D01*
X161522827Y-78918967D01*
X161517801Y-78848149D01*
X161551861Y-78785855D01*
X161565330Y-78774183D01*
X161613261Y-78738261D01*
X161700615Y-78621705D01*
X161751745Y-78485316D01*
X161758500Y-78423134D01*
X161758500Y-77326866D01*
X161751745Y-77264684D01*
X161700615Y-77128295D01*
X161613261Y-77011739D01*
X161565340Y-76975824D01*
X161522827Y-76918967D01*
X161517801Y-76848149D01*
X161551861Y-76785855D01*
X161565330Y-76774183D01*
X161613261Y-76738261D01*
X161700615Y-76621705D01*
X161751745Y-76485316D01*
X161758500Y-76423134D01*
X161758500Y-75326866D01*
X161751745Y-75264684D01*
X161700615Y-75128295D01*
X161613261Y-75011739D01*
X161496705Y-74924385D01*
X161360316Y-74873255D01*
X161298134Y-74866500D01*
X158701866Y-74866500D01*
X158639684Y-74873255D01*
X158503295Y-74924385D01*
X158386739Y-75011739D01*
X158299385Y-75128295D01*
X158248255Y-75264684D01*
X158241500Y-75326866D01*
X158241500Y-76423134D01*
X158248255Y-76485316D01*
X158299385Y-76621705D01*
X158386739Y-76738261D01*
X158434660Y-76774176D01*
X158477173Y-76831033D01*
X158482199Y-76901851D01*
X158448139Y-76964145D01*
X158434670Y-76975817D01*
X158386739Y-77011739D01*
X158299385Y-77128295D01*
X158248255Y-77264684D01*
X158241500Y-77326866D01*
X158241500Y-78423134D01*
X158248255Y-78485316D01*
X158299385Y-78621705D01*
X158386739Y-78738261D01*
X158434660Y-78774176D01*
X158477173Y-78831033D01*
X158482199Y-78901851D01*
X158448139Y-78964145D01*
X158434670Y-78975817D01*
X158386739Y-79011739D01*
X158299385Y-79128295D01*
X158248255Y-79264684D01*
X158241500Y-79326866D01*
X158241500Y-80423134D01*
X158248255Y-80485316D01*
X158299385Y-80621705D01*
X158386739Y-80738261D01*
X158434660Y-80774176D01*
X158477173Y-80831033D01*
X158482199Y-80901851D01*
X158448139Y-80964145D01*
X158434670Y-80975817D01*
X158386739Y-81011739D01*
X158299385Y-81128295D01*
X158248255Y-81264684D01*
X158241500Y-81326866D01*
X158241500Y-82423134D01*
X158248255Y-82485316D01*
X158299385Y-82621705D01*
X158386739Y-82738261D01*
X158434660Y-82774176D01*
X158477173Y-82831033D01*
X158482199Y-82901851D01*
X158448139Y-82964145D01*
X158434670Y-82975817D01*
X158386739Y-83011739D01*
X158299385Y-83128295D01*
X158248255Y-83264684D01*
X158241500Y-83326866D01*
X158241500Y-84423134D01*
X158248255Y-84485316D01*
X158299385Y-84621705D01*
X158386739Y-84738261D01*
X158434660Y-84774176D01*
X158477173Y-84831033D01*
X158482199Y-84901851D01*
X158448139Y-84964145D01*
X158434670Y-84975817D01*
X158386739Y-85011739D01*
X158299385Y-85128295D01*
X158248255Y-85264684D01*
X158241500Y-85326866D01*
X158241500Y-86040989D01*
X158221498Y-86109110D01*
X158167842Y-86155603D01*
X158115500Y-86166989D01*
X157616574Y-86166989D01*
X157597625Y-86165556D01*
X157597418Y-86165525D01*
X157576162Y-86162291D01*
X157568870Y-86162884D01*
X157568867Y-86162884D01*
X157523502Y-86166574D01*
X157513288Y-86166989D01*
X157505218Y-86166989D01*
X157501598Y-86167411D01*
X157501580Y-86167412D01*
X157476972Y-86170281D01*
X157472611Y-86170713D01*
X157447492Y-86172756D01*
X157407172Y-86176035D01*
X157407169Y-86176036D01*
X157399874Y-86176629D01*
X157392910Y-86178885D01*
X157386951Y-86180076D01*
X157381096Y-86181460D01*
X157373830Y-86182307D01*
X157305184Y-86207224D01*
X157301056Y-86208641D01*
X157238575Y-86228882D01*
X157238573Y-86228883D01*
X157231612Y-86231138D01*
X157225357Y-86234934D01*
X157219883Y-86237440D01*
X157214453Y-86240159D01*
X157207574Y-86242656D01*
X157146527Y-86282680D01*
X157142838Y-86285007D01*
X157126050Y-86295195D01*
X157085204Y-86319980D01*
X157085199Y-86319984D01*
X157080403Y-86322894D01*
X157072027Y-86330292D01*
X157072004Y-86330266D01*
X157069014Y-86332915D01*
X157065775Y-86335623D01*
X157059659Y-86339633D01*
X157054632Y-86344940D01*
X157054628Y-86344943D01*
X157006383Y-86395872D01*
X157004005Y-86398314D01*
X154322724Y-89079595D01*
X154260412Y-89113621D01*
X154233629Y-89116500D01*
X146554802Y-89116500D01*
X146486681Y-89096498D01*
X146453976Y-89066065D01*
X146418642Y-89018919D01*
X146413261Y-89011739D01*
X146365340Y-88975824D01*
X146322827Y-88918967D01*
X146317801Y-88848149D01*
X146351861Y-88785855D01*
X146365330Y-88774183D01*
X146413261Y-88738261D01*
X146500615Y-88621705D01*
X146551745Y-88485316D01*
X146558500Y-88423134D01*
X146558500Y-87326866D01*
X146551745Y-87264684D01*
X146500615Y-87128295D01*
X146413261Y-87011739D01*
X146365340Y-86975824D01*
X146322827Y-86918967D01*
X146317801Y-86848149D01*
X146351861Y-86785855D01*
X146365330Y-86774183D01*
X146413261Y-86738261D01*
X146500615Y-86621705D01*
X146551745Y-86485316D01*
X146558500Y-86423134D01*
X146558500Y-85326866D01*
X146551745Y-85264684D01*
X146500615Y-85128295D01*
X146413261Y-85011739D01*
X146365340Y-84975824D01*
X146322827Y-84918967D01*
X146317801Y-84848149D01*
X146351861Y-84785855D01*
X146365330Y-84774183D01*
X146413261Y-84738261D01*
X146500615Y-84621705D01*
X146551745Y-84485316D01*
X146558500Y-84423134D01*
X146558500Y-83326866D01*
X146551745Y-83264684D01*
X146500615Y-83128295D01*
X146413261Y-83011739D01*
X146365340Y-82975824D01*
X146322827Y-82918967D01*
X146317801Y-82848149D01*
X146351861Y-82785855D01*
X146365330Y-82774183D01*
X146413261Y-82738261D01*
X146500615Y-82621705D01*
X146551745Y-82485316D01*
X146558500Y-82423134D01*
X146558500Y-81326866D01*
X146551745Y-81264684D01*
X146500615Y-81128295D01*
X146413261Y-81011739D01*
X146365340Y-80975824D01*
X146322827Y-80918967D01*
X146317801Y-80848149D01*
X146351861Y-80785855D01*
X146365330Y-80774183D01*
X146413261Y-80738261D01*
X146500615Y-80621705D01*
X146551745Y-80485316D01*
X146558500Y-80423134D01*
X146558500Y-79326866D01*
X146551745Y-79264684D01*
X146500615Y-79128295D01*
X146413261Y-79011739D01*
X146365340Y-78975824D01*
X146322827Y-78918967D01*
X146317801Y-78848149D01*
X146351861Y-78785855D01*
X146365330Y-78774183D01*
X146413261Y-78738261D01*
X146500615Y-78621705D01*
X146551745Y-78485316D01*
X146558500Y-78423134D01*
X146558500Y-77326866D01*
X146551745Y-77264684D01*
X146500615Y-77128295D01*
X146413261Y-77011739D01*
X146365340Y-76975824D01*
X146322827Y-76918967D01*
X146317801Y-76848149D01*
X146351861Y-76785855D01*
X146365330Y-76774183D01*
X146413261Y-76738261D01*
X146500615Y-76621705D01*
X146551745Y-76485316D01*
X146558500Y-76423134D01*
X146558500Y-75326866D01*
X146551745Y-75264684D01*
X146500615Y-75128295D01*
X146413261Y-75011739D01*
X146296705Y-74924385D01*
X146160316Y-74873255D01*
X146098134Y-74866500D01*
X143501866Y-74866500D01*
X143439684Y-74873255D01*
X143303295Y-74924385D01*
X143245289Y-74967858D01*
X143178785Y-74992705D01*
X143109403Y-74977652D01*
X143059172Y-74927478D01*
X143050203Y-74906908D01*
X143013870Y-74798007D01*
X143013869Y-74798005D01*
X143011550Y-74791054D01*
X142918478Y-74640652D01*
X142793303Y-74515695D01*
X142742111Y-74484140D01*
X142694618Y-74431368D01*
X142689787Y-74419866D01*
X142688272Y-74415692D01*
X142686851Y-74411554D01*
X142666605Y-74349059D01*
X142664351Y-74342101D01*
X142660555Y-74335846D01*
X142658049Y-74330372D01*
X142655330Y-74324942D01*
X142652833Y-74318063D01*
X142612814Y-74257024D01*
X142610467Y-74253305D01*
X142572595Y-74190893D01*
X142565197Y-74182516D01*
X142565224Y-74182492D01*
X142562571Y-74179500D01*
X142559868Y-74176267D01*
X142555856Y-74170148D01*
X142499617Y-74116872D01*
X142497175Y-74114494D01*
X142188770Y-73806089D01*
X142176384Y-73791677D01*
X142167851Y-73780082D01*
X142167846Y-73780077D01*
X142163508Y-73774182D01*
X142157930Y-73769443D01*
X142157927Y-73769440D01*
X142123232Y-73739965D01*
X142115716Y-73733035D01*
X142110021Y-73727340D01*
X142093736Y-73714456D01*
X142087749Y-73709719D01*
X142084345Y-73706928D01*
X142034297Y-73664409D01*
X142034295Y-73664408D01*
X142028715Y-73659667D01*
X142022199Y-73656339D01*
X142017150Y-73652972D01*
X142012021Y-73649805D01*
X142006284Y-73645266D01*
X141940125Y-73614345D01*
X141936225Y-73612439D01*
X141871192Y-73579231D01*
X141864084Y-73577492D01*
X141858441Y-73575393D01*
X141852678Y-73573476D01*
X141846050Y-73570378D01*
X141774583Y-73555513D01*
X141770299Y-73554543D01*
X141699390Y-73537192D01*
X141693788Y-73536844D01*
X141693785Y-73536844D01*
X141688236Y-73536500D01*
X141688238Y-73536464D01*
X141684245Y-73536225D01*
X141680053Y-73535851D01*
X141672885Y-73534360D01*
X141609120Y-73536085D01*
X141595479Y-73536454D01*
X141592072Y-73536500D01*
X138497070Y-73536500D01*
X138478120Y-73535067D01*
X138463885Y-73532901D01*
X138463881Y-73532901D01*
X138456651Y-73531801D01*
X138449359Y-73532394D01*
X138449356Y-73532394D01*
X138403982Y-73536085D01*
X138393767Y-73536500D01*
X138385707Y-73536500D01*
X138382073Y-73536924D01*
X138382067Y-73536924D01*
X138369042Y-73538443D01*
X138357480Y-73539791D01*
X138353132Y-73540221D01*
X138280364Y-73546140D01*
X138273403Y-73548395D01*
X138267463Y-73549582D01*
X138261588Y-73550971D01*
X138254319Y-73551818D01*
X138185670Y-73576736D01*
X138181542Y-73578153D01*
X138119064Y-73598393D01*
X138119062Y-73598394D01*
X138112101Y-73600649D01*
X138105846Y-73604445D01*
X138100372Y-73606951D01*
X138094942Y-73609670D01*
X138088063Y-73612167D01*
X138081943Y-73616180D01*
X138081942Y-73616180D01*
X138027024Y-73652186D01*
X138023320Y-73654523D01*
X137960893Y-73692405D01*
X137952516Y-73699803D01*
X137952492Y-73699776D01*
X137949500Y-73702429D01*
X137946267Y-73705132D01*
X137940148Y-73709144D01*
X137910951Y-73739965D01*
X137886872Y-73765383D01*
X137884494Y-73767825D01*
X134189814Y-77462505D01*
X134127502Y-77496531D01*
X134050074Y-77488783D01*
X134031945Y-77480825D01*
X133768566Y-77405800D01*
X133764324Y-77405196D01*
X133764318Y-77405195D01*
X133530684Y-77371944D01*
X133497443Y-77367213D01*
X133353589Y-77366460D01*
X133227877Y-77365802D01*
X133227871Y-77365802D01*
X133223591Y-77365780D01*
X133219347Y-77366339D01*
X133219343Y-77366339D01*
X133100302Y-77382011D01*
X132952078Y-77401525D01*
X132947938Y-77402658D01*
X132947936Y-77402658D01*
X132875008Y-77422609D01*
X132687928Y-77473788D01*
X132683980Y-77475472D01*
X132439982Y-77579546D01*
X132439978Y-77579548D01*
X132436030Y-77581232D01*
X132361031Y-77626118D01*
X132204725Y-77719664D01*
X132204721Y-77719667D01*
X132201043Y-77721868D01*
X131987318Y-77893094D01*
X131984371Y-77896200D01*
X131832826Y-78055895D01*
X131798808Y-78091742D01*
X131639002Y-78314136D01*
X131510857Y-78556161D01*
X131509385Y-78560184D01*
X131509383Y-78560188D01*
X131454610Y-78709861D01*
X131416743Y-78813337D01*
X131358404Y-79080907D01*
X131358068Y-79085177D01*
X131345348Y-79246801D01*
X131336917Y-79353918D01*
X131352682Y-79627320D01*
X131353507Y-79631525D01*
X131353508Y-79631533D01*
X131364127Y-79685657D01*
X131405405Y-79896053D01*
X131406792Y-79900103D01*
X131406793Y-79900108D01*
X131492723Y-80151088D01*
X131494112Y-80155144D01*
X131496039Y-80158975D01*
X131575492Y-80316950D01*
X131617160Y-80399799D01*
X131619586Y-80403328D01*
X131619589Y-80403334D01*
X131681886Y-80493976D01*
X131772274Y-80625490D01*
X131775161Y-80628663D01*
X131775162Y-80628664D01*
X131857957Y-80719655D01*
X131956582Y-80828043D01*
X131959877Y-80830798D01*
X131959878Y-80830799D01*
X132002603Y-80866522D01*
X132166675Y-81003707D01*
X132170316Y-81005991D01*
X132395024Y-81146951D01*
X132395028Y-81146953D01*
X132398664Y-81149234D01*
X132506890Y-81198100D01*
X132644345Y-81260164D01*
X132644349Y-81260166D01*
X132648257Y-81261930D01*
X132684076Y-81272540D01*
X132906723Y-81338491D01*
X132906727Y-81338492D01*
X132910836Y-81339709D01*
X132915070Y-81340357D01*
X132915075Y-81340358D01*
X133177298Y-81380483D01*
X133177300Y-81380483D01*
X133181540Y-81381132D01*
X133320912Y-81383322D01*
X133451071Y-81385367D01*
X133451077Y-81385367D01*
X133455362Y-81385434D01*
X133727235Y-81352534D01*
X133795710Y-81334570D01*
X133866676Y-81336631D01*
X133925263Y-81376733D01*
X133952869Y-81442143D01*
X133940729Y-81512094D01*
X133916778Y-81545541D01*
X129109814Y-86352505D01*
X129047502Y-86386531D01*
X128970074Y-86378783D01*
X128951945Y-86370825D01*
X128688566Y-86295800D01*
X128684324Y-86295196D01*
X128684318Y-86295195D01*
X128483834Y-86266662D01*
X128417443Y-86257213D01*
X128273589Y-86256460D01*
X128147877Y-86255802D01*
X128147871Y-86255802D01*
X128143591Y-86255780D01*
X128139347Y-86256339D01*
X128139343Y-86256339D01*
X128020302Y-86272011D01*
X127872078Y-86291525D01*
X127867938Y-86292658D01*
X127867936Y-86292658D01*
X127795008Y-86312609D01*
X127607928Y-86363788D01*
X127603980Y-86365472D01*
X127359982Y-86469546D01*
X127359978Y-86469548D01*
X127356030Y-86471232D01*
X127318659Y-86493598D01*
X127124725Y-86609664D01*
X127124721Y-86609667D01*
X127121043Y-86611868D01*
X126907318Y-86783094D01*
X126795964Y-86900436D01*
X126749625Y-86949268D01*
X126718808Y-86981742D01*
X126559002Y-87204136D01*
X126430857Y-87446161D01*
X126429385Y-87450184D01*
X126429383Y-87450188D01*
X126343823Y-87683989D01*
X126336743Y-87703337D01*
X126278404Y-87970907D01*
X126256917Y-88243918D01*
X126272682Y-88517320D01*
X126273507Y-88521525D01*
X126273508Y-88521533D01*
X126284966Y-88579933D01*
X126325405Y-88786053D01*
X126326792Y-88790103D01*
X126326793Y-88790108D01*
X126397901Y-88997797D01*
X126414112Y-89045144D01*
X126537160Y-89289799D01*
X126539586Y-89293328D01*
X126539589Y-89293334D01*
X126689843Y-89511953D01*
X126692274Y-89515490D01*
X126695161Y-89518663D01*
X126695162Y-89518664D01*
X126806480Y-89641002D01*
X126876582Y-89718043D01*
X127086675Y-89893707D01*
X127090316Y-89895991D01*
X127190507Y-89958841D01*
X127237585Y-90011984D01*
X127248457Y-90082143D01*
X127219673Y-90147043D01*
X127212646Y-90154673D01*
X122701089Y-94666230D01*
X122686677Y-94678616D01*
X122675082Y-94687149D01*
X122675077Y-94687154D01*
X122669182Y-94691492D01*
X122664443Y-94697070D01*
X122664440Y-94697073D01*
X122634965Y-94731768D01*
X122628035Y-94739284D01*
X122622340Y-94744979D01*
X122620060Y-94747861D01*
X122604719Y-94767251D01*
X122601928Y-94770655D01*
X122562083Y-94817556D01*
X122554667Y-94826285D01*
X122551339Y-94832801D01*
X122547972Y-94837850D01*
X122544805Y-94842979D01*
X122540266Y-94848716D01*
X122509345Y-94914875D01*
X122507442Y-94918769D01*
X122474231Y-94983808D01*
X122472492Y-94990916D01*
X122470393Y-94996559D01*
X122468476Y-95002322D01*
X122465378Y-95008950D01*
X122463888Y-95016112D01*
X122463888Y-95016113D01*
X122450514Y-95080412D01*
X122449544Y-95084696D01*
X122432192Y-95155610D01*
X122431844Y-95161212D01*
X122431844Y-95161215D01*
X122431539Y-95166135D01*
X122431500Y-95166764D01*
X122431464Y-95166762D01*
X122431225Y-95170755D01*
X122430851Y-95174947D01*
X122429360Y-95182115D01*
X122429558Y-95189432D01*
X122431454Y-95259521D01*
X122431500Y-95262928D01*
X122431500Y-98829198D01*
X122411498Y-98897319D01*
X122386496Y-98925716D01*
X122382471Y-98929094D01*
X122377962Y-98932251D01*
X122222251Y-99087962D01*
X122219094Y-99092470D01*
X122219092Y-99092473D01*
X122099101Y-99263838D01*
X122095944Y-99268347D01*
X122093621Y-99273329D01*
X122093618Y-99273334D01*
X122076754Y-99309500D01*
X122002880Y-99467924D01*
X121945885Y-99680629D01*
X121926693Y-99900000D01*
X121945885Y-100119371D01*
X122002880Y-100332076D01*
X122030704Y-100391745D01*
X122093618Y-100526666D01*
X122093621Y-100526671D01*
X122095944Y-100531653D01*
X122099100Y-100536160D01*
X122099101Y-100536162D01*
X122192973Y-100670224D01*
X122222251Y-100712038D01*
X122377962Y-100867749D01*
X122558346Y-100994056D01*
X122757924Y-101087120D01*
X122970629Y-101144115D01*
X123190000Y-101163307D01*
X123409371Y-101144115D01*
X123622076Y-101087120D01*
X123821654Y-100994056D01*
X124002038Y-100867749D01*
X124157749Y-100712038D01*
X124187028Y-100670224D01*
X124280899Y-100536162D01*
X124280900Y-100536160D01*
X124284056Y-100531653D01*
X124286379Y-100526671D01*
X124286382Y-100526666D01*
X124349296Y-100391745D01*
X124377120Y-100332076D01*
X124434115Y-100119371D01*
X124453307Y-99900000D01*
X124434115Y-99680629D01*
X124377120Y-99467924D01*
X124303246Y-99309500D01*
X124286382Y-99273334D01*
X124286379Y-99273329D01*
X124284056Y-99268347D01*
X124280899Y-99263838D01*
X124160908Y-99092473D01*
X124160906Y-99092470D01*
X124157749Y-99087962D01*
X124002038Y-98932251D01*
X123997529Y-98929094D01*
X123993504Y-98925716D01*
X123954181Y-98866605D01*
X123948500Y-98829198D01*
X123948500Y-95616371D01*
X123968502Y-95548250D01*
X123985405Y-95527276D01*
X128758911Y-90753770D01*
X128773323Y-90741384D01*
X128784918Y-90732851D01*
X128784923Y-90732846D01*
X128790818Y-90728508D01*
X128795557Y-90722930D01*
X128795560Y-90722927D01*
X128825035Y-90688232D01*
X128831965Y-90680716D01*
X128837660Y-90675021D01*
X128845555Y-90665042D01*
X128855281Y-90652749D01*
X128858072Y-90649345D01*
X128900591Y-90599297D01*
X128900592Y-90599295D01*
X128905333Y-90593715D01*
X128908661Y-90587199D01*
X128912028Y-90582150D01*
X128915195Y-90577021D01*
X128919734Y-90571284D01*
X128950655Y-90505125D01*
X128952561Y-90501225D01*
X128985769Y-90436192D01*
X128987508Y-90429084D01*
X128989607Y-90423441D01*
X128991524Y-90417678D01*
X128994622Y-90411050D01*
X129009487Y-90339583D01*
X129010457Y-90335299D01*
X129010538Y-90334969D01*
X129027808Y-90264390D01*
X129028500Y-90253236D01*
X129028536Y-90253238D01*
X129028775Y-90249245D01*
X129029149Y-90245053D01*
X129030640Y-90237885D01*
X129029936Y-90211860D01*
X129048089Y-90143223D01*
X129100468Y-90095297D01*
X129107671Y-90092045D01*
X129161164Y-90069887D01*
X129161173Y-90069883D01*
X129165136Y-90068241D01*
X129401582Y-89930073D01*
X129617089Y-89761094D01*
X129626479Y-89751405D01*
X129804686Y-89567509D01*
X129807669Y-89564431D01*
X129810202Y-89560983D01*
X129810206Y-89560978D01*
X129967257Y-89347178D01*
X129969795Y-89343723D01*
X129997154Y-89293334D01*
X130098418Y-89106830D01*
X130098419Y-89106828D01*
X130100468Y-89103054D01*
X130176378Y-88902164D01*
X130195751Y-88850895D01*
X130195752Y-88850891D01*
X130197269Y-88846877D01*
X130258407Y-88579933D01*
X130259050Y-88572738D01*
X130282531Y-88309627D01*
X130282531Y-88309625D01*
X130282751Y-88307161D01*
X130283193Y-88265000D01*
X130264567Y-87991778D01*
X130209032Y-87723612D01*
X130207604Y-87719578D01*
X130207601Y-87719569D01*
X130150588Y-87558569D01*
X130146704Y-87487679D01*
X130180266Y-87427415D01*
X131749978Y-85857703D01*
X134415743Y-85857703D01*
X134416302Y-85861947D01*
X134416302Y-85861951D01*
X134429415Y-85961549D01*
X134453268Y-86142734D01*
X134454401Y-86146874D01*
X134454401Y-86146876D01*
X134458035Y-86160159D01*
X134529129Y-86420036D01*
X134530813Y-86423984D01*
X134615149Y-86621705D01*
X134641923Y-86684476D01*
X134695606Y-86774173D01*
X134785506Y-86924385D01*
X134789561Y-86931161D01*
X134969313Y-87155528D01*
X134986397Y-87171740D01*
X135153467Y-87330283D01*
X135177851Y-87353423D01*
X135411317Y-87521186D01*
X135415112Y-87523195D01*
X135415113Y-87523196D01*
X135436869Y-87534715D01*
X135665392Y-87655712D01*
X135689699Y-87664607D01*
X135850938Y-87723612D01*
X135935373Y-87754511D01*
X136216264Y-87815755D01*
X136244841Y-87818004D01*
X136439282Y-87833307D01*
X136439291Y-87833307D01*
X136441739Y-87833500D01*
X136597271Y-87833500D01*
X136599407Y-87833354D01*
X136599418Y-87833354D01*
X136807548Y-87819165D01*
X136807554Y-87819164D01*
X136811825Y-87818873D01*
X136816020Y-87818004D01*
X136816022Y-87818004D01*
X136952584Y-87789723D01*
X137093342Y-87760574D01*
X137364343Y-87664607D01*
X137452363Y-87619177D01*
X137616005Y-87534715D01*
X137616006Y-87534715D01*
X137619812Y-87532750D01*
X137623313Y-87530289D01*
X137623317Y-87530287D01*
X137748408Y-87442371D01*
X137855023Y-87367441D01*
X137933403Y-87294606D01*
X138062479Y-87174661D01*
X138062481Y-87174658D01*
X138065622Y-87171740D01*
X138247713Y-86949268D01*
X138397927Y-86704142D01*
X138438433Y-86611868D01*
X138511757Y-86444830D01*
X138513483Y-86440898D01*
X138538663Y-86352505D01*
X138587145Y-86182307D01*
X138592244Y-86164406D01*
X138632751Y-85879784D01*
X138632845Y-85861951D01*
X138634235Y-85596583D01*
X138634235Y-85596576D01*
X138634257Y-85592297D01*
X138596732Y-85307266D01*
X138520871Y-85029964D01*
X138492797Y-84964145D01*
X138409763Y-84769476D01*
X138409761Y-84769472D01*
X138408077Y-84765524D01*
X138284182Y-84558510D01*
X138262643Y-84522521D01*
X138262640Y-84522517D01*
X138260439Y-84518839D01*
X138080687Y-84294472D01*
X137872149Y-84096577D01*
X137638683Y-83928814D01*
X137616843Y-83917250D01*
X137548289Y-83880953D01*
X137384608Y-83794288D01*
X137114627Y-83695489D01*
X136833736Y-83634245D01*
X136802685Y-83631801D01*
X136610718Y-83616693D01*
X136610709Y-83616693D01*
X136608261Y-83616500D01*
X136452729Y-83616500D01*
X136450593Y-83616646D01*
X136450582Y-83616646D01*
X136242452Y-83630835D01*
X136242446Y-83630836D01*
X136238175Y-83631127D01*
X136233980Y-83631996D01*
X136233978Y-83631996D01*
X136097416Y-83660277D01*
X135956658Y-83689426D01*
X135685657Y-83785393D01*
X135430188Y-83917250D01*
X135426687Y-83919711D01*
X135426683Y-83919713D01*
X135416594Y-83926804D01*
X135194977Y-84082559D01*
X134984378Y-84278260D01*
X134802287Y-84500732D01*
X134652073Y-84745858D01*
X134650347Y-84749791D01*
X134650346Y-84749792D01*
X134618828Y-84821593D01*
X134536517Y-85009102D01*
X134535342Y-85013229D01*
X134535341Y-85013230D01*
X134531699Y-85026016D01*
X134457756Y-85285594D01*
X134440076Y-85409824D01*
X134418082Y-85564366D01*
X134417249Y-85570216D01*
X134417227Y-85574505D01*
X134417226Y-85574512D01*
X134415765Y-85853417D01*
X134415743Y-85857703D01*
X131749978Y-85857703D01*
X136802276Y-80805405D01*
X136864588Y-80771379D01*
X136891371Y-80768500D01*
X138939687Y-80768500D01*
X139007808Y-80788502D01*
X139054301Y-80842158D01*
X139064405Y-80912432D01*
X139034911Y-80977012D01*
X139028862Y-80983515D01*
X139020695Y-80991697D01*
X138927885Y-81142262D01*
X138901436Y-81222005D01*
X138894273Y-81243601D01*
X138872203Y-81310139D01*
X138871503Y-81316975D01*
X138871502Y-81316978D01*
X138869298Y-81338491D01*
X138861500Y-81414600D01*
X138861500Y-82415400D01*
X138861837Y-82418646D01*
X138861837Y-82418650D01*
X138868818Y-82485928D01*
X138872474Y-82521166D01*
X138874655Y-82527702D01*
X138874655Y-82527704D01*
X138908414Y-82628891D01*
X138928450Y-82688946D01*
X139021522Y-82839348D01*
X139146697Y-82964305D01*
X139152927Y-82968145D01*
X139152928Y-82968146D01*
X139288518Y-83051725D01*
X139297262Y-83057115D01*
X139465139Y-83112797D01*
X139471978Y-83113498D01*
X139476914Y-83114556D01*
X139539328Y-83148394D01*
X139573540Y-83210604D01*
X139576500Y-83237756D01*
X139576500Y-83283001D01*
X139559619Y-83346000D01*
X139500473Y-83448444D01*
X139441458Y-83630072D01*
X139440768Y-83636633D01*
X139440768Y-83636635D01*
X139434582Y-83695489D01*
X139421496Y-83820000D01*
X139441458Y-84009928D01*
X139500473Y-84191556D01*
X139595960Y-84356944D01*
X139600378Y-84361851D01*
X139600379Y-84361852D01*
X139719004Y-84493598D01*
X139723747Y-84498866D01*
X139771839Y-84533807D01*
X139872798Y-84607158D01*
X139878248Y-84611118D01*
X139884276Y-84613802D01*
X139884278Y-84613803D01*
X140046681Y-84686109D01*
X140052712Y-84688794D01*
X140146113Y-84708647D01*
X140233056Y-84727128D01*
X140233061Y-84727128D01*
X140239513Y-84728500D01*
X140430487Y-84728500D01*
X140436939Y-84727128D01*
X140436944Y-84727128D01*
X140523887Y-84708647D01*
X140617288Y-84688794D01*
X140623319Y-84686109D01*
X140785722Y-84613803D01*
X140785724Y-84613802D01*
X140791752Y-84611118D01*
X140797203Y-84607158D01*
X140898161Y-84533807D01*
X140946253Y-84498866D01*
X140991866Y-84448208D01*
X141052310Y-84410970D01*
X141123294Y-84412322D01*
X141182278Y-84451836D01*
X141210536Y-84516966D01*
X141211500Y-84532520D01*
X141211500Y-85909359D01*
X141191498Y-85977480D01*
X141174595Y-85998454D01*
X132861089Y-94311960D01*
X132846677Y-94324346D01*
X132835082Y-94332879D01*
X132835077Y-94332884D01*
X132829182Y-94337222D01*
X132824443Y-94342800D01*
X132824440Y-94342803D01*
X132794965Y-94377498D01*
X132788035Y-94385014D01*
X132782340Y-94390709D01*
X132780060Y-94393591D01*
X132764719Y-94412981D01*
X132761928Y-94416385D01*
X132719409Y-94466433D01*
X132714667Y-94472015D01*
X132711339Y-94478531D01*
X132707972Y-94483580D01*
X132704805Y-94488709D01*
X132700266Y-94494446D01*
X132669345Y-94560605D01*
X132667442Y-94564499D01*
X132634231Y-94629538D01*
X132632492Y-94636646D01*
X132630393Y-94642289D01*
X132628476Y-94648052D01*
X132625378Y-94654680D01*
X132614762Y-94705721D01*
X132610514Y-94726142D01*
X132609544Y-94730426D01*
X132592192Y-94801340D01*
X132591500Y-94812494D01*
X132591464Y-94812492D01*
X132591225Y-94816485D01*
X132590851Y-94820677D01*
X132589360Y-94827845D01*
X132589925Y-94848716D01*
X132591454Y-94905251D01*
X132591500Y-94908658D01*
X132591500Y-98386679D01*
X132571498Y-98454800D01*
X132514935Y-98502576D01*
X132439982Y-98534546D01*
X132439978Y-98534548D01*
X132436030Y-98536232D01*
X132354735Y-98584886D01*
X132204725Y-98674664D01*
X132204721Y-98674667D01*
X132201043Y-98676868D01*
X131987318Y-98848094D01*
X131907456Y-98932251D01*
X131823973Y-99020224D01*
X131798808Y-99046742D01*
X131639002Y-99269136D01*
X131510857Y-99511161D01*
X131509385Y-99515184D01*
X131509383Y-99515188D01*
X131420562Y-99757901D01*
X131416743Y-99768337D01*
X131358404Y-100035907D01*
X131354256Y-100088611D01*
X131341863Y-100246081D01*
X131336917Y-100308918D01*
X131352682Y-100582320D01*
X131353507Y-100586525D01*
X131353508Y-100586533D01*
X131378652Y-100714689D01*
X131405405Y-100851053D01*
X131406792Y-100855103D01*
X131406793Y-100855108D01*
X131490402Y-101099308D01*
X131494112Y-101110144D01*
X131536218Y-101193862D01*
X131614708Y-101349923D01*
X131617160Y-101354799D01*
X131619586Y-101358328D01*
X131619589Y-101358334D01*
X131750273Y-101548478D01*
X131772274Y-101580490D01*
X131775161Y-101583663D01*
X131775162Y-101583664D01*
X131836155Y-101650695D01*
X131956582Y-101783043D01*
X132166675Y-101958707D01*
X132170316Y-101960991D01*
X132395024Y-102101951D01*
X132395028Y-102101953D01*
X132398664Y-102104234D01*
X132466544Y-102134883D01*
X132644345Y-102215164D01*
X132644349Y-102215166D01*
X132648257Y-102216930D01*
X132652377Y-102218150D01*
X132652376Y-102218150D01*
X132906723Y-102293491D01*
X132906727Y-102293492D01*
X132910836Y-102294709D01*
X132915070Y-102295357D01*
X132915075Y-102295358D01*
X133177298Y-102335483D01*
X133177300Y-102335483D01*
X133181540Y-102336132D01*
X133320912Y-102338322D01*
X133451071Y-102340367D01*
X133451077Y-102340367D01*
X133455362Y-102340434D01*
X133727235Y-102307534D01*
X133992127Y-102238041D01*
X133996087Y-102236401D01*
X133996092Y-102236399D01*
X134118632Y-102185641D01*
X134245136Y-102133241D01*
X134481582Y-101995073D01*
X134697089Y-101826094D01*
X134738809Y-101783043D01*
X134884686Y-101632509D01*
X134887669Y-101629431D01*
X134890202Y-101625983D01*
X134890206Y-101625978D01*
X135047257Y-101412178D01*
X135049795Y-101408723D01*
X135056942Y-101395560D01*
X135178418Y-101171830D01*
X135178419Y-101171828D01*
X135180468Y-101168054D01*
X135247409Y-100990899D01*
X135275751Y-100915895D01*
X135275752Y-100915891D01*
X135277269Y-100911877D01*
X135320981Y-100721018D01*
X135337449Y-100649117D01*
X135337450Y-100649113D01*
X135338407Y-100644933D01*
X135344102Y-100581129D01*
X135362531Y-100374627D01*
X135362531Y-100374625D01*
X135362751Y-100372161D01*
X135363193Y-100330000D01*
X135363024Y-100327519D01*
X135344859Y-100061055D01*
X135344858Y-100061049D01*
X135344567Y-100056778D01*
X135334407Y-100007715D01*
X135302209Y-99852239D01*
X135289032Y-99788612D01*
X135197617Y-99530465D01*
X135072013Y-99287112D01*
X135062040Y-99272921D01*
X134970841Y-99143158D01*
X134914545Y-99063057D01*
X134844466Y-98987643D01*
X134731046Y-98865588D01*
X134731043Y-98865585D01*
X134728125Y-98862445D01*
X134724810Y-98859731D01*
X134724806Y-98859728D01*
X134529854Y-98700162D01*
X134516205Y-98688990D01*
X134282704Y-98545901D01*
X134278768Y-98544173D01*
X134183854Y-98502508D01*
X134129518Y-98456812D01*
X134108500Y-98387135D01*
X134108500Y-95262101D01*
X134128502Y-95193980D01*
X134145405Y-95173006D01*
X139361405Y-89957006D01*
X139423717Y-89922980D01*
X139494532Y-89928045D01*
X139551368Y-89970592D01*
X139576179Y-90037112D01*
X139576500Y-90046101D01*
X139576500Y-93277930D01*
X139575067Y-93296880D01*
X139571801Y-93318349D01*
X139572394Y-93325641D01*
X139572394Y-93325644D01*
X139576085Y-93371018D01*
X139576500Y-93381233D01*
X139576500Y-93389293D01*
X139576925Y-93392937D01*
X139579789Y-93417507D01*
X139580222Y-93421882D01*
X139586140Y-93494637D01*
X139588396Y-93501601D01*
X139589587Y-93507560D01*
X139590971Y-93513415D01*
X139591818Y-93520681D01*
X139616735Y-93589327D01*
X139618152Y-93593455D01*
X139640649Y-93662899D01*
X139644445Y-93669154D01*
X139646951Y-93674628D01*
X139649670Y-93680058D01*
X139652167Y-93686937D01*
X139656180Y-93693057D01*
X139656180Y-93693058D01*
X139692186Y-93747976D01*
X139694523Y-93751680D01*
X139732405Y-93814107D01*
X139736121Y-93818315D01*
X139736122Y-93818316D01*
X139739803Y-93822484D01*
X139739776Y-93822508D01*
X139742429Y-93825500D01*
X139745132Y-93828733D01*
X139749144Y-93834852D01*
X139754456Y-93839884D01*
X139805383Y-93888128D01*
X139807825Y-93890506D01*
X140293589Y-94376270D01*
X140327615Y-94438582D01*
X140322550Y-94509397D01*
X140293589Y-94554460D01*
X136671089Y-98176960D01*
X136656677Y-98189346D01*
X136645082Y-98197879D01*
X136645077Y-98197884D01*
X136639182Y-98202222D01*
X136634443Y-98207800D01*
X136634440Y-98207803D01*
X136604965Y-98242498D01*
X136598035Y-98250014D01*
X136592340Y-98255709D01*
X136590060Y-98258591D01*
X136574719Y-98277981D01*
X136571928Y-98281385D01*
X136529409Y-98331433D01*
X136524667Y-98337015D01*
X136521339Y-98343531D01*
X136517972Y-98348580D01*
X136514805Y-98353709D01*
X136510266Y-98359446D01*
X136479345Y-98425605D01*
X136477442Y-98429499D01*
X136444231Y-98494538D01*
X136442492Y-98501646D01*
X136440393Y-98507289D01*
X136438476Y-98513052D01*
X136435378Y-98519680D01*
X136433888Y-98526842D01*
X136433888Y-98526843D01*
X136420514Y-98591142D01*
X136419544Y-98595426D01*
X136402192Y-98666340D01*
X136401844Y-98671942D01*
X136401844Y-98671945D01*
X136401539Y-98676868D01*
X136401500Y-98677494D01*
X136401464Y-98677492D01*
X136401225Y-98681485D01*
X136400851Y-98685677D01*
X136399360Y-98692845D01*
X136399558Y-98700162D01*
X136401454Y-98770251D01*
X136401500Y-98773658D01*
X136401500Y-101868629D01*
X136381498Y-101936750D01*
X136364595Y-101957724D01*
X134189814Y-104132505D01*
X134127502Y-104166531D01*
X134050074Y-104158783D01*
X134031945Y-104150825D01*
X133768566Y-104075800D01*
X133764324Y-104075196D01*
X133764318Y-104075195D01*
X133563834Y-104046662D01*
X133497443Y-104037213D01*
X133353589Y-104036460D01*
X133227877Y-104035802D01*
X133227871Y-104035802D01*
X133223591Y-104035780D01*
X133219347Y-104036339D01*
X133219343Y-104036339D01*
X133100302Y-104052011D01*
X132952078Y-104071525D01*
X132947938Y-104072658D01*
X132947936Y-104072658D01*
X132878714Y-104091595D01*
X132687928Y-104143788D01*
X132683980Y-104145472D01*
X132439982Y-104249546D01*
X132439978Y-104249548D01*
X132436030Y-104251232D01*
X132345794Y-104305237D01*
X132204725Y-104389664D01*
X132204721Y-104389667D01*
X132201043Y-104391868D01*
X131987318Y-104563094D01*
X131879761Y-104676435D01*
X131804989Y-104755229D01*
X131798808Y-104761742D01*
X131639002Y-104984136D01*
X131510857Y-105226161D01*
X131509385Y-105230184D01*
X131509383Y-105230188D01*
X131458174Y-105370123D01*
X131416743Y-105483337D01*
X131358404Y-105750907D01*
X131336917Y-106023918D01*
X131352682Y-106297320D01*
X131353507Y-106301525D01*
X131353508Y-106301533D01*
X131378951Y-106431214D01*
X131405405Y-106566053D01*
X131406792Y-106570103D01*
X131406793Y-106570108D01*
X131477287Y-106776002D01*
X131494112Y-106825144D01*
X131617160Y-107069799D01*
X131619586Y-107073328D01*
X131619589Y-107073334D01*
X131769843Y-107291953D01*
X131772274Y-107295490D01*
X131956582Y-107498043D01*
X132166675Y-107673707D01*
X132170316Y-107675991D01*
X132395024Y-107816951D01*
X132395028Y-107816953D01*
X132398664Y-107819234D01*
X132466544Y-107849883D01*
X132644345Y-107930164D01*
X132644349Y-107930166D01*
X132648257Y-107931930D01*
X132652377Y-107933150D01*
X132652376Y-107933150D01*
X132906723Y-108008491D01*
X132906727Y-108008492D01*
X132910836Y-108009709D01*
X132915070Y-108010357D01*
X132915075Y-108010358D01*
X133177298Y-108050483D01*
X133177300Y-108050483D01*
X133181540Y-108051132D01*
X133320912Y-108053322D01*
X133451071Y-108055367D01*
X133451077Y-108055367D01*
X133455362Y-108055434D01*
X133727235Y-108022534D01*
X133992127Y-107953041D01*
X133996087Y-107951401D01*
X133996092Y-107951399D01*
X134118631Y-107900641D01*
X134245136Y-107848241D01*
X134481582Y-107710073D01*
X134697089Y-107541094D01*
X134738809Y-107498043D01*
X134884686Y-107347509D01*
X134887669Y-107344431D01*
X134890202Y-107340983D01*
X134890206Y-107340978D01*
X135047257Y-107127178D01*
X135049795Y-107123723D01*
X135077154Y-107073334D01*
X135178418Y-106886830D01*
X135178419Y-106886828D01*
X135180468Y-106883054D01*
X135277269Y-106626877D01*
X135314212Y-106465576D01*
X135337449Y-106364117D01*
X135337450Y-106364113D01*
X135338407Y-106359933D01*
X135340300Y-106338731D01*
X135362531Y-106089627D01*
X135362531Y-106089625D01*
X135362751Y-106087161D01*
X135363074Y-106056400D01*
X135363167Y-106047484D01*
X135363167Y-106047483D01*
X135363193Y-106045000D01*
X135360688Y-106008255D01*
X135344859Y-105776055D01*
X135344858Y-105776049D01*
X135344567Y-105771778D01*
X135289032Y-105503612D01*
X135287604Y-105499578D01*
X135287601Y-105499569D01*
X135230588Y-105338569D01*
X135226704Y-105267679D01*
X135260266Y-105207415D01*
X135805586Y-104662095D01*
X140742001Y-104662095D01*
X140742338Y-104668614D01*
X140752257Y-104764206D01*
X140755149Y-104777600D01*
X140806588Y-104931784D01*
X140812761Y-104944962D01*
X140898063Y-105082807D01*
X140907099Y-105094208D01*
X141021829Y-105208739D01*
X141033240Y-105217751D01*
X141171243Y-105302816D01*
X141184424Y-105308963D01*
X141338710Y-105360138D01*
X141352086Y-105363005D01*
X141446438Y-105372672D01*
X141452854Y-105373000D01*
X141565385Y-105373000D01*
X141580624Y-105368525D01*
X141581829Y-105367135D01*
X141583500Y-105359452D01*
X141583500Y-104412115D01*
X141579025Y-104396876D01*
X141577635Y-104395671D01*
X141569952Y-104394000D01*
X140760116Y-104394000D01*
X140744877Y-104398475D01*
X140743672Y-104399865D01*
X140742001Y-104407548D01*
X140742001Y-104662095D01*
X135805586Y-104662095D01*
X136599796Y-103867885D01*
X140742000Y-103867885D01*
X140746475Y-103883124D01*
X140747865Y-103884329D01*
X140755548Y-103886000D01*
X141565385Y-103886000D01*
X141580624Y-103881525D01*
X141581829Y-103880135D01*
X141583500Y-103872452D01*
X141583500Y-102925116D01*
X141579025Y-102909877D01*
X141577635Y-102908672D01*
X141569952Y-102907001D01*
X141452905Y-102907001D01*
X141446386Y-102907338D01*
X141350794Y-102917257D01*
X141337400Y-102920149D01*
X141183216Y-102971588D01*
X141170038Y-102977761D01*
X141032193Y-103063063D01*
X141020792Y-103072099D01*
X140906261Y-103186829D01*
X140897249Y-103198240D01*
X140812184Y-103336243D01*
X140806037Y-103349424D01*
X140754862Y-103503710D01*
X140751995Y-103517086D01*
X140742328Y-103611438D01*
X140742000Y-103617855D01*
X140742000Y-103867885D01*
X136599796Y-103867885D01*
X137648911Y-102818770D01*
X137663323Y-102806384D01*
X137674918Y-102797851D01*
X137674923Y-102797846D01*
X137680818Y-102793508D01*
X137685557Y-102787930D01*
X137685560Y-102787927D01*
X137715035Y-102753232D01*
X137721965Y-102745716D01*
X137727661Y-102740020D01*
X137729924Y-102737159D01*
X137729929Y-102737154D01*
X137745293Y-102717734D01*
X137748082Y-102714333D01*
X137754686Y-102706560D01*
X137795333Y-102658715D01*
X137798659Y-102652202D01*
X137802020Y-102647163D01*
X137805196Y-102642021D01*
X137809734Y-102636284D01*
X137840655Y-102570125D01*
X137842561Y-102566225D01*
X137875769Y-102501192D01*
X137877508Y-102494083D01*
X137879604Y-102488449D01*
X137881523Y-102482679D01*
X137884622Y-102476050D01*
X137886500Y-102467024D01*
X137899490Y-102404571D01*
X137900461Y-102400282D01*
X137901228Y-102397149D01*
X137917808Y-102329390D01*
X137918500Y-102318236D01*
X137918535Y-102318238D01*
X137918775Y-102314266D01*
X137919152Y-102310045D01*
X137920641Y-102302885D01*
X137918546Y-102225458D01*
X137918500Y-102222050D01*
X137918500Y-99127101D01*
X137938502Y-99058980D01*
X137955405Y-99038006D01*
X139906191Y-97087220D01*
X139968503Y-97053194D01*
X140039318Y-97058259D01*
X140096154Y-97100806D01*
X140118447Y-97149719D01*
X140120149Y-97157600D01*
X140171588Y-97311784D01*
X140177761Y-97324962D01*
X140263063Y-97462807D01*
X140272099Y-97474208D01*
X140386829Y-97588739D01*
X140398240Y-97597751D01*
X140536243Y-97682816D01*
X140549424Y-97688963D01*
X140703710Y-97740138D01*
X140717086Y-97743005D01*
X140811438Y-97752672D01*
X140817854Y-97753000D01*
X140930385Y-97753000D01*
X140945624Y-97748525D01*
X140946829Y-97747135D01*
X140948500Y-97739452D01*
X140948500Y-96392000D01*
X140968502Y-96323879D01*
X141022158Y-96277386D01*
X141074500Y-96266000D01*
X141330500Y-96266000D01*
X141398621Y-96286002D01*
X141445114Y-96339658D01*
X141456500Y-96392000D01*
X141456500Y-97734884D01*
X141460975Y-97750123D01*
X141462365Y-97751328D01*
X141470048Y-97752999D01*
X141587095Y-97752999D01*
X141593614Y-97752662D01*
X141689206Y-97742743D01*
X141702600Y-97739851D01*
X141856784Y-97688412D01*
X141869962Y-97682239D01*
X142007807Y-97596937D01*
X142019208Y-97587901D01*
X142133738Y-97473172D01*
X142140794Y-97464238D01*
X142198712Y-97423177D01*
X142269635Y-97419947D01*
X142331046Y-97455574D01*
X142337846Y-97463407D01*
X142341522Y-97469348D01*
X142466697Y-97594305D01*
X142471493Y-97597261D01*
X142512155Y-97654614D01*
X142519000Y-97695578D01*
X142519000Y-100880430D01*
X142517567Y-100899380D01*
X142515666Y-100911877D01*
X142514301Y-100920849D01*
X142514894Y-100928141D01*
X142514894Y-100928144D01*
X142518585Y-100973518D01*
X142519000Y-100983733D01*
X142519000Y-100991793D01*
X142520376Y-101003598D01*
X142522289Y-101020007D01*
X142522722Y-101024382D01*
X142528640Y-101097137D01*
X142530896Y-101104101D01*
X142532087Y-101110060D01*
X142533471Y-101115915D01*
X142534318Y-101123181D01*
X142559235Y-101191827D01*
X142560652Y-101195955D01*
X142583149Y-101265399D01*
X142586945Y-101271654D01*
X142589451Y-101277128D01*
X142592170Y-101282558D01*
X142594667Y-101289437D01*
X142598680Y-101295557D01*
X142598680Y-101295558D01*
X142634686Y-101350476D01*
X142637023Y-101354180D01*
X142674905Y-101416607D01*
X142678621Y-101420815D01*
X142678622Y-101420816D01*
X142682303Y-101424984D01*
X142682276Y-101425008D01*
X142684929Y-101428000D01*
X142687632Y-101431233D01*
X142691644Y-101437352D01*
X142696956Y-101442384D01*
X142747883Y-101490628D01*
X142750325Y-101493006D01*
X143948724Y-102691405D01*
X143982750Y-102753717D01*
X143977685Y-102824532D01*
X143935138Y-102881368D01*
X143868618Y-102906179D01*
X143859629Y-102906500D01*
X143524600Y-102906500D01*
X143521354Y-102906837D01*
X143521350Y-102906837D01*
X143425692Y-102916762D01*
X143425688Y-102916763D01*
X143418834Y-102917474D01*
X143412298Y-102919655D01*
X143412296Y-102919655D01*
X143395928Y-102925116D01*
X143251054Y-102973450D01*
X143100652Y-103066522D01*
X142975695Y-103191697D01*
X142972898Y-103196235D01*
X142915647Y-103236824D01*
X142844724Y-103240054D01*
X142783313Y-103204428D01*
X142775938Y-103195932D01*
X142767902Y-103185793D01*
X142653171Y-103071261D01*
X142641760Y-103062249D01*
X142503757Y-102977184D01*
X142490576Y-102971037D01*
X142336290Y-102919862D01*
X142322914Y-102916995D01*
X142228562Y-102907328D01*
X142222145Y-102907000D01*
X142109615Y-102907000D01*
X142094376Y-102911475D01*
X142093171Y-102912865D01*
X142091500Y-102920548D01*
X142091500Y-105354884D01*
X142095975Y-105370123D01*
X142097365Y-105371328D01*
X142105048Y-105372999D01*
X142222095Y-105372999D01*
X142228614Y-105372662D01*
X142324206Y-105362743D01*
X142337600Y-105359851D01*
X142491784Y-105308412D01*
X142504962Y-105302239D01*
X142642807Y-105216937D01*
X142654208Y-105207901D01*
X142768738Y-105093172D01*
X142775794Y-105084238D01*
X142833712Y-105043177D01*
X142904635Y-105039947D01*
X142966046Y-105075574D01*
X142972846Y-105083407D01*
X142976522Y-105089348D01*
X143101697Y-105214305D01*
X143107927Y-105218145D01*
X143107928Y-105218146D01*
X143245288Y-105302816D01*
X143252262Y-105307115D01*
X143312473Y-105327086D01*
X143413611Y-105360632D01*
X143413613Y-105360632D01*
X143420139Y-105362797D01*
X143426975Y-105363497D01*
X143426978Y-105363498D01*
X143470031Y-105367909D01*
X143524600Y-105373500D01*
X144300400Y-105373500D01*
X144303646Y-105373163D01*
X144303650Y-105373163D01*
X144399308Y-105363238D01*
X144399312Y-105363237D01*
X144406166Y-105362526D01*
X144412702Y-105360345D01*
X144412704Y-105360345D01*
X144552485Y-105313710D01*
X144573946Y-105306550D01*
X144724348Y-105213478D01*
X144849305Y-105088303D01*
X144879112Y-105039947D01*
X144938275Y-104943968D01*
X144938276Y-104943966D01*
X144942115Y-104937738D01*
X144975593Y-104836805D01*
X145016022Y-104778446D01*
X145081586Y-104751209D01*
X145142294Y-104763286D01*
X145143295Y-104760615D01*
X145279684Y-104811745D01*
X145341866Y-104818500D01*
X146938134Y-104818500D01*
X146942192Y-104818059D01*
X146942346Y-104818087D01*
X146944928Y-104817947D01*
X146944961Y-104818555D01*
X147012075Y-104830582D01*
X147064094Y-104878899D01*
X147081733Y-104947669D01*
X147059392Y-105015059D01*
X147044903Y-105032416D01*
X146112724Y-105964595D01*
X146050412Y-105998621D01*
X146023629Y-106001500D01*
X145341866Y-106001500D01*
X145279684Y-106008255D01*
X145143295Y-106059385D01*
X145026739Y-106146739D01*
X144939385Y-106263295D01*
X144888255Y-106399684D01*
X144881500Y-106461866D01*
X144881500Y-107558134D01*
X144888255Y-107620316D01*
X144939385Y-107756705D01*
X145026739Y-107873261D01*
X145143295Y-107960615D01*
X145279684Y-108011745D01*
X145341866Y-108018500D01*
X146938134Y-108018500D01*
X147000316Y-108011745D01*
X147136705Y-107960615D01*
X147253261Y-107873261D01*
X147340615Y-107756705D01*
X147391745Y-107620316D01*
X147398500Y-107558134D01*
X147398500Y-107554669D01*
X149782001Y-107554669D01*
X149782371Y-107561490D01*
X149787895Y-107612352D01*
X149791521Y-107627604D01*
X149836676Y-107748054D01*
X149845214Y-107763649D01*
X149921715Y-107865724D01*
X149934276Y-107878285D01*
X150036351Y-107954786D01*
X150051946Y-107963324D01*
X150172394Y-108008478D01*
X150187649Y-108012105D01*
X150238514Y-108017631D01*
X150245328Y-108018000D01*
X150767885Y-108018000D01*
X150783124Y-108013525D01*
X150784329Y-108012135D01*
X150786000Y-108004452D01*
X150786000Y-107282115D01*
X150781525Y-107266876D01*
X150780135Y-107265671D01*
X150772452Y-107264000D01*
X149800116Y-107264000D01*
X149784877Y-107268475D01*
X149783672Y-107269865D01*
X149782001Y-107277548D01*
X149782001Y-107554669D01*
X147398500Y-107554669D01*
X147398500Y-106876371D01*
X147418502Y-106808250D01*
X147435405Y-106787276D01*
X148017276Y-106205405D01*
X148079588Y-106171379D01*
X148106371Y-106168500D01*
X149693658Y-106168500D01*
X149761779Y-106188502D01*
X149808272Y-106242158D01*
X149818376Y-106312432D01*
X149811640Y-106338730D01*
X149791522Y-106392395D01*
X149787895Y-106407649D01*
X149782369Y-106458514D01*
X149782000Y-106465328D01*
X149782000Y-106737885D01*
X149786475Y-106753124D01*
X149787865Y-106754329D01*
X149795548Y-106756000D01*
X151168000Y-106756000D01*
X151236121Y-106776002D01*
X151282614Y-106829658D01*
X151294000Y-106882000D01*
X151294000Y-107999884D01*
X151298475Y-108015123D01*
X151299865Y-108016328D01*
X151307548Y-108017999D01*
X151834669Y-108017999D01*
X151841490Y-108017629D01*
X151892352Y-108012105D01*
X151907604Y-108008479D01*
X152028054Y-107963324D01*
X152043649Y-107954786D01*
X152145724Y-107878285D01*
X152158285Y-107865724D01*
X152234786Y-107763649D01*
X152243324Y-107748054D01*
X152281751Y-107645551D01*
X152324393Y-107588787D01*
X152390954Y-107564087D01*
X152460303Y-107579295D01*
X152510421Y-107629581D01*
X152517715Y-107645551D01*
X152559385Y-107756705D01*
X152646739Y-107873261D01*
X152763295Y-107960615D01*
X152899684Y-108011745D01*
X152961866Y-108018500D01*
X154558134Y-108018500D01*
X154620316Y-108011745D01*
X154756705Y-107960615D01*
X154873261Y-107873261D01*
X154960615Y-107756705D01*
X155011745Y-107620316D01*
X155018500Y-107558134D01*
X155018500Y-107554669D01*
X157402001Y-107554669D01*
X157402371Y-107561490D01*
X157407895Y-107612352D01*
X157411521Y-107627604D01*
X157456676Y-107748054D01*
X157465214Y-107763649D01*
X157541715Y-107865724D01*
X157554276Y-107878285D01*
X157656351Y-107954786D01*
X157671946Y-107963324D01*
X157792394Y-108008478D01*
X157807649Y-108012105D01*
X157858514Y-108017631D01*
X157865328Y-108018000D01*
X158387885Y-108018000D01*
X158403124Y-108013525D01*
X158404329Y-108012135D01*
X158406000Y-108004452D01*
X158406000Y-107999884D01*
X158914000Y-107999884D01*
X158918475Y-108015123D01*
X158919865Y-108016328D01*
X158927548Y-108017999D01*
X159454669Y-108017999D01*
X159461490Y-108017629D01*
X159512352Y-108012105D01*
X159527604Y-108008479D01*
X159648054Y-107963324D01*
X159663649Y-107954786D01*
X159765724Y-107878285D01*
X159778285Y-107865724D01*
X159854786Y-107763649D01*
X159863324Y-107748054D01*
X159908478Y-107627606D01*
X159912105Y-107612351D01*
X159917631Y-107561486D01*
X159918000Y-107554672D01*
X159918000Y-107282115D01*
X159913525Y-107266876D01*
X159912135Y-107265671D01*
X159904452Y-107264000D01*
X158932115Y-107264000D01*
X158916876Y-107268475D01*
X158915671Y-107269865D01*
X158914000Y-107277548D01*
X158914000Y-107999884D01*
X158406000Y-107999884D01*
X158406000Y-107282115D01*
X158401525Y-107266876D01*
X158400135Y-107265671D01*
X158392452Y-107264000D01*
X157420116Y-107264000D01*
X157404877Y-107268475D01*
X157403672Y-107269865D01*
X157402001Y-107277548D01*
X157402001Y-107554669D01*
X155018500Y-107554669D01*
X155018500Y-106461866D01*
X155011745Y-106399684D01*
X154988894Y-106338729D01*
X154983711Y-106267923D01*
X155017631Y-106205554D01*
X155079887Y-106171425D01*
X155106876Y-106168500D01*
X156992930Y-106168500D01*
X157011880Y-106169933D01*
X157026115Y-106172099D01*
X157026119Y-106172099D01*
X157033349Y-106173199D01*
X157040641Y-106172606D01*
X157040644Y-106172606D01*
X157086018Y-106168915D01*
X157096233Y-106168500D01*
X157104293Y-106168500D01*
X157117583Y-106166951D01*
X157132507Y-106165211D01*
X157136882Y-106164778D01*
X157202339Y-106159454D01*
X157202342Y-106159453D01*
X157209637Y-106158860D01*
X157216601Y-106156604D01*
X157222560Y-106155413D01*
X157228414Y-106154029D01*
X157235681Y-106153182D01*
X157286105Y-106134879D01*
X157356962Y-106130438D01*
X157418973Y-106165011D01*
X157452448Y-106227620D01*
X157447078Y-106297548D01*
X157411522Y-106392394D01*
X157407895Y-106407649D01*
X157402369Y-106458514D01*
X157402000Y-106465328D01*
X157402000Y-106737885D01*
X157406475Y-106753124D01*
X157407865Y-106754329D01*
X157415548Y-106756000D01*
X158387885Y-106756000D01*
X158403124Y-106751525D01*
X158404329Y-106750135D01*
X158406000Y-106742452D01*
X158406000Y-106737885D01*
X158914000Y-106737885D01*
X158918475Y-106753124D01*
X158919865Y-106754329D01*
X158927548Y-106756000D01*
X159899884Y-106756000D01*
X159915123Y-106751525D01*
X159916328Y-106750135D01*
X159917999Y-106742452D01*
X159917999Y-106584049D01*
X159938001Y-106515928D01*
X159991657Y-106469435D01*
X160061931Y-106459331D01*
X160126511Y-106488825D01*
X160151143Y-106517746D01*
X160213063Y-106617807D01*
X160222099Y-106629208D01*
X160336829Y-106743739D01*
X160348240Y-106752751D01*
X160486243Y-106837816D01*
X160499424Y-106843963D01*
X160653710Y-106895138D01*
X160667086Y-106898005D01*
X160761438Y-106907672D01*
X160767854Y-106908000D01*
X161017885Y-106908000D01*
X161033124Y-106903525D01*
X161034329Y-106902135D01*
X161036000Y-106894452D01*
X161036000Y-106889884D01*
X161544000Y-106889884D01*
X161548475Y-106905123D01*
X161549865Y-106906328D01*
X161557548Y-106907999D01*
X161812095Y-106907999D01*
X161818614Y-106907662D01*
X161914206Y-106897743D01*
X161927600Y-106894851D01*
X162081784Y-106843412D01*
X162094962Y-106837239D01*
X162232807Y-106751937D01*
X162244208Y-106742901D01*
X162358739Y-106628171D01*
X162367751Y-106616760D01*
X162452816Y-106478757D01*
X162458963Y-106465576D01*
X162510138Y-106311290D01*
X162513005Y-106297914D01*
X162522672Y-106203562D01*
X162523000Y-106197146D01*
X162523000Y-106084615D01*
X162518525Y-106069376D01*
X162517135Y-106068171D01*
X162509452Y-106066500D01*
X161562115Y-106066500D01*
X161546876Y-106070975D01*
X161545671Y-106072365D01*
X161544000Y-106080048D01*
X161544000Y-106889884D01*
X161036000Y-106889884D01*
X161036000Y-106084615D01*
X161031525Y-106069376D01*
X161030135Y-106068171D01*
X161022452Y-106066500D01*
X160075116Y-106066500D01*
X160059877Y-106070975D01*
X160058672Y-106072365D01*
X160057001Y-106080048D01*
X160057001Y-106147948D01*
X160036999Y-106216069D01*
X159983343Y-106262562D01*
X159913069Y-106272666D01*
X159848489Y-106243172D01*
X159830175Y-106223513D01*
X159778285Y-106154276D01*
X159765724Y-106141715D01*
X159663649Y-106065214D01*
X159648054Y-106056676D01*
X159527606Y-106011522D01*
X159512351Y-106007895D01*
X159461486Y-106002369D01*
X159454672Y-106002000D01*
X158932115Y-106002000D01*
X158916876Y-106006475D01*
X158915671Y-106007865D01*
X158914000Y-106015548D01*
X158914000Y-106737885D01*
X158406000Y-106737885D01*
X158406000Y-106020116D01*
X158401525Y-106004877D01*
X158400135Y-106003672D01*
X158392452Y-106002001D01*
X157865331Y-106002001D01*
X157858516Y-106002370D01*
X157857239Y-106002509D01*
X157856941Y-106002456D01*
X157855123Y-106002554D01*
X157855100Y-106002126D01*
X157787356Y-105989985D01*
X157735337Y-105941667D01*
X157717699Y-105872897D01*
X157740041Y-105805507D01*
X157754529Y-105788152D01*
X158687276Y-104855405D01*
X158749588Y-104821379D01*
X158776371Y-104818500D01*
X159458134Y-104818500D01*
X159520316Y-104811745D01*
X159656705Y-104760615D01*
X159773261Y-104673261D01*
X159860615Y-104556705D01*
X159866058Y-104542185D01*
X159906518Y-104434260D01*
X159949160Y-104377496D01*
X160015721Y-104352796D01*
X160085070Y-104368004D01*
X160131644Y-104412187D01*
X160216522Y-104549348D01*
X160341697Y-104674305D01*
X160346235Y-104677102D01*
X160386824Y-104734353D01*
X160390054Y-104805276D01*
X160354428Y-104866687D01*
X160345932Y-104874062D01*
X160335793Y-104882098D01*
X160221261Y-104996829D01*
X160212249Y-105008240D01*
X160127184Y-105146243D01*
X160121037Y-105159424D01*
X160069862Y-105313710D01*
X160066995Y-105327086D01*
X160057328Y-105421438D01*
X160057000Y-105427855D01*
X160057000Y-105540385D01*
X160061475Y-105555624D01*
X160062865Y-105556829D01*
X160070548Y-105558500D01*
X162493629Y-105558500D01*
X162561750Y-105578502D01*
X162582724Y-105595405D01*
X166569595Y-109582276D01*
X166603621Y-109644588D01*
X166606500Y-109671371D01*
X166606500Y-110378134D01*
X166613255Y-110440316D01*
X166664385Y-110576705D01*
X166669768Y-110583888D01*
X166669770Y-110583891D01*
X166721919Y-110653473D01*
X166746766Y-110719979D01*
X166731713Y-110789362D01*
X166710187Y-110818132D01*
X160201724Y-117326595D01*
X160139412Y-117360621D01*
X160112629Y-117363500D01*
X159603600Y-117363500D01*
X159600354Y-117363837D01*
X159600350Y-117363837D01*
X159504692Y-117373762D01*
X159504688Y-117373763D01*
X159497834Y-117374474D01*
X159491298Y-117376655D01*
X159491296Y-117376655D01*
X159359194Y-117420728D01*
X159330054Y-117430450D01*
X159179652Y-117523522D01*
X159054695Y-117648697D01*
X158965544Y-117793327D01*
X158964648Y-117794780D01*
X158911876Y-117842273D01*
X158841804Y-117853697D01*
X158776680Y-117825423D01*
X158766218Y-117815636D01*
X158660766Y-117705094D01*
X158652814Y-117698059D01*
X158476475Y-117566859D01*
X158467438Y-117561255D01*
X158271516Y-117461643D01*
X158261665Y-117457643D01*
X158051760Y-117392466D01*
X158041376Y-117390183D01*
X158025957Y-117388139D01*
X158011793Y-117390335D01*
X158008000Y-117403522D01*
X158008000Y-120338192D01*
X158011973Y-120351723D01*
X158022580Y-120353248D01*
X158140421Y-120328523D01*
X158150617Y-120325463D01*
X158355029Y-120244737D01*
X158364561Y-120240006D01*
X158552462Y-120125984D01*
X158561052Y-120119720D01*
X158727052Y-119975673D01*
X158734470Y-119968044D01*
X158760391Y-119936431D01*
X158819051Y-119896436D01*
X158890021Y-119894504D01*
X158950770Y-119931248D01*
X158964969Y-119950017D01*
X159055522Y-120096348D01*
X159180697Y-120221305D01*
X159186927Y-120225145D01*
X159186928Y-120225146D01*
X159324095Y-120309697D01*
X159331262Y-120314115D01*
X159403853Y-120338192D01*
X159407667Y-120339457D01*
X159466027Y-120379887D01*
X159493264Y-120445451D01*
X159494000Y-120459050D01*
X159494000Y-123284410D01*
X159473998Y-123352531D01*
X159446482Y-123382914D01*
X159440652Y-123386522D01*
X159315695Y-123511697D01*
X159311855Y-123517927D01*
X159311854Y-123517928D01*
X159235611Y-123641616D01*
X159182838Y-123689110D01*
X159128351Y-123701500D01*
X158967297Y-123701500D01*
X158899176Y-123681498D01*
X158866471Y-123651065D01*
X158823643Y-123593920D01*
X158823642Y-123593919D01*
X158818261Y-123586739D01*
X158701705Y-123499385D01*
X158565316Y-123448255D01*
X158503134Y-123441500D01*
X156406866Y-123441500D01*
X156344684Y-123448255D01*
X156208295Y-123499385D01*
X156091739Y-123586739D01*
X156004385Y-123703295D01*
X156001233Y-123711703D01*
X155969621Y-123796029D01*
X155953255Y-123839684D01*
X155952628Y-123845453D01*
X155917874Y-123906291D01*
X155854919Y-123939113D01*
X155830507Y-123941500D01*
X154530371Y-123941500D01*
X154462250Y-123921498D01*
X154441276Y-123904595D01*
X151459770Y-120923089D01*
X151447384Y-120908677D01*
X151438851Y-120897082D01*
X151438846Y-120897077D01*
X151434508Y-120891182D01*
X151428930Y-120886443D01*
X151428927Y-120886440D01*
X151394232Y-120856965D01*
X151386716Y-120850035D01*
X151381021Y-120844340D01*
X151363337Y-120830349D01*
X151358749Y-120826719D01*
X151355345Y-120823928D01*
X151305297Y-120781409D01*
X151305295Y-120781408D01*
X151299715Y-120776667D01*
X151293199Y-120773339D01*
X151288150Y-120769972D01*
X151283021Y-120766805D01*
X151277284Y-120762266D01*
X151211125Y-120731345D01*
X151207225Y-120729439D01*
X151142192Y-120696231D01*
X151135084Y-120694492D01*
X151129441Y-120692393D01*
X151123678Y-120690476D01*
X151117050Y-120687378D01*
X151045583Y-120672513D01*
X151041299Y-120671543D01*
X150970390Y-120654192D01*
X150964788Y-120653844D01*
X150964785Y-120653844D01*
X150959236Y-120653500D01*
X150959238Y-120653464D01*
X150955245Y-120653225D01*
X150951053Y-120652851D01*
X150943885Y-120651360D01*
X150877675Y-120653151D01*
X150866479Y-120653454D01*
X150863072Y-120653500D01*
X147686371Y-120653500D01*
X147618250Y-120633498D01*
X147597276Y-120616595D01*
X147560405Y-120579724D01*
X147526379Y-120517412D01*
X147523500Y-120490629D01*
X147523500Y-120194808D01*
X147543502Y-120126687D01*
X147569103Y-120099529D01*
X147568317Y-120098623D01*
X147738412Y-119951023D01*
X147738414Y-119951021D01*
X147742445Y-119947523D01*
X147806048Y-119869954D01*
X147885240Y-119773373D01*
X147885244Y-119773367D01*
X147888624Y-119769245D01*
X147906552Y-119737750D01*
X147957632Y-119688445D01*
X148027262Y-119674583D01*
X148093333Y-119700566D01*
X148120573Y-119729716D01*
X148125983Y-119737752D01*
X148202441Y-119851319D01*
X148206120Y-119855176D01*
X148206122Y-119855178D01*
X148267710Y-119919738D01*
X148361576Y-120018135D01*
X148546542Y-120155754D01*
X148551293Y-120158170D01*
X148551297Y-120158172D01*
X148624673Y-120195478D01*
X148752051Y-120260240D01*
X148757145Y-120261822D01*
X148757148Y-120261823D01*
X148957020Y-120323885D01*
X148972227Y-120328607D01*
X148977516Y-120329308D01*
X149195489Y-120358198D01*
X149195494Y-120358198D01*
X149200774Y-120358898D01*
X149206103Y-120358698D01*
X149206105Y-120358698D01*
X149315966Y-120354574D01*
X149431158Y-120350249D01*
X149453802Y-120345498D01*
X149549289Y-120325463D01*
X149656791Y-120302907D01*
X149661750Y-120300949D01*
X149661752Y-120300948D01*
X149866256Y-120220185D01*
X149866258Y-120220184D01*
X149871221Y-120218224D01*
X149876047Y-120215296D01*
X150063757Y-120101390D01*
X150063756Y-120101390D01*
X150068317Y-120098623D01*
X150137142Y-120038900D01*
X150238412Y-119951023D01*
X150238414Y-119951021D01*
X150242445Y-119947523D01*
X150271670Y-119911880D01*
X150330329Y-119871886D01*
X150401299Y-119869954D01*
X150462048Y-119906698D01*
X150476248Y-119925468D01*
X150492028Y-119950968D01*
X150566522Y-120071348D01*
X150691697Y-120196305D01*
X150697927Y-120200145D01*
X150697928Y-120200146D01*
X150835090Y-120284694D01*
X150842262Y-120289115D01*
X150877938Y-120300948D01*
X151003611Y-120342632D01*
X151003613Y-120342632D01*
X151010139Y-120344797D01*
X151016975Y-120345497D01*
X151016978Y-120345498D01*
X151052663Y-120349154D01*
X151114600Y-120355500D01*
X152415400Y-120355500D01*
X152418646Y-120355163D01*
X152418650Y-120355163D01*
X152514308Y-120345238D01*
X152514312Y-120345237D01*
X152521166Y-120344526D01*
X152527702Y-120342345D01*
X152527704Y-120342345D01*
X152659806Y-120298272D01*
X152688946Y-120288550D01*
X152839348Y-120195478D01*
X152964305Y-120070303D01*
X152996462Y-120018135D01*
X153053275Y-119925968D01*
X153053276Y-119925966D01*
X153057115Y-119919738D01*
X153107031Y-119769245D01*
X153110632Y-119758389D01*
X153110632Y-119758387D01*
X153112797Y-119751861D01*
X153115114Y-119729253D01*
X153119211Y-119689256D01*
X153123500Y-119647400D01*
X153123500Y-119142193D01*
X156401289Y-119142193D01*
X156410124Y-119246325D01*
X156411914Y-119256797D01*
X156467130Y-119469535D01*
X156470665Y-119479575D01*
X156560937Y-119679970D01*
X156566106Y-119689256D01*
X156688850Y-119871575D01*
X156695519Y-119879870D01*
X156847228Y-120038900D01*
X156855186Y-120045941D01*
X157031525Y-120177141D01*
X157040562Y-120182745D01*
X157236484Y-120282357D01*
X157246335Y-120286357D01*
X157456240Y-120351534D01*
X157466624Y-120353817D01*
X157482043Y-120355861D01*
X157496207Y-120353665D01*
X157500000Y-120340478D01*
X157500000Y-119144115D01*
X157495525Y-119128876D01*
X157494135Y-119127671D01*
X157486452Y-119126000D01*
X156418030Y-119126000D01*
X156403352Y-119130310D01*
X156401289Y-119142193D01*
X153123500Y-119142193D01*
X153123500Y-118602376D01*
X156396732Y-118602376D01*
X156400475Y-118615124D01*
X156401865Y-118616329D01*
X156409548Y-118618000D01*
X157481885Y-118618000D01*
X157497124Y-118613525D01*
X157498329Y-118612135D01*
X157500000Y-118604452D01*
X157500000Y-117405808D01*
X157496027Y-117392277D01*
X157485420Y-117390752D01*
X157367579Y-117415477D01*
X157357383Y-117418537D01*
X157152971Y-117499263D01*
X157143439Y-117503994D01*
X156955538Y-117618016D01*
X156946948Y-117624280D01*
X156780948Y-117768327D01*
X156773528Y-117775958D01*
X156634174Y-117945911D01*
X156628150Y-117954678D01*
X156519424Y-118145682D01*
X156514959Y-118155346D01*
X156439969Y-118361941D01*
X156437198Y-118372208D01*
X156397877Y-118589655D01*
X156396944Y-118597884D01*
X156396732Y-118602376D01*
X153123500Y-118602376D01*
X153123500Y-118113371D01*
X153143502Y-118045250D01*
X153160405Y-118024276D01*
X155581276Y-115603405D01*
X155643588Y-115569379D01*
X155670371Y-115566500D01*
X159477413Y-115566500D01*
X159551472Y-115590563D01*
X159557902Y-115595235D01*
X159557909Y-115595239D01*
X159563248Y-115599118D01*
X159569276Y-115601802D01*
X159569278Y-115601803D01*
X159731681Y-115674109D01*
X159737712Y-115676794D01*
X159831113Y-115696647D01*
X159918056Y-115715128D01*
X159918061Y-115715128D01*
X159924513Y-115716500D01*
X160115487Y-115716500D01*
X160121939Y-115715128D01*
X160121944Y-115715128D01*
X160208887Y-115696647D01*
X160302288Y-115676794D01*
X160308319Y-115674109D01*
X160470722Y-115601803D01*
X160470724Y-115601802D01*
X160476752Y-115599118D01*
X160482097Y-115595235D01*
X160554249Y-115542813D01*
X160631253Y-115486866D01*
X160739457Y-115366693D01*
X160754621Y-115349852D01*
X160754622Y-115349851D01*
X160759040Y-115344944D01*
X160854527Y-115179556D01*
X160913542Y-114997928D01*
X160933504Y-114808000D01*
X160913542Y-114618072D01*
X160854527Y-114436444D01*
X160759040Y-114271056D01*
X160715000Y-114222144D01*
X160635675Y-114134045D01*
X160635674Y-114134044D01*
X160631253Y-114129134D01*
X160521647Y-114049500D01*
X160482094Y-114020763D01*
X160482093Y-114020762D01*
X160476752Y-114016882D01*
X160470724Y-114014198D01*
X160470722Y-114014197D01*
X160308319Y-113941891D01*
X160308318Y-113941891D01*
X160302288Y-113939206D01*
X160189570Y-113915247D01*
X160127097Y-113881518D01*
X160092775Y-113819369D01*
X160097503Y-113748530D01*
X160139779Y-113691492D01*
X160189570Y-113668753D01*
X160302288Y-113644794D01*
X160308319Y-113642109D01*
X160470722Y-113569803D01*
X160470724Y-113569802D01*
X160476752Y-113567118D01*
X160482097Y-113563235D01*
X160532157Y-113526864D01*
X160631253Y-113454866D01*
X160759040Y-113312944D01*
X160854527Y-113147556D01*
X160913542Y-112965928D01*
X160933504Y-112776000D01*
X160913542Y-112586072D01*
X160854527Y-112404444D01*
X160759040Y-112239056D01*
X160719783Y-112195456D01*
X160635675Y-112102045D01*
X160635674Y-112102044D01*
X160631253Y-112097134D01*
X160521647Y-112017500D01*
X160482094Y-111988763D01*
X160482093Y-111988762D01*
X160476752Y-111984882D01*
X160470724Y-111982198D01*
X160470722Y-111982197D01*
X160308319Y-111909891D01*
X160308318Y-111909891D01*
X160302288Y-111907206D01*
X160208887Y-111887353D01*
X160121944Y-111868872D01*
X160121939Y-111868872D01*
X160115487Y-111867500D01*
X159924513Y-111867500D01*
X159918061Y-111868872D01*
X159918056Y-111868872D01*
X159831113Y-111887353D01*
X159737712Y-111907206D01*
X159731682Y-111909891D01*
X159731681Y-111909891D01*
X159569278Y-111982197D01*
X159569276Y-111982198D01*
X159563248Y-111984882D01*
X159557909Y-111988761D01*
X159557902Y-111988765D01*
X159551472Y-111993437D01*
X159477413Y-112017500D01*
X154903070Y-112017500D01*
X154884120Y-112016067D01*
X154869885Y-112013901D01*
X154869881Y-112013901D01*
X154862651Y-112012801D01*
X154855359Y-112013394D01*
X154855356Y-112013394D01*
X154809982Y-112017085D01*
X154799767Y-112017500D01*
X154791707Y-112017500D01*
X154788073Y-112017924D01*
X154788067Y-112017924D01*
X154775042Y-112019443D01*
X154763480Y-112020791D01*
X154759132Y-112021221D01*
X154686364Y-112027140D01*
X154679403Y-112029395D01*
X154673463Y-112030582D01*
X154667588Y-112031971D01*
X154660319Y-112032818D01*
X154591670Y-112057736D01*
X154587542Y-112059153D01*
X154525064Y-112079393D01*
X154525062Y-112079394D01*
X154518101Y-112081649D01*
X154511846Y-112085445D01*
X154506372Y-112087951D01*
X154500942Y-112090670D01*
X154494063Y-112093167D01*
X154487943Y-112097180D01*
X154487942Y-112097180D01*
X154433024Y-112133186D01*
X154429320Y-112135523D01*
X154366893Y-112173405D01*
X154358516Y-112180803D01*
X154358492Y-112180776D01*
X154355500Y-112183429D01*
X154352267Y-112186132D01*
X154346148Y-112190144D01*
X154341116Y-112195456D01*
X154292872Y-112246383D01*
X154290494Y-112248825D01*
X149182269Y-117357050D01*
X149119957Y-117391076D01*
X149108530Y-117393016D01*
X149104175Y-117393551D01*
X149098842Y-117393751D01*
X148873209Y-117441093D01*
X148868250Y-117443051D01*
X148868248Y-117443052D01*
X148663744Y-117523815D01*
X148663742Y-117523816D01*
X148658779Y-117525776D01*
X148654220Y-117528543D01*
X148654217Y-117528544D01*
X148559113Y-117586255D01*
X148461683Y-117645377D01*
X148457653Y-117648874D01*
X148364484Y-117729722D01*
X148287555Y-117796477D01*
X148284168Y-117800608D01*
X148144760Y-117970627D01*
X148144756Y-117970633D01*
X148141376Y-117974755D01*
X148123448Y-118006250D01*
X148072368Y-118055555D01*
X148002738Y-118069417D01*
X147936667Y-118043434D01*
X147909427Y-118014284D01*
X147882814Y-117974755D01*
X147827559Y-117892681D01*
X147668424Y-117725865D01*
X147483458Y-117588246D01*
X147478707Y-117585830D01*
X147478703Y-117585828D01*
X147360588Y-117525776D01*
X147277949Y-117483760D01*
X147272855Y-117482178D01*
X147272852Y-117482177D01*
X147062871Y-117416976D01*
X147057773Y-117415393D01*
X147052484Y-117414692D01*
X146834511Y-117385802D01*
X146834506Y-117385802D01*
X146829226Y-117385102D01*
X146823897Y-117385302D01*
X146823895Y-117385302D01*
X146714034Y-117389426D01*
X146598842Y-117393751D01*
X146373209Y-117441093D01*
X146368250Y-117443051D01*
X146368248Y-117443052D01*
X146163744Y-117523815D01*
X146163742Y-117523816D01*
X146158779Y-117525776D01*
X146154220Y-117528543D01*
X146154217Y-117528544D01*
X146059113Y-117586255D01*
X145961683Y-117645377D01*
X145957653Y-117648874D01*
X145864484Y-117729722D01*
X145787555Y-117796477D01*
X145784168Y-117800608D01*
X145644760Y-117970627D01*
X145644756Y-117970633D01*
X145641376Y-117974755D01*
X145638738Y-117979390D01*
X145638733Y-117979398D01*
X145623171Y-118006735D01*
X145572088Y-118056041D01*
X145502458Y-118069902D01*
X145436387Y-118043918D01*
X145409149Y-118014768D01*
X145330148Y-117897422D01*
X145323481Y-117889130D01*
X145171772Y-117730100D01*
X145163814Y-117723059D01*
X144987475Y-117591859D01*
X144978438Y-117586255D01*
X144782516Y-117486643D01*
X144772665Y-117482643D01*
X144562760Y-117417466D01*
X144552376Y-117415183D01*
X144536957Y-117413139D01*
X144522793Y-117415335D01*
X144519000Y-117428522D01*
X144519000Y-120313192D01*
X144522973Y-120326723D01*
X144533580Y-120328248D01*
X144651421Y-120303523D01*
X144661617Y-120300463D01*
X144866029Y-120219737D01*
X144875561Y-120215006D01*
X145063462Y-120100984D01*
X145072052Y-120094720D01*
X145238052Y-119950673D01*
X145245472Y-119943042D01*
X145384826Y-119773089D01*
X145390848Y-119764326D01*
X145406238Y-119737289D01*
X145457320Y-119687982D01*
X145526951Y-119674120D01*
X145593022Y-119700103D01*
X145620261Y-119729253D01*
X145656131Y-119782532D01*
X145702441Y-119851319D01*
X145706120Y-119855176D01*
X145706122Y-119855178D01*
X145767710Y-119919738D01*
X145861576Y-120018135D01*
X145933097Y-120071348D01*
X145955713Y-120088175D01*
X145998426Y-120144885D01*
X146006500Y-120189264D01*
X146006500Y-120789930D01*
X146005067Y-120808880D01*
X146001801Y-120830349D01*
X146002394Y-120837641D01*
X146002394Y-120837644D01*
X146006085Y-120883018D01*
X146006500Y-120893233D01*
X146006500Y-120901293D01*
X146006925Y-120904937D01*
X146009789Y-120929507D01*
X146010222Y-120933882D01*
X146016140Y-121006637D01*
X146018396Y-121013601D01*
X146019587Y-121019560D01*
X146020971Y-121025415D01*
X146021818Y-121032681D01*
X146046735Y-121101327D01*
X146048152Y-121105455D01*
X146070649Y-121174899D01*
X146074445Y-121181154D01*
X146076951Y-121186628D01*
X146079670Y-121192058D01*
X146082167Y-121198937D01*
X146086180Y-121205057D01*
X146086180Y-121205058D01*
X146122186Y-121259976D01*
X146124523Y-121263680D01*
X146162405Y-121326107D01*
X146166121Y-121330315D01*
X146166122Y-121330316D01*
X146169803Y-121334484D01*
X146169776Y-121334508D01*
X146172429Y-121337500D01*
X146175132Y-121340733D01*
X146179144Y-121346852D01*
X146184456Y-121351884D01*
X146235383Y-121400128D01*
X146237825Y-121402506D01*
X146736230Y-121900911D01*
X146748616Y-121915323D01*
X146757149Y-121926918D01*
X146757154Y-121926923D01*
X146761492Y-121932818D01*
X146767070Y-121937557D01*
X146767073Y-121937560D01*
X146801768Y-121967035D01*
X146809284Y-121973965D01*
X146814980Y-121979661D01*
X146817841Y-121981924D01*
X146817846Y-121981929D01*
X146837266Y-121997293D01*
X146840667Y-122000082D01*
X146896285Y-122047333D01*
X146902805Y-122050662D01*
X146907852Y-122054028D01*
X146912976Y-122057193D01*
X146918717Y-122061735D01*
X146925348Y-122064834D01*
X146925351Y-122064836D01*
X146984830Y-122092634D01*
X146988776Y-122094562D01*
X147053808Y-122127769D01*
X147060914Y-122129508D01*
X147066564Y-122131609D01*
X147072321Y-122133524D01*
X147078950Y-122136622D01*
X147150435Y-122151491D01*
X147154701Y-122152457D01*
X147225610Y-122169808D01*
X147231212Y-122170156D01*
X147231215Y-122170156D01*
X147236764Y-122170500D01*
X147236762Y-122170535D01*
X147240734Y-122170775D01*
X147244955Y-122171152D01*
X147252115Y-122172641D01*
X147329542Y-122170546D01*
X147332950Y-122170500D01*
X150509629Y-122170500D01*
X150577750Y-122190502D01*
X150598724Y-122207405D01*
X153580230Y-125188911D01*
X153592616Y-125203323D01*
X153601149Y-125214918D01*
X153601154Y-125214923D01*
X153605492Y-125220818D01*
X153611070Y-125225557D01*
X153611073Y-125225560D01*
X153645768Y-125255035D01*
X153653284Y-125261965D01*
X153658979Y-125267660D01*
X153661861Y-125269940D01*
X153681251Y-125285281D01*
X153684655Y-125288072D01*
X153734703Y-125330591D01*
X153740285Y-125335333D01*
X153746801Y-125338661D01*
X153751850Y-125342028D01*
X153756979Y-125345195D01*
X153762716Y-125349734D01*
X153828875Y-125380655D01*
X153832769Y-125382558D01*
X153897808Y-125415769D01*
X153904916Y-125417508D01*
X153910559Y-125419607D01*
X153916322Y-125421524D01*
X153922950Y-125424622D01*
X153930112Y-125426112D01*
X153930113Y-125426112D01*
X153994412Y-125439486D01*
X153998696Y-125440456D01*
X154069610Y-125457808D01*
X154075212Y-125458156D01*
X154075215Y-125458156D01*
X154080764Y-125458500D01*
X154080762Y-125458536D01*
X154084755Y-125458775D01*
X154088947Y-125459149D01*
X154096115Y-125460640D01*
X154173520Y-125458546D01*
X154176928Y-125458500D01*
X155830507Y-125458500D01*
X155898628Y-125478502D01*
X155945121Y-125532158D01*
X155952543Y-125553763D01*
X155953255Y-125560316D01*
X155956027Y-125567711D01*
X155956028Y-125567714D01*
X155998880Y-125682022D01*
X156004385Y-125696705D01*
X156009770Y-125703890D01*
X156009771Y-125703892D01*
X156062640Y-125774435D01*
X156087488Y-125840942D01*
X156072435Y-125910324D01*
X156062640Y-125925565D01*
X156052034Y-125939717D01*
X156004385Y-126003295D01*
X156001233Y-126011703D01*
X155984180Y-126057193D01*
X155953255Y-126139684D01*
X155952628Y-126145453D01*
X155917874Y-126206291D01*
X155854919Y-126239113D01*
X155830507Y-126241500D01*
X152789500Y-126241500D01*
X152721379Y-126221498D01*
X152674886Y-126167842D01*
X152663500Y-126115500D01*
X152663500Y-125051866D01*
X152656745Y-124989684D01*
X152605615Y-124853295D01*
X152518261Y-124736739D01*
X152401705Y-124649385D01*
X152265316Y-124598255D01*
X152203134Y-124591500D01*
X150106866Y-124591500D01*
X150044684Y-124598255D01*
X149908295Y-124649385D01*
X149791739Y-124736739D01*
X149704385Y-124853295D01*
X149653255Y-124989684D01*
X149646500Y-125051866D01*
X149646500Y-126115500D01*
X149626498Y-126183621D01*
X149572842Y-126230114D01*
X149520500Y-126241500D01*
X147051371Y-126241500D01*
X146983250Y-126221498D01*
X146962276Y-126204595D01*
X145363770Y-124606089D01*
X145351384Y-124591677D01*
X145342851Y-124580082D01*
X145342846Y-124580077D01*
X145338508Y-124574182D01*
X145332930Y-124569443D01*
X145332927Y-124569440D01*
X145298232Y-124539965D01*
X145290716Y-124533035D01*
X145285021Y-124527340D01*
X145278880Y-124522482D01*
X145262749Y-124509719D01*
X145259345Y-124506928D01*
X145209297Y-124464409D01*
X145209295Y-124464408D01*
X145203715Y-124459667D01*
X145197199Y-124456339D01*
X145192150Y-124452972D01*
X145187021Y-124449805D01*
X145181284Y-124445266D01*
X145115125Y-124414345D01*
X145111225Y-124412439D01*
X145046192Y-124379231D01*
X145039084Y-124377492D01*
X145033441Y-124375393D01*
X145027678Y-124373476D01*
X145021050Y-124370378D01*
X144949583Y-124355513D01*
X144945299Y-124354543D01*
X144874390Y-124337192D01*
X144868788Y-124336844D01*
X144868785Y-124336844D01*
X144863236Y-124336500D01*
X144863238Y-124336464D01*
X144859245Y-124336225D01*
X144855053Y-124335851D01*
X144847885Y-124334360D01*
X144781675Y-124336151D01*
X144770479Y-124336454D01*
X144767072Y-124336500D01*
X143671291Y-124336500D01*
X143603170Y-124316498D01*
X143556677Y-124262842D01*
X143546028Y-124224108D01*
X143544703Y-124211914D01*
X143541745Y-124184684D01*
X143490615Y-124048295D01*
X143403261Y-123931739D01*
X143286705Y-123844385D01*
X143150316Y-123793255D01*
X143088134Y-123786500D01*
X142056371Y-123786500D01*
X141988250Y-123766498D01*
X141967276Y-123749595D01*
X140620125Y-122402444D01*
X140589387Y-122352285D01*
X140536569Y-122189729D01*
X140534527Y-122183444D01*
X140525884Y-122168473D01*
X140482098Y-122092634D01*
X140439040Y-122018056D01*
X140421570Y-121998653D01*
X140315675Y-121881045D01*
X140315674Y-121881044D01*
X140311253Y-121876134D01*
X140201647Y-121796500D01*
X140162094Y-121767763D01*
X140162093Y-121767762D01*
X140156752Y-121763882D01*
X140150724Y-121761198D01*
X140150722Y-121761197D01*
X139988319Y-121688891D01*
X139988318Y-121688891D01*
X139982288Y-121686206D01*
X139888888Y-121666353D01*
X139801944Y-121647872D01*
X139801939Y-121647872D01*
X139795487Y-121646500D01*
X139604513Y-121646500D01*
X139598061Y-121647872D01*
X139598056Y-121647872D01*
X139511112Y-121666353D01*
X139417712Y-121686206D01*
X139411682Y-121688891D01*
X139411681Y-121688891D01*
X139249278Y-121761197D01*
X139249276Y-121761198D01*
X139243248Y-121763882D01*
X139237909Y-121767761D01*
X139237902Y-121767765D01*
X139231472Y-121772437D01*
X139157413Y-121796500D01*
X136256371Y-121796500D01*
X136188250Y-121776498D01*
X136167276Y-121759595D01*
X132015384Y-117607703D01*
X134415743Y-117607703D01*
X134416302Y-117611947D01*
X134416302Y-117611951D01*
X134430880Y-117722682D01*
X134453268Y-117892734D01*
X134454401Y-117896874D01*
X134454401Y-117896876D01*
X134470214Y-117954678D01*
X134529129Y-118170036D01*
X134530813Y-118173984D01*
X134626027Y-118397208D01*
X134641923Y-118434476D01*
X134653693Y-118454142D01*
X134766629Y-118642844D01*
X134789561Y-118681161D01*
X134969313Y-118905528D01*
X135177851Y-119103423D01*
X135411317Y-119271186D01*
X135415112Y-119273195D01*
X135415113Y-119273196D01*
X135436869Y-119284715D01*
X135665392Y-119405712D01*
X135689699Y-119414607D01*
X135839797Y-119469535D01*
X135935373Y-119504511D01*
X136216264Y-119565755D01*
X136244841Y-119568004D01*
X136439282Y-119583307D01*
X136439291Y-119583307D01*
X136441739Y-119583500D01*
X136597271Y-119583500D01*
X136599407Y-119583354D01*
X136599418Y-119583354D01*
X136807548Y-119569165D01*
X136807554Y-119569164D01*
X136811825Y-119568873D01*
X136816020Y-119568004D01*
X136816022Y-119568004D01*
X136952584Y-119539723D01*
X137093342Y-119510574D01*
X137364343Y-119414607D01*
X137619812Y-119282750D01*
X137623313Y-119280289D01*
X137623317Y-119280287D01*
X137737418Y-119200095D01*
X137819804Y-119142193D01*
X142914410Y-119142193D01*
X142921124Y-119221325D01*
X142922914Y-119231797D01*
X142978130Y-119444535D01*
X142981665Y-119454575D01*
X143071937Y-119654970D01*
X143077106Y-119664256D01*
X143199850Y-119846575D01*
X143206519Y-119854870D01*
X143358228Y-120013900D01*
X143366186Y-120020941D01*
X143542525Y-120152141D01*
X143551562Y-120157745D01*
X143747484Y-120257357D01*
X143757335Y-120261357D01*
X143967240Y-120326534D01*
X143977624Y-120328817D01*
X143993043Y-120330861D01*
X144007207Y-120328665D01*
X144011000Y-120315478D01*
X144011000Y-119144115D01*
X144006525Y-119128876D01*
X144005135Y-119127671D01*
X143997452Y-119126000D01*
X142931151Y-119126000D01*
X142916473Y-119130310D01*
X142914410Y-119142193D01*
X137819804Y-119142193D01*
X137855023Y-119117441D01*
X138065622Y-118921740D01*
X138247713Y-118699268D01*
X138308438Y-118600174D01*
X142911496Y-118600174D01*
X142912915Y-118613414D01*
X142927550Y-118618000D01*
X143992885Y-118618000D01*
X144008124Y-118613525D01*
X144009329Y-118612135D01*
X144011000Y-118604452D01*
X144011000Y-117430808D01*
X144007027Y-117417277D01*
X143996420Y-117415752D01*
X143878579Y-117440477D01*
X143868383Y-117443537D01*
X143663971Y-117524263D01*
X143654439Y-117528994D01*
X143466538Y-117643016D01*
X143457948Y-117649280D01*
X143291948Y-117793327D01*
X143284528Y-117800958D01*
X143145174Y-117970911D01*
X143139150Y-117979678D01*
X143030424Y-118170682D01*
X143025959Y-118180346D01*
X142950969Y-118386941D01*
X142948198Y-118397208D01*
X142911496Y-118600174D01*
X138308438Y-118600174D01*
X138397927Y-118454142D01*
X138433894Y-118372208D01*
X138511757Y-118194830D01*
X138513483Y-118190898D01*
X138592244Y-117914406D01*
X138632751Y-117629784D01*
X138632845Y-117611951D01*
X138634235Y-117346583D01*
X138634235Y-117346576D01*
X138634257Y-117342297D01*
X138596732Y-117057266D01*
X138520871Y-116779964D01*
X138408077Y-116515524D01*
X138260439Y-116268839D01*
X138080687Y-116044472D01*
X137957289Y-115927372D01*
X137875258Y-115849527D01*
X137875255Y-115849525D01*
X137872149Y-115846577D01*
X137682064Y-115709987D01*
X137642172Y-115681321D01*
X137642171Y-115681320D01*
X137638683Y-115678814D01*
X137616843Y-115667250D01*
X137496260Y-115603405D01*
X137384608Y-115544288D01*
X137114627Y-115445489D01*
X136833736Y-115384245D01*
X136802685Y-115381801D01*
X136610718Y-115366693D01*
X136610709Y-115366693D01*
X136608261Y-115366500D01*
X136452729Y-115366500D01*
X136450593Y-115366646D01*
X136450582Y-115366646D01*
X136242452Y-115380835D01*
X136242446Y-115380836D01*
X136238175Y-115381127D01*
X136233980Y-115381996D01*
X136233978Y-115381996D01*
X136097417Y-115410276D01*
X135956658Y-115439426D01*
X135685657Y-115535393D01*
X135430188Y-115667250D01*
X135426687Y-115669711D01*
X135426683Y-115669713D01*
X135416608Y-115676794D01*
X135194977Y-115832559D01*
X134984378Y-116028260D01*
X134802287Y-116250732D01*
X134652073Y-116495858D01*
X134536517Y-116759102D01*
X134457756Y-117035594D01*
X134417249Y-117320216D01*
X134417227Y-117324505D01*
X134417226Y-117324512D01*
X134415828Y-117591432D01*
X134415743Y-117607703D01*
X132015384Y-117607703D01*
X123985405Y-109577724D01*
X123951379Y-109515412D01*
X123948500Y-109488629D01*
X123948500Y-104370802D01*
X123968502Y-104302681D01*
X123993504Y-104274284D01*
X123997529Y-104270906D01*
X124002038Y-104267749D01*
X124157749Y-104112038D01*
X124172064Y-104091595D01*
X124280899Y-103936162D01*
X124280900Y-103936160D01*
X124284056Y-103931653D01*
X124286379Y-103926671D01*
X124286382Y-103926666D01*
X124333585Y-103825438D01*
X124377120Y-103732076D01*
X124434115Y-103519371D01*
X124453307Y-103300000D01*
X124434115Y-103080629D01*
X124377120Y-102867924D01*
X124323865Y-102753717D01*
X124286382Y-102673334D01*
X124286379Y-102673329D01*
X124284056Y-102668347D01*
X124258632Y-102632038D01*
X124160908Y-102492473D01*
X124160906Y-102492470D01*
X124157749Y-102487962D01*
X124002038Y-102332251D01*
X123994357Y-102326872D01*
X123865148Y-102236399D01*
X123821654Y-102205944D01*
X123622076Y-102112880D01*
X123409371Y-102055885D01*
X123190000Y-102036693D01*
X122970629Y-102055885D01*
X122757924Y-102112880D01*
X122664562Y-102156415D01*
X122563334Y-102203618D01*
X122563329Y-102203621D01*
X122558347Y-102205944D01*
X122553840Y-102209100D01*
X122553838Y-102209101D01*
X122382473Y-102329092D01*
X122382470Y-102329094D01*
X122377962Y-102332251D01*
X122222251Y-102487962D01*
X122219094Y-102492470D01*
X122219092Y-102492473D01*
X122121368Y-102632038D01*
X122095944Y-102668347D01*
X122093621Y-102673329D01*
X122093618Y-102673334D01*
X122056135Y-102753717D01*
X122002880Y-102867924D01*
X121945885Y-103080629D01*
X121926693Y-103300000D01*
X120597516Y-103300000D01*
X120576855Y-102956655D01*
X120576667Y-102952251D01*
X120576530Y-102946739D01*
X120558858Y-102239130D01*
X120548840Y-101837997D01*
X120548808Y-101833571D01*
X120556163Y-101109876D01*
X120560134Y-100719097D01*
X120560256Y-100714689D01*
X120562272Y-100670224D01*
X120589531Y-100068820D01*
X120610724Y-99601258D01*
X120611002Y-99596840D01*
X120700547Y-98485885D01*
X120700980Y-98481480D01*
X120829493Y-97374346D01*
X120830081Y-97369958D01*
X120877411Y-97058259D01*
X120997403Y-96268028D01*
X120998141Y-96263682D01*
X120998159Y-96263589D01*
X121117604Y-95628219D01*
X121204063Y-95168318D01*
X121204957Y-95163982D01*
X121410837Y-94247432D01*
X121449232Y-94076502D01*
X121450276Y-94072209D01*
X121511995Y-93836498D01*
X121732591Y-92994013D01*
X121733786Y-92989753D01*
X122053810Y-91922097D01*
X122055156Y-91917880D01*
X122412464Y-90862184D01*
X122413956Y-90858017D01*
X122519089Y-90579962D01*
X122808150Y-89815455D01*
X122809779Y-89811366D01*
X122826267Y-89772000D01*
X123092236Y-89136946D01*
X123240341Y-88783318D01*
X123242123Y-88779266D01*
X123493895Y-88232819D01*
X123708520Y-87766996D01*
X123710432Y-87763030D01*
X123713146Y-87757647D01*
X124212108Y-86767745D01*
X124214170Y-86763827D01*
X124750492Y-85786785D01*
X124752690Y-85782943D01*
X125322993Y-84825355D01*
X125325324Y-84821593D01*
X125928907Y-83884632D01*
X125931369Y-83880953D01*
X126354722Y-83271880D01*
X126567514Y-82965739D01*
X126570094Y-82962162D01*
X126572361Y-82959134D01*
X127237983Y-82069871D01*
X127240693Y-82066380D01*
X127939512Y-81198100D01*
X127942348Y-81194701D01*
X128671209Y-80351530D01*
X128674162Y-80348232D01*
X129432225Y-79531146D01*
X129435292Y-79527955D01*
X129855237Y-79106055D01*
X130221566Y-78738021D01*
X130224734Y-78734947D01*
X130228863Y-78731081D01*
X131038278Y-77973111D01*
X131041561Y-77970143D01*
X131328618Y-77719664D01*
X131881375Y-77237342D01*
X131884754Y-77234497D01*
X131936343Y-77192581D01*
X132749778Y-76531657D01*
X132753262Y-76528927D01*
X133210133Y-76183633D01*
X133642407Y-75856929D01*
X133645981Y-75854324D01*
X133888366Y-75684173D01*
X134558240Y-75213931D01*
X134561900Y-75211457D01*
X134600199Y-75186533D01*
X135439734Y-74640177D01*
X135496054Y-74603525D01*
X135499806Y-74601176D01*
X135807979Y-74415696D01*
X136454758Y-74026420D01*
X136458542Y-74024232D01*
X137263535Y-73577475D01*
X137433130Y-73483353D01*
X137437038Y-73481274D01*
X138429950Y-72974999D01*
X138433928Y-72973058D01*
X139444009Y-72501971D01*
X139448053Y-72500170D01*
X139571487Y-72447799D01*
X140474111Y-72064830D01*
X140478177Y-72063189D01*
X141518906Y-71664154D01*
X141523028Y-71662656D01*
X141948151Y-71516567D01*
X142577116Y-71300430D01*
X142581326Y-71299066D01*
X143567473Y-70998475D01*
X143604211Y-70993000D01*
X161195786Y-70993000D01*
X161232524Y-70998475D01*
G37*
%TD.AperFunction*%
%TA.AperFunction,Conductor*%
G36*
X144953319Y-96968502D02*
G01*
X144986024Y-96998935D01*
X145026739Y-97053261D01*
X145143295Y-97140615D01*
X145279684Y-97191745D01*
X145341866Y-97198500D01*
X146023629Y-97198500D01*
X146091750Y-97218502D01*
X146112724Y-97235405D01*
X146521230Y-97643911D01*
X146533616Y-97658323D01*
X146542149Y-97669918D01*
X146542154Y-97669923D01*
X146546492Y-97675818D01*
X146552070Y-97680557D01*
X146552073Y-97680560D01*
X146586768Y-97710035D01*
X146594284Y-97716965D01*
X146599979Y-97722660D01*
X146602861Y-97724940D01*
X146622251Y-97740281D01*
X146625655Y-97743072D01*
X146675703Y-97785591D01*
X146681285Y-97790333D01*
X146687801Y-97793661D01*
X146692850Y-97797028D01*
X146697979Y-97800195D01*
X146703716Y-97804734D01*
X146769875Y-97835655D01*
X146773769Y-97837558D01*
X146838808Y-97870769D01*
X146845916Y-97872508D01*
X146851559Y-97874607D01*
X146857322Y-97876524D01*
X146863950Y-97879622D01*
X146871112Y-97881112D01*
X146871113Y-97881112D01*
X146935412Y-97894486D01*
X146939696Y-97895456D01*
X147010610Y-97912808D01*
X147016212Y-97913156D01*
X147016215Y-97913156D01*
X147021764Y-97913500D01*
X147021762Y-97913536D01*
X147025755Y-97913775D01*
X147029947Y-97914149D01*
X147037115Y-97915640D01*
X147114520Y-97913546D01*
X147117928Y-97913500D01*
X147724629Y-97913500D01*
X147792750Y-97933502D01*
X147839243Y-97987158D01*
X147849347Y-98057432D01*
X147819853Y-98122012D01*
X147813724Y-98128595D01*
X147422616Y-98519703D01*
X147360304Y-98553729D01*
X147289489Y-98548664D01*
X147253948Y-98525823D01*
X147253261Y-98526739D01*
X147136705Y-98439385D01*
X147000316Y-98388255D01*
X146938134Y-98381500D01*
X145341866Y-98381500D01*
X145279684Y-98388255D01*
X145143295Y-98439385D01*
X145026739Y-98526739D01*
X144939385Y-98643295D01*
X144888255Y-98779684D01*
X144881500Y-98841866D01*
X144881500Y-99938134D01*
X144888255Y-100000316D01*
X144939385Y-100136705D01*
X145026739Y-100253261D01*
X145143295Y-100340615D01*
X145279684Y-100391745D01*
X145341866Y-100398500D01*
X146938134Y-100398500D01*
X147000316Y-100391745D01*
X147136705Y-100340615D01*
X147253261Y-100253261D01*
X147293976Y-100198935D01*
X147350835Y-100156420D01*
X147394802Y-100148500D01*
X147557930Y-100148500D01*
X147576880Y-100149933D01*
X147591115Y-100152099D01*
X147591119Y-100152099D01*
X147598349Y-100153199D01*
X147605641Y-100152606D01*
X147605644Y-100152606D01*
X147651018Y-100148915D01*
X147661233Y-100148500D01*
X147669293Y-100148500D01*
X147682583Y-100146951D01*
X147697507Y-100145211D01*
X147701882Y-100144778D01*
X147767339Y-100139454D01*
X147767342Y-100139453D01*
X147774637Y-100138860D01*
X147781601Y-100136604D01*
X147787560Y-100135413D01*
X147793415Y-100134029D01*
X147800681Y-100133182D01*
X147869327Y-100108265D01*
X147873455Y-100106848D01*
X147935936Y-100086607D01*
X147935938Y-100086606D01*
X147942899Y-100084351D01*
X147949154Y-100080555D01*
X147954628Y-100078049D01*
X147960058Y-100075330D01*
X147966937Y-100072833D01*
X147973680Y-100068412D01*
X148027976Y-100032814D01*
X148031680Y-100030477D01*
X148094107Y-99992595D01*
X148102484Y-99985197D01*
X148102508Y-99985224D01*
X148105500Y-99982571D01*
X148108733Y-99979868D01*
X148114852Y-99975856D01*
X148153869Y-99934669D01*
X149782001Y-99934669D01*
X149782371Y-99941490D01*
X149787895Y-99992352D01*
X149791521Y-100007604D01*
X149836676Y-100128054D01*
X149845214Y-100143649D01*
X149921715Y-100245724D01*
X149934276Y-100258285D01*
X150036351Y-100334786D01*
X150051946Y-100343324D01*
X150172394Y-100388478D01*
X150187649Y-100392105D01*
X150238514Y-100397631D01*
X150245328Y-100398000D01*
X150767885Y-100398000D01*
X150783124Y-100393525D01*
X150784329Y-100392135D01*
X150786000Y-100384452D01*
X150786000Y-99662115D01*
X150781525Y-99646876D01*
X150780135Y-99645671D01*
X150772452Y-99644000D01*
X149800116Y-99644000D01*
X149784877Y-99648475D01*
X149783672Y-99649865D01*
X149782001Y-99657548D01*
X149782001Y-99934669D01*
X148153869Y-99934669D01*
X148168128Y-99919617D01*
X148170506Y-99917175D01*
X148867276Y-99220405D01*
X148929588Y-99186379D01*
X148956371Y-99183500D01*
X151168000Y-99183500D01*
X151236121Y-99203502D01*
X151282614Y-99257158D01*
X151294000Y-99309500D01*
X151294000Y-100379884D01*
X151298475Y-100395123D01*
X151299865Y-100396328D01*
X151307548Y-100397999D01*
X151834669Y-100397999D01*
X151841490Y-100397629D01*
X151892352Y-100392105D01*
X151907604Y-100388479D01*
X152028054Y-100343324D01*
X152043649Y-100334786D01*
X152145724Y-100258285D01*
X152158285Y-100245724D01*
X152234786Y-100143649D01*
X152243324Y-100128054D01*
X152281751Y-100025551D01*
X152324393Y-99968787D01*
X152390954Y-99944087D01*
X152460303Y-99959295D01*
X152510421Y-100009581D01*
X152517715Y-100025551D01*
X152520028Y-100031721D01*
X152559385Y-100136705D01*
X152564768Y-100143888D01*
X152564770Y-100143891D01*
X152592929Y-100181463D01*
X152617776Y-100247969D01*
X152602723Y-100317352D01*
X152581197Y-100346122D01*
X150551089Y-102376230D01*
X150536677Y-102388616D01*
X150525082Y-102397149D01*
X150525077Y-102397154D01*
X150519182Y-102401492D01*
X150514443Y-102407070D01*
X150514440Y-102407073D01*
X150484965Y-102441768D01*
X150478035Y-102449284D01*
X150472340Y-102454979D01*
X150470060Y-102457861D01*
X150454719Y-102477251D01*
X150451928Y-102480655D01*
X150416852Y-102521942D01*
X150404667Y-102536285D01*
X150401339Y-102542801D01*
X150397972Y-102547850D01*
X150394805Y-102552979D01*
X150390266Y-102558716D01*
X150359345Y-102624875D01*
X150357442Y-102628769D01*
X150324231Y-102693808D01*
X150322491Y-102700919D01*
X150320393Y-102706560D01*
X150318476Y-102712322D01*
X150315378Y-102718950D01*
X150314917Y-102721165D01*
X150275616Y-102777783D01*
X150210153Y-102804945D01*
X150206932Y-102805295D01*
X150179684Y-102808255D01*
X150043295Y-102859385D01*
X149926739Y-102946739D01*
X149839385Y-103063295D01*
X149788255Y-103199684D01*
X149781500Y-103261866D01*
X149781500Y-104358134D01*
X149788255Y-104420316D01*
X149811106Y-104481270D01*
X149816289Y-104552077D01*
X149782369Y-104614446D01*
X149720113Y-104648575D01*
X149693124Y-104651500D01*
X147807070Y-104651500D01*
X147788120Y-104650067D01*
X147773885Y-104647901D01*
X147773881Y-104647901D01*
X147766651Y-104646801D01*
X147759359Y-104647394D01*
X147759356Y-104647394D01*
X147713982Y-104651085D01*
X147703767Y-104651500D01*
X147695707Y-104651500D01*
X147692073Y-104651924D01*
X147692067Y-104651924D01*
X147679042Y-104653443D01*
X147667480Y-104654791D01*
X147663132Y-104655221D01*
X147590364Y-104661140D01*
X147583403Y-104663395D01*
X147577463Y-104664582D01*
X147571588Y-104665971D01*
X147564319Y-104666818D01*
X147514512Y-104684897D01*
X147443656Y-104689338D01*
X147381646Y-104654766D01*
X147348171Y-104592157D01*
X147353540Y-104522229D01*
X147388971Y-104427718D01*
X147388973Y-104427712D01*
X147391745Y-104420316D01*
X147398500Y-104358134D01*
X147398500Y-103261866D01*
X147391745Y-103199684D01*
X147340615Y-103063295D01*
X147253261Y-102946739D01*
X147136705Y-102859385D01*
X147000316Y-102808255D01*
X146938134Y-102801500D01*
X146256371Y-102801500D01*
X146188250Y-102781498D01*
X146167276Y-102764595D01*
X144072905Y-100670224D01*
X144038879Y-100607912D01*
X144036000Y-100581129D01*
X144036000Y-97695590D01*
X144056002Y-97627469D01*
X144083518Y-97597086D01*
X144089348Y-97593478D01*
X144214305Y-97468303D01*
X144218146Y-97462072D01*
X144303275Y-97323968D01*
X144303276Y-97323966D01*
X144307115Y-97317738D01*
X144362797Y-97149861D01*
X144363745Y-97140615D01*
X144371834Y-97061658D01*
X144398675Y-96995930D01*
X144456790Y-96955148D01*
X144497178Y-96948500D01*
X144885198Y-96948500D01*
X144953319Y-96968502D01*
G37*
%TD.AperFunction*%
%TA.AperFunction,Conductor*%
G36*
X160019645Y-96964508D02*
G01*
X160053635Y-97026839D01*
X160056500Y-97053554D01*
X160056500Y-97140400D01*
X160056837Y-97143646D01*
X160056837Y-97143650D01*
X160064604Y-97218502D01*
X160067474Y-97246166D01*
X160069655Y-97252702D01*
X160069655Y-97252704D01*
X160094002Y-97325680D01*
X160123450Y-97413946D01*
X160216522Y-97564348D01*
X160341697Y-97689305D01*
X160346235Y-97692102D01*
X160386824Y-97749353D01*
X160390054Y-97820276D01*
X160354428Y-97881687D01*
X160345932Y-97889062D01*
X160335793Y-97897098D01*
X160221261Y-98011829D01*
X160212249Y-98023240D01*
X160127184Y-98161243D01*
X160121037Y-98174424D01*
X160069862Y-98328710D01*
X160066995Y-98342086D01*
X160057328Y-98436438D01*
X160057000Y-98442855D01*
X160057000Y-98527947D01*
X160036998Y-98596068D01*
X159983342Y-98642561D01*
X159913068Y-98652665D01*
X159848488Y-98623171D01*
X159830173Y-98603512D01*
X159778281Y-98534272D01*
X159765724Y-98521715D01*
X159663649Y-98445214D01*
X159648054Y-98436676D01*
X159527606Y-98391522D01*
X159512351Y-98387895D01*
X159461486Y-98382369D01*
X159454672Y-98382000D01*
X158932115Y-98382000D01*
X158916876Y-98386475D01*
X158915671Y-98387865D01*
X158914000Y-98395548D01*
X158914000Y-100379884D01*
X158918475Y-100395123D01*
X158919865Y-100396328D01*
X158927548Y-100397999D01*
X159454669Y-100397999D01*
X159461490Y-100397629D01*
X159512352Y-100392105D01*
X159527604Y-100388479D01*
X159648054Y-100343324D01*
X159663649Y-100334786D01*
X159765724Y-100258285D01*
X159778285Y-100245724D01*
X159854786Y-100143649D01*
X159863324Y-100128054D01*
X159908478Y-100007606D01*
X159912105Y-99992351D01*
X159917631Y-99941486D01*
X159918000Y-99934672D01*
X159918000Y-99599050D01*
X159938002Y-99530929D01*
X159991658Y-99484436D01*
X160061932Y-99474332D01*
X160126512Y-99503826D01*
X160151144Y-99532747D01*
X160213063Y-99632807D01*
X160222099Y-99644208D01*
X160336829Y-99758739D01*
X160348240Y-99767751D01*
X160486243Y-99852816D01*
X160499424Y-99858963D01*
X160653710Y-99910138D01*
X160667086Y-99913005D01*
X160761438Y-99922672D01*
X160767854Y-99923000D01*
X161017885Y-99923000D01*
X161033124Y-99918525D01*
X161034329Y-99917135D01*
X161036000Y-99909452D01*
X161036000Y-99904884D01*
X161544000Y-99904884D01*
X161548475Y-99920123D01*
X161549865Y-99921328D01*
X161557548Y-99922999D01*
X161812095Y-99922999D01*
X161818614Y-99922662D01*
X161914206Y-99912743D01*
X161927600Y-99909851D01*
X162081784Y-99858412D01*
X162094962Y-99852239D01*
X162232807Y-99766937D01*
X162244208Y-99757901D01*
X162358739Y-99643171D01*
X162367751Y-99631760D01*
X162452816Y-99493757D01*
X162458963Y-99480576D01*
X162510138Y-99326290D01*
X162513005Y-99312914D01*
X162522672Y-99218562D01*
X162523000Y-99212146D01*
X162523000Y-99099615D01*
X162518525Y-99084376D01*
X162517135Y-99083171D01*
X162509452Y-99081500D01*
X161562115Y-99081500D01*
X161546876Y-99085975D01*
X161545671Y-99087365D01*
X161544000Y-99095048D01*
X161544000Y-99904884D01*
X161036000Y-99904884D01*
X161036000Y-98699500D01*
X161056002Y-98631379D01*
X161109658Y-98584886D01*
X161162000Y-98573500D01*
X162504884Y-98573500D01*
X162520123Y-98569025D01*
X162521328Y-98567635D01*
X162522999Y-98559952D01*
X162522999Y-98442905D01*
X162522662Y-98436386D01*
X162512743Y-98340794D01*
X162509851Y-98327400D01*
X162458412Y-98173216D01*
X162452239Y-98160038D01*
X162366937Y-98022193D01*
X162357901Y-98010792D01*
X162243172Y-97896262D01*
X162234238Y-97889206D01*
X162193177Y-97831288D01*
X162189947Y-97760365D01*
X162225574Y-97698954D01*
X162233407Y-97692154D01*
X162239348Y-97688478D01*
X162358297Y-97569321D01*
X162420578Y-97535243D01*
X162491398Y-97540246D01*
X162536564Y-97569245D01*
X163034595Y-98067276D01*
X163068621Y-98129588D01*
X163071500Y-98156371D01*
X163071500Y-101868629D01*
X163051498Y-101936750D01*
X163034595Y-101957724D01*
X162279852Y-102712467D01*
X162217540Y-102746493D01*
X162146725Y-102741428D01*
X162124642Y-102730632D01*
X162093975Y-102711729D01*
X162093971Y-102711727D01*
X162087738Y-102707885D01*
X162080789Y-102705580D01*
X162075762Y-102703236D01*
X162022477Y-102656319D01*
X162010575Y-102632038D01*
X162008269Y-102625685D01*
X162006847Y-102621542D01*
X161986607Y-102559064D01*
X161986606Y-102559062D01*
X161984351Y-102552101D01*
X161980555Y-102545846D01*
X161978049Y-102540372D01*
X161975330Y-102534942D01*
X161972833Y-102528063D01*
X161959489Y-102507710D01*
X161932814Y-102467024D01*
X161930467Y-102463305D01*
X161892595Y-102400893D01*
X161885197Y-102392516D01*
X161885224Y-102392492D01*
X161882571Y-102389500D01*
X161879868Y-102386267D01*
X161875856Y-102380148D01*
X161819617Y-102326872D01*
X161817175Y-102324494D01*
X161111770Y-101619089D01*
X161099384Y-101604677D01*
X161090851Y-101593082D01*
X161090846Y-101593077D01*
X161086508Y-101587182D01*
X161080930Y-101582443D01*
X161080927Y-101582440D01*
X161046232Y-101552965D01*
X161038716Y-101546035D01*
X161033021Y-101540340D01*
X161026880Y-101535482D01*
X161010749Y-101522719D01*
X161007345Y-101519928D01*
X160957297Y-101477409D01*
X160957295Y-101477408D01*
X160951715Y-101472667D01*
X160945199Y-101469339D01*
X160940150Y-101465972D01*
X160935021Y-101462805D01*
X160929284Y-101458266D01*
X160863125Y-101427345D01*
X160859225Y-101425439D01*
X160794192Y-101392231D01*
X160787084Y-101390492D01*
X160781441Y-101388393D01*
X160775678Y-101386476D01*
X160769050Y-101383378D01*
X160697583Y-101368513D01*
X160693299Y-101367543D01*
X160658958Y-101359140D01*
X160622390Y-101350192D01*
X160616788Y-101349844D01*
X160616785Y-101349844D01*
X160611236Y-101349500D01*
X160611238Y-101349464D01*
X160607245Y-101349225D01*
X160603053Y-101348851D01*
X160595885Y-101347360D01*
X160532120Y-101349085D01*
X160518479Y-101349454D01*
X160515072Y-101349500D01*
X155529063Y-101349500D01*
X155510114Y-101348067D01*
X155509907Y-101348036D01*
X155488651Y-101344802D01*
X155481359Y-101345395D01*
X155481356Y-101345395D01*
X155435991Y-101349085D01*
X155425777Y-101349500D01*
X155417707Y-101349500D01*
X155414087Y-101349922D01*
X155414069Y-101349923D01*
X155389461Y-101352792D01*
X155385100Y-101353224D01*
X155359981Y-101355267D01*
X155319661Y-101358546D01*
X155319658Y-101358547D01*
X155312363Y-101359140D01*
X155305399Y-101361396D01*
X155299440Y-101362587D01*
X155293585Y-101363971D01*
X155286319Y-101364818D01*
X155217673Y-101389735D01*
X155213545Y-101391152D01*
X155151064Y-101411393D01*
X155151062Y-101411394D01*
X155144101Y-101413649D01*
X155137846Y-101417445D01*
X155132372Y-101419951D01*
X155126942Y-101422670D01*
X155120063Y-101425167D01*
X155059016Y-101465191D01*
X155055327Y-101467518D01*
X155046843Y-101472667D01*
X154997693Y-101502491D01*
X154997688Y-101502495D01*
X154992892Y-101505405D01*
X154984516Y-101512803D01*
X154984493Y-101512777D01*
X154981503Y-101515426D01*
X154978264Y-101518134D01*
X154972148Y-101522144D01*
X154967121Y-101527451D01*
X154967117Y-101527454D01*
X154918872Y-101578383D01*
X154916494Y-101580825D01*
X153732724Y-102764595D01*
X153670412Y-102798621D01*
X153643629Y-102801500D01*
X152961866Y-102801500D01*
X152899684Y-102808255D01*
X152763295Y-102859385D01*
X152646739Y-102946739D01*
X152559385Y-103063295D01*
X152556233Y-103071703D01*
X152517982Y-103173737D01*
X152475340Y-103230501D01*
X152408779Y-103255201D01*
X152339430Y-103239994D01*
X152289312Y-103189708D01*
X152282018Y-103173737D01*
X152243767Y-103071703D01*
X152240615Y-103063295D01*
X152235232Y-103056112D01*
X152235230Y-103056109D01*
X152207071Y-103018537D01*
X152182224Y-102952031D01*
X152197277Y-102882648D01*
X152218803Y-102853878D01*
X154248911Y-100823770D01*
X154263323Y-100811384D01*
X154274918Y-100802851D01*
X154274923Y-100802846D01*
X154280818Y-100798508D01*
X154285557Y-100792930D01*
X154285560Y-100792927D01*
X154315035Y-100758232D01*
X154321965Y-100750716D01*
X154327660Y-100745021D01*
X154345281Y-100722749D01*
X154348072Y-100719345D01*
X154390591Y-100669297D01*
X154390592Y-100669295D01*
X154395333Y-100663715D01*
X154398661Y-100657199D01*
X154402028Y-100652150D01*
X154405195Y-100647021D01*
X154409734Y-100641284D01*
X154440655Y-100575125D01*
X154442561Y-100571225D01*
X154460465Y-100536162D01*
X154475769Y-100506192D01*
X154477509Y-100499081D01*
X154479607Y-100493440D01*
X154481524Y-100487678D01*
X154484622Y-100481050D01*
X154485083Y-100478835D01*
X154524384Y-100422217D01*
X154589847Y-100395055D01*
X154593068Y-100394705D01*
X154620316Y-100391745D01*
X154756705Y-100340615D01*
X154873261Y-100253261D01*
X154960615Y-100136705D01*
X155011745Y-100000316D01*
X155018500Y-99938134D01*
X155018500Y-99934669D01*
X157402001Y-99934669D01*
X157402371Y-99941490D01*
X157407895Y-99992352D01*
X157411521Y-100007604D01*
X157456676Y-100128054D01*
X157465214Y-100143649D01*
X157541715Y-100245724D01*
X157554276Y-100258285D01*
X157656351Y-100334786D01*
X157671946Y-100343324D01*
X157792394Y-100388478D01*
X157807649Y-100392105D01*
X157858514Y-100397631D01*
X157865328Y-100398000D01*
X158387885Y-100398000D01*
X158403124Y-100393525D01*
X158404329Y-100392135D01*
X158406000Y-100384452D01*
X158406000Y-99662115D01*
X158401525Y-99646876D01*
X158400135Y-99645671D01*
X158392452Y-99644000D01*
X157420116Y-99644000D01*
X157404877Y-99648475D01*
X157403672Y-99649865D01*
X157402001Y-99657548D01*
X157402001Y-99934669D01*
X155018500Y-99934669D01*
X155018500Y-99289971D01*
X155038502Y-99221850D01*
X155092158Y-99175357D01*
X155111752Y-99168640D01*
X155115681Y-99168182D01*
X155184327Y-99143265D01*
X155188455Y-99141848D01*
X155250936Y-99121607D01*
X155250938Y-99121606D01*
X155257899Y-99119351D01*
X155260315Y-99117885D01*
X157402000Y-99117885D01*
X157406475Y-99133124D01*
X157407865Y-99134329D01*
X157415548Y-99136000D01*
X158387885Y-99136000D01*
X158403124Y-99131525D01*
X158404329Y-99130135D01*
X158406000Y-99122452D01*
X158406000Y-98400116D01*
X158401525Y-98384877D01*
X158400135Y-98383672D01*
X158392452Y-98382001D01*
X157865331Y-98382001D01*
X157858510Y-98382371D01*
X157807648Y-98387895D01*
X157792396Y-98391521D01*
X157671946Y-98436676D01*
X157656351Y-98445214D01*
X157554276Y-98521715D01*
X157541715Y-98534276D01*
X157465214Y-98636351D01*
X157456676Y-98651946D01*
X157411522Y-98772394D01*
X157407895Y-98787649D01*
X157402369Y-98838514D01*
X157402000Y-98845328D01*
X157402000Y-99117885D01*
X155260315Y-99117885D01*
X155264154Y-99115555D01*
X155269628Y-99113049D01*
X155275058Y-99110330D01*
X155281937Y-99107833D01*
X155288058Y-99103820D01*
X155342976Y-99067814D01*
X155346680Y-99065477D01*
X155409107Y-99027595D01*
X155417484Y-99020197D01*
X155417508Y-99020224D01*
X155420500Y-99017571D01*
X155423733Y-99014868D01*
X155429852Y-99010856D01*
X155483128Y-98954617D01*
X155485506Y-98952175D01*
X157377384Y-97060297D01*
X157439696Y-97026271D01*
X157510511Y-97031336D01*
X157546052Y-97054177D01*
X157546739Y-97053261D01*
X157663295Y-97140615D01*
X157799684Y-97191745D01*
X157861866Y-97198500D01*
X159458134Y-97198500D01*
X159520316Y-97191745D01*
X159656705Y-97140615D01*
X159773261Y-97053261D01*
X159829675Y-96977988D01*
X159886533Y-96935474D01*
X159957351Y-96930448D01*
X160019645Y-96964508D01*
G37*
%TD.AperFunction*%
%TA.AperFunction,Conductor*%
G36*
X138916810Y-76343502D02*
G01*
X138955833Y-76383196D01*
X139021522Y-76489348D01*
X139146697Y-76614305D01*
X139152927Y-76618145D01*
X139152928Y-76618146D01*
X139290090Y-76702694D01*
X139297262Y-76707115D01*
X139314481Y-76712826D01*
X139323223Y-76715726D01*
X139381584Y-76756156D01*
X139408821Y-76821720D01*
X139396288Y-76891602D01*
X139347964Y-76943614D01*
X139323433Y-76954843D01*
X139303216Y-76961588D01*
X139290038Y-76967761D01*
X139152193Y-77053063D01*
X139140792Y-77062099D01*
X139026261Y-77176829D01*
X139017249Y-77188240D01*
X138932184Y-77326243D01*
X138926037Y-77339424D01*
X138874862Y-77493710D01*
X138871995Y-77507086D01*
X138862328Y-77601438D01*
X138862000Y-77607855D01*
X138862000Y-77832885D01*
X138866475Y-77848124D01*
X138867865Y-77849329D01*
X138875548Y-77851000D01*
X140098000Y-77851000D01*
X140166121Y-77871002D01*
X140212614Y-77924658D01*
X140224000Y-77977000D01*
X140224000Y-78233000D01*
X140203998Y-78301121D01*
X140150342Y-78347614D01*
X140098000Y-78359000D01*
X138880116Y-78359000D01*
X138864877Y-78363475D01*
X138863672Y-78364865D01*
X138862001Y-78372548D01*
X138862001Y-78602095D01*
X138862338Y-78608614D01*
X138872257Y-78704206D01*
X138875149Y-78717600D01*
X138926588Y-78871784D01*
X138932761Y-78884962D01*
X139018063Y-79022807D01*
X139027098Y-79034207D01*
X139029220Y-79036325D01*
X139030208Y-79038131D01*
X139031646Y-79039945D01*
X139031336Y-79040191D01*
X139063301Y-79098607D01*
X139058299Y-79169427D01*
X139015803Y-79226301D01*
X138949305Y-79251171D01*
X138940204Y-79251500D01*
X136592070Y-79251500D01*
X136573120Y-79250067D01*
X136558885Y-79247901D01*
X136558881Y-79247901D01*
X136551651Y-79246801D01*
X136544359Y-79247394D01*
X136544356Y-79247394D01*
X136498982Y-79251085D01*
X136488767Y-79251500D01*
X136480707Y-79251500D01*
X136477073Y-79251924D01*
X136477067Y-79251924D01*
X136464042Y-79253443D01*
X136452480Y-79254791D01*
X136448132Y-79255221D01*
X136375364Y-79261140D01*
X136368403Y-79263395D01*
X136362463Y-79264582D01*
X136356588Y-79265971D01*
X136349319Y-79266818D01*
X136280670Y-79291736D01*
X136276542Y-79293153D01*
X136214064Y-79313393D01*
X136214062Y-79313394D01*
X136207101Y-79315649D01*
X136200846Y-79319445D01*
X136195372Y-79321951D01*
X136189942Y-79324670D01*
X136183063Y-79327167D01*
X136176943Y-79331180D01*
X136176942Y-79331180D01*
X136122024Y-79367186D01*
X136118320Y-79369523D01*
X136055893Y-79407405D01*
X136047516Y-79414803D01*
X136047492Y-79414776D01*
X136044500Y-79417429D01*
X136041267Y-79420132D01*
X136035148Y-79424144D01*
X135981887Y-79480367D01*
X135981872Y-79480383D01*
X135979494Y-79482825D01*
X135519178Y-79943141D01*
X135456866Y-79977167D01*
X135386051Y-79972102D01*
X135329215Y-79929555D01*
X135304404Y-79863035D01*
X135307263Y-79825917D01*
X135337449Y-79694117D01*
X135337450Y-79694113D01*
X135338407Y-79689933D01*
X135352723Y-79529530D01*
X135362531Y-79419627D01*
X135362531Y-79419625D01*
X135362751Y-79417161D01*
X135363193Y-79375000D01*
X135362820Y-79369533D01*
X135344859Y-79106055D01*
X135344858Y-79106049D01*
X135344567Y-79101778D01*
X135342488Y-79091736D01*
X135303164Y-78901851D01*
X135289032Y-78833612D01*
X135287604Y-78829578D01*
X135287601Y-78829569D01*
X135230588Y-78668569D01*
X135226704Y-78597679D01*
X135260266Y-78537415D01*
X136724505Y-77073176D01*
X136786817Y-77039150D01*
X136857632Y-77044215D01*
X136914468Y-77086762D01*
X136933432Y-77123333D01*
X136960473Y-77206556D01*
X137055960Y-77371944D01*
X137060378Y-77376851D01*
X137060379Y-77376852D01*
X137171387Y-77500139D01*
X137183747Y-77513866D01*
X137338248Y-77626118D01*
X137344276Y-77628802D01*
X137344278Y-77628803D01*
X137506681Y-77701109D01*
X137512712Y-77703794D01*
X137606113Y-77723647D01*
X137693056Y-77742128D01*
X137693061Y-77742128D01*
X137699513Y-77743500D01*
X137890487Y-77743500D01*
X137896939Y-77742128D01*
X137896944Y-77742128D01*
X137983887Y-77723647D01*
X138077288Y-77703794D01*
X138083319Y-77701109D01*
X138245722Y-77628803D01*
X138245724Y-77628802D01*
X138251752Y-77626118D01*
X138406253Y-77513866D01*
X138418613Y-77500139D01*
X138529621Y-77376852D01*
X138529622Y-77376851D01*
X138534040Y-77371944D01*
X138629527Y-77206556D01*
X138688542Y-77024928D01*
X138690494Y-77006362D01*
X138707814Y-76841565D01*
X138708504Y-76835000D01*
X138700887Y-76762526D01*
X138689232Y-76651635D01*
X138689232Y-76651633D01*
X138688542Y-76645072D01*
X138647185Y-76517789D01*
X138645157Y-76446822D01*
X138677923Y-76389758D01*
X138707276Y-76360405D01*
X138769588Y-76326379D01*
X138796371Y-76323500D01*
X138848689Y-76323500D01*
X138916810Y-76343502D01*
G37*
%TD.AperFunction*%
%TD*%
M02*
