M48
; DRILL file {KiCad (6.0.1)} date Thu Feb  3 04:10:01 2022
; FORMAT={-:-/ absolute / inch / decimal}
; #@! TF.CreationDate,2022-02-03T04:10:01+01:00
; #@! TF.GenerationSoftware,Kicad,Pcbnew,(6.0.1)
; #@! TF.FileFunction,Plated,1,2,PTH
FMAT,2
INCH
; #@! TA.AperFunction,Plated,PTH,ViaDrill
T1C0.0157
; #@! TA.AperFunction,Plated,PTH,ComponentDrill
T2C0.0295
; #@! TA.AperFunction,Plated,PTH,ComponentDrill
T3C0.0315
; #@! TA.AperFunction,Plated,PTH,ComponentDrill
T4C0.0374
; #@! TA.AperFunction,Plated,PTH,ComponentDrill
T5C0.0394
; #@! TA.AperFunction,Plated,PTH,ComponentDrill
T6C0.0591
%
G90
G05
T1
X5.0Y-3.8
X5.0Y-4.0
X5.0Y-4.2
X5.0Y-4.4
X5.0Y-4.6
X5.2Y-3.4
X5.2Y-3.6
X5.2Y-3.8
X5.2Y-4.4
X5.2Y-4.8
X5.375Y-3.1
X5.4Y-3.8
X5.4Y-4.2
X5.4Y-4.4
X5.4Y-5.0
X5.425Y-3.025
X5.5Y-4.825
X5.525Y-3.3
X5.6Y-4.2
X5.6Y-4.4
X5.625Y-3.525
X5.8Y-4.4
X5.8Y-5.2
X5.875Y-4.0
X6.0Y-4.4
X6.0Y-5.2
X6.16Y-3.92
X6.2Y-4.4
X6.2Y-5.2
X6.3Y-4.44
X6.3Y-4.52
X6.4Y-4.4
X6.42Y-4.3
X6.44Y-3.14
X6.52Y-3.24
X6.6Y-3.2
X6.6Y-4.8
X6.6Y-5.0
X6.8Y-3.2
X6.8Y-3.4
X6.8Y-3.6
X6.8Y-3.8
X6.8Y-4.4
X6.8Y-4.6
X6.8Y-4.8
X7.0Y-3.4
X7.0Y-3.6
X7.0Y-3.8
X7.0Y-4.4
X7.0Y-4.6
X7.2Y-3.8
X7.2Y-4.0
T2
X6.6Y-4.3142
X6.65Y-4.3142
X6.7Y-4.3142
T3
X4.85Y-3.9331
X4.85Y-4.0669
X5.6Y-4.925
X5.6Y-5.0234
T4
X5.6797Y-4.68
X5.7781Y-4.68
X5.8766Y-4.68
X5.975Y-4.68
T5
X6.2108Y-4.68
X6.3092Y-4.68
X6.925Y-3.9215
X6.925Y-4.1183
T6
X5.05Y-3.475
X5.25Y-3.125
X5.25Y-3.95
X5.25Y-4.175
X6.475Y-2.95
X6.55Y-3.675
X6.625Y-3.05
T0
M30
