%TF.GenerationSoftware,KiCad,Pcbnew,(6.0.1)*%
%TF.CreationDate,2022-02-03T22:35:59+01:00*%
%TF.ProjectId,ESP8266_12F_BASIC,45535038-3236-4365-9f31-32465f424153,rev?*%
%TF.SameCoordinates,Original*%
%TF.FileFunction,Copper,L2,Bot*%
%TF.FilePolarity,Positive*%
%FSLAX46Y46*%
G04 Gerber Fmt 4.6, Leading zero omitted, Abs format (unit mm)*
G04 Created by KiCad (PCBNEW (6.0.1)) date 2022-02-03 22:35:59*
%MOMM*%
%LPD*%
G01*
G04 APERTURE LIST*
G04 Aperture macros list*
%AMRoundRect*
0 Rectangle with rounded corners*
0 $1 Rounding radius*
0 $2 $3 $4 $5 $6 $7 $8 $9 X,Y pos of 4 corners*
0 Add a 4 corners polygon primitive as box body*
4,1,4,$2,$3,$4,$5,$6,$7,$8,$9,$2,$3,0*
0 Add four circle primitives for the rounded corners*
1,1,$1+$1,$2,$3*
1,1,$1+$1,$4,$5*
1,1,$1+$1,$6,$7*
1,1,$1+$1,$8,$9*
0 Add four rect primitives between the rounded corners*
20,1,$1+$1,$2,$3,$4,$5,0*
20,1,$1+$1,$4,$5,$6,$7,0*
20,1,$1+$1,$6,$7,$8,$9,0*
20,1,$1+$1,$8,$9,$2,$3,0*%
G04 Aperture macros list end*
%TA.AperFunction,ComponentPad*%
%ADD10C,3.000000*%
%TD*%
%TA.AperFunction,ComponentPad*%
%ADD11R,1.600000X1.600000*%
%TD*%
%TA.AperFunction,ComponentPad*%
%ADD12C,1.600000*%
%TD*%
%TA.AperFunction,ComponentPad*%
%ADD13R,1.700000X1.700000*%
%TD*%
%TA.AperFunction,ComponentPad*%
%ADD14O,1.700000X1.700000*%
%TD*%
%TA.AperFunction,ComponentPad*%
%ADD15C,1.500000*%
%TD*%
%TA.AperFunction,ComponentPad*%
%ADD16R,1.050000X1.500000*%
%TD*%
%TA.AperFunction,ComponentPad*%
%ADD17O,1.050000X1.500000*%
%TD*%
%TA.AperFunction,ComponentPad*%
%ADD18R,2.000000X2.000000*%
%TD*%
%TA.AperFunction,ComponentPad*%
%ADD19C,2.000000*%
%TD*%
%TA.AperFunction,ComponentPad*%
%ADD20RoundRect,0.250000X0.600000X0.750000X-0.600000X0.750000X-0.600000X-0.750000X0.600000X-0.750000X0*%
%TD*%
%TA.AperFunction,ComponentPad*%
%ADD21O,1.700000X2.000000*%
%TD*%
%TA.AperFunction,ComponentPad*%
%ADD22RoundRect,0.250000X0.600000X0.725000X-0.600000X0.725000X-0.600000X-0.725000X0.600000X-0.725000X0*%
%TD*%
%TA.AperFunction,ComponentPad*%
%ADD23O,1.700000X1.950000*%
%TD*%
%TA.AperFunction,ViaPad*%
%ADD24C,0.800000*%
%TD*%
%TA.AperFunction,Conductor*%
%ADD25C,0.500000*%
%TD*%
G04 APERTURE END LIST*
D10*
%TO.P,TP5,1,1*%
%TO.N,ESP_ADC*%
X130302000Y-82550000D03*
%TD*%
%TO.P,TP4,1,1*%
%TO.N,D1_IN*%
X128524000Y-93218000D03*
%TD*%
D11*
%TO.P,C3,1*%
%TO.N,VCC_3V3*%
X137580379Y-91694000D03*
D12*
%TO.P,C3,2*%
%TO.N,GND*%
X135080379Y-91694000D03*
%TD*%
D13*
%TO.P,J3,1,Pin_1*%
%TO.N,GPIO1*%
X156972000Y-111506000D03*
D14*
%TO.P,J3,2,Pin_2*%
%TO.N,GPIO2*%
X154432000Y-111506000D03*
%TO.P,J3,3,Pin_3*%
%TO.N,GPIO3*%
X151892000Y-111506000D03*
%TO.P,J3,4,Pin_4*%
%TO.N,GPIO14*%
X149352000Y-111506000D03*
%TO.P,J3,5,Pin_5*%
%TO.N,GPIO16*%
X146812000Y-111506000D03*
%TD*%
D15*
%TO.P,R1,1*%
%TO.N,ESP_ADC*%
X123698000Y-102030000D03*
%TO.P,R1,2*%
%TO.N,GND*%
X123698000Y-98630000D03*
%TD*%
D10*
%TO.P,TP2,1,1*%
%TO.N,MHZ_RX*%
X164465000Y-74930000D03*
%TD*%
D16*
%TO.P,Q1,1,C*%
%TO.N,VCC_IN*%
X167640000Y-109580000D03*
D17*
%TO.P,Q1,2,B*%
%TO.N,Net-(Q1-Pad2)*%
X168910000Y-109580000D03*
%TO.P,Q1,3,E*%
%TO.N,Net-(BZ1-Pad1)*%
X170180000Y-109580000D03*
%TD*%
D10*
%TO.P,TP3,1,1*%
%TO.N,BUZZ*%
X166370000Y-93345000D03*
%TD*%
%TO.P,TP7,1,1*%
%TO.N,ESP_RS*%
X133350000Y-79375000D03*
%TD*%
%TO.P,TP6,1,1*%
%TO.N,ESP_EN*%
X129286000Y-88646000D03*
%TD*%
%TO.P,TP1,1,1*%
%TO.N,MHZ_TX*%
X168275000Y-77470000D03*
%TD*%
D18*
%TO.P,BZ1,1,-*%
%TO.N,Net-(BZ1-Pad1)*%
X175895000Y-101176785D03*
D19*
%TO.P,BZ1,2,+*%
%TO.N,GND*%
X175895000Y-96176785D03*
%TD*%
D20*
%TO.P,J1,1,Pin_1*%
%TO.N,VCC_IN*%
X160254000Y-118872000D03*
D21*
%TO.P,J1,2,Pin_2*%
%TO.N,GND*%
X157754000Y-118872000D03*
%TD*%
D22*
%TO.P,J2,1,Pin_1*%
%TO.N,MHZ_TX*%
X151765000Y-118872000D03*
D23*
%TO.P,J2,2,Pin_2*%
%TO.N,MHZ_RX*%
X149265000Y-118872000D03*
%TO.P,J2,3,Pin_3*%
%TO.N,VCC_IN*%
X146765000Y-118872000D03*
%TO.P,J2,4,Pin_4*%
%TO.N,GND*%
X144265000Y-118872000D03*
%TD*%
D24*
%TO.N,GND*%
X172720000Y-86360000D03*
X136525000Y-78740000D03*
X163830000Y-111125000D03*
X128524000Y-97028000D03*
X147320000Y-132080000D03*
X155702000Y-100076000D03*
X177800000Y-86360000D03*
X182880000Y-96520000D03*
X182880000Y-101600000D03*
X172720000Y-111760000D03*
X167640000Y-81280000D03*
X177800000Y-91440000D03*
X172720000Y-91440000D03*
X157480000Y-132080000D03*
X152400000Y-132080000D03*
X172720000Y-81280000D03*
X148082000Y-101600000D03*
X167640000Y-121920000D03*
X129286000Y-120396000D03*
%TO.N,VCC_3V3*%
X137668000Y-96774000D03*
X142875000Y-89535000D03*
X137668000Y-100838000D03*
X137795000Y-76835000D03*
X138430000Y-122555000D03*
X140335000Y-83820000D03*
%TO.N,GPIO1*%
X156972000Y-75875000D03*
%TO.N,MHZ_TX*%
X165608000Y-82296000D03*
X160020000Y-114808000D03*
%TO.N,MHZ_RX*%
X163576000Y-79756000D03*
X160020000Y-112776000D03*
%TO.N,GPIO2*%
X154432000Y-85852000D03*
%TO.N,GPIO3*%
X151892000Y-77875000D03*
%TO.N,GPIO14*%
X149352000Y-83875000D03*
%TO.N,GPIO16*%
X146812000Y-81875000D03*
%TD*%
D25*
%TO.N,VCC_3V3*%
X137580379Y-91694000D02*
X137668000Y-91781621D01*
X140208000Y-107569000D02*
X137668000Y-105029000D01*
X137795000Y-81280000D02*
X137795000Y-76835000D01*
X138430000Y-122555000D02*
X140208000Y-120777000D01*
X137668000Y-105029000D02*
X137668000Y-100838000D01*
X140208000Y-120777000D02*
X140208000Y-107569000D01*
X137668000Y-96774000D02*
X137580379Y-96686379D01*
X142875000Y-89535000D02*
X142875000Y-86360000D01*
X140335000Y-83820000D02*
X137795000Y-81280000D01*
X137580379Y-96686379D02*
X137580379Y-91694000D01*
X142875000Y-86360000D02*
X140335000Y-83820000D01*
X140716000Y-91694000D02*
X137580379Y-91694000D01*
X142875000Y-89535000D02*
X140716000Y-91694000D01*
%TO.N,GPIO1*%
X156972000Y-75875000D02*
X156972000Y-111506000D01*
%TO.N,MHZ_TX*%
X160020000Y-114808000D02*
X161710489Y-113117511D01*
X161710489Y-113117511D02*
X161710489Y-86193511D01*
X161710489Y-86193511D02*
X165608000Y-82296000D01*
%TO.N,MHZ_RX*%
X160020000Y-112776000D02*
X160020000Y-83312000D01*
X160020000Y-83312000D02*
X163576000Y-79756000D01*
%TO.N,GPIO2*%
X154432000Y-85852000D02*
X154432000Y-111252000D01*
%TO.N,GPIO3*%
X151892000Y-77875000D02*
X151892000Y-111506000D01*
%TO.N,GPIO14*%
X149352000Y-83875000D02*
X149352000Y-111506000D01*
%TO.N,GPIO16*%
X146812000Y-81875000D02*
X146812000Y-111506000D01*
%TD*%
%TA.AperFunction,Conductor*%
%TO.N,GND*%
G36*
X142266121Y-72410002D02*
G01*
X142273600Y-72415200D01*
X144780000Y-74295000D01*
X160020000Y-74295000D01*
X160034494Y-74284130D01*
X162526400Y-72415200D01*
X162592898Y-72390329D01*
X162602000Y-72390000D01*
X165066661Y-72390000D01*
X165115874Y-72400008D01*
X165351947Y-72500170D01*
X165355991Y-72501971D01*
X166366072Y-72973058D01*
X166370050Y-72974999D01*
X167362962Y-73481274D01*
X167366870Y-73483353D01*
X168341458Y-74024232D01*
X168345242Y-74026420D01*
X168906655Y-74364317D01*
X169300194Y-74601176D01*
X169303946Y-74603525D01*
X169360266Y-74640177D01*
X170214555Y-75196134D01*
X170238100Y-75211457D01*
X170241760Y-75213931D01*
X170903971Y-75678794D01*
X171154019Y-75854324D01*
X171157593Y-75856929D01*
X171589867Y-76183633D01*
X172046738Y-76528927D01*
X172050222Y-76531657D01*
X172868031Y-77196134D01*
X172915246Y-77234497D01*
X172918625Y-77237342D01*
X173541282Y-77780657D01*
X173758439Y-77970143D01*
X173761722Y-77973111D01*
X174559828Y-78720490D01*
X174575266Y-78734947D01*
X174578434Y-78738021D01*
X174805451Y-78966094D01*
X175364708Y-79527955D01*
X175367775Y-79531146D01*
X176125838Y-80348232D01*
X176128791Y-80351530D01*
X176857652Y-81194701D01*
X176860488Y-81198100D01*
X177316565Y-81764774D01*
X177512814Y-82008612D01*
X177559307Y-82066380D01*
X177562017Y-82069871D01*
X178211672Y-82937801D01*
X178229906Y-82962162D01*
X178232486Y-82965739D01*
X178526028Y-83388054D01*
X178868631Y-83880953D01*
X178871093Y-83884632D01*
X179474676Y-84821593D01*
X179477007Y-84825355D01*
X180047310Y-85782943D01*
X180049508Y-85786785D01*
X180585830Y-86763827D01*
X180587892Y-86767745D01*
X181085735Y-87755425D01*
X181089568Y-87763030D01*
X181091480Y-87766996D01*
X181235841Y-88080317D01*
X181557877Y-88779266D01*
X181559659Y-88783318D01*
X181720373Y-89167053D01*
X181956649Y-89731206D01*
X181990221Y-89811366D01*
X181991850Y-89815455D01*
X182271110Y-90554041D01*
X182386044Y-90858017D01*
X182387536Y-90862184D01*
X182744844Y-91917880D01*
X182746190Y-91922097D01*
X182893832Y-92414656D01*
X183046952Y-92925490D01*
X183066214Y-92989753D01*
X183067409Y-92994013D01*
X183294643Y-93861846D01*
X183349724Y-94072209D01*
X183350768Y-94076502D01*
X183387262Y-94238968D01*
X183595043Y-95163982D01*
X183595937Y-95168318D01*
X183624724Y-95321445D01*
X183795931Y-96232147D01*
X183801859Y-96263682D01*
X183802597Y-96268028D01*
X183919493Y-97037865D01*
X183969919Y-97369958D01*
X183970507Y-97374346D01*
X184099020Y-98481480D01*
X184099453Y-98485885D01*
X184188998Y-99596840D01*
X184189276Y-99601258D01*
X184205892Y-99967834D01*
X184228233Y-100460721D01*
X184239744Y-100714689D01*
X184239866Y-100719097D01*
X184242102Y-100939101D01*
X184251192Y-101833571D01*
X184251160Y-101837997D01*
X184240754Y-102254681D01*
X184230148Y-102679383D01*
X184223333Y-102952251D01*
X184223145Y-102956655D01*
X184204042Y-103274115D01*
X184156199Y-104069182D01*
X184155856Y-104073595D01*
X184049872Y-105183104D01*
X184049374Y-105187503D01*
X183904481Y-106292627D01*
X183903832Y-106296979D01*
X183732870Y-107320545D01*
X183720217Y-107396297D01*
X183719412Y-107400649D01*
X183497285Y-108492887D01*
X183496326Y-108497209D01*
X183235988Y-109580904D01*
X183234879Y-109585189D01*
X182936630Y-110659099D01*
X182935371Y-110663343D01*
X182599574Y-111726143D01*
X182598166Y-111730339D01*
X182225264Y-112780638D01*
X182223710Y-112784783D01*
X181814130Y-113821374D01*
X181812452Y-113825414D01*
X181366683Y-114847053D01*
X181364882Y-114850989D01*
X180967304Y-115681321D01*
X180883533Y-115856275D01*
X180881552Y-115860233D01*
X180786780Y-116041525D01*
X180365200Y-116847972D01*
X180363081Y-116851858D01*
X179812351Y-117820852D01*
X179810096Y-117824662D01*
X179658032Y-118071600D01*
X179282665Y-118681161D01*
X179225668Y-118773718D01*
X179223287Y-118777436D01*
X178609086Y-119700566D01*
X178605900Y-119705354D01*
X178603396Y-119708978D01*
X178129413Y-120369797D01*
X177953763Y-120614685D01*
X177951120Y-120618236D01*
X177270101Y-121500530D01*
X177267335Y-121503986D01*
X176555757Y-122361802D01*
X176552872Y-122365159D01*
X175811569Y-123197488D01*
X175808567Y-123200741D01*
X175038518Y-124006484D01*
X175035404Y-124009630D01*
X174237513Y-124787843D01*
X174234291Y-124790877D01*
X173409558Y-125540583D01*
X173406230Y-125543503D01*
X172555690Y-126263762D01*
X172552263Y-126266563D01*
X171676907Y-126956535D01*
X171673383Y-126959213D01*
X170774366Y-127617989D01*
X170770750Y-127620542D01*
X169849144Y-128247334D01*
X169845440Y-128249759D01*
X168902386Y-128843793D01*
X168898600Y-128846086D01*
X168473793Y-129093271D01*
X167935241Y-129406642D01*
X167931436Y-129408768D01*
X167145136Y-129830046D01*
X166948943Y-129935161D01*
X166945018Y-129937176D01*
X165944692Y-130428707D01*
X165940716Y-130430575D01*
X164923734Y-130886671D01*
X164919698Y-130888398D01*
X163887296Y-131308502D01*
X163883167Y-131310098D01*
X162836696Y-131693660D01*
X162832514Y-131695110D01*
X161773199Y-132041685D01*
X161768968Y-132042987D01*
X160698156Y-132352132D01*
X160693887Y-132353284D01*
X159612852Y-132624632D01*
X159608560Y-132625630D01*
X158518649Y-132858842D01*
X158514333Y-132859686D01*
X157655004Y-133012210D01*
X157416914Y-133054469D01*
X157412542Y-133055166D01*
X156308979Y-133211278D01*
X156304587Y-133211821D01*
X155196200Y-133329077D01*
X155191790Y-133329465D01*
X154677726Y-133365645D01*
X154079982Y-133407714D01*
X154075575Y-133407947D01*
X153035887Y-133444489D01*
X152961711Y-133447096D01*
X152957285Y-133447174D01*
X151842715Y-133447174D01*
X151838289Y-133447096D01*
X151764113Y-133444489D01*
X150724425Y-133407947D01*
X150720018Y-133407714D01*
X150122274Y-133365645D01*
X149608210Y-133329465D01*
X149603800Y-133329077D01*
X148495413Y-133211821D01*
X148491021Y-133211278D01*
X147387458Y-133055166D01*
X147383086Y-133054469D01*
X147144996Y-133012210D01*
X146285667Y-132859686D01*
X146281351Y-132858842D01*
X145191440Y-132625630D01*
X145187148Y-132624632D01*
X144106113Y-132353284D01*
X144101844Y-132352132D01*
X143031032Y-132042987D01*
X143026801Y-132041685D01*
X141967486Y-131695110D01*
X141963304Y-131693660D01*
X140916833Y-131310098D01*
X140912704Y-131308502D01*
X139880302Y-130888398D01*
X139876266Y-130886671D01*
X138859284Y-130430575D01*
X138855308Y-130428707D01*
X137854982Y-129937176D01*
X137851057Y-129935161D01*
X137654864Y-129830046D01*
X136868564Y-129408768D01*
X136864759Y-129406642D01*
X136326207Y-129093271D01*
X135901400Y-128846086D01*
X135897614Y-128843793D01*
X134954560Y-128249759D01*
X134950856Y-128247334D01*
X134029250Y-127620542D01*
X134025634Y-127617989D01*
X133126617Y-126959213D01*
X133123093Y-126956535D01*
X132247737Y-126266563D01*
X132244310Y-126263762D01*
X131393770Y-125543503D01*
X131390442Y-125540583D01*
X130565709Y-124790877D01*
X130562487Y-124787843D01*
X129764596Y-124009630D01*
X129761482Y-124006484D01*
X128991433Y-123200741D01*
X128988431Y-123197488D01*
X128247128Y-122365159D01*
X128244243Y-122361802D01*
X127532665Y-121503986D01*
X127529899Y-121500530D01*
X126848880Y-120618236D01*
X126846237Y-120614685D01*
X126670587Y-120369797D01*
X126196604Y-119708978D01*
X126194100Y-119705354D01*
X126190915Y-119700566D01*
X125576713Y-118777436D01*
X125574332Y-118773718D01*
X125517336Y-118681161D01*
X125141968Y-118071600D01*
X124989904Y-117824662D01*
X124987649Y-117820852D01*
X124866505Y-117607703D01*
X134415743Y-117607703D01*
X134416302Y-117611947D01*
X134416302Y-117611951D01*
X134430880Y-117722682D01*
X134453268Y-117892734D01*
X134454401Y-117896874D01*
X134454401Y-117896876D01*
X134470214Y-117954678D01*
X134529129Y-118170036D01*
X134530813Y-118173984D01*
X134626027Y-118397208D01*
X134641923Y-118434476D01*
X134653693Y-118454142D01*
X134766629Y-118642844D01*
X134789561Y-118681161D01*
X134969313Y-118905528D01*
X135177851Y-119103423D01*
X135411317Y-119271186D01*
X135415112Y-119273195D01*
X135415113Y-119273196D01*
X135436869Y-119284715D01*
X135665392Y-119405712D01*
X135689699Y-119414607D01*
X135839797Y-119469535D01*
X135935373Y-119504511D01*
X136216264Y-119565755D01*
X136244841Y-119568004D01*
X136439282Y-119583307D01*
X136439291Y-119583307D01*
X136441739Y-119583500D01*
X136597271Y-119583500D01*
X136599407Y-119583354D01*
X136599418Y-119583354D01*
X136807548Y-119569165D01*
X136807554Y-119569164D01*
X136811825Y-119568873D01*
X136816020Y-119568004D01*
X136816022Y-119568004D01*
X136952584Y-119539723D01*
X137093342Y-119510574D01*
X137364343Y-119414607D01*
X137619812Y-119282750D01*
X137623313Y-119280289D01*
X137623317Y-119280287D01*
X137737418Y-119200095D01*
X137855023Y-119117441D01*
X138065622Y-118921740D01*
X138247713Y-118699268D01*
X138397927Y-118454142D01*
X138433894Y-118372208D01*
X138511757Y-118194830D01*
X138513483Y-118190898D01*
X138592244Y-117914406D01*
X138632751Y-117629784D01*
X138632845Y-117611951D01*
X138634235Y-117346583D01*
X138634235Y-117346576D01*
X138634257Y-117342297D01*
X138596732Y-117057266D01*
X138520871Y-116779964D01*
X138408077Y-116515524D01*
X138260439Y-116268839D01*
X138080687Y-116044472D01*
X137957289Y-115927372D01*
X137875258Y-115849527D01*
X137875255Y-115849525D01*
X137872149Y-115846577D01*
X137682064Y-115709987D01*
X137642172Y-115681321D01*
X137642171Y-115681320D01*
X137638683Y-115678814D01*
X137616843Y-115667250D01*
X137593654Y-115654972D01*
X137384608Y-115544288D01*
X137114627Y-115445489D01*
X136833736Y-115384245D01*
X136802685Y-115381801D01*
X136610718Y-115366693D01*
X136610709Y-115366693D01*
X136608261Y-115366500D01*
X136452729Y-115366500D01*
X136450593Y-115366646D01*
X136450582Y-115366646D01*
X136242452Y-115380835D01*
X136242446Y-115380836D01*
X136238175Y-115381127D01*
X136233980Y-115381996D01*
X136233978Y-115381996D01*
X136097417Y-115410276D01*
X135956658Y-115439426D01*
X135685657Y-115535393D01*
X135430188Y-115667250D01*
X135426687Y-115669711D01*
X135426683Y-115669713D01*
X135416608Y-115676794D01*
X135194977Y-115832559D01*
X134984378Y-116028260D01*
X134802287Y-116250732D01*
X134652073Y-116495858D01*
X134536517Y-116759102D01*
X134457756Y-117035594D01*
X134417249Y-117320216D01*
X134417227Y-117324505D01*
X134417226Y-117324512D01*
X134415828Y-117591432D01*
X134415743Y-117607703D01*
X124866505Y-117607703D01*
X124436919Y-116851858D01*
X124434800Y-116847972D01*
X124013221Y-116041525D01*
X123918448Y-115860233D01*
X123916467Y-115856275D01*
X123832696Y-115681321D01*
X123435118Y-114850989D01*
X123433317Y-114847053D01*
X122987548Y-113825414D01*
X122985870Y-113821374D01*
X122576290Y-112784783D01*
X122574736Y-112780638D01*
X122201834Y-111730339D01*
X122200426Y-111726143D01*
X121864629Y-110663343D01*
X121863370Y-110659099D01*
X121565121Y-109585189D01*
X121564012Y-109580904D01*
X121303674Y-108497209D01*
X121302715Y-108492887D01*
X121080588Y-107400649D01*
X121079783Y-107396297D01*
X121067130Y-107320545D01*
X120896168Y-106296979D01*
X120895519Y-106292627D01*
X120750626Y-105187503D01*
X120750128Y-105183104D01*
X120644144Y-104073595D01*
X120643801Y-104069182D01*
X120595958Y-103274115D01*
X120576855Y-102956655D01*
X120576667Y-102952251D01*
X120569853Y-102679383D01*
X120559246Y-102254681D01*
X120553635Y-102030000D01*
X122434693Y-102030000D01*
X122453885Y-102249371D01*
X122510880Y-102462076D01*
X122513205Y-102467061D01*
X122601618Y-102656666D01*
X122601621Y-102656671D01*
X122603944Y-102661653D01*
X122607100Y-102666160D01*
X122607101Y-102666162D01*
X122616359Y-102679383D01*
X122730251Y-102842038D01*
X122885962Y-102997749D01*
X123066346Y-103124056D01*
X123265924Y-103217120D01*
X123478629Y-103274115D01*
X123698000Y-103293307D01*
X123917371Y-103274115D01*
X124130076Y-103217120D01*
X124329654Y-103124056D01*
X124510038Y-102997749D01*
X124665749Y-102842038D01*
X124779642Y-102679383D01*
X124788899Y-102666162D01*
X124788900Y-102666160D01*
X124792056Y-102661653D01*
X124794379Y-102656671D01*
X124794382Y-102656666D01*
X124882795Y-102467061D01*
X124885120Y-102462076D01*
X124942115Y-102249371D01*
X124961307Y-102030000D01*
X124942115Y-101810629D01*
X124885120Y-101597924D01*
X124841585Y-101504562D01*
X124794382Y-101403334D01*
X124794379Y-101403329D01*
X124792056Y-101398347D01*
X124740985Y-101325410D01*
X124668908Y-101222473D01*
X124668906Y-101222470D01*
X124665749Y-101217962D01*
X124510038Y-101062251D01*
X124329654Y-100935944D01*
X124130076Y-100842880D01*
X124111864Y-100838000D01*
X136754496Y-100838000D01*
X136774458Y-101027928D01*
X136833473Y-101209556D01*
X136836776Y-101215278D01*
X136836777Y-101215279D01*
X136892619Y-101311999D01*
X136909500Y-101374999D01*
X136909500Y-104961930D01*
X136908067Y-104980880D01*
X136904801Y-105002349D01*
X136905394Y-105009641D01*
X136905394Y-105009644D01*
X136909085Y-105055018D01*
X136909500Y-105065233D01*
X136909500Y-105073293D01*
X136909925Y-105076937D01*
X136912789Y-105101507D01*
X136913222Y-105105882D01*
X136919140Y-105178637D01*
X136921396Y-105185601D01*
X136922587Y-105191560D01*
X136923971Y-105197415D01*
X136924818Y-105204681D01*
X136949735Y-105273327D01*
X136951152Y-105277455D01*
X136973649Y-105346899D01*
X136977445Y-105353154D01*
X136979951Y-105358628D01*
X136982670Y-105364058D01*
X136985167Y-105370937D01*
X136989180Y-105377057D01*
X136989180Y-105377058D01*
X137025186Y-105431976D01*
X137027523Y-105435680D01*
X137065405Y-105498107D01*
X137069121Y-105502315D01*
X137069122Y-105502316D01*
X137072803Y-105506484D01*
X137072776Y-105506508D01*
X137075429Y-105509500D01*
X137078132Y-105512733D01*
X137082144Y-105518852D01*
X137087456Y-105523884D01*
X137138383Y-105572128D01*
X137140825Y-105574506D01*
X139412595Y-107846276D01*
X139446621Y-107908588D01*
X139449500Y-107935371D01*
X139449500Y-120410629D01*
X139429498Y-120478750D01*
X139412595Y-120499724D01*
X138273669Y-121638650D01*
X138210772Y-121672801D01*
X138154176Y-121684831D01*
X138154167Y-121684834D01*
X138147712Y-121686206D01*
X138141682Y-121688891D01*
X138141681Y-121688891D01*
X137979278Y-121761197D01*
X137979276Y-121761198D01*
X137973248Y-121763882D01*
X137818747Y-121876134D01*
X137690960Y-122018056D01*
X137595473Y-122183444D01*
X137536458Y-122365072D01*
X137516496Y-122555000D01*
X137536458Y-122744928D01*
X137595473Y-122926556D01*
X137690960Y-123091944D01*
X137695378Y-123096851D01*
X137695379Y-123096852D01*
X137788921Y-123200741D01*
X137818747Y-123233866D01*
X137973248Y-123346118D01*
X137979276Y-123348802D01*
X137979278Y-123348803D01*
X138141681Y-123421109D01*
X138147712Y-123423794D01*
X138241112Y-123443647D01*
X138328056Y-123462128D01*
X138328061Y-123462128D01*
X138334513Y-123463500D01*
X138525487Y-123463500D01*
X138531939Y-123462128D01*
X138531944Y-123462128D01*
X138618888Y-123443647D01*
X138712288Y-123423794D01*
X138718319Y-123421109D01*
X138880722Y-123348803D01*
X138880724Y-123348802D01*
X138886752Y-123346118D01*
X139041253Y-123233866D01*
X139071079Y-123200741D01*
X139164621Y-123096852D01*
X139164622Y-123096851D01*
X139169040Y-123091944D01*
X139264527Y-122926556D01*
X139319387Y-122757714D01*
X139350125Y-122707556D01*
X140696911Y-121360770D01*
X140711323Y-121348384D01*
X140722918Y-121339851D01*
X140722923Y-121339846D01*
X140728818Y-121335508D01*
X140733557Y-121329930D01*
X140733560Y-121329927D01*
X140763035Y-121295232D01*
X140769965Y-121287716D01*
X140775661Y-121282020D01*
X140777924Y-121279159D01*
X140777929Y-121279154D01*
X140793293Y-121259734D01*
X140796082Y-121256333D01*
X140797743Y-121254378D01*
X140843333Y-121200715D01*
X140846659Y-121194202D01*
X140850020Y-121189163D01*
X140853196Y-121184021D01*
X140857734Y-121178284D01*
X140888655Y-121112125D01*
X140890561Y-121108225D01*
X140923769Y-121043192D01*
X140925508Y-121036083D01*
X140927604Y-121030449D01*
X140929523Y-121024679D01*
X140932622Y-121018050D01*
X140947491Y-120946565D01*
X140948461Y-120942282D01*
X140964473Y-120876844D01*
X140965808Y-120871390D01*
X140966500Y-120860236D01*
X140966535Y-120860238D01*
X140966775Y-120856266D01*
X140967152Y-120852045D01*
X140968641Y-120844885D01*
X140966546Y-120767458D01*
X140966500Y-120764050D01*
X140966500Y-119142193D01*
X142914410Y-119142193D01*
X142921124Y-119221325D01*
X142922914Y-119231797D01*
X142978130Y-119444535D01*
X142981665Y-119454575D01*
X143071937Y-119654970D01*
X143077106Y-119664256D01*
X143199850Y-119846575D01*
X143206519Y-119854870D01*
X143358228Y-120013900D01*
X143366186Y-120020941D01*
X143542525Y-120152141D01*
X143551562Y-120157745D01*
X143747484Y-120257357D01*
X143757335Y-120261357D01*
X143967240Y-120326534D01*
X143977624Y-120328817D01*
X143993043Y-120330861D01*
X144007207Y-120328665D01*
X144011000Y-120315478D01*
X144011000Y-120313192D01*
X144519000Y-120313192D01*
X144522973Y-120326723D01*
X144533580Y-120328248D01*
X144651421Y-120303523D01*
X144661617Y-120300463D01*
X144866029Y-120219737D01*
X144875561Y-120215006D01*
X145063462Y-120100984D01*
X145072052Y-120094720D01*
X145238052Y-119950673D01*
X145245472Y-119943042D01*
X145384826Y-119773089D01*
X145390848Y-119764326D01*
X145406238Y-119737289D01*
X145457320Y-119687982D01*
X145526951Y-119674120D01*
X145593022Y-119700103D01*
X145620261Y-119729253D01*
X145656131Y-119782532D01*
X145702441Y-119851319D01*
X145706120Y-119855176D01*
X145706122Y-119855178D01*
X145767710Y-119919738D01*
X145861576Y-120018135D01*
X146046542Y-120155754D01*
X146051293Y-120158170D01*
X146051297Y-120158172D01*
X146088607Y-120177141D01*
X146252051Y-120260240D01*
X146257145Y-120261822D01*
X146257148Y-120261823D01*
X146457020Y-120323885D01*
X146472227Y-120328607D01*
X146477516Y-120329308D01*
X146695489Y-120358198D01*
X146695494Y-120358198D01*
X146700774Y-120358898D01*
X146706103Y-120358698D01*
X146706105Y-120358698D01*
X146815966Y-120354574D01*
X146931158Y-120350249D01*
X146953802Y-120345498D01*
X147049289Y-120325463D01*
X147156791Y-120302907D01*
X147161750Y-120300949D01*
X147161752Y-120300948D01*
X147366256Y-120220185D01*
X147366258Y-120220184D01*
X147371221Y-120218224D01*
X147376047Y-120215296D01*
X147563757Y-120101390D01*
X147563756Y-120101390D01*
X147568317Y-120098623D01*
X147637142Y-120038900D01*
X147738412Y-119951023D01*
X147738414Y-119951021D01*
X147742445Y-119947523D01*
X147806048Y-119869954D01*
X147885240Y-119773373D01*
X147885244Y-119773367D01*
X147888624Y-119769245D01*
X147906552Y-119737750D01*
X147957632Y-119688445D01*
X148027262Y-119674583D01*
X148093333Y-119700566D01*
X148120573Y-119729716D01*
X148125983Y-119737752D01*
X148202441Y-119851319D01*
X148206120Y-119855176D01*
X148206122Y-119855178D01*
X148267710Y-119919738D01*
X148361576Y-120018135D01*
X148546542Y-120155754D01*
X148551293Y-120158170D01*
X148551297Y-120158172D01*
X148588607Y-120177141D01*
X148752051Y-120260240D01*
X148757145Y-120261822D01*
X148757148Y-120261823D01*
X148957020Y-120323885D01*
X148972227Y-120328607D01*
X148977516Y-120329308D01*
X149195489Y-120358198D01*
X149195494Y-120358198D01*
X149200774Y-120358898D01*
X149206103Y-120358698D01*
X149206105Y-120358698D01*
X149315966Y-120354574D01*
X149431158Y-120350249D01*
X149453802Y-120345498D01*
X149549289Y-120325463D01*
X149656791Y-120302907D01*
X149661750Y-120300949D01*
X149661752Y-120300948D01*
X149866256Y-120220185D01*
X149866258Y-120220184D01*
X149871221Y-120218224D01*
X149876047Y-120215296D01*
X150063757Y-120101390D01*
X150063756Y-120101390D01*
X150068317Y-120098623D01*
X150137142Y-120038900D01*
X150238412Y-119951023D01*
X150238414Y-119951021D01*
X150242445Y-119947523D01*
X150271670Y-119911880D01*
X150330329Y-119871886D01*
X150401299Y-119869954D01*
X150462048Y-119906698D01*
X150476248Y-119925468D01*
X150492028Y-119950968D01*
X150566522Y-120071348D01*
X150691697Y-120196305D01*
X150697927Y-120200145D01*
X150697928Y-120200146D01*
X150835090Y-120284694D01*
X150842262Y-120289115D01*
X150877938Y-120300948D01*
X151003611Y-120342632D01*
X151003613Y-120342632D01*
X151010139Y-120344797D01*
X151016975Y-120345497D01*
X151016978Y-120345498D01*
X151052663Y-120349154D01*
X151114600Y-120355500D01*
X152415400Y-120355500D01*
X152418646Y-120355163D01*
X152418650Y-120355163D01*
X152514308Y-120345238D01*
X152514312Y-120345237D01*
X152521166Y-120344526D01*
X152527702Y-120342345D01*
X152527704Y-120342345D01*
X152659806Y-120298272D01*
X152688946Y-120288550D01*
X152839348Y-120195478D01*
X152964305Y-120070303D01*
X152996462Y-120018135D01*
X153053275Y-119925968D01*
X153053276Y-119925966D01*
X153057115Y-119919738D01*
X153107031Y-119769245D01*
X153110632Y-119758389D01*
X153110632Y-119758387D01*
X153112797Y-119751861D01*
X153115114Y-119729253D01*
X153119211Y-119689256D01*
X153123500Y-119647400D01*
X153123500Y-119142193D01*
X156401289Y-119142193D01*
X156410124Y-119246325D01*
X156411914Y-119256797D01*
X156467130Y-119469535D01*
X156470665Y-119479575D01*
X156560937Y-119679970D01*
X156566106Y-119689256D01*
X156688850Y-119871575D01*
X156695519Y-119879870D01*
X156847228Y-120038900D01*
X156855186Y-120045941D01*
X157031525Y-120177141D01*
X157040562Y-120182745D01*
X157236484Y-120282357D01*
X157246335Y-120286357D01*
X157456240Y-120351534D01*
X157466624Y-120353817D01*
X157482043Y-120355861D01*
X157496207Y-120353665D01*
X157500000Y-120340478D01*
X157500000Y-120338192D01*
X158008000Y-120338192D01*
X158011973Y-120351723D01*
X158022580Y-120353248D01*
X158140421Y-120328523D01*
X158150617Y-120325463D01*
X158355029Y-120244737D01*
X158364561Y-120240006D01*
X158552462Y-120125984D01*
X158561052Y-120119720D01*
X158727052Y-119975673D01*
X158734470Y-119968044D01*
X158760391Y-119936431D01*
X158819051Y-119896436D01*
X158890021Y-119894504D01*
X158950770Y-119931248D01*
X158964969Y-119950017D01*
X159055522Y-120096348D01*
X159180697Y-120221305D01*
X159186927Y-120225145D01*
X159186928Y-120225146D01*
X159324090Y-120309694D01*
X159331262Y-120314115D01*
X159377068Y-120329308D01*
X159492611Y-120367632D01*
X159492613Y-120367632D01*
X159499139Y-120369797D01*
X159505975Y-120370497D01*
X159505978Y-120370498D01*
X159549031Y-120374909D01*
X159603600Y-120380500D01*
X160904400Y-120380500D01*
X160907646Y-120380163D01*
X160907650Y-120380163D01*
X161003308Y-120370238D01*
X161003312Y-120370237D01*
X161010166Y-120369526D01*
X161016702Y-120367345D01*
X161016704Y-120367345D01*
X161148806Y-120323272D01*
X161177946Y-120313550D01*
X161328348Y-120220478D01*
X161453305Y-120095303D01*
X161457146Y-120089072D01*
X161542275Y-119950968D01*
X161542276Y-119950966D01*
X161546115Y-119944738D01*
X161601797Y-119776861D01*
X161602578Y-119769245D01*
X161608750Y-119708996D01*
X161612500Y-119672400D01*
X161612500Y-118071600D01*
X161607290Y-118021384D01*
X161602238Y-117972692D01*
X161602237Y-117972688D01*
X161601526Y-117965834D01*
X161585746Y-117918534D01*
X161547868Y-117805002D01*
X161545550Y-117798054D01*
X161452478Y-117647652D01*
X161412459Y-117607703D01*
X166165743Y-117607703D01*
X166166302Y-117611947D01*
X166166302Y-117611951D01*
X166180880Y-117722682D01*
X166203268Y-117892734D01*
X166204401Y-117896874D01*
X166204401Y-117896876D01*
X166220214Y-117954678D01*
X166279129Y-118170036D01*
X166280813Y-118173984D01*
X166376027Y-118397208D01*
X166391923Y-118434476D01*
X166403693Y-118454142D01*
X166516629Y-118642844D01*
X166539561Y-118681161D01*
X166719313Y-118905528D01*
X166927851Y-119103423D01*
X167161317Y-119271186D01*
X167165112Y-119273195D01*
X167165113Y-119273196D01*
X167186869Y-119284715D01*
X167415392Y-119405712D01*
X167439699Y-119414607D01*
X167589797Y-119469535D01*
X167685373Y-119504511D01*
X167966264Y-119565755D01*
X167994841Y-119568004D01*
X168189282Y-119583307D01*
X168189291Y-119583307D01*
X168191739Y-119583500D01*
X168347271Y-119583500D01*
X168349407Y-119583354D01*
X168349418Y-119583354D01*
X168557548Y-119569165D01*
X168557554Y-119569164D01*
X168561825Y-119568873D01*
X168566020Y-119568004D01*
X168566022Y-119568004D01*
X168702584Y-119539723D01*
X168843342Y-119510574D01*
X169114343Y-119414607D01*
X169369812Y-119282750D01*
X169373313Y-119280289D01*
X169373317Y-119280287D01*
X169487418Y-119200095D01*
X169605023Y-119117441D01*
X169815622Y-118921740D01*
X169997713Y-118699268D01*
X170147927Y-118454142D01*
X170183894Y-118372208D01*
X170261757Y-118194830D01*
X170263483Y-118190898D01*
X170342244Y-117914406D01*
X170382751Y-117629784D01*
X170382845Y-117611951D01*
X170384235Y-117346583D01*
X170384235Y-117346576D01*
X170384257Y-117342297D01*
X170346732Y-117057266D01*
X170270871Y-116779964D01*
X170158077Y-116515524D01*
X170010439Y-116268839D01*
X169830687Y-116044472D01*
X169707289Y-115927372D01*
X169625258Y-115849527D01*
X169625255Y-115849525D01*
X169622149Y-115846577D01*
X169432064Y-115709987D01*
X169392172Y-115681321D01*
X169392171Y-115681320D01*
X169388683Y-115678814D01*
X169366843Y-115667250D01*
X169343654Y-115654972D01*
X169134608Y-115544288D01*
X168864627Y-115445489D01*
X168583736Y-115384245D01*
X168552685Y-115381801D01*
X168360718Y-115366693D01*
X168360709Y-115366693D01*
X168358261Y-115366500D01*
X168202729Y-115366500D01*
X168200593Y-115366646D01*
X168200582Y-115366646D01*
X167992452Y-115380835D01*
X167992446Y-115380836D01*
X167988175Y-115381127D01*
X167983980Y-115381996D01*
X167983978Y-115381996D01*
X167847417Y-115410276D01*
X167706658Y-115439426D01*
X167435657Y-115535393D01*
X167180188Y-115667250D01*
X167176687Y-115669711D01*
X167176683Y-115669713D01*
X167166608Y-115676794D01*
X166944977Y-115832559D01*
X166734378Y-116028260D01*
X166552287Y-116250732D01*
X166402073Y-116495858D01*
X166286517Y-116759102D01*
X166207756Y-117035594D01*
X166167249Y-117320216D01*
X166167227Y-117324505D01*
X166167226Y-117324512D01*
X166165828Y-117591432D01*
X166165743Y-117607703D01*
X161412459Y-117607703D01*
X161327303Y-117522695D01*
X161296965Y-117503994D01*
X161182968Y-117433725D01*
X161182966Y-117433724D01*
X161176738Y-117429885D01*
X161057498Y-117390335D01*
X161015389Y-117376368D01*
X161015387Y-117376368D01*
X161008861Y-117374203D01*
X161002025Y-117373503D01*
X161002022Y-117373502D01*
X160958969Y-117369091D01*
X160904400Y-117363500D01*
X159603600Y-117363500D01*
X159600354Y-117363837D01*
X159600350Y-117363837D01*
X159504692Y-117373762D01*
X159504688Y-117373763D01*
X159497834Y-117374474D01*
X159491298Y-117376655D01*
X159491296Y-117376655D01*
X159359194Y-117420728D01*
X159330054Y-117430450D01*
X159179652Y-117523522D01*
X159054695Y-117648697D01*
X159050855Y-117654927D01*
X159050854Y-117654928D01*
X159042478Y-117668517D01*
X158965544Y-117793327D01*
X158964648Y-117794780D01*
X158911876Y-117842273D01*
X158841804Y-117853697D01*
X158776680Y-117825423D01*
X158766218Y-117815636D01*
X158660766Y-117705094D01*
X158652814Y-117698059D01*
X158476475Y-117566859D01*
X158467438Y-117561255D01*
X158271516Y-117461643D01*
X158261665Y-117457643D01*
X158051760Y-117392466D01*
X158041376Y-117390183D01*
X158025957Y-117388139D01*
X158011793Y-117390335D01*
X158008000Y-117403522D01*
X158008000Y-120338192D01*
X157500000Y-120338192D01*
X157500000Y-119144115D01*
X157495525Y-119128876D01*
X157494135Y-119127671D01*
X157486452Y-119126000D01*
X156418030Y-119126000D01*
X156403352Y-119130310D01*
X156401289Y-119142193D01*
X153123500Y-119142193D01*
X153123500Y-118602376D01*
X156396732Y-118602376D01*
X156400475Y-118615124D01*
X156401865Y-118616329D01*
X156409548Y-118618000D01*
X157481885Y-118618000D01*
X157497124Y-118613525D01*
X157498329Y-118612135D01*
X157500000Y-118604452D01*
X157500000Y-117405808D01*
X157496027Y-117392277D01*
X157485420Y-117390752D01*
X157367579Y-117415477D01*
X157357383Y-117418537D01*
X157152971Y-117499263D01*
X157143439Y-117503994D01*
X156955538Y-117618016D01*
X156946948Y-117624280D01*
X156780948Y-117768327D01*
X156773528Y-117775958D01*
X156634174Y-117945911D01*
X156628150Y-117954678D01*
X156519424Y-118145682D01*
X156514959Y-118155346D01*
X156439969Y-118361941D01*
X156437198Y-118372208D01*
X156397877Y-118589655D01*
X156396944Y-118597884D01*
X156396732Y-118602376D01*
X153123500Y-118602376D01*
X153123500Y-118096600D01*
X153119292Y-118056041D01*
X153113238Y-117997692D01*
X153113237Y-117997688D01*
X153112526Y-117990834D01*
X153106474Y-117972692D01*
X153058868Y-117830002D01*
X153056550Y-117823054D01*
X152963478Y-117672652D01*
X152838303Y-117547695D01*
X152807494Y-117528704D01*
X152693968Y-117458725D01*
X152693966Y-117458724D01*
X152687738Y-117454885D01*
X152574353Y-117417277D01*
X152526389Y-117401368D01*
X152526387Y-117401368D01*
X152519861Y-117399203D01*
X152513025Y-117398503D01*
X152513022Y-117398502D01*
X152469969Y-117394091D01*
X152415400Y-117388500D01*
X151114600Y-117388500D01*
X151111354Y-117388837D01*
X151111350Y-117388837D01*
X151015692Y-117398762D01*
X151015688Y-117398763D01*
X151008834Y-117399474D01*
X151002298Y-117401655D01*
X151002296Y-117401655D01*
X150870194Y-117445728D01*
X150841054Y-117455450D01*
X150690652Y-117548522D01*
X150565695Y-117673697D01*
X150561855Y-117679927D01*
X150561854Y-117679928D01*
X150541927Y-117712255D01*
X150478203Y-117815636D01*
X150475920Y-117819339D01*
X150423148Y-117866832D01*
X150353076Y-117878256D01*
X150287952Y-117849982D01*
X150277490Y-117840195D01*
X150172103Y-117729722D01*
X150168424Y-117725865D01*
X149983458Y-117588246D01*
X149978707Y-117585830D01*
X149978703Y-117585828D01*
X149860588Y-117525776D01*
X149777949Y-117483760D01*
X149772855Y-117482178D01*
X149772852Y-117482177D01*
X149562871Y-117416976D01*
X149557773Y-117415393D01*
X149552484Y-117414692D01*
X149334511Y-117385802D01*
X149334506Y-117385802D01*
X149329226Y-117385102D01*
X149323897Y-117385302D01*
X149323895Y-117385302D01*
X149214034Y-117389426D01*
X149098842Y-117393751D01*
X149093623Y-117394846D01*
X149071566Y-117399474D01*
X148873209Y-117441093D01*
X148868250Y-117443051D01*
X148868248Y-117443052D01*
X148663744Y-117523815D01*
X148663742Y-117523816D01*
X148658779Y-117525776D01*
X148654220Y-117528543D01*
X148654217Y-117528544D01*
X148559113Y-117586255D01*
X148461683Y-117645377D01*
X148457653Y-117648874D01*
X148364484Y-117729722D01*
X148287555Y-117796477D01*
X148268809Y-117819339D01*
X148144760Y-117970627D01*
X148144756Y-117970633D01*
X148141376Y-117974755D01*
X148123448Y-118006250D01*
X148072368Y-118055555D01*
X148002738Y-118069417D01*
X147936667Y-118043434D01*
X147909427Y-118014284D01*
X147882814Y-117974755D01*
X147827559Y-117892681D01*
X147668424Y-117725865D01*
X147483458Y-117588246D01*
X147478707Y-117585830D01*
X147478703Y-117585828D01*
X147360588Y-117525776D01*
X147277949Y-117483760D01*
X147272855Y-117482178D01*
X147272852Y-117482177D01*
X147062871Y-117416976D01*
X147057773Y-117415393D01*
X147052484Y-117414692D01*
X146834511Y-117385802D01*
X146834506Y-117385802D01*
X146829226Y-117385102D01*
X146823897Y-117385302D01*
X146823895Y-117385302D01*
X146714034Y-117389426D01*
X146598842Y-117393751D01*
X146593623Y-117394846D01*
X146571566Y-117399474D01*
X146373209Y-117441093D01*
X146368250Y-117443051D01*
X146368248Y-117443052D01*
X146163744Y-117523815D01*
X146163742Y-117523816D01*
X146158779Y-117525776D01*
X146154220Y-117528543D01*
X146154217Y-117528544D01*
X146059113Y-117586255D01*
X145961683Y-117645377D01*
X145957653Y-117648874D01*
X145864484Y-117729722D01*
X145787555Y-117796477D01*
X145768809Y-117819339D01*
X145644760Y-117970627D01*
X145644756Y-117970633D01*
X145641376Y-117974755D01*
X145638738Y-117979390D01*
X145638733Y-117979398D01*
X145623171Y-118006735D01*
X145572088Y-118056041D01*
X145502458Y-118069902D01*
X145436387Y-118043918D01*
X145409149Y-118014768D01*
X145330148Y-117897422D01*
X145323481Y-117889130D01*
X145171772Y-117730100D01*
X145163814Y-117723059D01*
X144987475Y-117591859D01*
X144978438Y-117586255D01*
X144782516Y-117486643D01*
X144772665Y-117482643D01*
X144562760Y-117417466D01*
X144552376Y-117415183D01*
X144536957Y-117413139D01*
X144522793Y-117415335D01*
X144519000Y-117428522D01*
X144519000Y-120313192D01*
X144011000Y-120313192D01*
X144011000Y-119144115D01*
X144006525Y-119128876D01*
X144005135Y-119127671D01*
X143997452Y-119126000D01*
X142931151Y-119126000D01*
X142916473Y-119130310D01*
X142914410Y-119142193D01*
X140966500Y-119142193D01*
X140966500Y-118600174D01*
X142911496Y-118600174D01*
X142912915Y-118613414D01*
X142927550Y-118618000D01*
X143992885Y-118618000D01*
X144008124Y-118613525D01*
X144009329Y-118612135D01*
X144011000Y-118604452D01*
X144011000Y-117430808D01*
X144007027Y-117417277D01*
X143996420Y-117415752D01*
X143878579Y-117440477D01*
X143868383Y-117443537D01*
X143663971Y-117524263D01*
X143654439Y-117528994D01*
X143466538Y-117643016D01*
X143457948Y-117649280D01*
X143291948Y-117793327D01*
X143284528Y-117800958D01*
X143145174Y-117970911D01*
X143139150Y-117979678D01*
X143030424Y-118170682D01*
X143025959Y-118180346D01*
X142950969Y-118386941D01*
X142948198Y-118397208D01*
X142911496Y-118600174D01*
X140966500Y-118600174D01*
X140966500Y-114808000D01*
X159106496Y-114808000D01*
X159126458Y-114997928D01*
X159185473Y-115179556D01*
X159280960Y-115344944D01*
X159285378Y-115349851D01*
X159285379Y-115349852D01*
X159300543Y-115366693D01*
X159408747Y-115486866D01*
X159563248Y-115599118D01*
X159569276Y-115601802D01*
X159569278Y-115601803D01*
X159731681Y-115674109D01*
X159737712Y-115676794D01*
X159831113Y-115696647D01*
X159918056Y-115715128D01*
X159918061Y-115715128D01*
X159924513Y-115716500D01*
X160115487Y-115716500D01*
X160121939Y-115715128D01*
X160121944Y-115715128D01*
X160208887Y-115696647D01*
X160302288Y-115676794D01*
X160308319Y-115674109D01*
X160470722Y-115601803D01*
X160470724Y-115601802D01*
X160476752Y-115599118D01*
X160631253Y-115486866D01*
X160739457Y-115366693D01*
X160754621Y-115349852D01*
X160754622Y-115349851D01*
X160759040Y-115344944D01*
X160854527Y-115179556D01*
X160909387Y-115010714D01*
X160940125Y-114960556D01*
X162199400Y-113701281D01*
X162213812Y-113688895D01*
X162225407Y-113680362D01*
X162225412Y-113680357D01*
X162231307Y-113676019D01*
X162236046Y-113670441D01*
X162236049Y-113670438D01*
X162265524Y-113635743D01*
X162272454Y-113628227D01*
X162278149Y-113622532D01*
X162295770Y-113600260D01*
X162298561Y-113596856D01*
X162341080Y-113546808D01*
X162341081Y-113546806D01*
X162345822Y-113541226D01*
X162349150Y-113534710D01*
X162352509Y-113529673D01*
X162355683Y-113524534D01*
X162360223Y-113518795D01*
X162388286Y-113458749D01*
X162391125Y-113452674D01*
X162393058Y-113448720D01*
X162396728Y-113441532D01*
X162426258Y-113383703D01*
X162427999Y-113376587D01*
X162430093Y-113370957D01*
X162432012Y-113365190D01*
X162435110Y-113358561D01*
X162449972Y-113287111D01*
X162450942Y-113282826D01*
X162466962Y-113217355D01*
X162468297Y-113211901D01*
X162468989Y-113200747D01*
X162469025Y-113200749D01*
X162469264Y-113196759D01*
X162469639Y-113192561D01*
X162471129Y-113185396D01*
X162469035Y-113107990D01*
X162468989Y-113104583D01*
X162468989Y-110378134D01*
X166606500Y-110378134D01*
X166613255Y-110440316D01*
X166664385Y-110576705D01*
X166751739Y-110693261D01*
X166868295Y-110780615D01*
X167004684Y-110831745D01*
X167066866Y-110838500D01*
X168213134Y-110838500D01*
X168275316Y-110831745D01*
X168345010Y-110805618D01*
X168403296Y-110783768D01*
X168403299Y-110783766D01*
X168411705Y-110780615D01*
X168418894Y-110775227D01*
X168419137Y-110775094D01*
X168488494Y-110759924D01*
X168516907Y-110765248D01*
X168701180Y-110822290D01*
X168707305Y-110822934D01*
X168707306Y-110822934D01*
X168896622Y-110842832D01*
X168896623Y-110842832D01*
X168902750Y-110843476D01*
X168986014Y-110835898D01*
X169098457Y-110825665D01*
X169098460Y-110825664D01*
X169104596Y-110825106D01*
X169110502Y-110823368D01*
X169110506Y-110823367D01*
X169293120Y-110769620D01*
X169293119Y-110769620D01*
X169299029Y-110767881D01*
X169304486Y-110765028D01*
X169304489Y-110765027D01*
X169441765Y-110693261D01*
X169478460Y-110674077D01*
X169478462Y-110674077D01*
X169478645Y-110673981D01*
X169478663Y-110674016D01*
X169544441Y-110654111D01*
X169605409Y-110669271D01*
X169777565Y-110762356D01*
X169846733Y-110783767D01*
X169965293Y-110820468D01*
X169965296Y-110820469D01*
X169971180Y-110822290D01*
X169977305Y-110822934D01*
X169977306Y-110822934D01*
X170166622Y-110842832D01*
X170166623Y-110842832D01*
X170172750Y-110843476D01*
X170256014Y-110835898D01*
X170368457Y-110825665D01*
X170368460Y-110825664D01*
X170374596Y-110825106D01*
X170380502Y-110823368D01*
X170380506Y-110823367D01*
X170563120Y-110769620D01*
X170563119Y-110769620D01*
X170569029Y-110767881D01*
X170574486Y-110765028D01*
X170574489Y-110765027D01*
X170711765Y-110693261D01*
X170748645Y-110673981D01*
X170767155Y-110659099D01*
X170814740Y-110620839D01*
X170906601Y-110546981D01*
X171036881Y-110391719D01*
X171039845Y-110386327D01*
X171039848Y-110386323D01*
X171131556Y-110219506D01*
X171134523Y-110214109D01*
X171195807Y-110020916D01*
X171213500Y-109863183D01*
X171213500Y-109303996D01*
X171198723Y-109153287D01*
X171140142Y-108959258D01*
X171044990Y-108780302D01*
X170916890Y-108623237D01*
X170878772Y-108591703D01*
X170765472Y-108497973D01*
X170765469Y-108497971D01*
X170760722Y-108494044D01*
X170582435Y-108397644D01*
X170485627Y-108367677D01*
X170394707Y-108339532D01*
X170394704Y-108339531D01*
X170388820Y-108337710D01*
X170382695Y-108337066D01*
X170382694Y-108337066D01*
X170193378Y-108317168D01*
X170193377Y-108317168D01*
X170187250Y-108316524D01*
X170103986Y-108324102D01*
X169991543Y-108334335D01*
X169991540Y-108334336D01*
X169985404Y-108334894D01*
X169979498Y-108336632D01*
X169979494Y-108336633D01*
X169844947Y-108376233D01*
X169790971Y-108392119D01*
X169785514Y-108394972D01*
X169785511Y-108394973D01*
X169701163Y-108439069D01*
X169611540Y-108485923D01*
X169611538Y-108485923D01*
X169611355Y-108486019D01*
X169611337Y-108485984D01*
X169545559Y-108505889D01*
X169484591Y-108490729D01*
X169475815Y-108485984D01*
X169312435Y-108397644D01*
X169215627Y-108367677D01*
X169124707Y-108339532D01*
X169124704Y-108339531D01*
X169118820Y-108337710D01*
X169112695Y-108337066D01*
X169112694Y-108337066D01*
X168923378Y-108317168D01*
X168923377Y-108317168D01*
X168917250Y-108316524D01*
X168833986Y-108324102D01*
X168721543Y-108334335D01*
X168721540Y-108334336D01*
X168715404Y-108334894D01*
X168709498Y-108336632D01*
X168709494Y-108336633D01*
X168526879Y-108390380D01*
X168526877Y-108390381D01*
X168525493Y-108390788D01*
X168520971Y-108392119D01*
X168520718Y-108391260D01*
X168455338Y-108397714D01*
X168418594Y-108384548D01*
X168411705Y-108379385D01*
X168403304Y-108376236D01*
X168403301Y-108376234D01*
X168291534Y-108334335D01*
X168275316Y-108328255D01*
X168213134Y-108321500D01*
X167066866Y-108321500D01*
X167004684Y-108328255D01*
X166868295Y-108379385D01*
X166751739Y-108466739D01*
X166664385Y-108583295D01*
X166613255Y-108719684D01*
X166606500Y-108781866D01*
X166606500Y-110378134D01*
X162468989Y-110378134D01*
X162468989Y-102224919D01*
X174386500Y-102224919D01*
X174393255Y-102287101D01*
X174444385Y-102423490D01*
X174531739Y-102540046D01*
X174648295Y-102627400D01*
X174784684Y-102678530D01*
X174846866Y-102685285D01*
X176943134Y-102685285D01*
X177005316Y-102678530D01*
X177141705Y-102627400D01*
X177258261Y-102540046D01*
X177345615Y-102423490D01*
X177396745Y-102287101D01*
X177403500Y-102224919D01*
X177403500Y-100128651D01*
X177396745Y-100066469D01*
X177345615Y-99930080D01*
X177258261Y-99813524D01*
X177141705Y-99726170D01*
X177005316Y-99675040D01*
X176943134Y-99668285D01*
X174846866Y-99668285D01*
X174784684Y-99675040D01*
X174648295Y-99726170D01*
X174531739Y-99813524D01*
X174444385Y-99930080D01*
X174393255Y-100066469D01*
X174386500Y-100128651D01*
X174386500Y-102224919D01*
X162468989Y-102224919D01*
X162468989Y-97409455D01*
X175027160Y-97409455D01*
X175032887Y-97417105D01*
X175204042Y-97521990D01*
X175212837Y-97526472D01*
X175422988Y-97613519D01*
X175432373Y-97616568D01*
X175653554Y-97669670D01*
X175663301Y-97671213D01*
X175890070Y-97689060D01*
X175899930Y-97689060D01*
X176126699Y-97671213D01*
X176136446Y-97669670D01*
X176357627Y-97616568D01*
X176367012Y-97613519D01*
X176577163Y-97526472D01*
X176585958Y-97521990D01*
X176753445Y-97419353D01*
X176762907Y-97408895D01*
X176759124Y-97400119D01*
X175907812Y-96548807D01*
X175893868Y-96541193D01*
X175892035Y-96541324D01*
X175885420Y-96545575D01*
X175033920Y-97397075D01*
X175027160Y-97409455D01*
X162468989Y-97409455D01*
X162468989Y-96181715D01*
X174382725Y-96181715D01*
X174400572Y-96408484D01*
X174402115Y-96418231D01*
X174455217Y-96639412D01*
X174458266Y-96648797D01*
X174545313Y-96858948D01*
X174549795Y-96867743D01*
X174652432Y-97035230D01*
X174662890Y-97044692D01*
X174671666Y-97040909D01*
X175522978Y-96189597D01*
X175529356Y-96177917D01*
X176259408Y-96177917D01*
X176259539Y-96179750D01*
X176263790Y-96186365D01*
X177115290Y-97037865D01*
X177127670Y-97044625D01*
X177135320Y-97038898D01*
X177240205Y-96867743D01*
X177244687Y-96858948D01*
X177331734Y-96648797D01*
X177334783Y-96639412D01*
X177387885Y-96418231D01*
X177389428Y-96408484D01*
X177407275Y-96181715D01*
X177407275Y-96171855D01*
X177389428Y-95945086D01*
X177387885Y-95935339D01*
X177334783Y-95714158D01*
X177331734Y-95704773D01*
X177244687Y-95494622D01*
X177240205Y-95485827D01*
X177137568Y-95318340D01*
X177127110Y-95308878D01*
X177118334Y-95312661D01*
X176267022Y-96163973D01*
X176259408Y-96177917D01*
X175529356Y-96177917D01*
X175530592Y-96175653D01*
X175530461Y-96173820D01*
X175526210Y-96167205D01*
X174674710Y-95315705D01*
X174662330Y-95308945D01*
X174654680Y-95314672D01*
X174549795Y-95485827D01*
X174545313Y-95494622D01*
X174458266Y-95704773D01*
X174455217Y-95714158D01*
X174402115Y-95935339D01*
X174400572Y-95945086D01*
X174382725Y-96171855D01*
X174382725Y-96181715D01*
X162468989Y-96181715D01*
X162468989Y-93323918D01*
X164356917Y-93323918D01*
X164372682Y-93597320D01*
X164373507Y-93601525D01*
X164373508Y-93601533D01*
X164384127Y-93655657D01*
X164425405Y-93866053D01*
X164426792Y-93870103D01*
X164426793Y-93870108D01*
X164512723Y-94121088D01*
X164514112Y-94125144D01*
X164637160Y-94369799D01*
X164639586Y-94373328D01*
X164639589Y-94373334D01*
X164751031Y-94535481D01*
X164792274Y-94595490D01*
X164795161Y-94598663D01*
X164795162Y-94598664D01*
X164900195Y-94714094D01*
X164976582Y-94798043D01*
X164979877Y-94800798D01*
X164979878Y-94800799D01*
X165016692Y-94831580D01*
X165186675Y-94973707D01*
X165190316Y-94975991D01*
X165415024Y-95116951D01*
X165415028Y-95116953D01*
X165418664Y-95119234D01*
X165522538Y-95166135D01*
X165664345Y-95230164D01*
X165664349Y-95230166D01*
X165668257Y-95231930D01*
X165672377Y-95233150D01*
X165672376Y-95233150D01*
X165926723Y-95308491D01*
X165926727Y-95308492D01*
X165930836Y-95309709D01*
X165935070Y-95310357D01*
X165935075Y-95310358D01*
X166197298Y-95350483D01*
X166197300Y-95350483D01*
X166201540Y-95351132D01*
X166340912Y-95353322D01*
X166471071Y-95355367D01*
X166471077Y-95355367D01*
X166475362Y-95355434D01*
X166747235Y-95322534D01*
X167012127Y-95253041D01*
X167016087Y-95251401D01*
X167016092Y-95251399D01*
X167181923Y-95182709D01*
X167265136Y-95148241D01*
X167383359Y-95079157D01*
X167497879Y-95012237D01*
X167497880Y-95012236D01*
X167501582Y-95010073D01*
X167584987Y-94944675D01*
X175027093Y-94944675D01*
X175030876Y-94953451D01*
X175882188Y-95804763D01*
X175896132Y-95812377D01*
X175897965Y-95812246D01*
X175904580Y-95807995D01*
X176756080Y-94956495D01*
X176762840Y-94944115D01*
X176757113Y-94936465D01*
X176585958Y-94831580D01*
X176577163Y-94827098D01*
X176367012Y-94740051D01*
X176357627Y-94737002D01*
X176136446Y-94683900D01*
X176126699Y-94682357D01*
X175899930Y-94664510D01*
X175890070Y-94664510D01*
X175663301Y-94682357D01*
X175653554Y-94683900D01*
X175432373Y-94737002D01*
X175422988Y-94740051D01*
X175212837Y-94827098D01*
X175204042Y-94831580D01*
X175036555Y-94934217D01*
X175027093Y-94944675D01*
X167584987Y-94944675D01*
X167717089Y-94841094D01*
X167758809Y-94798043D01*
X167904686Y-94647509D01*
X167907669Y-94644431D01*
X167910202Y-94640983D01*
X167910206Y-94640978D01*
X168067257Y-94427178D01*
X168069795Y-94423723D01*
X168097154Y-94373334D01*
X168198418Y-94186830D01*
X168198419Y-94186828D01*
X168200468Y-94183054D01*
X168297269Y-93926877D01*
X168322107Y-93818427D01*
X168357449Y-93664117D01*
X168357450Y-93664113D01*
X168358407Y-93659933D01*
X168369742Y-93532933D01*
X168382531Y-93389627D01*
X168382531Y-93389625D01*
X168382751Y-93387161D01*
X168383193Y-93345000D01*
X168381465Y-93319648D01*
X168364859Y-93076055D01*
X168364858Y-93076049D01*
X168364567Y-93071778D01*
X168351914Y-93010677D01*
X168309901Y-92807809D01*
X168309032Y-92803612D01*
X168217617Y-92545465D01*
X168092013Y-92302112D01*
X168085524Y-92292878D01*
X167983739Y-92148053D01*
X167934545Y-92078057D01*
X167864466Y-92002643D01*
X167751046Y-91880588D01*
X167751043Y-91880585D01*
X167748125Y-91877445D01*
X167744810Y-91874731D01*
X167744806Y-91874728D01*
X167539523Y-91706706D01*
X167536205Y-91703990D01*
X167302704Y-91560901D01*
X167298768Y-91559173D01*
X167055873Y-91452549D01*
X167055869Y-91452548D01*
X167051945Y-91450825D01*
X166788566Y-91375800D01*
X166784324Y-91375196D01*
X166784318Y-91375195D01*
X166583834Y-91346662D01*
X166517443Y-91337213D01*
X166373589Y-91336460D01*
X166247877Y-91335802D01*
X166247871Y-91335802D01*
X166243591Y-91335780D01*
X166239347Y-91336339D01*
X166239343Y-91336339D01*
X166120302Y-91352011D01*
X165972078Y-91371525D01*
X165967938Y-91372658D01*
X165967936Y-91372658D01*
X165895008Y-91392609D01*
X165707928Y-91443788D01*
X165703980Y-91445472D01*
X165459982Y-91549546D01*
X165459978Y-91549548D01*
X165456030Y-91551232D01*
X165337414Y-91622222D01*
X165224725Y-91689664D01*
X165224721Y-91689667D01*
X165221043Y-91691868D01*
X165007318Y-91863094D01*
X164942277Y-91931633D01*
X164821848Y-92058539D01*
X164818808Y-92061742D01*
X164659002Y-92284136D01*
X164530857Y-92526161D01*
X164529385Y-92530184D01*
X164529383Y-92530188D01*
X164438214Y-92779317D01*
X164436743Y-92783337D01*
X164378404Y-93050907D01*
X164356917Y-93323918D01*
X162468989Y-93323918D01*
X162468989Y-86559882D01*
X162488991Y-86491761D01*
X162505894Y-86470787D01*
X163118978Y-85857703D01*
X166165743Y-85857703D01*
X166166302Y-85861947D01*
X166166302Y-85861951D01*
X166176026Y-85935814D01*
X166203268Y-86142734D01*
X166279129Y-86420036D01*
X166280813Y-86423984D01*
X166387532Y-86674181D01*
X166391923Y-86684476D01*
X166466473Y-86809040D01*
X166497076Y-86860173D01*
X166539561Y-86931161D01*
X166719313Y-87155528D01*
X166927851Y-87353423D01*
X167161317Y-87521186D01*
X167165112Y-87523195D01*
X167165113Y-87523196D01*
X167186869Y-87534715D01*
X167415392Y-87655712D01*
X167685373Y-87754511D01*
X167966264Y-87815755D01*
X167994841Y-87818004D01*
X168189282Y-87833307D01*
X168189291Y-87833307D01*
X168191739Y-87833500D01*
X168347271Y-87833500D01*
X168349407Y-87833354D01*
X168349418Y-87833354D01*
X168557548Y-87819165D01*
X168557554Y-87819164D01*
X168561825Y-87818873D01*
X168566020Y-87818004D01*
X168566022Y-87818004D01*
X168702584Y-87789723D01*
X168843342Y-87760574D01*
X169114343Y-87664607D01*
X169369812Y-87532750D01*
X169373313Y-87530289D01*
X169373317Y-87530287D01*
X169592964Y-87375916D01*
X169605023Y-87367441D01*
X169683403Y-87294606D01*
X169812479Y-87174661D01*
X169812481Y-87174658D01*
X169815622Y-87171740D01*
X169997713Y-86949268D01*
X170147927Y-86704142D01*
X170176878Y-86638191D01*
X170261757Y-86444830D01*
X170263483Y-86440898D01*
X170270139Y-86417534D01*
X170330757Y-86204732D01*
X170342244Y-86164406D01*
X170382751Y-85879784D01*
X170382781Y-85874223D01*
X170384235Y-85596583D01*
X170384235Y-85596576D01*
X170384257Y-85592297D01*
X170346732Y-85307266D01*
X170270871Y-85029964D01*
X170233991Y-84943500D01*
X170159763Y-84769476D01*
X170159761Y-84769472D01*
X170158077Y-84765524D01*
X170035293Y-84560367D01*
X170012643Y-84522521D01*
X170012640Y-84522517D01*
X170010439Y-84518839D01*
X169830687Y-84294472D01*
X169622149Y-84096577D01*
X169388683Y-83928814D01*
X169366843Y-83917250D01*
X169244568Y-83852509D01*
X169134608Y-83794288D01*
X168864627Y-83695489D01*
X168583736Y-83634245D01*
X168552685Y-83631801D01*
X168360718Y-83616693D01*
X168360709Y-83616693D01*
X168358261Y-83616500D01*
X168202729Y-83616500D01*
X168200593Y-83616646D01*
X168200582Y-83616646D01*
X167992452Y-83630835D01*
X167992446Y-83630836D01*
X167988175Y-83631127D01*
X167983980Y-83631996D01*
X167983978Y-83631996D01*
X167847416Y-83660277D01*
X167706658Y-83689426D01*
X167435657Y-83785393D01*
X167180188Y-83917250D01*
X167176687Y-83919711D01*
X167176683Y-83919713D01*
X167166594Y-83926804D01*
X166944977Y-84082559D01*
X166929892Y-84096577D01*
X166768496Y-84246556D01*
X166734378Y-84278260D01*
X166552287Y-84500732D01*
X166402073Y-84745858D01*
X166286517Y-85009102D01*
X166285342Y-85013229D01*
X166285341Y-85013230D01*
X166247137Y-85147348D01*
X166207756Y-85285594D01*
X166167249Y-85570216D01*
X166167227Y-85574505D01*
X166167226Y-85574512D01*
X166165765Y-85853417D01*
X166165743Y-85857703D01*
X163118978Y-85857703D01*
X165764331Y-83212350D01*
X165827228Y-83178199D01*
X165883824Y-83166169D01*
X165883833Y-83166166D01*
X165890288Y-83164794D01*
X165930926Y-83146701D01*
X166058722Y-83089803D01*
X166058724Y-83089802D01*
X166064752Y-83087118D01*
X166070601Y-83082869D01*
X166148602Y-83026197D01*
X166219253Y-82974866D01*
X166223675Y-82969955D01*
X166342621Y-82837852D01*
X166342622Y-82837851D01*
X166347040Y-82832944D01*
X166442527Y-82667556D01*
X166501542Y-82485928D01*
X166521504Y-82296000D01*
X166501542Y-82106072D01*
X166442527Y-81924444D01*
X166347040Y-81759056D01*
X166280191Y-81684812D01*
X166223675Y-81622045D01*
X166223674Y-81622044D01*
X166219253Y-81617134D01*
X166073061Y-81510919D01*
X166070094Y-81508763D01*
X166070093Y-81508762D01*
X166064752Y-81504882D01*
X166058724Y-81502198D01*
X166058722Y-81502197D01*
X165896319Y-81429891D01*
X165896318Y-81429891D01*
X165890288Y-81427206D01*
X165796888Y-81407353D01*
X165709944Y-81388872D01*
X165709939Y-81388872D01*
X165703487Y-81387500D01*
X165512513Y-81387500D01*
X165506061Y-81388872D01*
X165506056Y-81388872D01*
X165419112Y-81407353D01*
X165325712Y-81427206D01*
X165319682Y-81429891D01*
X165319681Y-81429891D01*
X165157278Y-81502197D01*
X165157276Y-81502198D01*
X165151248Y-81504882D01*
X165145907Y-81508762D01*
X165145906Y-81508763D01*
X165142939Y-81510919D01*
X164996747Y-81617134D01*
X164992326Y-81622044D01*
X164992325Y-81622045D01*
X164935810Y-81684812D01*
X164868960Y-81759056D01*
X164773473Y-81924444D01*
X164771431Y-81930729D01*
X164718613Y-82093285D01*
X164687875Y-82143444D01*
X161221578Y-85609741D01*
X161207166Y-85622127D01*
X161195571Y-85630660D01*
X161195566Y-85630665D01*
X161189671Y-85635003D01*
X161184932Y-85640581D01*
X161184929Y-85640584D01*
X161155454Y-85675279D01*
X161148524Y-85682795D01*
X161142829Y-85688490D01*
X161140549Y-85691372D01*
X161125208Y-85710762D01*
X161122417Y-85714166D01*
X161079898Y-85764214D01*
X161075156Y-85769796D01*
X161071828Y-85776312D01*
X161068461Y-85781361D01*
X161065294Y-85786490D01*
X161060755Y-85792227D01*
X161029834Y-85858386D01*
X161027927Y-85862287D01*
X161016716Y-85884242D01*
X160967923Y-85935814D01*
X160898993Y-85952820D01*
X160831812Y-85929859D01*
X160787708Y-85874223D01*
X160778500Y-85826940D01*
X160778500Y-83678371D01*
X160798502Y-83610250D01*
X160815405Y-83589276D01*
X163732331Y-80672350D01*
X163795228Y-80638199D01*
X163851824Y-80626169D01*
X163851833Y-80626166D01*
X163858288Y-80624794D01*
X163864669Y-80621953D01*
X164026722Y-80549803D01*
X164026724Y-80549802D01*
X164032752Y-80547118D01*
X164038671Y-80542818D01*
X164156543Y-80457178D01*
X164187253Y-80434866D01*
X164215645Y-80403334D01*
X164310621Y-80297852D01*
X164310622Y-80297851D01*
X164315040Y-80292944D01*
X164410527Y-80127556D01*
X164469542Y-79945928D01*
X164489504Y-79756000D01*
X164469542Y-79566072D01*
X164410527Y-79384444D01*
X164405075Y-79375000D01*
X164330596Y-79246000D01*
X164315040Y-79219056D01*
X164239422Y-79135073D01*
X164191675Y-79082045D01*
X164191674Y-79082044D01*
X164187253Y-79077134D01*
X164032752Y-78964882D01*
X164026724Y-78962198D01*
X164026722Y-78962197D01*
X163864319Y-78889891D01*
X163864318Y-78889891D01*
X163858288Y-78887206D01*
X163764888Y-78867353D01*
X163677944Y-78848872D01*
X163677939Y-78848872D01*
X163671487Y-78847500D01*
X163480513Y-78847500D01*
X163474061Y-78848872D01*
X163474056Y-78848872D01*
X163387112Y-78867353D01*
X163293712Y-78887206D01*
X163287682Y-78889891D01*
X163287681Y-78889891D01*
X163125278Y-78962197D01*
X163125276Y-78962198D01*
X163119248Y-78964882D01*
X162964747Y-79077134D01*
X162960326Y-79082044D01*
X162960325Y-79082045D01*
X162912579Y-79135073D01*
X162836960Y-79219056D01*
X162821404Y-79246000D01*
X162746926Y-79375000D01*
X162741473Y-79384444D01*
X162694332Y-79529530D01*
X162686613Y-79553285D01*
X162655875Y-79603444D01*
X159531089Y-82728230D01*
X159516677Y-82740616D01*
X159505082Y-82749149D01*
X159505077Y-82749154D01*
X159499182Y-82753492D01*
X159494443Y-82759070D01*
X159494440Y-82759073D01*
X159464965Y-82793768D01*
X159458035Y-82801284D01*
X159452340Y-82806979D01*
X159450060Y-82809861D01*
X159434719Y-82829251D01*
X159431928Y-82832655D01*
X159389409Y-82882703D01*
X159384667Y-82888285D01*
X159381339Y-82894801D01*
X159377972Y-82899850D01*
X159374805Y-82904979D01*
X159370266Y-82910716D01*
X159339345Y-82976875D01*
X159337442Y-82980769D01*
X159304231Y-83045808D01*
X159302492Y-83052916D01*
X159300393Y-83058559D01*
X159298476Y-83064322D01*
X159295378Y-83070950D01*
X159281870Y-83135895D01*
X159280514Y-83142412D01*
X159279544Y-83146696D01*
X159262192Y-83217610D01*
X159261500Y-83228764D01*
X159261464Y-83228762D01*
X159261225Y-83232755D01*
X159260851Y-83236947D01*
X159259360Y-83244115D01*
X159259558Y-83251432D01*
X159261454Y-83321521D01*
X159261500Y-83324928D01*
X159261500Y-112239001D01*
X159244619Y-112302000D01*
X159185473Y-112404444D01*
X159126458Y-112586072D01*
X159125768Y-112592633D01*
X159125768Y-112592635D01*
X159122963Y-112619327D01*
X159106496Y-112776000D01*
X159107186Y-112782565D01*
X159116140Y-112867753D01*
X159126458Y-112965928D01*
X159185473Y-113147556D01*
X159280960Y-113312944D01*
X159285378Y-113317851D01*
X159285379Y-113317852D01*
X159350544Y-113390225D01*
X159408747Y-113454866D01*
X159563248Y-113567118D01*
X159569276Y-113569802D01*
X159569278Y-113569803D01*
X159717383Y-113635743D01*
X159737712Y-113644794D01*
X159818182Y-113661899D01*
X159880654Y-113695626D01*
X159914976Y-113757776D01*
X159910248Y-113828615D01*
X159881079Y-113874240D01*
X159863669Y-113891650D01*
X159800772Y-113925801D01*
X159744176Y-113937831D01*
X159744167Y-113937834D01*
X159737712Y-113939206D01*
X159731682Y-113941891D01*
X159731681Y-113941891D01*
X159569278Y-114014197D01*
X159569276Y-114014198D01*
X159563248Y-114016882D01*
X159408747Y-114129134D01*
X159280960Y-114271056D01*
X159185473Y-114436444D01*
X159126458Y-114618072D01*
X159106496Y-114808000D01*
X140966500Y-114808000D01*
X140966500Y-111472695D01*
X145449251Y-111472695D01*
X145462110Y-111695715D01*
X145463247Y-111700761D01*
X145463248Y-111700767D01*
X145469913Y-111730339D01*
X145511222Y-111913639D01*
X145595266Y-112120616D01*
X145632685Y-112181678D01*
X145709291Y-112306688D01*
X145711987Y-112311088D01*
X145858250Y-112479938D01*
X146030126Y-112622632D01*
X146223000Y-112735338D01*
X146431692Y-112815030D01*
X146436760Y-112816061D01*
X146436763Y-112816062D01*
X146491489Y-112827196D01*
X146650597Y-112859567D01*
X146655772Y-112859757D01*
X146655774Y-112859757D01*
X146868673Y-112867564D01*
X146868677Y-112867564D01*
X146873837Y-112867753D01*
X146878957Y-112867097D01*
X146878959Y-112867097D01*
X147090288Y-112840025D01*
X147090289Y-112840025D01*
X147095416Y-112839368D01*
X147100366Y-112837883D01*
X147304429Y-112776661D01*
X147304434Y-112776659D01*
X147309384Y-112775174D01*
X147509994Y-112676896D01*
X147691860Y-112547173D01*
X147850096Y-112389489D01*
X147909594Y-112306689D01*
X147980453Y-112208077D01*
X147981776Y-112209028D01*
X148028645Y-112165857D01*
X148098580Y-112153625D01*
X148164026Y-112181144D01*
X148191875Y-112212994D01*
X148251987Y-112311088D01*
X148398250Y-112479938D01*
X148570126Y-112622632D01*
X148763000Y-112735338D01*
X148971692Y-112815030D01*
X148976760Y-112816061D01*
X148976763Y-112816062D01*
X149031489Y-112827196D01*
X149190597Y-112859567D01*
X149195772Y-112859757D01*
X149195774Y-112859757D01*
X149408673Y-112867564D01*
X149408677Y-112867564D01*
X149413837Y-112867753D01*
X149418957Y-112867097D01*
X149418959Y-112867097D01*
X149630288Y-112840025D01*
X149630289Y-112840025D01*
X149635416Y-112839368D01*
X149640366Y-112837883D01*
X149844429Y-112776661D01*
X149844434Y-112776659D01*
X149849384Y-112775174D01*
X150049994Y-112676896D01*
X150231860Y-112547173D01*
X150390096Y-112389489D01*
X150449594Y-112306689D01*
X150520453Y-112208077D01*
X150521776Y-112209028D01*
X150568645Y-112165857D01*
X150638580Y-112153625D01*
X150704026Y-112181144D01*
X150731875Y-112212994D01*
X150791987Y-112311088D01*
X150938250Y-112479938D01*
X151110126Y-112622632D01*
X151303000Y-112735338D01*
X151511692Y-112815030D01*
X151516760Y-112816061D01*
X151516763Y-112816062D01*
X151571489Y-112827196D01*
X151730597Y-112859567D01*
X151735772Y-112859757D01*
X151735774Y-112859757D01*
X151948673Y-112867564D01*
X151948677Y-112867564D01*
X151953837Y-112867753D01*
X151958957Y-112867097D01*
X151958959Y-112867097D01*
X152170288Y-112840025D01*
X152170289Y-112840025D01*
X152175416Y-112839368D01*
X152180366Y-112837883D01*
X152384429Y-112776661D01*
X152384434Y-112776659D01*
X152389384Y-112775174D01*
X152589994Y-112676896D01*
X152771860Y-112547173D01*
X152930096Y-112389489D01*
X152989594Y-112306689D01*
X153060453Y-112208077D01*
X153061776Y-112209028D01*
X153108645Y-112165857D01*
X153178580Y-112153625D01*
X153244026Y-112181144D01*
X153271875Y-112212994D01*
X153331987Y-112311088D01*
X153478250Y-112479938D01*
X153650126Y-112622632D01*
X153843000Y-112735338D01*
X154051692Y-112815030D01*
X154056760Y-112816061D01*
X154056763Y-112816062D01*
X154111489Y-112827196D01*
X154270597Y-112859567D01*
X154275772Y-112859757D01*
X154275774Y-112859757D01*
X154488673Y-112867564D01*
X154488677Y-112867564D01*
X154493837Y-112867753D01*
X154498957Y-112867097D01*
X154498959Y-112867097D01*
X154710288Y-112840025D01*
X154710289Y-112840025D01*
X154715416Y-112839368D01*
X154720366Y-112837883D01*
X154924429Y-112776661D01*
X154924434Y-112776659D01*
X154929384Y-112775174D01*
X155129994Y-112676896D01*
X155311860Y-112547173D01*
X155420091Y-112439319D01*
X155482462Y-112405404D01*
X155553268Y-112410592D01*
X155610030Y-112453238D01*
X155627012Y-112484341D01*
X155671385Y-112602705D01*
X155758739Y-112719261D01*
X155875295Y-112806615D01*
X156011684Y-112857745D01*
X156073866Y-112864500D01*
X157870134Y-112864500D01*
X157932316Y-112857745D01*
X158068705Y-112806615D01*
X158185261Y-112719261D01*
X158272615Y-112602705D01*
X158323745Y-112466316D01*
X158330500Y-112404134D01*
X158330500Y-110607866D01*
X158323745Y-110545684D01*
X158272615Y-110409295D01*
X158185261Y-110292739D01*
X158068705Y-110205385D01*
X157932316Y-110154255D01*
X157870134Y-110147500D01*
X157856500Y-110147500D01*
X157788379Y-110127498D01*
X157741886Y-110073842D01*
X157730500Y-110021500D01*
X157730500Y-77448918D01*
X166261917Y-77448918D01*
X166277682Y-77722320D01*
X166278507Y-77726525D01*
X166278508Y-77726533D01*
X166280504Y-77736706D01*
X166330405Y-77991053D01*
X166331792Y-77995103D01*
X166331793Y-77995108D01*
X166417723Y-78246088D01*
X166419112Y-78250144D01*
X166542160Y-78494799D01*
X166544586Y-78498328D01*
X166544589Y-78498334D01*
X166663376Y-78671168D01*
X166697274Y-78720490D01*
X166700161Y-78723663D01*
X166700162Y-78723664D01*
X166814092Y-78848872D01*
X166881582Y-78923043D01*
X167091675Y-79098707D01*
X167095316Y-79100991D01*
X167320024Y-79241951D01*
X167320028Y-79241953D01*
X167323664Y-79244234D01*
X167391544Y-79274883D01*
X167569345Y-79355164D01*
X167569349Y-79355166D01*
X167573257Y-79356930D01*
X167577377Y-79358150D01*
X167577376Y-79358150D01*
X167831723Y-79433491D01*
X167831727Y-79433492D01*
X167835836Y-79434709D01*
X167840070Y-79435357D01*
X167840075Y-79435358D01*
X168102298Y-79475483D01*
X168102300Y-79475483D01*
X168106540Y-79476132D01*
X168245912Y-79478322D01*
X168376071Y-79480367D01*
X168376077Y-79480367D01*
X168380362Y-79480434D01*
X168652235Y-79447534D01*
X168917127Y-79378041D01*
X168921087Y-79376401D01*
X168921092Y-79376399D01*
X169043631Y-79325641D01*
X169170136Y-79273241D01*
X169406582Y-79135073D01*
X169622089Y-78966094D01*
X169625866Y-78962197D01*
X169809686Y-78772509D01*
X169812669Y-78769431D01*
X169815202Y-78765983D01*
X169815206Y-78765978D01*
X169972257Y-78552178D01*
X169974795Y-78548723D01*
X170002154Y-78498334D01*
X170103418Y-78311830D01*
X170103419Y-78311828D01*
X170105468Y-78308054D01*
X170179716Y-78111562D01*
X170200751Y-78055895D01*
X170200752Y-78055891D01*
X170202269Y-78051877D01*
X170239248Y-77890417D01*
X170262449Y-77789117D01*
X170262450Y-77789113D01*
X170263407Y-77784933D01*
X170267954Y-77733990D01*
X170287531Y-77514627D01*
X170287531Y-77514625D01*
X170287751Y-77512161D01*
X170288193Y-77470000D01*
X170283897Y-77406977D01*
X170269859Y-77201055D01*
X170269858Y-77201045D01*
X170269567Y-77196778D01*
X170268630Y-77192251D01*
X170214901Y-76932809D01*
X170214032Y-76928612D01*
X170122617Y-76670465D01*
X169997013Y-76427112D01*
X169987040Y-76412921D01*
X169902862Y-76293148D01*
X169839545Y-76203057D01*
X169689136Y-76041197D01*
X169656046Y-76005588D01*
X169656043Y-76005585D01*
X169653125Y-76002445D01*
X169649810Y-75999731D01*
X169649806Y-75999728D01*
X169444523Y-75831706D01*
X169441205Y-75828990D01*
X169207704Y-75685901D01*
X169191514Y-75678794D01*
X168960873Y-75577549D01*
X168960869Y-75577548D01*
X168956945Y-75575825D01*
X168693566Y-75500800D01*
X168689324Y-75500196D01*
X168689318Y-75500195D01*
X168488834Y-75471662D01*
X168422443Y-75462213D01*
X168278589Y-75461460D01*
X168152877Y-75460802D01*
X168152871Y-75460802D01*
X168148591Y-75460780D01*
X168144347Y-75461339D01*
X168144343Y-75461339D01*
X168025302Y-75477011D01*
X167877078Y-75496525D01*
X167872938Y-75497658D01*
X167872936Y-75497658D01*
X167851786Y-75503444D01*
X167612928Y-75568788D01*
X167608980Y-75570472D01*
X167364982Y-75674546D01*
X167364978Y-75674548D01*
X167361030Y-75676232D01*
X167311144Y-75706088D01*
X167129725Y-75814664D01*
X167129721Y-75814667D01*
X167126043Y-75816868D01*
X166912318Y-75988094D01*
X166861925Y-76041197D01*
X166748194Y-76161045D01*
X166723808Y-76186742D01*
X166564002Y-76409136D01*
X166435857Y-76651161D01*
X166434385Y-76655184D01*
X166434383Y-76655188D01*
X166374747Y-76818150D01*
X166341743Y-76908337D01*
X166283404Y-77175907D01*
X166261917Y-77448918D01*
X157730500Y-77448918D01*
X157730500Y-76411999D01*
X157747381Y-76348999D01*
X157748489Y-76347081D01*
X157806527Y-76246556D01*
X157865542Y-76064928D01*
X157873618Y-75988094D01*
X157884814Y-75881565D01*
X157885504Y-75875000D01*
X157865542Y-75685072D01*
X157806527Y-75503444D01*
X157803187Y-75497658D01*
X157714341Y-75343774D01*
X157711040Y-75338056D01*
X157583253Y-75196134D01*
X157428752Y-75083882D01*
X157422724Y-75081198D01*
X157422722Y-75081197D01*
X157260319Y-75008891D01*
X157260318Y-75008891D01*
X157254288Y-75006206D01*
X157160887Y-74986353D01*
X157073944Y-74967872D01*
X157073939Y-74967872D01*
X157067487Y-74966500D01*
X156876513Y-74966500D01*
X156870061Y-74967872D01*
X156870056Y-74967872D01*
X156783113Y-74986353D01*
X156689712Y-75006206D01*
X156683682Y-75008891D01*
X156683681Y-75008891D01*
X156521278Y-75081197D01*
X156521276Y-75081198D01*
X156515248Y-75083882D01*
X156360747Y-75196134D01*
X156232960Y-75338056D01*
X156229659Y-75343774D01*
X156140814Y-75497658D01*
X156137473Y-75503444D01*
X156078458Y-75685072D01*
X156058496Y-75875000D01*
X156059186Y-75881565D01*
X156070383Y-75988094D01*
X156078458Y-76064928D01*
X156137473Y-76246556D01*
X156195512Y-76347081D01*
X156196619Y-76348999D01*
X156213500Y-76411999D01*
X156213500Y-110021500D01*
X156193498Y-110089621D01*
X156139842Y-110136114D01*
X156087500Y-110147500D01*
X156073866Y-110147500D01*
X156011684Y-110154255D01*
X155875295Y-110205385D01*
X155758739Y-110292739D01*
X155671385Y-110409295D01*
X155668233Y-110417703D01*
X155626919Y-110527907D01*
X155584277Y-110584671D01*
X155517716Y-110609371D01*
X155448367Y-110594163D01*
X155415743Y-110568476D01*
X155365148Y-110512873D01*
X155365142Y-110512867D01*
X155361670Y-110509051D01*
X155238407Y-110411703D01*
X155197345Y-110353785D01*
X155190500Y-110312821D01*
X155190500Y-86388999D01*
X155207381Y-86325999D01*
X155263223Y-86229279D01*
X155263224Y-86229278D01*
X155266527Y-86223556D01*
X155325542Y-86041928D01*
X155329308Y-86006102D01*
X155344814Y-85858565D01*
X155345504Y-85852000D01*
X155336864Y-85769796D01*
X155326232Y-85668635D01*
X155326232Y-85668633D01*
X155325542Y-85662072D01*
X155266527Y-85480444D01*
X155171040Y-85315056D01*
X155160297Y-85303124D01*
X155047675Y-85178045D01*
X155047674Y-85178044D01*
X155043253Y-85173134D01*
X154888752Y-85060882D01*
X154882724Y-85058198D01*
X154882722Y-85058197D01*
X154720319Y-84985891D01*
X154720318Y-84985891D01*
X154714288Y-84983206D01*
X154620887Y-84963353D01*
X154533944Y-84944872D01*
X154533939Y-84944872D01*
X154527487Y-84943500D01*
X154336513Y-84943500D01*
X154330061Y-84944872D01*
X154330056Y-84944872D01*
X154243113Y-84963353D01*
X154149712Y-84983206D01*
X154143682Y-84985891D01*
X154143681Y-84985891D01*
X153981278Y-85058197D01*
X153981276Y-85058198D01*
X153975248Y-85060882D01*
X153820747Y-85173134D01*
X153816326Y-85178044D01*
X153816325Y-85178045D01*
X153703704Y-85303124D01*
X153692960Y-85315056D01*
X153597473Y-85480444D01*
X153538458Y-85662072D01*
X153537768Y-85668633D01*
X153537768Y-85668635D01*
X153527136Y-85769796D01*
X153518496Y-85852000D01*
X153519186Y-85858565D01*
X153534693Y-86006102D01*
X153538458Y-86041928D01*
X153597473Y-86223556D01*
X153600776Y-86229278D01*
X153600777Y-86229279D01*
X153656619Y-86325999D01*
X153673500Y-86388999D01*
X153673500Y-110313655D01*
X153653498Y-110381776D01*
X153623153Y-110414415D01*
X153531100Y-110483530D01*
X153526965Y-110486635D01*
X153523393Y-110490373D01*
X153398717Y-110620839D01*
X153372629Y-110648138D01*
X153265201Y-110805621D01*
X153210293Y-110850621D01*
X153139768Y-110858792D01*
X153076021Y-110827538D01*
X153055324Y-110803054D01*
X152974822Y-110678617D01*
X152974820Y-110678614D01*
X152972014Y-110674277D01*
X152821670Y-110509051D01*
X152698407Y-110411703D01*
X152657345Y-110353785D01*
X152650500Y-110312821D01*
X152650500Y-78411999D01*
X152667381Y-78348999D01*
X152679155Y-78328607D01*
X152726527Y-78246556D01*
X152785542Y-78064928D01*
X152786492Y-78055895D01*
X152804814Y-77881565D01*
X152805504Y-77875000D01*
X152804724Y-77867577D01*
X152786232Y-77691635D01*
X152786232Y-77691633D01*
X152785542Y-77685072D01*
X152726527Y-77503444D01*
X152712790Y-77479650D01*
X152667684Y-77401525D01*
X152631040Y-77338056D01*
X152503253Y-77196134D01*
X152348752Y-77083882D01*
X152342724Y-77081198D01*
X152342722Y-77081197D01*
X152180319Y-77008891D01*
X152180318Y-77008891D01*
X152174288Y-77006206D01*
X152080887Y-76986353D01*
X151993944Y-76967872D01*
X151993939Y-76967872D01*
X151987487Y-76966500D01*
X151796513Y-76966500D01*
X151790061Y-76967872D01*
X151790056Y-76967872D01*
X151703113Y-76986353D01*
X151609712Y-77006206D01*
X151603682Y-77008891D01*
X151603681Y-77008891D01*
X151441278Y-77081197D01*
X151441276Y-77081198D01*
X151435248Y-77083882D01*
X151280747Y-77196134D01*
X151152960Y-77338056D01*
X151116316Y-77401525D01*
X151071211Y-77479650D01*
X151057473Y-77503444D01*
X150998458Y-77685072D01*
X150997768Y-77691633D01*
X150997768Y-77691635D01*
X150979276Y-77867577D01*
X150978496Y-77875000D01*
X150979186Y-77881565D01*
X150997509Y-78055895D01*
X150998458Y-78064928D01*
X151057473Y-78246556D01*
X151104846Y-78328607D01*
X151116619Y-78348999D01*
X151133500Y-78411999D01*
X151133500Y-110313655D01*
X151113498Y-110381776D01*
X151083153Y-110414415D01*
X150991100Y-110483530D01*
X150986965Y-110486635D01*
X150983393Y-110490373D01*
X150858717Y-110620839D01*
X150832629Y-110648138D01*
X150725201Y-110805621D01*
X150670293Y-110850621D01*
X150599768Y-110858792D01*
X150536021Y-110827538D01*
X150515324Y-110803054D01*
X150434822Y-110678617D01*
X150434820Y-110678614D01*
X150432014Y-110674277D01*
X150281670Y-110509051D01*
X150158407Y-110411703D01*
X150117345Y-110353785D01*
X150110500Y-110312821D01*
X150110500Y-84411999D01*
X150127381Y-84348999D01*
X150183223Y-84252279D01*
X150183224Y-84252278D01*
X150186527Y-84246556D01*
X150245542Y-84064928D01*
X150259585Y-83931321D01*
X150264814Y-83881565D01*
X150265504Y-83875000D01*
X150245542Y-83685072D01*
X150186527Y-83503444D01*
X150151469Y-83442721D01*
X150119906Y-83388054D01*
X150091040Y-83338056D01*
X150013044Y-83251432D01*
X149967675Y-83201045D01*
X149967674Y-83201044D01*
X149963253Y-83196134D01*
X149808752Y-83083882D01*
X149802724Y-83081198D01*
X149802722Y-83081197D01*
X149640319Y-83008891D01*
X149640318Y-83008891D01*
X149634288Y-83006206D01*
X149540888Y-82986353D01*
X149453944Y-82967872D01*
X149453939Y-82967872D01*
X149447487Y-82966500D01*
X149256513Y-82966500D01*
X149250061Y-82967872D01*
X149250056Y-82967872D01*
X149163112Y-82986353D01*
X149069712Y-83006206D01*
X149063682Y-83008891D01*
X149063681Y-83008891D01*
X148901278Y-83081197D01*
X148901276Y-83081198D01*
X148895248Y-83083882D01*
X148740747Y-83196134D01*
X148736326Y-83201044D01*
X148736325Y-83201045D01*
X148690957Y-83251432D01*
X148612960Y-83338056D01*
X148584094Y-83388054D01*
X148552532Y-83442721D01*
X148517473Y-83503444D01*
X148458458Y-83685072D01*
X148438496Y-83875000D01*
X148439186Y-83881565D01*
X148444416Y-83931321D01*
X148458458Y-84064928D01*
X148517473Y-84246556D01*
X148520776Y-84252278D01*
X148520777Y-84252279D01*
X148576619Y-84348999D01*
X148593500Y-84411999D01*
X148593500Y-110313655D01*
X148573498Y-110381776D01*
X148543153Y-110414415D01*
X148451100Y-110483530D01*
X148446965Y-110486635D01*
X148443393Y-110490373D01*
X148318717Y-110620839D01*
X148292629Y-110648138D01*
X148185201Y-110805621D01*
X148130293Y-110850621D01*
X148059768Y-110858792D01*
X147996021Y-110827538D01*
X147975324Y-110803054D01*
X147894822Y-110678617D01*
X147894820Y-110678614D01*
X147892014Y-110674277D01*
X147741670Y-110509051D01*
X147618407Y-110411703D01*
X147577345Y-110353785D01*
X147570500Y-110312821D01*
X147570500Y-82411999D01*
X147587381Y-82348999D01*
X147643223Y-82252279D01*
X147643224Y-82252278D01*
X147646527Y-82246556D01*
X147705542Y-82064928D01*
X147711886Y-82004574D01*
X147724814Y-81881565D01*
X147725504Y-81875000D01*
X147705542Y-81685072D01*
X147646527Y-81503444D01*
X147551040Y-81338056D01*
X147483595Y-81263150D01*
X147427675Y-81201045D01*
X147427674Y-81201044D01*
X147423253Y-81196134D01*
X147268752Y-81083882D01*
X147262724Y-81081198D01*
X147262722Y-81081197D01*
X147100319Y-81008891D01*
X147100318Y-81008891D01*
X147094288Y-81006206D01*
X147000887Y-80986353D01*
X146913944Y-80967872D01*
X146913939Y-80967872D01*
X146907487Y-80966500D01*
X146716513Y-80966500D01*
X146710061Y-80967872D01*
X146710056Y-80967872D01*
X146623113Y-80986353D01*
X146529712Y-81006206D01*
X146523682Y-81008891D01*
X146523681Y-81008891D01*
X146361278Y-81081197D01*
X146361276Y-81081198D01*
X146355248Y-81083882D01*
X146200747Y-81196134D01*
X146196326Y-81201044D01*
X146196325Y-81201045D01*
X146140406Y-81263150D01*
X146072960Y-81338056D01*
X145977473Y-81503444D01*
X145918458Y-81685072D01*
X145898496Y-81875000D01*
X145899186Y-81881565D01*
X145912115Y-82004574D01*
X145918458Y-82064928D01*
X145977473Y-82246556D01*
X145980776Y-82252278D01*
X145980777Y-82252279D01*
X146036619Y-82348999D01*
X146053500Y-82411999D01*
X146053500Y-110313655D01*
X146033498Y-110381776D01*
X146003153Y-110414415D01*
X145911100Y-110483530D01*
X145906965Y-110486635D01*
X145903393Y-110490373D01*
X145778717Y-110620839D01*
X145752629Y-110648138D01*
X145749720Y-110652403D01*
X145749714Y-110652411D01*
X145665933Y-110775229D01*
X145626743Y-110832680D01*
X145532688Y-111035305D01*
X145472989Y-111250570D01*
X145449251Y-111472695D01*
X140966500Y-111472695D01*
X140966500Y-107636063D01*
X140967933Y-107617114D01*
X140970097Y-107602886D01*
X140971198Y-107595651D01*
X140966915Y-107542990D01*
X140966500Y-107532777D01*
X140966500Y-107524707D01*
X140966078Y-107521087D01*
X140966077Y-107521069D01*
X140963208Y-107496461D01*
X140962775Y-107492086D01*
X140957454Y-107426661D01*
X140957453Y-107426658D01*
X140956860Y-107419363D01*
X140954604Y-107412399D01*
X140953413Y-107406440D01*
X140952029Y-107400585D01*
X140951182Y-107393319D01*
X140926265Y-107324673D01*
X140924848Y-107320545D01*
X140904607Y-107258064D01*
X140904606Y-107258062D01*
X140902351Y-107251101D01*
X140898555Y-107244846D01*
X140896049Y-107239372D01*
X140893330Y-107233942D01*
X140890833Y-107227063D01*
X140850809Y-107166016D01*
X140848472Y-107162312D01*
X140813509Y-107104693D01*
X140813505Y-107104688D01*
X140810595Y-107099892D01*
X140803197Y-107091516D01*
X140803223Y-107091493D01*
X140800574Y-107088503D01*
X140797866Y-107085264D01*
X140793856Y-107079148D01*
X140788549Y-107074121D01*
X140788546Y-107074117D01*
X140737617Y-107025872D01*
X140735175Y-107023494D01*
X138463405Y-104751724D01*
X138429379Y-104689412D01*
X138426500Y-104662629D01*
X138426500Y-101374999D01*
X138443381Y-101311999D01*
X138499223Y-101215279D01*
X138499224Y-101215278D01*
X138502527Y-101209556D01*
X138561542Y-101027928D01*
X138581504Y-100838000D01*
X138561542Y-100648072D01*
X138502527Y-100466444D01*
X138407040Y-100301056D01*
X138302483Y-100184933D01*
X138283675Y-100164045D01*
X138283674Y-100164044D01*
X138279253Y-100159134D01*
X138124752Y-100046882D01*
X138118724Y-100044198D01*
X138118722Y-100044197D01*
X137956319Y-99971891D01*
X137956318Y-99971891D01*
X137950288Y-99969206D01*
X137856888Y-99949353D01*
X137769944Y-99930872D01*
X137769939Y-99930872D01*
X137763487Y-99929500D01*
X137572513Y-99929500D01*
X137566061Y-99930872D01*
X137566056Y-99930872D01*
X137479112Y-99949353D01*
X137385712Y-99969206D01*
X137379682Y-99971891D01*
X137379681Y-99971891D01*
X137217278Y-100044197D01*
X137217276Y-100044198D01*
X137211248Y-100046882D01*
X137056747Y-100159134D01*
X137052326Y-100164044D01*
X137052325Y-100164045D01*
X137033518Y-100184933D01*
X136928960Y-100301056D01*
X136833473Y-100466444D01*
X136774458Y-100648072D01*
X136754496Y-100838000D01*
X124111864Y-100838000D01*
X123917371Y-100785885D01*
X123698000Y-100766693D01*
X123478629Y-100785885D01*
X123265924Y-100842880D01*
X123172562Y-100886415D01*
X123071334Y-100933618D01*
X123071329Y-100933621D01*
X123066347Y-100935944D01*
X123061840Y-100939100D01*
X123061838Y-100939101D01*
X122890473Y-101059092D01*
X122890470Y-101059094D01*
X122885962Y-101062251D01*
X122730251Y-101217962D01*
X122727094Y-101222470D01*
X122727092Y-101222473D01*
X122655015Y-101325410D01*
X122603944Y-101398347D01*
X122601621Y-101403329D01*
X122601618Y-101403334D01*
X122554415Y-101504562D01*
X122510880Y-101597924D01*
X122453885Y-101810629D01*
X122434693Y-102030000D01*
X120553635Y-102030000D01*
X120548840Y-101837997D01*
X120548808Y-101833571D01*
X120557898Y-100939101D01*
X120560134Y-100719097D01*
X120560256Y-100714689D01*
X120571768Y-100460721D01*
X120594108Y-99967834D01*
X120607148Y-99680161D01*
X123012393Y-99680161D01*
X123021687Y-99692175D01*
X123062088Y-99720464D01*
X123071584Y-99725947D01*
X123261113Y-99814326D01*
X123271405Y-99818072D01*
X123473401Y-99872196D01*
X123484196Y-99874099D01*
X123692525Y-99892326D01*
X123703475Y-99892326D01*
X123911804Y-99874099D01*
X123922599Y-99872196D01*
X124124595Y-99818072D01*
X124134887Y-99814326D01*
X124324416Y-99725947D01*
X124333912Y-99720464D01*
X124375148Y-99691590D01*
X124383523Y-99681112D01*
X124376457Y-99667668D01*
X123710811Y-99002021D01*
X123696868Y-98994408D01*
X123695034Y-98994539D01*
X123688420Y-98998790D01*
X123018820Y-99668391D01*
X123012393Y-99680161D01*
X120607148Y-99680161D01*
X120610724Y-99601258D01*
X120611002Y-99596840D01*
X120688490Y-98635475D01*
X122435674Y-98635475D01*
X122453901Y-98843804D01*
X122455804Y-98854599D01*
X122509928Y-99056595D01*
X122513674Y-99066887D01*
X122602054Y-99256417D01*
X122607534Y-99265907D01*
X122636411Y-99307149D01*
X122646887Y-99315523D01*
X122660334Y-99308455D01*
X123325979Y-98642811D01*
X123332356Y-98631132D01*
X124062408Y-98631132D01*
X124062539Y-98632966D01*
X124066790Y-98639580D01*
X124736391Y-99309180D01*
X124748161Y-99315607D01*
X124760176Y-99306311D01*
X124788466Y-99265907D01*
X124793946Y-99256417D01*
X124882326Y-99066887D01*
X124886072Y-99056595D01*
X124940196Y-98854599D01*
X124942099Y-98843804D01*
X124960326Y-98635475D01*
X124960326Y-98624525D01*
X124942099Y-98416196D01*
X124940196Y-98405401D01*
X124886072Y-98203405D01*
X124882326Y-98193113D01*
X124793946Y-98003583D01*
X124788466Y-97994093D01*
X124759589Y-97952851D01*
X124749113Y-97944477D01*
X124735666Y-97951545D01*
X124070021Y-98617189D01*
X124062408Y-98631132D01*
X123332356Y-98631132D01*
X123333592Y-98628868D01*
X123333461Y-98627034D01*
X123329210Y-98620420D01*
X122659609Y-97950820D01*
X122647839Y-97944393D01*
X122635824Y-97953689D01*
X122607534Y-97994093D01*
X122602054Y-98003583D01*
X122513674Y-98193113D01*
X122509928Y-98203405D01*
X122455804Y-98405401D01*
X122453901Y-98416196D01*
X122435674Y-98624525D01*
X122435674Y-98635475D01*
X120688490Y-98635475D01*
X120700547Y-98485885D01*
X120700980Y-98481480D01*
X120805750Y-97578887D01*
X123012477Y-97578887D01*
X123019545Y-97592334D01*
X123685189Y-98257979D01*
X123699132Y-98265592D01*
X123700966Y-98265461D01*
X123707580Y-98261210D01*
X124377180Y-97591609D01*
X124383607Y-97579839D01*
X124374313Y-97567825D01*
X124333912Y-97539536D01*
X124324416Y-97534053D01*
X124134887Y-97445674D01*
X124124595Y-97441928D01*
X123922599Y-97387804D01*
X123911804Y-97385901D01*
X123703475Y-97367674D01*
X123692525Y-97367674D01*
X123484196Y-97385901D01*
X123473401Y-97387804D01*
X123271405Y-97441928D01*
X123261113Y-97445674D01*
X123071583Y-97534054D01*
X123062093Y-97539534D01*
X123020851Y-97568411D01*
X123012477Y-97578887D01*
X120805750Y-97578887D01*
X120829493Y-97374346D01*
X120830081Y-97369958D01*
X120880507Y-97037865D01*
X120997403Y-96268028D01*
X120998141Y-96263682D01*
X121004070Y-96232147D01*
X121175276Y-95321445D01*
X121204063Y-95168318D01*
X121204957Y-95163982D01*
X121412738Y-94238968D01*
X121449232Y-94076502D01*
X121450276Y-94072209D01*
X121505358Y-93861846D01*
X121679462Y-93196918D01*
X126510917Y-93196918D01*
X126526682Y-93470320D01*
X126527507Y-93474525D01*
X126527508Y-93474533D01*
X126538127Y-93528657D01*
X126579405Y-93739053D01*
X126580792Y-93743103D01*
X126580793Y-93743108D01*
X126645087Y-93930895D01*
X126668112Y-93998144D01*
X126707526Y-94076510D01*
X126761112Y-94183054D01*
X126791160Y-94242799D01*
X126793586Y-94246328D01*
X126793589Y-94246334D01*
X126915506Y-94423723D01*
X126946274Y-94468490D01*
X126949161Y-94471663D01*
X126949162Y-94471664D01*
X127103225Y-94640978D01*
X127130582Y-94671043D01*
X127133877Y-94673798D01*
X127133878Y-94673799D01*
X127213115Y-94740051D01*
X127340675Y-94846707D01*
X127344316Y-94848991D01*
X127569024Y-94989951D01*
X127569028Y-94989953D01*
X127572664Y-94992234D01*
X127640544Y-95022883D01*
X127818345Y-95103164D01*
X127818349Y-95103166D01*
X127822257Y-95104930D01*
X127870547Y-95119234D01*
X128080723Y-95181491D01*
X128080727Y-95181492D01*
X128084836Y-95182709D01*
X128089070Y-95183357D01*
X128089075Y-95183358D01*
X128351298Y-95223483D01*
X128351300Y-95223483D01*
X128355540Y-95224132D01*
X128494912Y-95226322D01*
X128625071Y-95228367D01*
X128625077Y-95228367D01*
X128629362Y-95228434D01*
X128901235Y-95195534D01*
X129166127Y-95126041D01*
X129170087Y-95124401D01*
X129170092Y-95124399D01*
X129292632Y-95073641D01*
X129419136Y-95021241D01*
X129655582Y-94883073D01*
X129871089Y-94714094D01*
X129901845Y-94682357D01*
X130058686Y-94520509D01*
X130061669Y-94517431D01*
X130064202Y-94513983D01*
X130064206Y-94513978D01*
X130221257Y-94300178D01*
X130223795Y-94296723D01*
X130251154Y-94246334D01*
X130352418Y-94059830D01*
X130352419Y-94059828D01*
X130354468Y-94056054D01*
X130451269Y-93799877D01*
X130496696Y-93601533D01*
X130511449Y-93537117D01*
X130511450Y-93537113D01*
X130512407Y-93532933D01*
X130529180Y-93345000D01*
X130536531Y-93262627D01*
X130536531Y-93262625D01*
X130536751Y-93260161D01*
X130537193Y-93218000D01*
X130530873Y-93125291D01*
X130518859Y-92949055D01*
X130518858Y-92949049D01*
X130518567Y-92944778D01*
X130515349Y-92929236D01*
X130486944Y-92792077D01*
X130484456Y-92780062D01*
X134358872Y-92780062D01*
X134368168Y-92792077D01*
X134419373Y-92827931D01*
X134428868Y-92833414D01*
X134626326Y-92925490D01*
X134636618Y-92929236D01*
X134847067Y-92985625D01*
X134857860Y-92987528D01*
X135074904Y-93006517D01*
X135085854Y-93006517D01*
X135302898Y-92987528D01*
X135313691Y-92985625D01*
X135524140Y-92929236D01*
X135534432Y-92925490D01*
X135731890Y-92833414D01*
X135741385Y-92827931D01*
X135793427Y-92791491D01*
X135801803Y-92781012D01*
X135794735Y-92767566D01*
X135093191Y-92066022D01*
X135079247Y-92058408D01*
X135077414Y-92058539D01*
X135070799Y-92062790D01*
X134365302Y-92768287D01*
X134358872Y-92780062D01*
X130484456Y-92780062D01*
X130463032Y-92676612D01*
X130371617Y-92418465D01*
X130246013Y-92175112D01*
X130236040Y-92160921D01*
X130091008Y-91954562D01*
X130088545Y-91951057D01*
X129902125Y-91750445D01*
X129898810Y-91747731D01*
X129898806Y-91747728D01*
X129839852Y-91699475D01*
X133767862Y-91699475D01*
X133786851Y-91916519D01*
X133788754Y-91927312D01*
X133845143Y-92137761D01*
X133848889Y-92148053D01*
X133940965Y-92345511D01*
X133946448Y-92355006D01*
X133982888Y-92407048D01*
X133993367Y-92415424D01*
X134006813Y-92408356D01*
X134708357Y-91706812D01*
X134714735Y-91695132D01*
X135444787Y-91695132D01*
X135444918Y-91696965D01*
X135449169Y-91703580D01*
X136154666Y-92409077D01*
X136196408Y-92431871D01*
X136206408Y-92434047D01*
X136256606Y-92484253D01*
X136271830Y-92537814D01*
X136271879Y-92538719D01*
X136271879Y-92542134D01*
X136278634Y-92604316D01*
X136329764Y-92740705D01*
X136417118Y-92857261D01*
X136533674Y-92944615D01*
X136670063Y-92995745D01*
X136697293Y-92998703D01*
X136709487Y-93000028D01*
X136775049Y-93027270D01*
X136815475Y-93085634D01*
X136821879Y-93125291D01*
X136821879Y-96418170D01*
X136815712Y-96457106D01*
X136774458Y-96584072D01*
X136773768Y-96590633D01*
X136773768Y-96590635D01*
X136767655Y-96648797D01*
X136754496Y-96774000D01*
X136774458Y-96963928D01*
X136833473Y-97145556D01*
X136928960Y-97310944D01*
X136933378Y-97315851D01*
X136933379Y-97315852D01*
X137024548Y-97417105D01*
X137056747Y-97452866D01*
X137151888Y-97521990D01*
X137176038Y-97539536D01*
X137211248Y-97565118D01*
X137217276Y-97567802D01*
X137217278Y-97567803D01*
X137326807Y-97616568D01*
X137385712Y-97642794D01*
X137479113Y-97662647D01*
X137566056Y-97681128D01*
X137566061Y-97681128D01*
X137572513Y-97682500D01*
X137763487Y-97682500D01*
X137769939Y-97681128D01*
X137769944Y-97681128D01*
X137856887Y-97662647D01*
X137950288Y-97642794D01*
X138009193Y-97616568D01*
X138118722Y-97567803D01*
X138118724Y-97567802D01*
X138124752Y-97565118D01*
X138159963Y-97539536D01*
X138184112Y-97521990D01*
X138279253Y-97452866D01*
X138311452Y-97417105D01*
X138402621Y-97315852D01*
X138402622Y-97315851D01*
X138407040Y-97310944D01*
X138502527Y-97145556D01*
X138561542Y-96963928D01*
X138581504Y-96774000D01*
X138568345Y-96648797D01*
X138562232Y-96590635D01*
X138562232Y-96590633D01*
X138561542Y-96584072D01*
X138502527Y-96402444D01*
X138407040Y-96237056D01*
X138371242Y-96197298D01*
X138340525Y-96133290D01*
X138338879Y-96112988D01*
X138338879Y-93125291D01*
X138358881Y-93057170D01*
X138412537Y-93010677D01*
X138451271Y-93000028D01*
X138463465Y-92998703D01*
X138490695Y-92995745D01*
X138627084Y-92944615D01*
X138743640Y-92857261D01*
X138830994Y-92740705D01*
X138882124Y-92604316D01*
X138886407Y-92564892D01*
X138913649Y-92499330D01*
X138972013Y-92458904D01*
X139011670Y-92452500D01*
X140648930Y-92452500D01*
X140667880Y-92453933D01*
X140682115Y-92456099D01*
X140682119Y-92456099D01*
X140689349Y-92457199D01*
X140696641Y-92456606D01*
X140696644Y-92456606D01*
X140742018Y-92452915D01*
X140752233Y-92452500D01*
X140760293Y-92452500D01*
X140773583Y-92450951D01*
X140788507Y-92449211D01*
X140792882Y-92448778D01*
X140858339Y-92443454D01*
X140858342Y-92443453D01*
X140865637Y-92442860D01*
X140872601Y-92440604D01*
X140878560Y-92439413D01*
X140884415Y-92438029D01*
X140891681Y-92437182D01*
X140960327Y-92412265D01*
X140964455Y-92410848D01*
X141026936Y-92390607D01*
X141026938Y-92390606D01*
X141033899Y-92388351D01*
X141040154Y-92384555D01*
X141045628Y-92382049D01*
X141051058Y-92379330D01*
X141057937Y-92376833D01*
X141064058Y-92372820D01*
X141118976Y-92336814D01*
X141122680Y-92334477D01*
X141185107Y-92296595D01*
X141193484Y-92289197D01*
X141193508Y-92289224D01*
X141196500Y-92286571D01*
X141199733Y-92283868D01*
X141205852Y-92279856D01*
X141259128Y-92223617D01*
X141261506Y-92221175D01*
X143031331Y-90451350D01*
X143094228Y-90417199D01*
X143150824Y-90405169D01*
X143150833Y-90405166D01*
X143157288Y-90403794D01*
X143163319Y-90401109D01*
X143325722Y-90328803D01*
X143325724Y-90328802D01*
X143331752Y-90326118D01*
X143486253Y-90213866D01*
X143553654Y-90139010D01*
X143609621Y-90076852D01*
X143609622Y-90076851D01*
X143614040Y-90071944D01*
X143685305Y-89948509D01*
X143706223Y-89912279D01*
X143706224Y-89912278D01*
X143709527Y-89906556D01*
X143768542Y-89724928D01*
X143788504Y-89535000D01*
X143768542Y-89345072D01*
X143709527Y-89163444D01*
X143650381Y-89061000D01*
X143633500Y-88998001D01*
X143633500Y-86427063D01*
X143634933Y-86408114D01*
X143637097Y-86393886D01*
X143638198Y-86386651D01*
X143633915Y-86333990D01*
X143633500Y-86323777D01*
X143633500Y-86315707D01*
X143633078Y-86312087D01*
X143633077Y-86312069D01*
X143630208Y-86287461D01*
X143629775Y-86283086D01*
X143624454Y-86217661D01*
X143624453Y-86217658D01*
X143623860Y-86210363D01*
X143621604Y-86203399D01*
X143620413Y-86197440D01*
X143619029Y-86191585D01*
X143618182Y-86184319D01*
X143593265Y-86115673D01*
X143591848Y-86111545D01*
X143571607Y-86049064D01*
X143571606Y-86049062D01*
X143569351Y-86042101D01*
X143565555Y-86035846D01*
X143563049Y-86030372D01*
X143560330Y-86024942D01*
X143557833Y-86018063D01*
X143517809Y-85957016D01*
X143515472Y-85953312D01*
X143515174Y-85952820D01*
X143501241Y-85929859D01*
X143480509Y-85895693D01*
X143480505Y-85895688D01*
X143477595Y-85890892D01*
X143471722Y-85884242D01*
X143470197Y-85882516D01*
X143470223Y-85882493D01*
X143467574Y-85879503D01*
X143464866Y-85876264D01*
X143460856Y-85870148D01*
X143455549Y-85865121D01*
X143455546Y-85865117D01*
X143404617Y-85816872D01*
X143402175Y-85814494D01*
X141255125Y-83667444D01*
X141224387Y-83617285D01*
X141224180Y-83616646D01*
X141169527Y-83448444D01*
X141074040Y-83283056D01*
X141038978Y-83244115D01*
X140950675Y-83146045D01*
X140950674Y-83146044D01*
X140946253Y-83141134D01*
X140815049Y-83045808D01*
X140797094Y-83032763D01*
X140797093Y-83032762D01*
X140791752Y-83028882D01*
X140785724Y-83026198D01*
X140785722Y-83026197D01*
X140623319Y-82953891D01*
X140623318Y-82953891D01*
X140617288Y-82951206D01*
X140610833Y-82949834D01*
X140610824Y-82949831D01*
X140554228Y-82937801D01*
X140491331Y-82903650D01*
X138590405Y-81002724D01*
X138556379Y-80940412D01*
X138553500Y-80913629D01*
X138553500Y-77371999D01*
X138570381Y-77308999D01*
X138626223Y-77212279D01*
X138626224Y-77212278D01*
X138629527Y-77206556D01*
X138688542Y-77024928D01*
X138700357Y-76912520D01*
X138707814Y-76841565D01*
X138708504Y-76835000D01*
X138706419Y-76815164D01*
X138689232Y-76651635D01*
X138689232Y-76651633D01*
X138688542Y-76645072D01*
X138629527Y-76463444D01*
X138609494Y-76428745D01*
X138563452Y-76348999D01*
X138534040Y-76298056D01*
X138445675Y-76199916D01*
X138410675Y-76161045D01*
X138410674Y-76161044D01*
X138406253Y-76156134D01*
X138251752Y-76043882D01*
X138245724Y-76041198D01*
X138245722Y-76041197D01*
X138083319Y-75968891D01*
X138083318Y-75968891D01*
X138077288Y-75966206D01*
X137983888Y-75946353D01*
X137896944Y-75927872D01*
X137896939Y-75927872D01*
X137890487Y-75926500D01*
X137699513Y-75926500D01*
X137693061Y-75927872D01*
X137693056Y-75927872D01*
X137606112Y-75946353D01*
X137512712Y-75966206D01*
X137506682Y-75968891D01*
X137506681Y-75968891D01*
X137344278Y-76041197D01*
X137344276Y-76041198D01*
X137338248Y-76043882D01*
X137183747Y-76156134D01*
X137179326Y-76161044D01*
X137179325Y-76161045D01*
X137144326Y-76199916D01*
X137055960Y-76298056D01*
X137026548Y-76348999D01*
X136980507Y-76428745D01*
X136960473Y-76463444D01*
X136901458Y-76645072D01*
X136900768Y-76651633D01*
X136900768Y-76651635D01*
X136883581Y-76815164D01*
X136881496Y-76835000D01*
X136882186Y-76841565D01*
X136889644Y-76912520D01*
X136901458Y-77024928D01*
X136960473Y-77206556D01*
X136963776Y-77212278D01*
X136963777Y-77212279D01*
X137019619Y-77308999D01*
X137036500Y-77371999D01*
X137036500Y-81212930D01*
X137035067Y-81231880D01*
X137031801Y-81253349D01*
X137032394Y-81260641D01*
X137032394Y-81260644D01*
X137036085Y-81306018D01*
X137036500Y-81316233D01*
X137036500Y-81324293D01*
X137036925Y-81327937D01*
X137039789Y-81352507D01*
X137040222Y-81356882D01*
X137042713Y-81387500D01*
X137046140Y-81429637D01*
X137048396Y-81436601D01*
X137049587Y-81442560D01*
X137050971Y-81448415D01*
X137051818Y-81455681D01*
X137076735Y-81524327D01*
X137078152Y-81528455D01*
X137100649Y-81597899D01*
X137104445Y-81604154D01*
X137106951Y-81609628D01*
X137109670Y-81615058D01*
X137112167Y-81621937D01*
X137116180Y-81628057D01*
X137116180Y-81628058D01*
X137152186Y-81682976D01*
X137154523Y-81686680D01*
X137192405Y-81749107D01*
X137196121Y-81753315D01*
X137196122Y-81753316D01*
X137199803Y-81757484D01*
X137199776Y-81757508D01*
X137202429Y-81760500D01*
X137205132Y-81763733D01*
X137209144Y-81769852D01*
X137214456Y-81774884D01*
X137265383Y-81823128D01*
X137267825Y-81825506D01*
X139414875Y-83972556D01*
X139445613Y-84022714D01*
X139500473Y-84191556D01*
X139503776Y-84197278D01*
X139503777Y-84197279D01*
X139537686Y-84256010D01*
X139595960Y-84356944D01*
X139600378Y-84361851D01*
X139600379Y-84361852D01*
X139719325Y-84493955D01*
X139723747Y-84498866D01*
X139878248Y-84611118D01*
X139884276Y-84613802D01*
X139884278Y-84613803D01*
X140046681Y-84686109D01*
X140052712Y-84688794D01*
X140059167Y-84690166D01*
X140059176Y-84690169D01*
X140115772Y-84702199D01*
X140178669Y-84736350D01*
X142079595Y-86637276D01*
X142113621Y-86699588D01*
X142116500Y-86726371D01*
X142116500Y-88998001D01*
X142099619Y-89061000D01*
X142040473Y-89163444D01*
X142038431Y-89169729D01*
X141985613Y-89332285D01*
X141954875Y-89382444D01*
X140438724Y-90898595D01*
X140376412Y-90932621D01*
X140349629Y-90935500D01*
X139011670Y-90935500D01*
X138943549Y-90915498D01*
X138897056Y-90861842D01*
X138886407Y-90823108D01*
X138882977Y-90791540D01*
X138882124Y-90783684D01*
X138830994Y-90647295D01*
X138743640Y-90530739D01*
X138627084Y-90443385D01*
X138490695Y-90392255D01*
X138428513Y-90385500D01*
X136732245Y-90385500D01*
X136670063Y-90392255D01*
X136533674Y-90443385D01*
X136417118Y-90530739D01*
X136329764Y-90647295D01*
X136278634Y-90783684D01*
X136271879Y-90845866D01*
X136271879Y-90849185D01*
X136248226Y-90916110D01*
X136202223Y-90951804D01*
X136203238Y-90953734D01*
X136192379Y-90959442D01*
X136192134Y-90959632D01*
X136191976Y-90959653D01*
X136153945Y-90979644D01*
X135452401Y-91681188D01*
X135444787Y-91695132D01*
X134714735Y-91695132D01*
X134715971Y-91692868D01*
X134715840Y-91691035D01*
X134711589Y-91684420D01*
X134006092Y-90978923D01*
X133994317Y-90972493D01*
X133982302Y-90981789D01*
X133946448Y-91032994D01*
X133940965Y-91042489D01*
X133848889Y-91239947D01*
X133845143Y-91250239D01*
X133788754Y-91460688D01*
X133786851Y-91471481D01*
X133767862Y-91688525D01*
X133767862Y-91699475D01*
X129839852Y-91699475D01*
X129693523Y-91579706D01*
X129690205Y-91576990D01*
X129456704Y-91433901D01*
X129452768Y-91432173D01*
X129209873Y-91325549D01*
X129209869Y-91325548D01*
X129205945Y-91323825D01*
X128942566Y-91248800D01*
X128938324Y-91248196D01*
X128938318Y-91248195D01*
X128737834Y-91219662D01*
X128671443Y-91210213D01*
X128527589Y-91209460D01*
X128401877Y-91208802D01*
X128401871Y-91208802D01*
X128397591Y-91208780D01*
X128393347Y-91209339D01*
X128393343Y-91209339D01*
X128274302Y-91225011D01*
X128126078Y-91244525D01*
X128121938Y-91245658D01*
X128121936Y-91245658D01*
X128105191Y-91250239D01*
X127861928Y-91316788D01*
X127857980Y-91318472D01*
X127613982Y-91422546D01*
X127613978Y-91422548D01*
X127610030Y-91424232D01*
X127549116Y-91460688D01*
X127378725Y-91562664D01*
X127378721Y-91562667D01*
X127375043Y-91564868D01*
X127161318Y-91736094D01*
X127144717Y-91753588D01*
X126979859Y-91927312D01*
X126972808Y-91934742D01*
X126813002Y-92157136D01*
X126684857Y-92399161D01*
X126683385Y-92403184D01*
X126683383Y-92403188D01*
X126632711Y-92541656D01*
X126590743Y-92656337D01*
X126532404Y-92923907D01*
X126510917Y-93196918D01*
X121679462Y-93196918D01*
X121732591Y-92994013D01*
X121733786Y-92989753D01*
X121753049Y-92925490D01*
X121906168Y-92414656D01*
X122053810Y-91922097D01*
X122055156Y-91917880D01*
X122412464Y-90862184D01*
X122413956Y-90858017D01*
X122528890Y-90554041D01*
X122808150Y-89815455D01*
X122809779Y-89811366D01*
X122843352Y-89731206D01*
X123079627Y-89167053D01*
X123240341Y-88783318D01*
X123242123Y-88779266D01*
X123313238Y-88624918D01*
X127272917Y-88624918D01*
X127288682Y-88898320D01*
X127289507Y-88902525D01*
X127289508Y-88902533D01*
X127314862Y-89031762D01*
X127341405Y-89167053D01*
X127342792Y-89171103D01*
X127342793Y-89171108D01*
X127406482Y-89357128D01*
X127430112Y-89426144D01*
X127553160Y-89670799D01*
X127555586Y-89674328D01*
X127555589Y-89674334D01*
X127705843Y-89892953D01*
X127708274Y-89896490D01*
X127892582Y-90099043D01*
X128102675Y-90274707D01*
X128106316Y-90276991D01*
X128331024Y-90417951D01*
X128331028Y-90417953D01*
X128334664Y-90420234D01*
X128402544Y-90450883D01*
X128580345Y-90531164D01*
X128580349Y-90531166D01*
X128584257Y-90532930D01*
X128588377Y-90534150D01*
X128588376Y-90534150D01*
X128842723Y-90609491D01*
X128842727Y-90609492D01*
X128846836Y-90610709D01*
X128851070Y-90611357D01*
X128851075Y-90611358D01*
X129113298Y-90651483D01*
X129113300Y-90651483D01*
X129117540Y-90652132D01*
X129256912Y-90654322D01*
X129387071Y-90656367D01*
X129387077Y-90656367D01*
X129391362Y-90656434D01*
X129663235Y-90623534D01*
X129726305Y-90606988D01*
X134358955Y-90606988D01*
X134366023Y-90620434D01*
X135067567Y-91321978D01*
X135081511Y-91329592D01*
X135083344Y-91329461D01*
X135089959Y-91325210D01*
X135795456Y-90619713D01*
X135801886Y-90607938D01*
X135792590Y-90595923D01*
X135741385Y-90560069D01*
X135731890Y-90554586D01*
X135534432Y-90462510D01*
X135524140Y-90458764D01*
X135313691Y-90402375D01*
X135302898Y-90400472D01*
X135085854Y-90381483D01*
X135074904Y-90381483D01*
X134857860Y-90400472D01*
X134847067Y-90402375D01*
X134636618Y-90458764D01*
X134626326Y-90462510D01*
X134428868Y-90554586D01*
X134419373Y-90560069D01*
X134367331Y-90596509D01*
X134358955Y-90606988D01*
X129726305Y-90606988D01*
X129928127Y-90554041D01*
X129932087Y-90552401D01*
X129932092Y-90552399D01*
X130054632Y-90501641D01*
X130181136Y-90449241D01*
X130417582Y-90311073D01*
X130633089Y-90142094D01*
X130674809Y-90099043D01*
X130820686Y-89948509D01*
X130823669Y-89945431D01*
X130826202Y-89941983D01*
X130826206Y-89941978D01*
X130983257Y-89728178D01*
X130985795Y-89724723D01*
X131013154Y-89674334D01*
X131114418Y-89487830D01*
X131114419Y-89487828D01*
X131116468Y-89484054D01*
X131213269Y-89227877D01*
X131242961Y-89098234D01*
X131273449Y-88965117D01*
X131273450Y-88965113D01*
X131274407Y-88960933D01*
X131290440Y-88781292D01*
X131298531Y-88690627D01*
X131298531Y-88690625D01*
X131298751Y-88688161D01*
X131299193Y-88646000D01*
X131280567Y-88372778D01*
X131225032Y-88104612D01*
X131133617Y-87846465D01*
X131008013Y-87603112D01*
X130998040Y-87588921D01*
X130853008Y-87382562D01*
X130850545Y-87379057D01*
X130664125Y-87178445D01*
X130660810Y-87175731D01*
X130660806Y-87175728D01*
X130530069Y-87068721D01*
X130452205Y-87004990D01*
X130218704Y-86861901D01*
X130214768Y-86860173D01*
X129971873Y-86753549D01*
X129971869Y-86753548D01*
X129967945Y-86751825D01*
X129704566Y-86676800D01*
X129700324Y-86676196D01*
X129700318Y-86676195D01*
X129499834Y-86647662D01*
X129433443Y-86638213D01*
X129289589Y-86637460D01*
X129163877Y-86636802D01*
X129163871Y-86636802D01*
X129159591Y-86636780D01*
X129155347Y-86637339D01*
X129155343Y-86637339D01*
X129036302Y-86653011D01*
X128888078Y-86672525D01*
X128883938Y-86673658D01*
X128883936Y-86673658D01*
X128858838Y-86680524D01*
X128623928Y-86744788D01*
X128619980Y-86746472D01*
X128375982Y-86850546D01*
X128375978Y-86850548D01*
X128372030Y-86852232D01*
X128352125Y-86864145D01*
X128140725Y-86990664D01*
X128140721Y-86990667D01*
X128137043Y-86992868D01*
X127923318Y-87164094D01*
X127734808Y-87362742D01*
X127575002Y-87585136D01*
X127446857Y-87827161D01*
X127445385Y-87831184D01*
X127445383Y-87831188D01*
X127354214Y-88080317D01*
X127352743Y-88084337D01*
X127294404Y-88351907D01*
X127272917Y-88624918D01*
X123313238Y-88624918D01*
X123564159Y-88080317D01*
X123708520Y-87766996D01*
X123710432Y-87763030D01*
X123714266Y-87755425D01*
X124212108Y-86767745D01*
X124214170Y-86763827D01*
X124711563Y-85857703D01*
X134415743Y-85857703D01*
X134416302Y-85861947D01*
X134416302Y-85861951D01*
X134426026Y-85935814D01*
X134453268Y-86142734D01*
X134529129Y-86420036D01*
X134530813Y-86423984D01*
X134637532Y-86674181D01*
X134641923Y-86684476D01*
X134716473Y-86809040D01*
X134747076Y-86860173D01*
X134789561Y-86931161D01*
X134969313Y-87155528D01*
X135177851Y-87353423D01*
X135411317Y-87521186D01*
X135415112Y-87523195D01*
X135415113Y-87523196D01*
X135436869Y-87534715D01*
X135665392Y-87655712D01*
X135935373Y-87754511D01*
X136216264Y-87815755D01*
X136244841Y-87818004D01*
X136439282Y-87833307D01*
X136439291Y-87833307D01*
X136441739Y-87833500D01*
X136597271Y-87833500D01*
X136599407Y-87833354D01*
X136599418Y-87833354D01*
X136807548Y-87819165D01*
X136807554Y-87819164D01*
X136811825Y-87818873D01*
X136816020Y-87818004D01*
X136816022Y-87818004D01*
X136952584Y-87789723D01*
X137093342Y-87760574D01*
X137364343Y-87664607D01*
X137619812Y-87532750D01*
X137623313Y-87530289D01*
X137623317Y-87530287D01*
X137842964Y-87375916D01*
X137855023Y-87367441D01*
X137933403Y-87294606D01*
X138062479Y-87174661D01*
X138062481Y-87174658D01*
X138065622Y-87171740D01*
X138247713Y-86949268D01*
X138397927Y-86704142D01*
X138426878Y-86638191D01*
X138511757Y-86444830D01*
X138513483Y-86440898D01*
X138520139Y-86417534D01*
X138580757Y-86204732D01*
X138592244Y-86164406D01*
X138632751Y-85879784D01*
X138632781Y-85874223D01*
X138634235Y-85596583D01*
X138634235Y-85596576D01*
X138634257Y-85592297D01*
X138596732Y-85307266D01*
X138520871Y-85029964D01*
X138483991Y-84943500D01*
X138409763Y-84769476D01*
X138409761Y-84769472D01*
X138408077Y-84765524D01*
X138285293Y-84560367D01*
X138262643Y-84522521D01*
X138262640Y-84522517D01*
X138260439Y-84518839D01*
X138080687Y-84294472D01*
X137872149Y-84096577D01*
X137638683Y-83928814D01*
X137616843Y-83917250D01*
X137494568Y-83852509D01*
X137384608Y-83794288D01*
X137114627Y-83695489D01*
X136833736Y-83634245D01*
X136802685Y-83631801D01*
X136610718Y-83616693D01*
X136610709Y-83616693D01*
X136608261Y-83616500D01*
X136452729Y-83616500D01*
X136450593Y-83616646D01*
X136450582Y-83616646D01*
X136242452Y-83630835D01*
X136242446Y-83630836D01*
X136238175Y-83631127D01*
X136233980Y-83631996D01*
X136233978Y-83631996D01*
X136097416Y-83660277D01*
X135956658Y-83689426D01*
X135685657Y-83785393D01*
X135430188Y-83917250D01*
X135426687Y-83919711D01*
X135426683Y-83919713D01*
X135416594Y-83926804D01*
X135194977Y-84082559D01*
X135179892Y-84096577D01*
X135018496Y-84246556D01*
X134984378Y-84278260D01*
X134802287Y-84500732D01*
X134652073Y-84745858D01*
X134536517Y-85009102D01*
X134535342Y-85013229D01*
X134535341Y-85013230D01*
X134497137Y-85147348D01*
X134457756Y-85285594D01*
X134417249Y-85570216D01*
X134417227Y-85574505D01*
X134417226Y-85574512D01*
X134415765Y-85853417D01*
X134415743Y-85857703D01*
X124711563Y-85857703D01*
X124750492Y-85786785D01*
X124752690Y-85782943D01*
X125322993Y-84825355D01*
X125325324Y-84821593D01*
X125928907Y-83884632D01*
X125931369Y-83880953D01*
X126273972Y-83388054D01*
X126567514Y-82965739D01*
X126570094Y-82962162D01*
X126588329Y-82937801D01*
X126894382Y-82528918D01*
X128288917Y-82528918D01*
X128304682Y-82802320D01*
X128305507Y-82806525D01*
X128305508Y-82806533D01*
X128323887Y-82900211D01*
X128357405Y-83071053D01*
X128358792Y-83075103D01*
X128358793Y-83075108D01*
X128444326Y-83324928D01*
X128446112Y-83330144D01*
X128569160Y-83574799D01*
X128571586Y-83578328D01*
X128571589Y-83578334D01*
X128713898Y-83785393D01*
X128724274Y-83800490D01*
X128908582Y-84003043D01*
X128911877Y-84005798D01*
X128911878Y-84005799D01*
X129000737Y-84080096D01*
X129118675Y-84178707D01*
X129122316Y-84180991D01*
X129347024Y-84321951D01*
X129347028Y-84321953D01*
X129350664Y-84324234D01*
X129470269Y-84378238D01*
X129596345Y-84435164D01*
X129596349Y-84435166D01*
X129600257Y-84436930D01*
X129604377Y-84438150D01*
X129604376Y-84438150D01*
X129858723Y-84513491D01*
X129858727Y-84513492D01*
X129862836Y-84514709D01*
X129867070Y-84515357D01*
X129867075Y-84515358D01*
X130129298Y-84555483D01*
X130129300Y-84555483D01*
X130133540Y-84556132D01*
X130272912Y-84558322D01*
X130403071Y-84560367D01*
X130403077Y-84560367D01*
X130407362Y-84560434D01*
X130679235Y-84527534D01*
X130944127Y-84458041D01*
X130948087Y-84456401D01*
X130948092Y-84456399D01*
X131176347Y-84361852D01*
X131197136Y-84353241D01*
X131319771Y-84281579D01*
X131429879Y-84217237D01*
X131429880Y-84217236D01*
X131433582Y-84215073D01*
X131649089Y-84046094D01*
X131684137Y-84009928D01*
X131836686Y-83852509D01*
X131839669Y-83849431D01*
X131842202Y-83845983D01*
X131842206Y-83845978D01*
X131997739Y-83634245D01*
X132001795Y-83628723D01*
X132029154Y-83578334D01*
X132130418Y-83391830D01*
X132130419Y-83391828D01*
X132132468Y-83388054D01*
X132190746Y-83233826D01*
X132227751Y-83135895D01*
X132227752Y-83135891D01*
X132229269Y-83131877D01*
X132267145Y-82966500D01*
X132289449Y-82869117D01*
X132289450Y-82869113D01*
X132290407Y-82864933D01*
X132293773Y-82827226D01*
X132314531Y-82594627D01*
X132314531Y-82594625D01*
X132314751Y-82592161D01*
X132315193Y-82550000D01*
X132310378Y-82479365D01*
X132296859Y-82281055D01*
X132296858Y-82281049D01*
X132296567Y-82276778D01*
X132291494Y-82252279D01*
X132252995Y-82066380D01*
X132241032Y-82008612D01*
X132149617Y-81750465D01*
X132080800Y-81617134D01*
X132025978Y-81510919D01*
X132025978Y-81510918D01*
X132024013Y-81507112D01*
X132014040Y-81492921D01*
X131906817Y-81340358D01*
X131866545Y-81283057D01*
X131787598Y-81198100D01*
X131683046Y-81085588D01*
X131683043Y-81085585D01*
X131680125Y-81082445D01*
X131676810Y-81079731D01*
X131676806Y-81079728D01*
X131506595Y-80940412D01*
X131468205Y-80908990D01*
X131234704Y-80765901D01*
X131230768Y-80764173D01*
X130987873Y-80657549D01*
X130987869Y-80657548D01*
X130983945Y-80655825D01*
X130720566Y-80580800D01*
X130716324Y-80580196D01*
X130716318Y-80580195D01*
X130502772Y-80549803D01*
X130449443Y-80542213D01*
X130305589Y-80541460D01*
X130179877Y-80540802D01*
X130179871Y-80540802D01*
X130175591Y-80540780D01*
X130171347Y-80541339D01*
X130171343Y-80541339D01*
X130052302Y-80557011D01*
X129904078Y-80576525D01*
X129899938Y-80577658D01*
X129899936Y-80577658D01*
X129827008Y-80597609D01*
X129639928Y-80648788D01*
X129635980Y-80650472D01*
X129391982Y-80754546D01*
X129391978Y-80754548D01*
X129388030Y-80756232D01*
X129368125Y-80768145D01*
X129156725Y-80894664D01*
X129156721Y-80894667D01*
X129153043Y-80896868D01*
X128939318Y-81068094D01*
X128862319Y-81149234D01*
X128754217Y-81263150D01*
X128750808Y-81266742D01*
X128591002Y-81489136D01*
X128462857Y-81731161D01*
X128461385Y-81735184D01*
X128461383Y-81735188D01*
X128428780Y-81824279D01*
X128368743Y-81988337D01*
X128310404Y-82255907D01*
X128288917Y-82528918D01*
X126894382Y-82528918D01*
X127237983Y-82069871D01*
X127240693Y-82066380D01*
X127287187Y-82008612D01*
X127483435Y-81764774D01*
X127939512Y-81198100D01*
X127942348Y-81194701D01*
X128671209Y-80351530D01*
X128674162Y-80348232D01*
X129432225Y-79531146D01*
X129435292Y-79527955D01*
X129608522Y-79353918D01*
X131336917Y-79353918D01*
X131352682Y-79627320D01*
X131353507Y-79631525D01*
X131353508Y-79631533D01*
X131364127Y-79685657D01*
X131405405Y-79896053D01*
X131406792Y-79900103D01*
X131406793Y-79900108D01*
X131484666Y-80127556D01*
X131494112Y-80155144D01*
X131617160Y-80399799D01*
X131619586Y-80403328D01*
X131619589Y-80403334D01*
X131714054Y-80540780D01*
X131772274Y-80625490D01*
X131775161Y-80628663D01*
X131775162Y-80628664D01*
X131801445Y-80657549D01*
X131956582Y-80828043D01*
X132166675Y-81003707D01*
X132170316Y-81005991D01*
X132395024Y-81146951D01*
X132395028Y-81146953D01*
X132398664Y-81149234D01*
X132506890Y-81198100D01*
X132644345Y-81260164D01*
X132644349Y-81260166D01*
X132648257Y-81261930D01*
X132708977Y-81279916D01*
X132906723Y-81338491D01*
X132906727Y-81338492D01*
X132910836Y-81339709D01*
X132915070Y-81340357D01*
X132915075Y-81340358D01*
X133177298Y-81380483D01*
X133177300Y-81380483D01*
X133181540Y-81381132D01*
X133320912Y-81383322D01*
X133451071Y-81385367D01*
X133451077Y-81385367D01*
X133455362Y-81385434D01*
X133727235Y-81352534D01*
X133992127Y-81283041D01*
X133996087Y-81281401D01*
X133996092Y-81281399D01*
X134138382Y-81222460D01*
X134245136Y-81178241D01*
X134399970Y-81087763D01*
X134477879Y-81042237D01*
X134477880Y-81042236D01*
X134481582Y-81040073D01*
X134697089Y-80871094D01*
X134738809Y-80828043D01*
X134884686Y-80677509D01*
X134887669Y-80674431D01*
X134890202Y-80670983D01*
X134890206Y-80670978D01*
X135047257Y-80457178D01*
X135049795Y-80453723D01*
X135077154Y-80403334D01*
X135178418Y-80216830D01*
X135178419Y-80216828D01*
X135180468Y-80213054D01*
X135277269Y-79956877D01*
X135338407Y-79689933D01*
X135348876Y-79572635D01*
X135362531Y-79419627D01*
X135362531Y-79419625D01*
X135362751Y-79417161D01*
X135363193Y-79375000D01*
X135356256Y-79273241D01*
X135344859Y-79106055D01*
X135344858Y-79106049D01*
X135344567Y-79101778D01*
X135340481Y-79082045D01*
X135289901Y-78837809D01*
X135289032Y-78833612D01*
X135197617Y-78575465D01*
X135072013Y-78332112D01*
X135062040Y-78317921D01*
X134917008Y-78111562D01*
X134914545Y-78108057D01*
X134844466Y-78032643D01*
X134731046Y-77910588D01*
X134731043Y-77910585D01*
X134728125Y-77907445D01*
X134724810Y-77904731D01*
X134724806Y-77904728D01*
X134519523Y-77736706D01*
X134516205Y-77733990D01*
X134282704Y-77590901D01*
X134278768Y-77589173D01*
X134035873Y-77482549D01*
X134035869Y-77482548D01*
X134031945Y-77480825D01*
X133768566Y-77405800D01*
X133764324Y-77405196D01*
X133764318Y-77405195D01*
X133563834Y-77376662D01*
X133497443Y-77367213D01*
X133353589Y-77366460D01*
X133227877Y-77365802D01*
X133227871Y-77365802D01*
X133223591Y-77365780D01*
X133219347Y-77366339D01*
X133219343Y-77366339D01*
X133100302Y-77382011D01*
X132952078Y-77401525D01*
X132947938Y-77402658D01*
X132947936Y-77402658D01*
X132875008Y-77422609D01*
X132687928Y-77473788D01*
X132683980Y-77475472D01*
X132439982Y-77579546D01*
X132439978Y-77579548D01*
X132436030Y-77581232D01*
X132416125Y-77593145D01*
X132204725Y-77719664D01*
X132204721Y-77719667D01*
X132201043Y-77721868D01*
X131987318Y-77893094D01*
X131970717Y-77910588D01*
X131824254Y-78064928D01*
X131798808Y-78091742D01*
X131639002Y-78314136D01*
X131510857Y-78556161D01*
X131509385Y-78560184D01*
X131509383Y-78560188D01*
X131449559Y-78723664D01*
X131416743Y-78813337D01*
X131358404Y-79080907D01*
X131336917Y-79353918D01*
X129608522Y-79353918D01*
X129994549Y-78966094D01*
X130221566Y-78738021D01*
X130224734Y-78734947D01*
X130240173Y-78720490D01*
X131038278Y-77973111D01*
X131041561Y-77970143D01*
X131258718Y-77780657D01*
X131881375Y-77237342D01*
X131884754Y-77234497D01*
X131931970Y-77196134D01*
X132749778Y-76531657D01*
X132753262Y-76528927D01*
X133210133Y-76183633D01*
X133642407Y-75856929D01*
X133645981Y-75854324D01*
X133896029Y-75678794D01*
X134558240Y-75213931D01*
X134561900Y-75211457D01*
X134585446Y-75196134D01*
X135026784Y-74908918D01*
X162451917Y-74908918D01*
X162467682Y-75182320D01*
X162468507Y-75186525D01*
X162468508Y-75186533D01*
X162479127Y-75240657D01*
X162520405Y-75451053D01*
X162521792Y-75455103D01*
X162521793Y-75455108D01*
X162601580Y-75688145D01*
X162609112Y-75710144D01*
X162732160Y-75954799D01*
X162734586Y-75958328D01*
X162734589Y-75958334D01*
X162867866Y-76152251D01*
X162887274Y-76180490D01*
X162890161Y-76183663D01*
X162890162Y-76183664D01*
X163067210Y-76378238D01*
X163071582Y-76383043D01*
X163281675Y-76558707D01*
X163285316Y-76560991D01*
X163510024Y-76701951D01*
X163510028Y-76701953D01*
X163513664Y-76704234D01*
X163581544Y-76734883D01*
X163759345Y-76815164D01*
X163759349Y-76815166D01*
X163763257Y-76816930D01*
X163824261Y-76835000D01*
X164021723Y-76893491D01*
X164021727Y-76893492D01*
X164025836Y-76894709D01*
X164030070Y-76895357D01*
X164030075Y-76895358D01*
X164292298Y-76935483D01*
X164292300Y-76935483D01*
X164296540Y-76936132D01*
X164435912Y-76938322D01*
X164566071Y-76940367D01*
X164566077Y-76940367D01*
X164570362Y-76940434D01*
X164842235Y-76907534D01*
X165107127Y-76838041D01*
X165111087Y-76836401D01*
X165111092Y-76836399D01*
X165233632Y-76785641D01*
X165360136Y-76733241D01*
X165596582Y-76595073D01*
X165812089Y-76426094D01*
X165828523Y-76409136D01*
X165999686Y-76232509D01*
X166002669Y-76229431D01*
X166005202Y-76225983D01*
X166005206Y-76225978D01*
X166162257Y-76012178D01*
X166164795Y-76008723D01*
X166192154Y-75958334D01*
X166293418Y-75771830D01*
X166293419Y-75771828D01*
X166295468Y-75768054D01*
X166392269Y-75511877D01*
X166453407Y-75244933D01*
X166456174Y-75213936D01*
X166477531Y-74974627D01*
X166477531Y-74974625D01*
X166477751Y-74972161D01*
X166478193Y-74930000D01*
X166459567Y-74656778D01*
X166404032Y-74388612D01*
X166312617Y-74130465D01*
X166187013Y-73887112D01*
X166177040Y-73872921D01*
X166032008Y-73666562D01*
X166029545Y-73663057D01*
X165843125Y-73462445D01*
X165839810Y-73459731D01*
X165839806Y-73459728D01*
X165634523Y-73291706D01*
X165631205Y-73288990D01*
X165397704Y-73145901D01*
X165393768Y-73144173D01*
X165150873Y-73037549D01*
X165150869Y-73037548D01*
X165146945Y-73035825D01*
X164883566Y-72960800D01*
X164879324Y-72960196D01*
X164879318Y-72960195D01*
X164678834Y-72931662D01*
X164612443Y-72922213D01*
X164468589Y-72921460D01*
X164342877Y-72920802D01*
X164342871Y-72920802D01*
X164338591Y-72920780D01*
X164334347Y-72921339D01*
X164334343Y-72921339D01*
X164215302Y-72937011D01*
X164067078Y-72956525D01*
X164062938Y-72957658D01*
X164062936Y-72957658D01*
X164006643Y-72973058D01*
X163802928Y-73028788D01*
X163798980Y-73030472D01*
X163554982Y-73134546D01*
X163554978Y-73134548D01*
X163551030Y-73136232D01*
X163531125Y-73148145D01*
X163319725Y-73274664D01*
X163319721Y-73274667D01*
X163316043Y-73276868D01*
X163102318Y-73448094D01*
X162913808Y-73646742D01*
X162754002Y-73869136D01*
X162625857Y-74111161D01*
X162624385Y-74115184D01*
X162624383Y-74115188D01*
X162558581Y-74295000D01*
X162531743Y-74368337D01*
X162473404Y-74635907D01*
X162451917Y-74908918D01*
X135026784Y-74908918D01*
X135439734Y-74640177D01*
X135496054Y-74603525D01*
X135499806Y-74601176D01*
X135893345Y-74364317D01*
X136454758Y-74026420D01*
X136458542Y-74024232D01*
X137433130Y-73483353D01*
X137437038Y-73481274D01*
X138429950Y-72974999D01*
X138433928Y-72973058D01*
X139444009Y-72501971D01*
X139448053Y-72500170D01*
X139684126Y-72400008D01*
X139733339Y-72390000D01*
X142198000Y-72390000D01*
X142266121Y-72410002D01*
G37*
%TD.AperFunction*%
%TD*%
M02*
