%TF.GenerationSoftware,KiCad,Pcbnew,(6.0.1)*%
%TF.CreationDate,2022-02-03T04:09:52+01:00*%
%TF.ProjectId,ESP8266_12F_BASIC,45535038-3236-4365-9f31-32465f424153,rev?*%
%TF.SameCoordinates,Original*%
%TF.FileFunction,Legend,Top*%
%TF.FilePolarity,Positive*%
%FSLAX46Y46*%
G04 Gerber Fmt 4.6, Leading zero omitted, Abs format (unit mm)*
G04 Created by KiCad (PCBNEW (6.0.1)) date 2022-02-03 04:09:52*
%MOMM*%
%LPD*%
G01*
G04 APERTURE LIST*
%ADD10C,0.150000*%
%ADD11C,0.120000*%
G04 APERTURE END LIST*
D10*
X151217380Y-122046904D02*
X151217380Y-121475476D01*
X152217380Y-121761190D02*
X151217380Y-121761190D01*
X151217380Y-121237380D02*
X152217380Y-120570714D01*
X151217380Y-120570714D02*
X152217380Y-121237380D01*
X149677380Y-121578666D02*
X149201190Y-121912000D01*
X149677380Y-122150095D02*
X148677380Y-122150095D01*
X148677380Y-121769142D01*
X148725000Y-121673904D01*
X148772619Y-121626285D01*
X148867857Y-121578666D01*
X149010714Y-121578666D01*
X149105952Y-121626285D01*
X149153571Y-121673904D01*
X149201190Y-121769142D01*
X149201190Y-122150095D01*
X148677380Y-121245333D02*
X149677380Y-120578666D01*
X148677380Y-120578666D02*
X149677380Y-121245333D01*
X143510095Y-120785000D02*
X143414857Y-120737380D01*
X143272000Y-120737380D01*
X143129142Y-120785000D01*
X143033904Y-120880238D01*
X142986285Y-120975476D01*
X142938666Y-121165952D01*
X142938666Y-121308809D01*
X142986285Y-121499285D01*
X143033904Y-121594523D01*
X143129142Y-121689761D01*
X143272000Y-121737380D01*
X143367238Y-121737380D01*
X143510095Y-121689761D01*
X143557714Y-121642142D01*
X143557714Y-121308809D01*
X143367238Y-121308809D01*
X143986285Y-121737380D02*
X143986285Y-120737380D01*
X144557714Y-121737380D01*
X144557714Y-120737380D01*
X145033904Y-121737380D02*
X145033904Y-120737380D01*
X145272000Y-120737380D01*
X145414857Y-120785000D01*
X145510095Y-120880238D01*
X145557714Y-120975476D01*
X145605333Y-121165952D01*
X145605333Y-121308809D01*
X145557714Y-121499285D01*
X145510095Y-121594523D01*
X145414857Y-121689761D01*
X145272000Y-121737380D01*
X145033904Y-121737380D01*
X160472428Y-123205714D02*
X160472428Y-122443809D01*
X160853380Y-122824761D02*
X160091476Y-122824761D01*
X159853380Y-121491428D02*
X159853380Y-121967619D01*
X160329571Y-122015238D01*
X160281952Y-121967619D01*
X160234333Y-121872380D01*
X160234333Y-121634285D01*
X160281952Y-121539047D01*
X160329571Y-121491428D01*
X160424809Y-121443809D01*
X160662904Y-121443809D01*
X160758142Y-121491428D01*
X160805761Y-121539047D01*
X160853380Y-121634285D01*
X160853380Y-121872380D01*
X160805761Y-121967619D01*
X160758142Y-122015238D01*
X159853380Y-121158095D02*
X160853380Y-120824761D01*
X159853380Y-120491428D01*
X146883428Y-123332714D02*
X146883428Y-122570809D01*
X147264380Y-122951761D02*
X146502476Y-122951761D01*
X146264380Y-121618428D02*
X146264380Y-122094619D01*
X146740571Y-122142238D01*
X146692952Y-122094619D01*
X146645333Y-121999380D01*
X146645333Y-121761285D01*
X146692952Y-121666047D01*
X146740571Y-121618428D01*
X146835809Y-121570809D01*
X147073904Y-121570809D01*
X147169142Y-121618428D01*
X147216761Y-121666047D01*
X147264380Y-121761285D01*
X147264380Y-121999380D01*
X147216761Y-122094619D01*
X147169142Y-122142238D01*
X146264380Y-121285095D02*
X147264380Y-120951761D01*
X146264380Y-120618428D01*
X157234000Y-122554904D02*
X157186380Y-122650142D01*
X157186380Y-122793000D01*
X157234000Y-122935857D01*
X157329238Y-123031095D01*
X157424476Y-123078714D01*
X157614952Y-123126333D01*
X157757809Y-123126333D01*
X157948285Y-123078714D01*
X158043523Y-123031095D01*
X158138761Y-122935857D01*
X158186380Y-122793000D01*
X158186380Y-122697761D01*
X158138761Y-122554904D01*
X158091142Y-122507285D01*
X157757809Y-122507285D01*
X157757809Y-122697761D01*
X158186380Y-122078714D02*
X157186380Y-122078714D01*
X158186380Y-121507285D01*
X157186380Y-121507285D01*
X158186380Y-121031095D02*
X157186380Y-121031095D01*
X157186380Y-120793000D01*
X157234000Y-120650142D01*
X157329238Y-120554904D01*
X157424476Y-120507285D01*
X157614952Y-120459666D01*
X157757809Y-120459666D01*
X157948285Y-120507285D01*
X158043523Y-120554904D01*
X158138761Y-120650142D01*
X158186380Y-120793000D01*
X158186380Y-121031095D01*
%TO.C,TP5*%
X127008095Y-90892380D02*
X127579523Y-90892380D01*
X127293809Y-91892380D02*
X127293809Y-90892380D01*
X127912857Y-91892380D02*
X127912857Y-90892380D01*
X128293809Y-90892380D01*
X128389047Y-90940000D01*
X128436666Y-90987619D01*
X128484285Y-91082857D01*
X128484285Y-91225714D01*
X128436666Y-91320952D01*
X128389047Y-91368571D01*
X128293809Y-91416190D01*
X127912857Y-91416190D01*
X129389047Y-90892380D02*
X128912857Y-90892380D01*
X128865238Y-91368571D01*
X128912857Y-91320952D01*
X129008095Y-91273333D01*
X129246190Y-91273333D01*
X129341428Y-91320952D01*
X129389047Y-91368571D01*
X129436666Y-91463809D01*
X129436666Y-91701904D01*
X129389047Y-91797142D01*
X129341428Y-91844761D01*
X129246190Y-91892380D01*
X129008095Y-91892380D01*
X128912857Y-91844761D01*
X128865238Y-91797142D01*
%TO.C,U2*%
X153543095Y-130952380D02*
X153543095Y-131761904D01*
X153590714Y-131857142D01*
X153638333Y-131904761D01*
X153733571Y-131952380D01*
X153924047Y-131952380D01*
X154019285Y-131904761D01*
X154066904Y-131857142D01*
X154114523Y-131761904D01*
X154114523Y-130952380D01*
X154543095Y-131047619D02*
X154590714Y-131000000D01*
X154685952Y-130952380D01*
X154924047Y-130952380D01*
X155019285Y-131000000D01*
X155066904Y-131047619D01*
X155114523Y-131142857D01*
X155114523Y-131238095D01*
X155066904Y-131380952D01*
X154495476Y-131952380D01*
X155114523Y-131952380D01*
%TO.C,R6*%
X165552380Y-89066666D02*
X165076190Y-89400000D01*
X165552380Y-89638095D02*
X164552380Y-89638095D01*
X164552380Y-89257142D01*
X164600000Y-89161904D01*
X164647619Y-89114285D01*
X164742857Y-89066666D01*
X164885714Y-89066666D01*
X164980952Y-89114285D01*
X165028571Y-89161904D01*
X165076190Y-89257142D01*
X165076190Y-89638095D01*
X164552380Y-88209523D02*
X164552380Y-88400000D01*
X164600000Y-88495238D01*
X164647619Y-88542857D01*
X164790476Y-88638095D01*
X164980952Y-88685714D01*
X165361904Y-88685714D01*
X165457142Y-88638095D01*
X165504761Y-88590476D01*
X165552380Y-88495238D01*
X165552380Y-88304761D01*
X165504761Y-88209523D01*
X165457142Y-88161904D01*
X165361904Y-88114285D01*
X165123809Y-88114285D01*
X165028571Y-88161904D01*
X164980952Y-88209523D01*
X164933333Y-88304761D01*
X164933333Y-88495238D01*
X164980952Y-88590476D01*
X165028571Y-88638095D01*
X165123809Y-88685714D01*
%TO.C,TP4*%
X132088095Y-108672380D02*
X132659523Y-108672380D01*
X132373809Y-109672380D02*
X132373809Y-108672380D01*
X132992857Y-109672380D02*
X132992857Y-108672380D01*
X133373809Y-108672380D01*
X133469047Y-108720000D01*
X133516666Y-108767619D01*
X133564285Y-108862857D01*
X133564285Y-109005714D01*
X133516666Y-109100952D01*
X133469047Y-109148571D01*
X133373809Y-109196190D01*
X132992857Y-109196190D01*
X134421428Y-109005714D02*
X134421428Y-109672380D01*
X134183333Y-108624761D02*
X133945238Y-109339047D01*
X134564285Y-109339047D01*
%TO.C,C3*%
X138787142Y-123991666D02*
X138834761Y-124039285D01*
X138882380Y-124182142D01*
X138882380Y-124277380D01*
X138834761Y-124420238D01*
X138739523Y-124515476D01*
X138644285Y-124563095D01*
X138453809Y-124610714D01*
X138310952Y-124610714D01*
X138120476Y-124563095D01*
X138025238Y-124515476D01*
X137930000Y-124420238D01*
X137882380Y-124277380D01*
X137882380Y-124182142D01*
X137930000Y-124039285D01*
X137977619Y-123991666D01*
X137882380Y-123658333D02*
X137882380Y-123039285D01*
X138263333Y-123372619D01*
X138263333Y-123229761D01*
X138310952Y-123134523D01*
X138358571Y-123086904D01*
X138453809Y-123039285D01*
X138691904Y-123039285D01*
X138787142Y-123086904D01*
X138834761Y-123134523D01*
X138882380Y-123229761D01*
X138882380Y-123515476D01*
X138834761Y-123610714D01*
X138787142Y-123658333D01*
%TO.C,R1*%
X123023333Y-105862380D02*
X122690000Y-105386190D01*
X122451904Y-105862380D02*
X122451904Y-104862380D01*
X122832857Y-104862380D01*
X122928095Y-104910000D01*
X122975714Y-104957619D01*
X123023333Y-105052857D01*
X123023333Y-105195714D01*
X122975714Y-105290952D01*
X122928095Y-105338571D01*
X122832857Y-105386190D01*
X122451904Y-105386190D01*
X123975714Y-105862380D02*
X123404285Y-105862380D01*
X123690000Y-105862380D02*
X123690000Y-104862380D01*
X123594761Y-105005238D01*
X123499523Y-105100476D01*
X123404285Y-105148095D01*
%TO.C,R7*%
X165172380Y-101766666D02*
X164696190Y-102100000D01*
X165172380Y-102338095D02*
X164172380Y-102338095D01*
X164172380Y-101957142D01*
X164220000Y-101861904D01*
X164267619Y-101814285D01*
X164362857Y-101766666D01*
X164505714Y-101766666D01*
X164600952Y-101814285D01*
X164648571Y-101861904D01*
X164696190Y-101957142D01*
X164696190Y-102338095D01*
X164172380Y-101433333D02*
X164172380Y-100766666D01*
X165172380Y-101195238D01*
%TO.C,C1*%
X164298333Y-124817142D02*
X164250714Y-124864761D01*
X164107857Y-124912380D01*
X164012619Y-124912380D01*
X163869761Y-124864761D01*
X163774523Y-124769523D01*
X163726904Y-124674285D01*
X163679285Y-124483809D01*
X163679285Y-124340952D01*
X163726904Y-124150476D01*
X163774523Y-124055238D01*
X163869761Y-123960000D01*
X164012619Y-123912380D01*
X164107857Y-123912380D01*
X164250714Y-123960000D01*
X164298333Y-124007619D01*
X165250714Y-124912380D02*
X164679285Y-124912380D01*
X164965000Y-124912380D02*
X164965000Y-123912380D01*
X164869761Y-124055238D01*
X164774523Y-124150476D01*
X164679285Y-124198095D01*
%TO.C,TP2*%
X163203095Y-77557380D02*
X163774523Y-77557380D01*
X163488809Y-78557380D02*
X163488809Y-77557380D01*
X164107857Y-78557380D02*
X164107857Y-77557380D01*
X164488809Y-77557380D01*
X164584047Y-77605000D01*
X164631666Y-77652619D01*
X164679285Y-77747857D01*
X164679285Y-77890714D01*
X164631666Y-77985952D01*
X164584047Y-78033571D01*
X164488809Y-78081190D01*
X164107857Y-78081190D01*
X165060238Y-77652619D02*
X165107857Y-77605000D01*
X165203095Y-77557380D01*
X165441190Y-77557380D01*
X165536428Y-77605000D01*
X165584047Y-77652619D01*
X165631666Y-77747857D01*
X165631666Y-77843095D01*
X165584047Y-77985952D01*
X165012619Y-78557380D01*
X165631666Y-78557380D01*
%TO.C,R5*%
X164933333Y-83002380D02*
X164600000Y-82526190D01*
X164361904Y-83002380D02*
X164361904Y-82002380D01*
X164742857Y-82002380D01*
X164838095Y-82050000D01*
X164885714Y-82097619D01*
X164933333Y-82192857D01*
X164933333Y-82335714D01*
X164885714Y-82430952D01*
X164838095Y-82478571D01*
X164742857Y-82526190D01*
X164361904Y-82526190D01*
X165838095Y-82002380D02*
X165361904Y-82002380D01*
X165314285Y-82478571D01*
X165361904Y-82430952D01*
X165457142Y-82383333D01*
X165695238Y-82383333D01*
X165790476Y-82430952D01*
X165838095Y-82478571D01*
X165885714Y-82573809D01*
X165885714Y-82811904D01*
X165838095Y-82907142D01*
X165790476Y-82954761D01*
X165695238Y-83002380D01*
X165457142Y-83002380D01*
X165361904Y-82954761D01*
X165314285Y-82907142D01*
%TO.C,Q1*%
X168814761Y-106567619D02*
X168719523Y-106520000D01*
X168624285Y-106424761D01*
X168481428Y-106281904D01*
X168386190Y-106234285D01*
X168290952Y-106234285D01*
X168338571Y-106472380D02*
X168243333Y-106424761D01*
X168148095Y-106329523D01*
X168100476Y-106139047D01*
X168100476Y-105805714D01*
X168148095Y-105615238D01*
X168243333Y-105520000D01*
X168338571Y-105472380D01*
X168529047Y-105472380D01*
X168624285Y-105520000D01*
X168719523Y-105615238D01*
X168767142Y-105805714D01*
X168767142Y-106139047D01*
X168719523Y-106329523D01*
X168624285Y-106424761D01*
X168529047Y-106472380D01*
X168338571Y-106472380D01*
X169719523Y-106472380D02*
X169148095Y-106472380D01*
X169433809Y-106472380D02*
X169433809Y-105472380D01*
X169338571Y-105615238D01*
X169243333Y-105710476D01*
X169148095Y-105758095D01*
%TO.C,TP3*%
X169553095Y-92797380D02*
X170124523Y-92797380D01*
X169838809Y-93797380D02*
X169838809Y-92797380D01*
X170457857Y-93797380D02*
X170457857Y-92797380D01*
X170838809Y-92797380D01*
X170934047Y-92845000D01*
X170981666Y-92892619D01*
X171029285Y-92987857D01*
X171029285Y-93130714D01*
X170981666Y-93225952D01*
X170934047Y-93273571D01*
X170838809Y-93321190D01*
X170457857Y-93321190D01*
X171362619Y-92797380D02*
X171981666Y-92797380D01*
X171648333Y-93178333D01*
X171791190Y-93178333D01*
X171886428Y-93225952D01*
X171934047Y-93273571D01*
X171981666Y-93368809D01*
X171981666Y-93606904D01*
X171934047Y-93702142D01*
X171886428Y-93749761D01*
X171791190Y-93797380D01*
X171505476Y-93797380D01*
X171410238Y-93749761D01*
X171362619Y-93702142D01*
%TO.C,TP7*%
X128913095Y-81367380D02*
X129484523Y-81367380D01*
X129198809Y-82367380D02*
X129198809Y-81367380D01*
X129817857Y-82367380D02*
X129817857Y-81367380D01*
X130198809Y-81367380D01*
X130294047Y-81415000D01*
X130341666Y-81462619D01*
X130389285Y-81557857D01*
X130389285Y-81700714D01*
X130341666Y-81795952D01*
X130294047Y-81843571D01*
X130198809Y-81891190D01*
X129817857Y-81891190D01*
X130722619Y-81367380D02*
X131389285Y-81367380D01*
X130960714Y-82367380D01*
%TO.C,C2*%
X161123333Y-129897142D02*
X161075714Y-129944761D01*
X160932857Y-129992380D01*
X160837619Y-129992380D01*
X160694761Y-129944761D01*
X160599523Y-129849523D01*
X160551904Y-129754285D01*
X160504285Y-129563809D01*
X160504285Y-129420952D01*
X160551904Y-129230476D01*
X160599523Y-129135238D01*
X160694761Y-129040000D01*
X160837619Y-128992380D01*
X160932857Y-128992380D01*
X161075714Y-129040000D01*
X161123333Y-129087619D01*
X161504285Y-129087619D02*
X161551904Y-129040000D01*
X161647142Y-128992380D01*
X161885238Y-128992380D01*
X161980476Y-129040000D01*
X162028095Y-129087619D01*
X162075714Y-129182857D01*
X162075714Y-129278095D01*
X162028095Y-129420952D01*
X161456666Y-129992380D01*
X162075714Y-129992380D01*
%TO.C,TP6*%
X132088095Y-102957380D02*
X132659523Y-102957380D01*
X132373809Y-103957380D02*
X132373809Y-102957380D01*
X132992857Y-103957380D02*
X132992857Y-102957380D01*
X133373809Y-102957380D01*
X133469047Y-103005000D01*
X133516666Y-103052619D01*
X133564285Y-103147857D01*
X133564285Y-103290714D01*
X133516666Y-103385952D01*
X133469047Y-103433571D01*
X133373809Y-103481190D01*
X132992857Y-103481190D01*
X134421428Y-102957380D02*
X134230952Y-102957380D01*
X134135714Y-103005000D01*
X134088095Y-103052619D01*
X133992857Y-103195476D01*
X133945238Y-103385952D01*
X133945238Y-103766904D01*
X133992857Y-103862142D01*
X134040476Y-103909761D01*
X134135714Y-103957380D01*
X134326190Y-103957380D01*
X134421428Y-103909761D01*
X134469047Y-103862142D01*
X134516666Y-103766904D01*
X134516666Y-103528809D01*
X134469047Y-103433571D01*
X134421428Y-103385952D01*
X134326190Y-103338333D01*
X134135714Y-103338333D01*
X134040476Y-103385952D01*
X133992857Y-103433571D01*
X133945238Y-103528809D01*
%TO.C,TP1*%
X170823095Y-78192380D02*
X171394523Y-78192380D01*
X171108809Y-79192380D02*
X171108809Y-78192380D01*
X171727857Y-79192380D02*
X171727857Y-78192380D01*
X172108809Y-78192380D01*
X172204047Y-78240000D01*
X172251666Y-78287619D01*
X172299285Y-78382857D01*
X172299285Y-78525714D01*
X172251666Y-78620952D01*
X172204047Y-78668571D01*
X172108809Y-78716190D01*
X171727857Y-78716190D01*
X173251666Y-79192380D02*
X172680238Y-79192380D01*
X172965952Y-79192380D02*
X172965952Y-78192380D01*
X172870714Y-78335238D01*
X172775476Y-78430476D01*
X172680238Y-78478095D01*
%TO.C,BZ1*%
X168653571Y-102986737D02*
X168701190Y-102843880D01*
X168748809Y-102796261D01*
X168844047Y-102748642D01*
X168986904Y-102748642D01*
X169082142Y-102796261D01*
X169129761Y-102843880D01*
X169177380Y-102939118D01*
X169177380Y-103320070D01*
X168177380Y-103320070D01*
X168177380Y-102986737D01*
X168225000Y-102891499D01*
X168272619Y-102843880D01*
X168367857Y-102796261D01*
X168463095Y-102796261D01*
X168558333Y-102843880D01*
X168605952Y-102891499D01*
X168653571Y-102986737D01*
X168653571Y-103320070D01*
X168177380Y-102415308D02*
X168177380Y-101748642D01*
X169177380Y-102415308D01*
X169177380Y-101748642D01*
X169177380Y-100843880D02*
X169177380Y-101415308D01*
X169177380Y-101129594D02*
X168177380Y-101129594D01*
X168320238Y-101224832D01*
X168415476Y-101320070D01*
X168463095Y-101415308D01*
D11*
%TO.C,R4*%
X141197064Y-82650000D02*
X140742936Y-82650000D01*
X141197064Y-81180000D02*
X140742936Y-81180000D01*
%TO.C,TP5*%
X130020000Y-88265000D02*
G75*
G03*
X130020000Y-88265000I-1750000J0D01*
G01*
%TO.C,D2*%
X152560000Y-95040000D02*
X159860000Y-95040000D01*
X152560000Y-100540000D02*
X159860000Y-100540000D01*
X159860000Y-100540000D02*
X159860000Y-99390000D01*
%TO.C,D1*%
X144940000Y-100540000D02*
X152240000Y-100540000D01*
X152240000Y-100540000D02*
X152240000Y-99390000D01*
X144940000Y-95040000D02*
X152240000Y-95040000D01*
%TO.C,U2*%
X156155000Y-123590000D02*
X152395000Y-123590000D01*
X158405000Y-130410000D02*
X152395000Y-130410000D01*
X152395000Y-123590000D02*
X152395000Y-124850000D01*
X152395000Y-130410000D02*
X152395000Y-129150000D01*
%TO.C,R6*%
X163930000Y-89127064D02*
X163930000Y-88672936D01*
X162460000Y-89127064D02*
X162460000Y-88672936D01*
%TO.C,TP4*%
X135100000Y-106045000D02*
G75*
G03*
X135100000Y-106045000I-1750000J0D01*
G01*
%TO.C,C3*%
X141200000Y-127106000D02*
X139099000Y-127106000D01*
X141200000Y-127186000D02*
X139119000Y-127186000D01*
X141200000Y-127506000D02*
X139222000Y-127506000D01*
X141200000Y-128186000D02*
X139576000Y-128186000D01*
X144545000Y-128626000D02*
X143280000Y-128626000D01*
X145350000Y-127226000D02*
X143280000Y-127226000D01*
X141200000Y-128026000D02*
X139474000Y-128026000D01*
X141200000Y-127626000D02*
X139270000Y-127626000D01*
X141200000Y-127586000D02*
X139254000Y-127586000D01*
X141200000Y-127466000D02*
X139207000Y-127466000D01*
X144788000Y-128346000D02*
X143280000Y-128346000D01*
X145242000Y-127546000D02*
X143280000Y-127546000D01*
X141200000Y-128426000D02*
X139756000Y-128426000D01*
X145451000Y-126705000D02*
X143280000Y-126705000D01*
X145006000Y-128026000D02*
X143280000Y-128026000D01*
X145136000Y-127786000D02*
X143280000Y-127786000D01*
X141200000Y-128226000D02*
X139604000Y-128226000D01*
X145361000Y-127186000D02*
X143280000Y-127186000D01*
X145116000Y-127826000D02*
X143280000Y-127826000D01*
X141200000Y-127546000D02*
X139238000Y-127546000D01*
X141200000Y-126585000D02*
X139018000Y-126585000D01*
X141200000Y-127306000D02*
X139154000Y-127306000D01*
X141200000Y-128586000D02*
X139897000Y-128586000D01*
X144394000Y-123159759D02*
X143764000Y-123159759D01*
X144583000Y-128586000D02*
X143280000Y-128586000D01*
X141200000Y-126665000D02*
X139025000Y-126665000D01*
X141200000Y-126945000D02*
X139065000Y-126945000D01*
X144016000Y-129066000D02*
X140464000Y-129066000D01*
X141200000Y-127025000D02*
X139081000Y-127025000D01*
X145192000Y-127666000D02*
X143280000Y-127666000D01*
X145458000Y-126625000D02*
X143280000Y-126625000D01*
X145371000Y-127146000D02*
X143280000Y-127146000D01*
X145455000Y-126665000D02*
X143280000Y-126665000D01*
X144422000Y-128746000D02*
X140058000Y-128746000D01*
X145301000Y-127386000D02*
X143280000Y-127386000D01*
X141200000Y-127266000D02*
X139142000Y-127266000D01*
X141200000Y-127706000D02*
X139306000Y-127706000D01*
X143299000Y-129426000D02*
X141181000Y-129426000D01*
X145030000Y-127986000D02*
X143280000Y-127986000D01*
X143672000Y-129266000D02*
X140808000Y-129266000D01*
X141200000Y-127066000D02*
X139090000Y-127066000D01*
X144982000Y-128066000D02*
X143280000Y-128066000D01*
X141200000Y-127746000D02*
X139324000Y-127746000D01*
X141200000Y-126905000D02*
X139058000Y-126905000D01*
X141200000Y-128266000D02*
X139633000Y-128266000D01*
X144130000Y-128986000D02*
X140350000Y-128986000D01*
X144690000Y-128466000D02*
X143280000Y-128466000D01*
X142873000Y-129546000D02*
X141607000Y-129546000D01*
X141200000Y-127666000D02*
X139288000Y-127666000D01*
X145441000Y-126785000D02*
X143280000Y-126785000D01*
X143749000Y-129226000D02*
X140731000Y-129226000D01*
X145446000Y-126745000D02*
X143280000Y-126745000D01*
X144620000Y-128546000D02*
X143280000Y-128546000D01*
X141200000Y-126865000D02*
X139051000Y-126865000D01*
X143180000Y-129466000D02*
X141300000Y-129466000D01*
X144956000Y-128106000D02*
X143280000Y-128106000D01*
X145407000Y-126985000D02*
X143280000Y-126985000D01*
X143821000Y-129186000D02*
X140659000Y-129186000D01*
X144756000Y-128386000D02*
X143280000Y-128386000D01*
X143042000Y-129506000D02*
X141438000Y-129506000D01*
X142642000Y-129586000D02*
X141838000Y-129586000D01*
X145390000Y-127066000D02*
X143280000Y-127066000D01*
X141200000Y-127986000D02*
X139450000Y-127986000D01*
X144235000Y-128906000D02*
X140245000Y-128906000D01*
X144464000Y-128706000D02*
X140016000Y-128706000D01*
X141200000Y-126745000D02*
X139034000Y-126745000D01*
X144876000Y-128226000D02*
X143280000Y-128226000D01*
X141200000Y-128386000D02*
X139724000Y-128386000D01*
X145464000Y-126545000D02*
X139016000Y-126545000D01*
X141200000Y-126705000D02*
X139029000Y-126705000D01*
X141200000Y-127786000D02*
X139344000Y-127786000D01*
X144074000Y-129026000D02*
X140406000Y-129026000D01*
X145156000Y-127746000D02*
X143280000Y-127746000D01*
X145096000Y-127866000D02*
X143280000Y-127866000D01*
X141200000Y-126825000D02*
X139045000Y-126825000D01*
X145074000Y-127906000D02*
X143280000Y-127906000D01*
X145273000Y-127466000D02*
X143280000Y-127466000D01*
X145422000Y-126905000D02*
X143280000Y-126905000D01*
X141200000Y-128506000D02*
X139824000Y-128506000D01*
X144079000Y-122844759D02*
X144079000Y-123474759D01*
X145052000Y-127946000D02*
X143280000Y-127946000D01*
X141200000Y-126985000D02*
X139073000Y-126985000D01*
X144818000Y-128306000D02*
X143280000Y-128306000D01*
X141200000Y-126785000D02*
X139039000Y-126785000D01*
X145429000Y-126865000D02*
X143280000Y-126865000D01*
X145470000Y-126425000D02*
X139010000Y-126425000D01*
X141200000Y-127946000D02*
X139428000Y-127946000D01*
X145287000Y-127426000D02*
X143280000Y-127426000D01*
X143890000Y-129146000D02*
X140590000Y-129146000D01*
X145468000Y-126465000D02*
X139012000Y-126465000D01*
X145462000Y-126585000D02*
X143280000Y-126585000D01*
X145338000Y-127266000D02*
X143280000Y-127266000D01*
X143590000Y-129306000D02*
X140890000Y-129306000D01*
X144930000Y-128146000D02*
X143280000Y-128146000D01*
X145381000Y-127106000D02*
X143280000Y-127106000D01*
X141200000Y-128466000D02*
X139790000Y-128466000D01*
X141200000Y-128626000D02*
X139935000Y-128626000D01*
X145399000Y-127025000D02*
X143280000Y-127025000D01*
X141200000Y-128146000D02*
X139550000Y-128146000D01*
X145470000Y-126345000D02*
X139010000Y-126345000D01*
X141200000Y-128306000D02*
X139662000Y-128306000D01*
X145326000Y-127306000D02*
X143280000Y-127306000D01*
X145467000Y-126505000D02*
X139013000Y-126505000D01*
X141200000Y-128066000D02*
X139498000Y-128066000D01*
X145470000Y-126385000D02*
X139010000Y-126385000D01*
X141200000Y-127866000D02*
X139384000Y-127866000D01*
X143954000Y-129106000D02*
X140526000Y-129106000D01*
X144284000Y-128866000D02*
X140196000Y-128866000D01*
X145210000Y-127626000D02*
X143280000Y-127626000D01*
X141200000Y-127826000D02*
X139364000Y-127826000D01*
X143502000Y-129346000D02*
X140978000Y-129346000D01*
X141200000Y-128546000D02*
X139860000Y-128546000D01*
X144656000Y-128506000D02*
X143280000Y-128506000D01*
X141200000Y-127146000D02*
X139109000Y-127146000D01*
X144724000Y-128426000D02*
X143280000Y-128426000D01*
X141200000Y-126625000D02*
X139022000Y-126625000D01*
X141200000Y-127226000D02*
X139130000Y-127226000D01*
X144184000Y-128946000D02*
X140296000Y-128946000D01*
X141200000Y-127346000D02*
X139166000Y-127346000D01*
X145415000Y-126945000D02*
X143280000Y-126945000D01*
X145174000Y-127706000D02*
X143280000Y-127706000D01*
X141200000Y-127386000D02*
X139179000Y-127386000D01*
X145258000Y-127506000D02*
X143280000Y-127506000D01*
X141200000Y-128106000D02*
X139524000Y-128106000D01*
X141200000Y-127906000D02*
X139406000Y-127906000D01*
X144904000Y-128186000D02*
X143280000Y-128186000D01*
X141200000Y-128346000D02*
X139692000Y-128346000D01*
X145314000Y-127346000D02*
X143280000Y-127346000D01*
X144377000Y-128786000D02*
X140103000Y-128786000D01*
X145435000Y-126825000D02*
X143280000Y-126825000D01*
X141200000Y-127426000D02*
X139193000Y-127426000D01*
X144505000Y-128666000D02*
X139975000Y-128666000D01*
X144847000Y-128266000D02*
X143280000Y-128266000D01*
X143405000Y-129386000D02*
X141075000Y-129386000D01*
X145226000Y-127586000D02*
X143280000Y-127586000D01*
X144332000Y-128826000D02*
X140148000Y-128826000D01*
X145510000Y-126345000D02*
G75*
G03*
X145510000Y-126345000I-3270000J0D01*
G01*
%TO.C,C5*%
X142501252Y-95785000D02*
X141978748Y-95785000D01*
X142501252Y-97255000D02*
X141978748Y-97255000D01*
%TO.C,R1*%
X121040000Y-103150000D02*
X121040000Y-100100000D01*
X125340000Y-103150000D02*
X125340000Y-100100000D01*
X125308249Y-100055487D02*
G75*
G03*
X121040000Y-100100000I-2118249J-1544512D01*
G01*
X121024475Y-103128234D02*
G75*
G03*
X125340000Y-103150000I2165525J1528233D01*
G01*
%TO.C,R7*%
X167105000Y-101827064D02*
X167105000Y-101372936D01*
X165635000Y-101827064D02*
X165635000Y-101372936D01*
%TO.C,C1*%
X161028748Y-123725000D02*
X161551252Y-123725000D01*
X161028748Y-125195000D02*
X161551252Y-125195000D01*
%TO.C,TP2*%
X166215000Y-74930000D02*
G75*
G03*
X166215000Y-74930000I-1750000J0D01*
G01*
%TO.C,R5*%
X162460000Y-85317064D02*
X162460000Y-84862936D01*
X163930000Y-85317064D02*
X163930000Y-84862936D01*
%TO.C,C7*%
X143136252Y-104875000D02*
X142613748Y-104875000D01*
X143136252Y-103405000D02*
X142613748Y-103405000D01*
%TO.C,Q1*%
X167110000Y-111430000D02*
X170710000Y-111430000D01*
X168910000Y-106979999D02*
G75*
G03*
X167071522Y-111418478I0J-2600001D01*
G01*
X170748478Y-111418478D02*
G75*
G03*
X168910000Y-106980000I-1838478J1838478D01*
G01*
%TO.C,C6*%
X162025000Y-97528748D02*
X162025000Y-98051252D01*
X160555000Y-97528748D02*
X160555000Y-98051252D01*
%TO.C,C8*%
X160555000Y-104513748D02*
X160555000Y-105036252D01*
X162025000Y-104513748D02*
X162025000Y-105036252D01*
%TO.C,R3*%
X141197064Y-74830000D02*
X140742936Y-74830000D01*
X141197064Y-76300000D02*
X140742936Y-76300000D01*
%TO.C,TP3*%
X168120000Y-93345000D02*
G75*
G03*
X168120000Y-93345000I-1750000J0D01*
G01*
%TO.C,TP7*%
X135100000Y-79375000D02*
G75*
G03*
X135100000Y-79375000I-1750000J0D01*
G01*
%TO.C,C2*%
X161028748Y-126265000D02*
X161551252Y-126265000D01*
X161028748Y-127735000D02*
X161551252Y-127735000D01*
%TO.C,TP6*%
X135100000Y-100330000D02*
G75*
G03*
X135100000Y-100330000I-1750000J0D01*
G01*
%TO.C,U1*%
X146400000Y-91495000D02*
X144280000Y-91495000D01*
X144280000Y-67255000D02*
X160520000Y-67255000D01*
X144280000Y-74875000D02*
X144280000Y-67255000D01*
X160520000Y-90875000D02*
X160520000Y-91495000D01*
X160520000Y-91495000D02*
X158400000Y-91495000D01*
X144280000Y-91495000D02*
X144280000Y-90875000D01*
X160520000Y-67255000D02*
X160520000Y-74875000D01*
X144280000Y-74875000D02*
X143670000Y-74875000D01*
%TO.C,D4*%
X152560000Y-108160000D02*
X159860000Y-108160000D01*
X152560000Y-102660000D02*
X159860000Y-102660000D01*
X159860000Y-108160000D02*
X159860000Y-107010000D01*
%TO.C,TP1*%
X170025000Y-77470000D02*
G75*
G03*
X170025000Y-77470000I-1750000J0D01*
G01*
%TO.C,D3*%
X144940000Y-102660000D02*
X152240000Y-102660000D01*
X144940000Y-108160000D02*
X152240000Y-108160000D01*
X152240000Y-108160000D02*
X152240000Y-107010000D01*
%TO.C,R2*%
X141197064Y-78840000D02*
X140742936Y-78840000D01*
X141197064Y-77370000D02*
X140742936Y-77370000D01*
%TO.C,BZ1*%
X174395000Y-108505785D02*
G75*
G03*
X177394999Y-108505785I1499999J6400010D01*
G01*
X182125000Y-102105785D02*
G75*
G03*
X182125000Y-102105785I-6230000J0D01*
G01*
%TD*%
M02*
