%TF.GenerationSoftware,KiCad,Pcbnew,(6.0.1)*%
%TF.CreationDate,2022-02-03T04:09:52+01:00*%
%TF.ProjectId,ESP8266_12F_BASIC,45535038-3236-4365-9f31-32465f424153,rev?*%
%TF.SameCoordinates,Original*%
%TF.FileFunction,Legend,Bot*%
%TF.FilePolarity,Positive*%
%FSLAX46Y46*%
G04 Gerber Fmt 4.6, Leading zero omitted, Abs format (unit mm)*
G04 Created by KiCad (PCBNEW (6.0.1)) date 2022-02-03 04:09:52*
%MOMM*%
%LPD*%
G01*
G04 APERTURE LIST*
%ADD10C,0.150000*%
%ADD11C,0.120000*%
G04 APERTURE END LIST*
D10*
%TO.C,J1*%
X159337333Y-114774380D02*
X159337333Y-115488666D01*
X159384952Y-115631523D01*
X159480190Y-115726761D01*
X159623047Y-115774380D01*
X159718285Y-115774380D01*
X158337333Y-115774380D02*
X158908761Y-115774380D01*
X158623047Y-115774380D02*
X158623047Y-114774380D01*
X158718285Y-114917238D01*
X158813523Y-115012476D01*
X158908761Y-115060095D01*
%TO.C,J2*%
X148348333Y-114774380D02*
X148348333Y-115488666D01*
X148395952Y-115631523D01*
X148491190Y-115726761D01*
X148634047Y-115774380D01*
X148729285Y-115774380D01*
X147919761Y-114869619D02*
X147872142Y-114822000D01*
X147776904Y-114774380D01*
X147538809Y-114774380D01*
X147443571Y-114822000D01*
X147395952Y-114869619D01*
X147348333Y-114964857D01*
X147348333Y-115060095D01*
X147395952Y-115202952D01*
X147967380Y-115774380D01*
X147348333Y-115774380D01*
D11*
%TO.C,J1*%
X163104000Y-116122000D02*
X163104000Y-117372000D01*
X162054000Y-121622000D02*
X159004000Y-121622000D01*
X161004000Y-116422000D02*
X162804000Y-116422000D01*
X155194000Y-116412000D02*
X162814000Y-116412000D01*
X162804000Y-117172000D02*
X161004000Y-117172000D01*
X162814000Y-116412000D02*
X162814000Y-122382000D01*
X155204000Y-117172000D02*
X155204000Y-116422000D01*
X155204000Y-118672000D02*
X155954000Y-118672000D01*
X155954000Y-121622000D02*
X159004000Y-121622000D01*
X155954000Y-118672000D02*
X155954000Y-121622000D01*
X162814000Y-122382000D02*
X155194000Y-122382000D01*
X159504000Y-116422000D02*
X159504000Y-117172000D01*
X158504000Y-117172000D02*
X158504000Y-116422000D01*
X157004000Y-117172000D02*
X155204000Y-117172000D01*
X161854000Y-116122000D02*
X163104000Y-116122000D01*
X162804000Y-116422000D02*
X162804000Y-117172000D01*
X157004000Y-116422000D02*
X157004000Y-117172000D01*
X161004000Y-117172000D02*
X161004000Y-116422000D01*
X155204000Y-116422000D02*
X157004000Y-116422000D01*
X155194000Y-122382000D02*
X155194000Y-116412000D01*
X162054000Y-118672000D02*
X162054000Y-121622000D01*
X159504000Y-117172000D02*
X158504000Y-117172000D01*
X162804000Y-118672000D02*
X162054000Y-118672000D01*
X158504000Y-116422000D02*
X159504000Y-116422000D01*
%TO.C,J2*%
X145015000Y-116422000D02*
X151015000Y-116422000D01*
X142465000Y-121622000D02*
X148015000Y-121622000D01*
X153565000Y-118672000D02*
X153565000Y-121622000D01*
X141705000Y-116412000D02*
X154325000Y-116412000D01*
X143515000Y-117172000D02*
X141715000Y-117172000D01*
X145015000Y-117172000D02*
X145015000Y-116422000D01*
X154315000Y-117172000D02*
X152515000Y-117172000D01*
X154325000Y-116412000D02*
X154325000Y-122382000D01*
X152515000Y-116422000D02*
X154315000Y-116422000D01*
X141705000Y-122382000D02*
X141705000Y-116412000D01*
X141715000Y-118672000D02*
X142465000Y-118672000D01*
X152515000Y-117172000D02*
X152515000Y-116422000D01*
X154325000Y-122382000D02*
X141705000Y-122382000D01*
X143515000Y-116422000D02*
X143515000Y-117172000D01*
X141715000Y-116422000D02*
X143515000Y-116422000D01*
X153365000Y-116122000D02*
X154615000Y-116122000D01*
X142465000Y-118672000D02*
X142465000Y-121622000D01*
X141715000Y-117172000D02*
X141715000Y-116422000D01*
X153565000Y-121622000D02*
X148015000Y-121622000D01*
X154315000Y-116422000D02*
X154315000Y-117172000D01*
X154315000Y-118672000D02*
X153565000Y-118672000D01*
X151015000Y-117172000D02*
X145015000Y-117172000D01*
X154615000Y-116122000D02*
X154615000Y-117372000D01*
X151015000Y-116422000D02*
X151015000Y-117172000D01*
%TD*%
M02*
