%TF.GenerationSoftware,KiCad,Pcbnew,(6.0.1)*%
%TF.CreationDate,2022-02-03T22:35:59+01:00*%
%TF.ProjectId,ESP8266_12F_BASIC,45535038-3236-4365-9f31-32465f424153,rev?*%
%TF.SameCoordinates,Original*%
%TF.FileFunction,Paste,Top*%
%TF.FilePolarity,Positive*%
%FSLAX46Y46*%
G04 Gerber Fmt 4.6, Leading zero omitted, Abs format (unit mm)*
G04 Created by KiCad (PCBNEW (6.0.1)) date 2022-02-03 22:35:59*
%MOMM*%
%LPD*%
G01*
G04 APERTURE LIST*
G04 Aperture macros list*
%AMRoundRect*
0 Rectangle with rounded corners*
0 $1 Rounding radius*
0 $2 $3 $4 $5 $6 $7 $8 $9 X,Y pos of 4 corners*
0 Add a 4 corners polygon primitive as box body*
4,1,4,$2,$3,$4,$5,$6,$7,$8,$9,$2,$3,0*
0 Add four circle primitives for the rounded corners*
1,1,$1+$1,$2,$3*
1,1,$1+$1,$4,$5*
1,1,$1+$1,$6,$7*
1,1,$1+$1,$8,$9*
0 Add four rect primitives between the rounded corners*
20,1,$1+$1,$2,$3,$4,$5,0*
20,1,$1+$1,$4,$5,$6,$7,0*
20,1,$1+$1,$6,$7,$8,$9,0*
20,1,$1+$1,$8,$9,$2,$3,0*%
G04 Aperture macros list end*
%ADD10RoundRect,0.250000X0.350000X0.450000X-0.350000X0.450000X-0.350000X-0.450000X0.350000X-0.450000X0*%
%ADD11R,1.500000X1.000000*%
%ADD12R,2.000000X1.500000*%
%ADD13R,2.000000X3.800000*%
%ADD14RoundRect,0.250000X0.450000X-0.350000X0.450000X0.350000X-0.450000X0.350000X-0.450000X-0.350000X0*%
%ADD15RoundRect,0.250000X-0.412500X-0.650000X0.412500X-0.650000X0.412500X0.650000X-0.412500X0.650000X0*%
%ADD16RoundRect,0.250000X0.337500X0.475000X-0.337500X0.475000X-0.337500X-0.475000X0.337500X-0.475000X0*%
%ADD17RoundRect,0.250000X-0.337500X-0.475000X0.337500X-0.475000X0.337500X0.475000X-0.337500X0.475000X0*%
%ADD18RoundRect,0.250000X-0.475000X0.337500X-0.475000X-0.337500X0.475000X-0.337500X0.475000X0.337500X0*%
%ADD19R,2.500000X1.000000*%
%ADD20R,1.000000X1.800000*%
G04 APERTURE END LIST*
D10*
%TO.C,R4*%
X141970000Y-81915000D03*
X139970000Y-81915000D03*
%TD*%
D11*
%TO.C,D2*%
X153760000Y-96190000D03*
X153760000Y-99390000D03*
X158660000Y-99390000D03*
X158660000Y-96190000D03*
%TD*%
%TO.C,D1*%
X146140000Y-96190000D03*
X146140000Y-99390000D03*
X151040000Y-99390000D03*
X151040000Y-96190000D03*
%TD*%
D12*
%TO.C,U2*%
X157455000Y-129300000D03*
X157455000Y-127000000D03*
D13*
X151155000Y-127000000D03*
D12*
X157455000Y-124700000D03*
%TD*%
D14*
%TO.C,R6*%
X163195000Y-89900000D03*
X163195000Y-87900000D03*
%TD*%
D15*
%TO.C,C4*%
X137629500Y-98806000D03*
X140754500Y-98806000D03*
%TD*%
D16*
%TO.C,C5*%
X143277500Y-96520000D03*
X141202500Y-96520000D03*
%TD*%
D14*
%TO.C,R7*%
X166370000Y-102600000D03*
X166370000Y-100600000D03*
%TD*%
D17*
%TO.C,C1*%
X160252500Y-124460000D03*
X162327500Y-124460000D03*
%TD*%
D14*
%TO.C,R5*%
X163195000Y-86090000D03*
X163195000Y-84090000D03*
%TD*%
D16*
%TO.C,C7*%
X143912500Y-104140000D03*
X141837500Y-104140000D03*
%TD*%
D18*
%TO.C,C6*%
X161290000Y-96752500D03*
X161290000Y-98827500D03*
%TD*%
%TO.C,C8*%
X161290000Y-103737500D03*
X161290000Y-105812500D03*
%TD*%
D14*
%TO.C,R2*%
X123698000Y-106918000D03*
X123698000Y-104918000D03*
%TD*%
D10*
%TO.C,R3*%
X141970000Y-75565000D03*
X139970000Y-75565000D03*
%TD*%
D17*
%TO.C,C2*%
X160252500Y-127000000D03*
X162327500Y-127000000D03*
%TD*%
D19*
%TO.C,U1*%
X144800000Y-75875000D03*
X144800000Y-77875000D03*
X144800000Y-79875000D03*
X144800000Y-81875000D03*
X144800000Y-83875000D03*
X144800000Y-85875000D03*
X144800000Y-87875000D03*
X144800000Y-89875000D03*
D20*
X147400000Y-91375000D03*
X149400000Y-91375000D03*
X151400000Y-91375000D03*
X153400000Y-91375000D03*
X155400000Y-91375000D03*
X157400000Y-91375000D03*
D19*
X160000000Y-89875000D03*
X160000000Y-87875000D03*
X160000000Y-85875000D03*
X160000000Y-83875000D03*
X160000000Y-81875000D03*
X160000000Y-79875000D03*
X160000000Y-77875000D03*
X160000000Y-75875000D03*
%TD*%
D11*
%TO.C,D4*%
X153760000Y-103810000D03*
X153760000Y-107010000D03*
X158660000Y-107010000D03*
X158660000Y-103810000D03*
%TD*%
%TO.C,D3*%
X146140000Y-103810000D03*
X146140000Y-107010000D03*
X151040000Y-107010000D03*
X151040000Y-103810000D03*
%TD*%
D10*
%TO.C,R2*%
X141970000Y-78105000D03*
X139970000Y-78105000D03*
%TD*%
M02*
